G04 #@! TF.GenerationSoftware,KiCad,Pcbnew,8.0.1*
G04 #@! TF.CreationDate,2024-07-15T10:08:48+02:00*
G04 #@! TF.ProjectId,RGB 2x2 with WS2811,52474220-3278-4322-9077-697468205753,rev?*
G04 #@! TF.SameCoordinates,Original*
G04 #@! TF.FileFunction,Soldermask,Top*
G04 #@! TF.FilePolarity,Negative*
%FSLAX46Y46*%
G04 Gerber Fmt 4.6, Leading zero omitted, Abs format (unit mm)*
G04 Created by KiCad (PCBNEW 8.0.1) date 2024-07-15 10:08:48*
%MOMM*%
%LPD*%
G01*
G04 APERTURE LIST*
G04 Aperture macros list*
%AMRoundRect*
0 Rectangle with rounded corners*
0 $1 Rounding radius*
0 $2 $3 $4 $5 $6 $7 $8 $9 X,Y pos of 4 corners*
0 Add a 4 corners polygon primitive as box body*
4,1,4,$2,$3,$4,$5,$6,$7,$8,$9,$2,$3,0*
0 Add four circle primitives for the rounded corners*
1,1,$1+$1,$2,$3*
1,1,$1+$1,$4,$5*
1,1,$1+$1,$6,$7*
1,1,$1+$1,$8,$9*
0 Add four rect primitives between the rounded corners*
20,1,$1+$1,$2,$3,$4,$5,0*
20,1,$1+$1,$4,$5,$6,$7,0*
20,1,$1+$1,$6,$7,$8,$9,0*
20,1,$1+$1,$8,$9,$2,$3,0*%
G04 Aperture macros list end*
%ADD10RoundRect,0.250000X-0.475000X0.337500X-0.475000X-0.337500X0.475000X-0.337500X0.475000X0.337500X0*%
%ADD11R,1.700000X1.700000*%
%ADD12O,1.700000X1.700000*%
%ADD13RoundRect,0.425000X0.425000X0.425000X-0.425000X0.425000X-0.425000X-0.425000X0.425000X-0.425000X0*%
%ADD14RoundRect,0.250000X-0.450000X0.350000X-0.450000X-0.350000X0.450000X-0.350000X0.450000X0.350000X0*%
%ADD15RoundRect,0.250000X0.450000X-0.350000X0.450000X0.350000X-0.450000X0.350000X-0.450000X-0.350000X0*%
%ADD16RoundRect,0.150000X-0.150000X0.825000X-0.150000X-0.825000X0.150000X-0.825000X0.150000X0.825000X0*%
%ADD17R,2.300000X2.300000*%
%ADD18C,2.200000*%
%ADD19RoundRect,0.250000X-0.350000X-0.450000X0.350000X-0.450000X0.350000X0.450000X-0.350000X0.450000X0*%
%ADD20O,3.500000X2.200000*%
%ADD21O,2.500000X1.500000*%
%ADD22R,2.500000X1.500000*%
%ADD23RoundRect,0.250000X0.475000X-0.337500X0.475000X0.337500X-0.475000X0.337500X-0.475000X-0.337500X0*%
%ADD24C,1.800000*%
%ADD25C,3.500000*%
%ADD26C,2.600000*%
%ADD27R,1.600000X1.600000*%
%ADD28O,1.600000X1.600000*%
%ADD29RoundRect,0.304347X-0.395653X0.945653X-0.395653X-0.945653X0.395653X-0.945653X0.395653X0.945653X0*%
%ADD30R,1.800000X1.800000*%
G04 APERTURE END LIST*
D10*
G04 #@! TO.C,C4*
X127017268Y-47027491D03*
X127017268Y-49102491D03*
G04 #@! TD*
D11*
G04 #@! TO.C,J1*
X154433269Y-67930489D03*
D12*
X154433269Y-65390489D03*
X154433269Y-62850490D03*
X154433269Y-60310489D03*
G04 #@! TD*
D10*
G04 #@! TO.C,C2*
X145543268Y-53123491D03*
X145543268Y-55198491D03*
G04 #@! TD*
D13*
G04 #@! TO.C,REF\u002A\u002A*
X128017269Y-69962492D03*
G04 #@! TD*
D10*
G04 #@! TO.C,C1*
X136161268Y-47027491D03*
X136161268Y-49102491D03*
G04 #@! TD*
D13*
G04 #@! TO.C,REF\u002A\u002A*
X128017269Y-67422491D03*
G04 #@! TD*
D14*
G04 #@! TO.C,R6*
X142241268Y-53160991D03*
X142241268Y-55160991D03*
G04 #@! TD*
D13*
G04 #@! TO.C,REF\u002A\u002A*
X130557269Y-67422491D03*
G04 #@! TD*
D15*
G04 #@! TO.C,R2*
X139955268Y-55160991D03*
X139955268Y-53160991D03*
G04 #@! TD*
D14*
G04 #@! TO.C,R4*
X122191268Y-53144991D03*
X122191268Y-55144991D03*
G04 #@! TD*
D13*
G04 #@! TO.C,REF\u002A\u002A*
X138177268Y-67422491D03*
G04 #@! TD*
G04 #@! TO.C,REF\u002A\u002A*
X135637267Y-72502491D03*
G04 #@! TD*
D15*
G04 #@! TO.C,R1*
X148845268Y-55198491D03*
X148845268Y-53198491D03*
G04 #@! TD*
D13*
G04 #@! TO.C,REF\u002A\u002A*
X133097268Y-67422491D03*
G04 #@! TD*
D16*
G04 #@! TO.C,U3*
X143587268Y-45544491D03*
X142317268Y-45544491D03*
X141047268Y-45544491D03*
X139777268Y-45544491D03*
X139777268Y-50494491D03*
X141047268Y-50494491D03*
X142317268Y-50494491D03*
X143587268Y-50494491D03*
D17*
X141682268Y-48019491D03*
G04 #@! TD*
D13*
G04 #@! TO.C,REF\u002A\u002A*
X133097269Y-72502491D03*
G04 #@! TD*
G04 #@! TO.C,REF\u002A\u002A*
X130557268Y-72502491D03*
G04 #@! TD*
D18*
G04 #@! TO.C,REF\u002A\u002A*
X156973269Y-45070490D03*
G04 #@! TD*
D16*
G04 #@! TO.C,U2*
X152731268Y-45456491D03*
X151461268Y-45456491D03*
X150191268Y-45456491D03*
X148921268Y-45456491D03*
X148921268Y-50406491D03*
X150191268Y-50406491D03*
X151461268Y-50406491D03*
X152731268Y-50406491D03*
D17*
X150826268Y-47931491D03*
G04 #@! TD*
D14*
G04 #@! TO.C,R7*
X133859268Y-53160991D03*
X133859268Y-55160991D03*
G04 #@! TD*
D11*
G04 #@! TO.C,J2*
X123953269Y-39990490D03*
D12*
X126493269Y-39990490D03*
X129033268Y-39990490D03*
X131573269Y-39990490D03*
X134113269Y-39990490D03*
X136653269Y-39990490D03*
X139193269Y-39990490D03*
X141733270Y-39990490D03*
X144273269Y-39990490D03*
X146813269Y-39990490D03*
X149353269Y-39990490D03*
X151893268Y-39990490D03*
X154433269Y-39990490D03*
G04 #@! TD*
D19*
G04 #@! TO.C,R5*
X133621268Y-58278491D03*
X135621268Y-58278491D03*
G04 #@! TD*
D13*
G04 #@! TO.C,REF\u002A\u002A*
X138177267Y-72502491D03*
G04 #@! TD*
D18*
G04 #@! TO.C,REF\u002A\u002A*
X156973268Y-73010490D03*
G04 #@! TD*
D16*
G04 #@! TO.C,U4*
X133935268Y-45522991D03*
X132665268Y-45522991D03*
X131395268Y-45522991D03*
X130125268Y-45522991D03*
X130125268Y-50472991D03*
X131395268Y-50472991D03*
X132665268Y-50472991D03*
X133935268Y-50472991D03*
D17*
X132030268Y-47997991D03*
G04 #@! TD*
D14*
G04 #@! TO.C,R8*
X124715268Y-53160991D03*
X124715268Y-55160991D03*
G04 #@! TD*
D13*
G04 #@! TO.C,REF\u002A\u002A*
X133097268Y-69962491D03*
G04 #@! TD*
G04 #@! TO.C,REF\u002A\u002A*
X130557269Y-69962491D03*
G04 #@! TD*
G04 #@! TO.C,REF\u002A\u002A*
X135637268Y-67422491D03*
G04 #@! TD*
G04 #@! TO.C,REF\u002A\u002A*
X138177268Y-69962491D03*
G04 #@! TD*
D20*
G04 #@! TO.C,SW1*
X157005268Y-57298491D03*
X157005268Y-49098492D03*
D21*
X157005268Y-51198491D03*
X157005268Y-53198490D03*
D22*
X157005268Y-55198491D03*
G04 #@! TD*
D13*
G04 #@! TO.C,REF\u002A\u002A*
X128017268Y-72502491D03*
G04 #@! TD*
G04 #@! TO.C,REF\u002A\u002A*
X135637268Y-69962491D03*
G04 #@! TD*
D18*
G04 #@! TO.C,REF\u002A\u002A*
X120143268Y-73010489D03*
G04 #@! TD*
D23*
G04 #@! TO.C,C3*
X151385268Y-55198491D03*
X151385268Y-53123491D03*
G04 #@! TD*
D15*
G04 #@! TO.C,R3*
X131319268Y-55176991D03*
X131319268Y-53176991D03*
G04 #@! TD*
D16*
G04 #@! TO.C,U5*
X124731268Y-45503491D03*
X123461268Y-45503491D03*
X122191268Y-45503491D03*
X120921268Y-45503491D03*
X120921268Y-50453491D03*
X122191268Y-50453491D03*
X123461268Y-50453491D03*
X124731268Y-50453491D03*
D17*
X122826268Y-47978491D03*
G04 #@! TD*
D18*
G04 #@! TO.C,REF\u002A\u002A*
X120143268Y-38720490D03*
G04 #@! TD*
D24*
G04 #@! TO.C,3.7V*
X157593268Y-93402491D03*
D25*
X150693268Y-85202491D03*
X126493268Y-85202491D03*
D26*
X157593268Y-85202491D03*
X119593268Y-85202491D03*
G04 #@! TD*
D27*
G04 #@! TO.C,SW2*
X144019269Y-58024491D03*
D28*
X146559269Y-58024491D03*
X149099268Y-58024491D03*
X149099269Y-65644491D03*
X146559269Y-65644491D03*
X144019269Y-65644491D03*
G04 #@! TD*
D29*
G04 #@! TO.C,D2*
X146051268Y-69691492D03*
X146051268Y-72501492D03*
G04 #@! TD*
D30*
G04 #@! TO.C,D1*
X146305268Y-46589491D03*
D24*
X146305268Y-49129491D03*
G04 #@! TD*
D11*
G04 #@! TO.C,J5*
X124969268Y-72502491D03*
D12*
X124969268Y-69962491D03*
X124969268Y-67422492D03*
G04 #@! TD*
M02*
