G04 #@! TF.GenerationSoftware,KiCad,Pcbnew,8.0.1*
G04 #@! TF.CreationDate,2024-07-15T10:08:49+02:00*
G04 #@! TF.ProjectId,RGB 2x2 with WS2811,52474220-3278-4322-9077-697468205753,rev?*
G04 #@! TF.SameCoordinates,Original*
G04 #@! TF.FileFunction,AssemblyDrawing,Top*
%FSLAX46Y46*%
G04 Gerber Fmt 4.6, Leading zero omitted, Abs format (unit mm)*
G04 Created by KiCad (PCBNEW 8.0.1) date 2024-07-15 10:08:49*
%MOMM*%
%LPD*%
G01*
G04 APERTURE LIST*
%ADD10C,0.150000*%
%ADD11C,0.080000*%
%ADD12C,0.100000*%
G04 APERTURE END LIST*
D10*
X125792088Y-53017372D02*
X125792088Y-53588800D01*
X125792088Y-53303086D02*
X124792088Y-53303086D01*
X124792088Y-53303086D02*
X124934945Y-53398324D01*
X124934945Y-53398324D02*
X125030183Y-53493562D01*
X125030183Y-53493562D02*
X125077802Y-53588800D01*
X124792088Y-52398324D02*
X124792088Y-52303086D01*
X124792088Y-52303086D02*
X124839707Y-52207848D01*
X124839707Y-52207848D02*
X124887326Y-52160229D01*
X124887326Y-52160229D02*
X124982564Y-52112610D01*
X124982564Y-52112610D02*
X125173040Y-52064991D01*
X125173040Y-52064991D02*
X125411135Y-52064991D01*
X125411135Y-52064991D02*
X125601611Y-52112610D01*
X125601611Y-52112610D02*
X125696849Y-52160229D01*
X125696849Y-52160229D02*
X125744469Y-52207848D01*
X125744469Y-52207848D02*
X125792088Y-52303086D01*
X125792088Y-52303086D02*
X125792088Y-52398324D01*
X125792088Y-52398324D02*
X125744469Y-52493562D01*
X125744469Y-52493562D02*
X125696849Y-52541181D01*
X125696849Y-52541181D02*
X125601611Y-52588800D01*
X125601611Y-52588800D02*
X125411135Y-52636419D01*
X125411135Y-52636419D02*
X125173040Y-52636419D01*
X125173040Y-52636419D02*
X124982564Y-52588800D01*
X124982564Y-52588800D02*
X124887326Y-52541181D01*
X124887326Y-52541181D02*
X124839707Y-52493562D01*
X124839707Y-52493562D02*
X124792088Y-52398324D01*
X124792088Y-51445943D02*
X124792088Y-51350705D01*
X124792088Y-51350705D02*
X124839707Y-51255467D01*
X124839707Y-51255467D02*
X124887326Y-51207848D01*
X124887326Y-51207848D02*
X124982564Y-51160229D01*
X124982564Y-51160229D02*
X125173040Y-51112610D01*
X125173040Y-51112610D02*
X125411135Y-51112610D01*
X125411135Y-51112610D02*
X125601611Y-51160229D01*
X125601611Y-51160229D02*
X125696849Y-51207848D01*
X125696849Y-51207848D02*
X125744469Y-51255467D01*
X125744469Y-51255467D02*
X125792088Y-51350705D01*
X125792088Y-51350705D02*
X125792088Y-51445943D01*
X125792088Y-51445943D02*
X125744469Y-51541181D01*
X125744469Y-51541181D02*
X125696849Y-51588800D01*
X125696849Y-51588800D02*
X125601611Y-51636419D01*
X125601611Y-51636419D02*
X125411135Y-51684038D01*
X125411135Y-51684038D02*
X125173040Y-51684038D01*
X125173040Y-51684038D02*
X124982564Y-51636419D01*
X124982564Y-51636419D02*
X124887326Y-51588800D01*
X124887326Y-51588800D02*
X124839707Y-51541181D01*
X124839707Y-51541181D02*
X124792088Y-51445943D01*
X125125421Y-50684038D02*
X125792088Y-50684038D01*
X125220659Y-50684038D02*
X125173040Y-50636419D01*
X125173040Y-50636419D02*
X125125421Y-50541181D01*
X125125421Y-50541181D02*
X125125421Y-50398324D01*
X125125421Y-50398324D02*
X125173040Y-50303086D01*
X125173040Y-50303086D02*
X125268278Y-50255467D01*
X125268278Y-50255467D02*
X125792088Y-50255467D01*
X125268278Y-49445943D02*
X125268278Y-49779276D01*
X125792088Y-49779276D02*
X124792088Y-49779276D01*
X124792088Y-49779276D02*
X124792088Y-49303086D01*
X125887326Y-49160229D02*
X125887326Y-48398324D01*
X125696849Y-47588800D02*
X125744469Y-47636419D01*
X125744469Y-47636419D02*
X125792088Y-47779276D01*
X125792088Y-47779276D02*
X125792088Y-47874514D01*
X125792088Y-47874514D02*
X125744469Y-48017371D01*
X125744469Y-48017371D02*
X125649230Y-48112609D01*
X125649230Y-48112609D02*
X125553992Y-48160228D01*
X125553992Y-48160228D02*
X125363516Y-48207847D01*
X125363516Y-48207847D02*
X125220659Y-48207847D01*
X125220659Y-48207847D02*
X125030183Y-48160228D01*
X125030183Y-48160228D02*
X124934945Y-48112609D01*
X124934945Y-48112609D02*
X124839707Y-48017371D01*
X124839707Y-48017371D02*
X124792088Y-47874514D01*
X124792088Y-47874514D02*
X124792088Y-47779276D01*
X124792088Y-47779276D02*
X124839707Y-47636419D01*
X124839707Y-47636419D02*
X124887326Y-47588800D01*
X125744469Y-46779276D02*
X125792088Y-46874514D01*
X125792088Y-46874514D02*
X125792088Y-47064990D01*
X125792088Y-47064990D02*
X125744469Y-47160228D01*
X125744469Y-47160228D02*
X125649230Y-47207847D01*
X125649230Y-47207847D02*
X125268278Y-47207847D01*
X125268278Y-47207847D02*
X125173040Y-47160228D01*
X125173040Y-47160228D02*
X125125421Y-47064990D01*
X125125421Y-47064990D02*
X125125421Y-46874514D01*
X125125421Y-46874514D02*
X125173040Y-46779276D01*
X125173040Y-46779276D02*
X125268278Y-46731657D01*
X125268278Y-46731657D02*
X125363516Y-46731657D01*
X125363516Y-46731657D02*
X125458754Y-47207847D01*
X125792088Y-46303085D02*
X125125421Y-46303085D01*
X125315897Y-46303085D02*
X125220659Y-46255466D01*
X125220659Y-46255466D02*
X125173040Y-46207847D01*
X125173040Y-46207847D02*
X125125421Y-46112609D01*
X125125421Y-46112609D02*
X125125421Y-46017371D01*
X125792088Y-45255466D02*
X125268278Y-45255466D01*
X125268278Y-45255466D02*
X125173040Y-45303085D01*
X125173040Y-45303085D02*
X125125421Y-45398323D01*
X125125421Y-45398323D02*
X125125421Y-45588799D01*
X125125421Y-45588799D02*
X125173040Y-45684037D01*
X125744469Y-45255466D02*
X125792088Y-45350704D01*
X125792088Y-45350704D02*
X125792088Y-45588799D01*
X125792088Y-45588799D02*
X125744469Y-45684037D01*
X125744469Y-45684037D02*
X125649230Y-45731656D01*
X125649230Y-45731656D02*
X125553992Y-45731656D01*
X125553992Y-45731656D02*
X125458754Y-45684037D01*
X125458754Y-45684037D02*
X125411135Y-45588799D01*
X125411135Y-45588799D02*
X125411135Y-45350704D01*
X125411135Y-45350704D02*
X125363516Y-45255466D01*
X125792088Y-44779275D02*
X125125421Y-44779275D01*
X125220659Y-44779275D02*
X125173040Y-44731656D01*
X125173040Y-44731656D02*
X125125421Y-44636418D01*
X125125421Y-44636418D02*
X125125421Y-44493561D01*
X125125421Y-44493561D02*
X125173040Y-44398323D01*
X125173040Y-44398323D02*
X125268278Y-44350704D01*
X125268278Y-44350704D02*
X125792088Y-44350704D01*
X125268278Y-44350704D02*
X125173040Y-44303085D01*
X125173040Y-44303085D02*
X125125421Y-44207847D01*
X125125421Y-44207847D02*
X125125421Y-44064990D01*
X125125421Y-44064990D02*
X125173040Y-43969751D01*
X125173040Y-43969751D02*
X125268278Y-43922132D01*
X125268278Y-43922132D02*
X125792088Y-43922132D01*
X125792088Y-43445942D02*
X125125421Y-43445942D01*
X124792088Y-43445942D02*
X124839707Y-43493561D01*
X124839707Y-43493561D02*
X124887326Y-43445942D01*
X124887326Y-43445942D02*
X124839707Y-43398323D01*
X124839707Y-43398323D02*
X124792088Y-43445942D01*
X124792088Y-43445942D02*
X124887326Y-43445942D01*
X125744469Y-42541181D02*
X125792088Y-42636419D01*
X125792088Y-42636419D02*
X125792088Y-42826895D01*
X125792088Y-42826895D02*
X125744469Y-42922133D01*
X125744469Y-42922133D02*
X125696849Y-42969752D01*
X125696849Y-42969752D02*
X125601611Y-43017371D01*
X125601611Y-43017371D02*
X125315897Y-43017371D01*
X125315897Y-43017371D02*
X125220659Y-42969752D01*
X125220659Y-42969752D02*
X125173040Y-42922133D01*
X125173040Y-42922133D02*
X125125421Y-42826895D01*
X125125421Y-42826895D02*
X125125421Y-42636419D01*
X125125421Y-42636419D02*
X125173040Y-42541181D01*
D11*
X127196798Y-48148324D02*
X127220608Y-48172133D01*
X127220608Y-48172133D02*
X127244417Y-48243562D01*
X127244417Y-48243562D02*
X127244417Y-48291181D01*
X127244417Y-48291181D02*
X127220608Y-48362609D01*
X127220608Y-48362609D02*
X127172988Y-48410228D01*
X127172988Y-48410228D02*
X127125369Y-48434038D01*
X127125369Y-48434038D02*
X127030131Y-48457847D01*
X127030131Y-48457847D02*
X126958703Y-48457847D01*
X126958703Y-48457847D02*
X126863465Y-48434038D01*
X126863465Y-48434038D02*
X126815846Y-48410228D01*
X126815846Y-48410228D02*
X126768227Y-48362609D01*
X126768227Y-48362609D02*
X126744417Y-48291181D01*
X126744417Y-48291181D02*
X126744417Y-48243562D01*
X126744417Y-48243562D02*
X126768227Y-48172133D01*
X126768227Y-48172133D02*
X126792036Y-48148324D01*
X126911084Y-47719752D02*
X127244417Y-47719752D01*
X126720608Y-47838800D02*
X127077750Y-47957847D01*
X127077750Y-47957847D02*
X127077750Y-47648324D01*
D10*
X151385650Y-57947690D02*
X151528507Y-57995309D01*
X151528507Y-57995309D02*
X151766602Y-57995309D01*
X151766602Y-57995309D02*
X151861840Y-57947690D01*
X151861840Y-57947690D02*
X151909459Y-57900070D01*
X151909459Y-57900070D02*
X151957078Y-57804832D01*
X151957078Y-57804832D02*
X151957078Y-57709594D01*
X151957078Y-57709594D02*
X151909459Y-57614356D01*
X151909459Y-57614356D02*
X151861840Y-57566737D01*
X151861840Y-57566737D02*
X151766602Y-57519118D01*
X151766602Y-57519118D02*
X151576126Y-57471499D01*
X151576126Y-57471499D02*
X151480888Y-57423880D01*
X151480888Y-57423880D02*
X151433269Y-57376261D01*
X151433269Y-57376261D02*
X151385650Y-57281023D01*
X151385650Y-57281023D02*
X151385650Y-57185785D01*
X151385650Y-57185785D02*
X151433269Y-57090547D01*
X151433269Y-57090547D02*
X151480888Y-57042928D01*
X151480888Y-57042928D02*
X151576126Y-56995309D01*
X151576126Y-56995309D02*
X151814221Y-56995309D01*
X151814221Y-56995309D02*
X151957078Y-57042928D01*
X152290412Y-57328642D02*
X152480888Y-57995309D01*
X152480888Y-57995309D02*
X152671364Y-57519118D01*
X152671364Y-57519118D02*
X152861840Y-57995309D01*
X152861840Y-57995309D02*
X153052316Y-57328642D01*
X153433269Y-57995309D02*
X153433269Y-57328642D01*
X153433269Y-56995309D02*
X153385650Y-57042928D01*
X153385650Y-57042928D02*
X153433269Y-57090547D01*
X153433269Y-57090547D02*
X153480888Y-57042928D01*
X153480888Y-57042928D02*
X153433269Y-56995309D01*
X153433269Y-56995309D02*
X153433269Y-57090547D01*
X153766602Y-57328642D02*
X154147554Y-57328642D01*
X153909459Y-56995309D02*
X153909459Y-57852451D01*
X153909459Y-57852451D02*
X153957078Y-57947690D01*
X153957078Y-57947690D02*
X154052316Y-57995309D01*
X154052316Y-57995309D02*
X154147554Y-57995309D01*
X154909459Y-57947690D02*
X154814221Y-57995309D01*
X154814221Y-57995309D02*
X154623745Y-57995309D01*
X154623745Y-57995309D02*
X154528507Y-57947690D01*
X154528507Y-57947690D02*
X154480888Y-57900070D01*
X154480888Y-57900070D02*
X154433269Y-57804832D01*
X154433269Y-57804832D02*
X154433269Y-57519118D01*
X154433269Y-57519118D02*
X154480888Y-57423880D01*
X154480888Y-57423880D02*
X154528507Y-57376261D01*
X154528507Y-57376261D02*
X154623745Y-57328642D01*
X154623745Y-57328642D02*
X154814221Y-57328642D01*
X154814221Y-57328642D02*
X154909459Y-57376261D01*
X155338031Y-57995309D02*
X155338031Y-56995309D01*
X155766602Y-57995309D02*
X155766602Y-57471499D01*
X155766602Y-57471499D02*
X155718983Y-57376261D01*
X155718983Y-57376261D02*
X155623745Y-57328642D01*
X155623745Y-57328642D02*
X155480888Y-57328642D01*
X155480888Y-57328642D02*
X155385650Y-57376261D01*
X155385650Y-57376261D02*
X155338031Y-57423880D01*
X156623745Y-57947690D02*
X156528507Y-57995309D01*
X156528507Y-57995309D02*
X156338031Y-57995309D01*
X156338031Y-57995309D02*
X156242793Y-57947690D01*
X156242793Y-57947690D02*
X156195174Y-57852451D01*
X156195174Y-57852451D02*
X156195174Y-57471499D01*
X156195174Y-57471499D02*
X156242793Y-57376261D01*
X156242793Y-57376261D02*
X156338031Y-57328642D01*
X156338031Y-57328642D02*
X156528507Y-57328642D01*
X156528507Y-57328642D02*
X156623745Y-57376261D01*
X156623745Y-57376261D02*
X156671364Y-57471499D01*
X156671364Y-57471499D02*
X156671364Y-57566737D01*
X156671364Y-57566737D02*
X156195174Y-57661975D01*
X157052317Y-57947690D02*
X157147555Y-57995309D01*
X157147555Y-57995309D02*
X157338031Y-57995309D01*
X157338031Y-57995309D02*
X157433269Y-57947690D01*
X157433269Y-57947690D02*
X157480888Y-57852451D01*
X157480888Y-57852451D02*
X157480888Y-57804832D01*
X157480888Y-57804832D02*
X157433269Y-57709594D01*
X157433269Y-57709594D02*
X157338031Y-57661975D01*
X157338031Y-57661975D02*
X157195174Y-57661975D01*
X157195174Y-57661975D02*
X157099936Y-57614356D01*
X157099936Y-57614356D02*
X157052317Y-57519118D01*
X157052317Y-57519118D02*
X157052317Y-57471499D01*
X157052317Y-57471499D02*
X157099936Y-57376261D01*
X157099936Y-57376261D02*
X157195174Y-57328642D01*
X157195174Y-57328642D02*
X157338031Y-57328642D01*
X157338031Y-57328642D02*
X157433269Y-57376261D01*
X153888088Y-64453822D02*
X154602373Y-64453822D01*
X154602373Y-64453822D02*
X154745230Y-64501441D01*
X154745230Y-64501441D02*
X154840469Y-64596679D01*
X154840469Y-64596679D02*
X154888088Y-64739536D01*
X154888088Y-64739536D02*
X154888088Y-64834774D01*
X154888088Y-63453822D02*
X154888088Y-64025250D01*
X154888088Y-63739536D02*
X153888088Y-63739536D01*
X153888088Y-63739536D02*
X154030945Y-63834774D01*
X154030945Y-63834774D02*
X154126183Y-63930012D01*
X154126183Y-63930012D02*
X154173802Y-64025250D01*
X144318088Y-56843371D02*
X144318088Y-57414799D01*
X144318088Y-57129085D02*
X143318088Y-57129085D01*
X143318088Y-57129085D02*
X143460945Y-57224323D01*
X143460945Y-57224323D02*
X143556183Y-57319561D01*
X143556183Y-57319561D02*
X143603802Y-57414799D01*
X143318088Y-56224323D02*
X143318088Y-56129085D01*
X143318088Y-56129085D02*
X143365707Y-56033847D01*
X143365707Y-56033847D02*
X143413326Y-55986228D01*
X143413326Y-55986228D02*
X143508564Y-55938609D01*
X143508564Y-55938609D02*
X143699040Y-55890990D01*
X143699040Y-55890990D02*
X143937135Y-55890990D01*
X143937135Y-55890990D02*
X144127611Y-55938609D01*
X144127611Y-55938609D02*
X144222849Y-55986228D01*
X144222849Y-55986228D02*
X144270469Y-56033847D01*
X144270469Y-56033847D02*
X144318088Y-56129085D01*
X144318088Y-56129085D02*
X144318088Y-56224323D01*
X144318088Y-56224323D02*
X144270469Y-56319561D01*
X144270469Y-56319561D02*
X144222849Y-56367180D01*
X144222849Y-56367180D02*
X144127611Y-56414799D01*
X144127611Y-56414799D02*
X143937135Y-56462418D01*
X143937135Y-56462418D02*
X143699040Y-56462418D01*
X143699040Y-56462418D02*
X143508564Y-56414799D01*
X143508564Y-56414799D02*
X143413326Y-56367180D01*
X143413326Y-56367180D02*
X143365707Y-56319561D01*
X143365707Y-56319561D02*
X143318088Y-56224323D01*
X143318088Y-55271942D02*
X143318088Y-55176704D01*
X143318088Y-55176704D02*
X143365707Y-55081466D01*
X143365707Y-55081466D02*
X143413326Y-55033847D01*
X143413326Y-55033847D02*
X143508564Y-54986228D01*
X143508564Y-54986228D02*
X143699040Y-54938609D01*
X143699040Y-54938609D02*
X143937135Y-54938609D01*
X143937135Y-54938609D02*
X144127611Y-54986228D01*
X144127611Y-54986228D02*
X144222849Y-55033847D01*
X144222849Y-55033847D02*
X144270469Y-55081466D01*
X144270469Y-55081466D02*
X144318088Y-55176704D01*
X144318088Y-55176704D02*
X144318088Y-55271942D01*
X144318088Y-55271942D02*
X144270469Y-55367180D01*
X144270469Y-55367180D02*
X144222849Y-55414799D01*
X144222849Y-55414799D02*
X144127611Y-55462418D01*
X144127611Y-55462418D02*
X143937135Y-55510037D01*
X143937135Y-55510037D02*
X143699040Y-55510037D01*
X143699040Y-55510037D02*
X143508564Y-55462418D01*
X143508564Y-55462418D02*
X143413326Y-55414799D01*
X143413326Y-55414799D02*
X143365707Y-55367180D01*
X143365707Y-55367180D02*
X143318088Y-55271942D01*
X143651421Y-54510037D02*
X144318088Y-54510037D01*
X143746659Y-54510037D02*
X143699040Y-54462418D01*
X143699040Y-54462418D02*
X143651421Y-54367180D01*
X143651421Y-54367180D02*
X143651421Y-54224323D01*
X143651421Y-54224323D02*
X143699040Y-54129085D01*
X143699040Y-54129085D02*
X143794278Y-54081466D01*
X143794278Y-54081466D02*
X144318088Y-54081466D01*
X143794278Y-53271942D02*
X143794278Y-53605275D01*
X144318088Y-53605275D02*
X143318088Y-53605275D01*
X143318088Y-53605275D02*
X143318088Y-53129085D01*
X144413326Y-52986228D02*
X144413326Y-52224323D01*
X144222849Y-51414799D02*
X144270469Y-51462418D01*
X144270469Y-51462418D02*
X144318088Y-51605275D01*
X144318088Y-51605275D02*
X144318088Y-51700513D01*
X144318088Y-51700513D02*
X144270469Y-51843370D01*
X144270469Y-51843370D02*
X144175230Y-51938608D01*
X144175230Y-51938608D02*
X144079992Y-51986227D01*
X144079992Y-51986227D02*
X143889516Y-52033846D01*
X143889516Y-52033846D02*
X143746659Y-52033846D01*
X143746659Y-52033846D02*
X143556183Y-51986227D01*
X143556183Y-51986227D02*
X143460945Y-51938608D01*
X143460945Y-51938608D02*
X143365707Y-51843370D01*
X143365707Y-51843370D02*
X143318088Y-51700513D01*
X143318088Y-51700513D02*
X143318088Y-51605275D01*
X143318088Y-51605275D02*
X143365707Y-51462418D01*
X143365707Y-51462418D02*
X143413326Y-51414799D01*
X144270469Y-50605275D02*
X144318088Y-50700513D01*
X144318088Y-50700513D02*
X144318088Y-50890989D01*
X144318088Y-50890989D02*
X144270469Y-50986227D01*
X144270469Y-50986227D02*
X144175230Y-51033846D01*
X144175230Y-51033846D02*
X143794278Y-51033846D01*
X143794278Y-51033846D02*
X143699040Y-50986227D01*
X143699040Y-50986227D02*
X143651421Y-50890989D01*
X143651421Y-50890989D02*
X143651421Y-50700513D01*
X143651421Y-50700513D02*
X143699040Y-50605275D01*
X143699040Y-50605275D02*
X143794278Y-50557656D01*
X143794278Y-50557656D02*
X143889516Y-50557656D01*
X143889516Y-50557656D02*
X143984754Y-51033846D01*
X144318088Y-50129084D02*
X143651421Y-50129084D01*
X143841897Y-50129084D02*
X143746659Y-50081465D01*
X143746659Y-50081465D02*
X143699040Y-50033846D01*
X143699040Y-50033846D02*
X143651421Y-49938608D01*
X143651421Y-49938608D02*
X143651421Y-49843370D01*
X144318088Y-49081465D02*
X143794278Y-49081465D01*
X143794278Y-49081465D02*
X143699040Y-49129084D01*
X143699040Y-49129084D02*
X143651421Y-49224322D01*
X143651421Y-49224322D02*
X143651421Y-49414798D01*
X143651421Y-49414798D02*
X143699040Y-49510036D01*
X144270469Y-49081465D02*
X144318088Y-49176703D01*
X144318088Y-49176703D02*
X144318088Y-49414798D01*
X144318088Y-49414798D02*
X144270469Y-49510036D01*
X144270469Y-49510036D02*
X144175230Y-49557655D01*
X144175230Y-49557655D02*
X144079992Y-49557655D01*
X144079992Y-49557655D02*
X143984754Y-49510036D01*
X143984754Y-49510036D02*
X143937135Y-49414798D01*
X143937135Y-49414798D02*
X143937135Y-49176703D01*
X143937135Y-49176703D02*
X143889516Y-49081465D01*
X144318088Y-48605274D02*
X143651421Y-48605274D01*
X143746659Y-48605274D02*
X143699040Y-48557655D01*
X143699040Y-48557655D02*
X143651421Y-48462417D01*
X143651421Y-48462417D02*
X143651421Y-48319560D01*
X143651421Y-48319560D02*
X143699040Y-48224322D01*
X143699040Y-48224322D02*
X143794278Y-48176703D01*
X143794278Y-48176703D02*
X144318088Y-48176703D01*
X143794278Y-48176703D02*
X143699040Y-48129084D01*
X143699040Y-48129084D02*
X143651421Y-48033846D01*
X143651421Y-48033846D02*
X143651421Y-47890989D01*
X143651421Y-47890989D02*
X143699040Y-47795750D01*
X143699040Y-47795750D02*
X143794278Y-47748131D01*
X143794278Y-47748131D02*
X144318088Y-47748131D01*
X144318088Y-47271941D02*
X143651421Y-47271941D01*
X143318088Y-47271941D02*
X143365707Y-47319560D01*
X143365707Y-47319560D02*
X143413326Y-47271941D01*
X143413326Y-47271941D02*
X143365707Y-47224322D01*
X143365707Y-47224322D02*
X143318088Y-47271941D01*
X143318088Y-47271941D02*
X143413326Y-47271941D01*
X144270469Y-46367180D02*
X144318088Y-46462418D01*
X144318088Y-46462418D02*
X144318088Y-46652894D01*
X144318088Y-46652894D02*
X144270469Y-46748132D01*
X144270469Y-46748132D02*
X144222849Y-46795751D01*
X144222849Y-46795751D02*
X144127611Y-46843370D01*
X144127611Y-46843370D02*
X143841897Y-46843370D01*
X143841897Y-46843370D02*
X143746659Y-46795751D01*
X143746659Y-46795751D02*
X143699040Y-46748132D01*
X143699040Y-46748132D02*
X143651421Y-46652894D01*
X143651421Y-46652894D02*
X143651421Y-46462418D01*
X143651421Y-46462418D02*
X143699040Y-46367180D01*
D11*
X145722798Y-54244324D02*
X145746608Y-54268133D01*
X145746608Y-54268133D02*
X145770417Y-54339562D01*
X145770417Y-54339562D02*
X145770417Y-54387181D01*
X145770417Y-54387181D02*
X145746608Y-54458609D01*
X145746608Y-54458609D02*
X145698988Y-54506228D01*
X145698988Y-54506228D02*
X145651369Y-54530038D01*
X145651369Y-54530038D02*
X145556131Y-54553847D01*
X145556131Y-54553847D02*
X145484703Y-54553847D01*
X145484703Y-54553847D02*
X145389465Y-54530038D01*
X145389465Y-54530038D02*
X145341846Y-54506228D01*
X145341846Y-54506228D02*
X145294227Y-54458609D01*
X145294227Y-54458609D02*
X145270417Y-54387181D01*
X145270417Y-54387181D02*
X145270417Y-54339562D01*
X145270417Y-54339562D02*
X145294227Y-54268133D01*
X145294227Y-54268133D02*
X145318036Y-54244324D01*
X145318036Y-54053847D02*
X145294227Y-54030038D01*
X145294227Y-54030038D02*
X145270417Y-53982419D01*
X145270417Y-53982419D02*
X145270417Y-53863371D01*
X145270417Y-53863371D02*
X145294227Y-53815752D01*
X145294227Y-53815752D02*
X145318036Y-53791943D01*
X145318036Y-53791943D02*
X145365655Y-53768133D01*
X145365655Y-53768133D02*
X145413274Y-53768133D01*
X145413274Y-53768133D02*
X145484703Y-53791943D01*
X145484703Y-53791943D02*
X145770417Y-54077657D01*
X145770417Y-54077657D02*
X145770417Y-53768133D01*
D10*
X134936088Y-53017372D02*
X134936088Y-53588800D01*
X134936088Y-53303086D02*
X133936088Y-53303086D01*
X133936088Y-53303086D02*
X134078945Y-53398324D01*
X134078945Y-53398324D02*
X134174183Y-53493562D01*
X134174183Y-53493562D02*
X134221802Y-53588800D01*
X133936088Y-52398324D02*
X133936088Y-52303086D01*
X133936088Y-52303086D02*
X133983707Y-52207848D01*
X133983707Y-52207848D02*
X134031326Y-52160229D01*
X134031326Y-52160229D02*
X134126564Y-52112610D01*
X134126564Y-52112610D02*
X134317040Y-52064991D01*
X134317040Y-52064991D02*
X134555135Y-52064991D01*
X134555135Y-52064991D02*
X134745611Y-52112610D01*
X134745611Y-52112610D02*
X134840849Y-52160229D01*
X134840849Y-52160229D02*
X134888469Y-52207848D01*
X134888469Y-52207848D02*
X134936088Y-52303086D01*
X134936088Y-52303086D02*
X134936088Y-52398324D01*
X134936088Y-52398324D02*
X134888469Y-52493562D01*
X134888469Y-52493562D02*
X134840849Y-52541181D01*
X134840849Y-52541181D02*
X134745611Y-52588800D01*
X134745611Y-52588800D02*
X134555135Y-52636419D01*
X134555135Y-52636419D02*
X134317040Y-52636419D01*
X134317040Y-52636419D02*
X134126564Y-52588800D01*
X134126564Y-52588800D02*
X134031326Y-52541181D01*
X134031326Y-52541181D02*
X133983707Y-52493562D01*
X133983707Y-52493562D02*
X133936088Y-52398324D01*
X133936088Y-51445943D02*
X133936088Y-51350705D01*
X133936088Y-51350705D02*
X133983707Y-51255467D01*
X133983707Y-51255467D02*
X134031326Y-51207848D01*
X134031326Y-51207848D02*
X134126564Y-51160229D01*
X134126564Y-51160229D02*
X134317040Y-51112610D01*
X134317040Y-51112610D02*
X134555135Y-51112610D01*
X134555135Y-51112610D02*
X134745611Y-51160229D01*
X134745611Y-51160229D02*
X134840849Y-51207848D01*
X134840849Y-51207848D02*
X134888469Y-51255467D01*
X134888469Y-51255467D02*
X134936088Y-51350705D01*
X134936088Y-51350705D02*
X134936088Y-51445943D01*
X134936088Y-51445943D02*
X134888469Y-51541181D01*
X134888469Y-51541181D02*
X134840849Y-51588800D01*
X134840849Y-51588800D02*
X134745611Y-51636419D01*
X134745611Y-51636419D02*
X134555135Y-51684038D01*
X134555135Y-51684038D02*
X134317040Y-51684038D01*
X134317040Y-51684038D02*
X134126564Y-51636419D01*
X134126564Y-51636419D02*
X134031326Y-51588800D01*
X134031326Y-51588800D02*
X133983707Y-51541181D01*
X133983707Y-51541181D02*
X133936088Y-51445943D01*
X134269421Y-50684038D02*
X134936088Y-50684038D01*
X134364659Y-50684038D02*
X134317040Y-50636419D01*
X134317040Y-50636419D02*
X134269421Y-50541181D01*
X134269421Y-50541181D02*
X134269421Y-50398324D01*
X134269421Y-50398324D02*
X134317040Y-50303086D01*
X134317040Y-50303086D02*
X134412278Y-50255467D01*
X134412278Y-50255467D02*
X134936088Y-50255467D01*
X134412278Y-49445943D02*
X134412278Y-49779276D01*
X134936088Y-49779276D02*
X133936088Y-49779276D01*
X133936088Y-49779276D02*
X133936088Y-49303086D01*
X135031326Y-49160229D02*
X135031326Y-48398324D01*
X134840849Y-47588800D02*
X134888469Y-47636419D01*
X134888469Y-47636419D02*
X134936088Y-47779276D01*
X134936088Y-47779276D02*
X134936088Y-47874514D01*
X134936088Y-47874514D02*
X134888469Y-48017371D01*
X134888469Y-48017371D02*
X134793230Y-48112609D01*
X134793230Y-48112609D02*
X134697992Y-48160228D01*
X134697992Y-48160228D02*
X134507516Y-48207847D01*
X134507516Y-48207847D02*
X134364659Y-48207847D01*
X134364659Y-48207847D02*
X134174183Y-48160228D01*
X134174183Y-48160228D02*
X134078945Y-48112609D01*
X134078945Y-48112609D02*
X133983707Y-48017371D01*
X133983707Y-48017371D02*
X133936088Y-47874514D01*
X133936088Y-47874514D02*
X133936088Y-47779276D01*
X133936088Y-47779276D02*
X133983707Y-47636419D01*
X133983707Y-47636419D02*
X134031326Y-47588800D01*
X134888469Y-46779276D02*
X134936088Y-46874514D01*
X134936088Y-46874514D02*
X134936088Y-47064990D01*
X134936088Y-47064990D02*
X134888469Y-47160228D01*
X134888469Y-47160228D02*
X134793230Y-47207847D01*
X134793230Y-47207847D02*
X134412278Y-47207847D01*
X134412278Y-47207847D02*
X134317040Y-47160228D01*
X134317040Y-47160228D02*
X134269421Y-47064990D01*
X134269421Y-47064990D02*
X134269421Y-46874514D01*
X134269421Y-46874514D02*
X134317040Y-46779276D01*
X134317040Y-46779276D02*
X134412278Y-46731657D01*
X134412278Y-46731657D02*
X134507516Y-46731657D01*
X134507516Y-46731657D02*
X134602754Y-47207847D01*
X134936088Y-46303085D02*
X134269421Y-46303085D01*
X134459897Y-46303085D02*
X134364659Y-46255466D01*
X134364659Y-46255466D02*
X134317040Y-46207847D01*
X134317040Y-46207847D02*
X134269421Y-46112609D01*
X134269421Y-46112609D02*
X134269421Y-46017371D01*
X134936088Y-45255466D02*
X134412278Y-45255466D01*
X134412278Y-45255466D02*
X134317040Y-45303085D01*
X134317040Y-45303085D02*
X134269421Y-45398323D01*
X134269421Y-45398323D02*
X134269421Y-45588799D01*
X134269421Y-45588799D02*
X134317040Y-45684037D01*
X134888469Y-45255466D02*
X134936088Y-45350704D01*
X134936088Y-45350704D02*
X134936088Y-45588799D01*
X134936088Y-45588799D02*
X134888469Y-45684037D01*
X134888469Y-45684037D02*
X134793230Y-45731656D01*
X134793230Y-45731656D02*
X134697992Y-45731656D01*
X134697992Y-45731656D02*
X134602754Y-45684037D01*
X134602754Y-45684037D02*
X134555135Y-45588799D01*
X134555135Y-45588799D02*
X134555135Y-45350704D01*
X134555135Y-45350704D02*
X134507516Y-45255466D01*
X134936088Y-44779275D02*
X134269421Y-44779275D01*
X134364659Y-44779275D02*
X134317040Y-44731656D01*
X134317040Y-44731656D02*
X134269421Y-44636418D01*
X134269421Y-44636418D02*
X134269421Y-44493561D01*
X134269421Y-44493561D02*
X134317040Y-44398323D01*
X134317040Y-44398323D02*
X134412278Y-44350704D01*
X134412278Y-44350704D02*
X134936088Y-44350704D01*
X134412278Y-44350704D02*
X134317040Y-44303085D01*
X134317040Y-44303085D02*
X134269421Y-44207847D01*
X134269421Y-44207847D02*
X134269421Y-44064990D01*
X134269421Y-44064990D02*
X134317040Y-43969751D01*
X134317040Y-43969751D02*
X134412278Y-43922132D01*
X134412278Y-43922132D02*
X134936088Y-43922132D01*
X134936088Y-43445942D02*
X134269421Y-43445942D01*
X133936088Y-43445942D02*
X133983707Y-43493561D01*
X133983707Y-43493561D02*
X134031326Y-43445942D01*
X134031326Y-43445942D02*
X133983707Y-43398323D01*
X133983707Y-43398323D02*
X133936088Y-43445942D01*
X133936088Y-43445942D02*
X134031326Y-43445942D01*
X134888469Y-42541181D02*
X134936088Y-42636419D01*
X134936088Y-42636419D02*
X134936088Y-42826895D01*
X134936088Y-42826895D02*
X134888469Y-42922133D01*
X134888469Y-42922133D02*
X134840849Y-42969752D01*
X134840849Y-42969752D02*
X134745611Y-43017371D01*
X134745611Y-43017371D02*
X134459897Y-43017371D01*
X134459897Y-43017371D02*
X134364659Y-42969752D01*
X134364659Y-42969752D02*
X134317040Y-42922133D01*
X134317040Y-42922133D02*
X134269421Y-42826895D01*
X134269421Y-42826895D02*
X134269421Y-42636419D01*
X134269421Y-42636419D02*
X134317040Y-42541181D01*
D11*
X136340798Y-48148324D02*
X136364608Y-48172133D01*
X136364608Y-48172133D02*
X136388417Y-48243562D01*
X136388417Y-48243562D02*
X136388417Y-48291181D01*
X136388417Y-48291181D02*
X136364608Y-48362609D01*
X136364608Y-48362609D02*
X136316988Y-48410228D01*
X136316988Y-48410228D02*
X136269369Y-48434038D01*
X136269369Y-48434038D02*
X136174131Y-48457847D01*
X136174131Y-48457847D02*
X136102703Y-48457847D01*
X136102703Y-48457847D02*
X136007465Y-48434038D01*
X136007465Y-48434038D02*
X135959846Y-48410228D01*
X135959846Y-48410228D02*
X135912227Y-48362609D01*
X135912227Y-48362609D02*
X135888417Y-48291181D01*
X135888417Y-48291181D02*
X135888417Y-48243562D01*
X135888417Y-48243562D02*
X135912227Y-48172133D01*
X135912227Y-48172133D02*
X135936036Y-48148324D01*
X136388417Y-47672133D02*
X136388417Y-47957847D01*
X136388417Y-47814990D02*
X135888417Y-47814990D01*
X135888417Y-47814990D02*
X135959846Y-47862609D01*
X135959846Y-47862609D02*
X136007465Y-47910228D01*
X136007465Y-47910228D02*
X136031274Y-47957847D01*
X142468417Y-54244324D02*
X142230322Y-54410990D01*
X142468417Y-54530038D02*
X141968417Y-54530038D01*
X141968417Y-54530038D02*
X141968417Y-54339562D01*
X141968417Y-54339562D02*
X141992227Y-54291943D01*
X141992227Y-54291943D02*
X142016036Y-54268133D01*
X142016036Y-54268133D02*
X142063655Y-54244324D01*
X142063655Y-54244324D02*
X142135084Y-54244324D01*
X142135084Y-54244324D02*
X142182703Y-54268133D01*
X142182703Y-54268133D02*
X142206512Y-54291943D01*
X142206512Y-54291943D02*
X142230322Y-54339562D01*
X142230322Y-54339562D02*
X142230322Y-54530038D01*
X141968417Y-53815752D02*
X141968417Y-53910990D01*
X141968417Y-53910990D02*
X141992227Y-53958609D01*
X141992227Y-53958609D02*
X142016036Y-53982419D01*
X142016036Y-53982419D02*
X142087465Y-54030038D01*
X142087465Y-54030038D02*
X142182703Y-54053847D01*
X142182703Y-54053847D02*
X142373179Y-54053847D01*
X142373179Y-54053847D02*
X142420798Y-54030038D01*
X142420798Y-54030038D02*
X142444608Y-54006228D01*
X142444608Y-54006228D02*
X142468417Y-53958609D01*
X142468417Y-53958609D02*
X142468417Y-53863371D01*
X142468417Y-53863371D02*
X142444608Y-53815752D01*
X142444608Y-53815752D02*
X142420798Y-53791943D01*
X142420798Y-53791943D02*
X142373179Y-53768133D01*
X142373179Y-53768133D02*
X142254131Y-53768133D01*
X142254131Y-53768133D02*
X142206512Y-53791943D01*
X142206512Y-53791943D02*
X142182703Y-53815752D01*
X142182703Y-53815752D02*
X142158893Y-53863371D01*
X142158893Y-53863371D02*
X142158893Y-53958609D01*
X142158893Y-53958609D02*
X142182703Y-54006228D01*
X142182703Y-54006228D02*
X142206512Y-54030038D01*
X142206512Y-54030038D02*
X142254131Y-54053847D01*
D12*
X138749901Y-54331157D02*
X138416568Y-54564490D01*
X138749901Y-54731157D02*
X138049901Y-54731157D01*
X138049901Y-54731157D02*
X138049901Y-54464490D01*
X138049901Y-54464490D02*
X138083234Y-54397824D01*
X138083234Y-54397824D02*
X138116568Y-54364490D01*
X138116568Y-54364490D02*
X138183234Y-54331157D01*
X138183234Y-54331157D02*
X138283234Y-54331157D01*
X138283234Y-54331157D02*
X138349901Y-54364490D01*
X138349901Y-54364490D02*
X138383234Y-54397824D01*
X138383234Y-54397824D02*
X138416568Y-54464490D01*
X138416568Y-54464490D02*
X138416568Y-54731157D01*
X138116568Y-54064490D02*
X138083234Y-54031157D01*
X138083234Y-54031157D02*
X138049901Y-53964490D01*
X138049901Y-53964490D02*
X138049901Y-53797824D01*
X138049901Y-53797824D02*
X138083234Y-53731157D01*
X138083234Y-53731157D02*
X138116568Y-53697824D01*
X138116568Y-53697824D02*
X138183234Y-53664490D01*
X138183234Y-53664490D02*
X138249901Y-53664490D01*
X138249901Y-53664490D02*
X138349901Y-53697824D01*
X138349901Y-53697824D02*
X138749901Y-54097824D01*
X138749901Y-54097824D02*
X138749901Y-53664490D01*
D11*
X140182417Y-54244324D02*
X139944322Y-54410990D01*
X140182417Y-54530038D02*
X139682417Y-54530038D01*
X139682417Y-54530038D02*
X139682417Y-54339562D01*
X139682417Y-54339562D02*
X139706227Y-54291943D01*
X139706227Y-54291943D02*
X139730036Y-54268133D01*
X139730036Y-54268133D02*
X139777655Y-54244324D01*
X139777655Y-54244324D02*
X139849084Y-54244324D01*
X139849084Y-54244324D02*
X139896703Y-54268133D01*
X139896703Y-54268133D02*
X139920512Y-54291943D01*
X139920512Y-54291943D02*
X139944322Y-54339562D01*
X139944322Y-54339562D02*
X139944322Y-54530038D01*
X139730036Y-54053847D02*
X139706227Y-54030038D01*
X139706227Y-54030038D02*
X139682417Y-53982419D01*
X139682417Y-53982419D02*
X139682417Y-53863371D01*
X139682417Y-53863371D02*
X139706227Y-53815752D01*
X139706227Y-53815752D02*
X139730036Y-53791943D01*
X139730036Y-53791943D02*
X139777655Y-53768133D01*
X139777655Y-53768133D02*
X139825274Y-53768133D01*
X139825274Y-53768133D02*
X139896703Y-53791943D01*
X139896703Y-53791943D02*
X140182417Y-54077657D01*
X140182417Y-54077657D02*
X140182417Y-53768133D01*
X122418417Y-54228324D02*
X122180322Y-54394990D01*
X122418417Y-54514038D02*
X121918417Y-54514038D01*
X121918417Y-54514038D02*
X121918417Y-54323562D01*
X121918417Y-54323562D02*
X121942227Y-54275943D01*
X121942227Y-54275943D02*
X121966036Y-54252133D01*
X121966036Y-54252133D02*
X122013655Y-54228324D01*
X122013655Y-54228324D02*
X122085084Y-54228324D01*
X122085084Y-54228324D02*
X122132703Y-54252133D01*
X122132703Y-54252133D02*
X122156512Y-54275943D01*
X122156512Y-54275943D02*
X122180322Y-54323562D01*
X122180322Y-54323562D02*
X122180322Y-54514038D01*
X122085084Y-53799752D02*
X122418417Y-53799752D01*
X121894608Y-53918800D02*
X122251750Y-54037847D01*
X122251750Y-54037847D02*
X122251750Y-53728324D01*
D12*
X147639901Y-54315157D02*
X147306568Y-54548490D01*
X147639901Y-54715157D02*
X146939901Y-54715157D01*
X146939901Y-54715157D02*
X146939901Y-54448490D01*
X146939901Y-54448490D02*
X146973234Y-54381824D01*
X146973234Y-54381824D02*
X147006568Y-54348490D01*
X147006568Y-54348490D02*
X147073234Y-54315157D01*
X147073234Y-54315157D02*
X147173234Y-54315157D01*
X147173234Y-54315157D02*
X147239901Y-54348490D01*
X147239901Y-54348490D02*
X147273234Y-54381824D01*
X147273234Y-54381824D02*
X147306568Y-54448490D01*
X147306568Y-54448490D02*
X147306568Y-54715157D01*
X147639901Y-53648490D02*
X147639901Y-54048490D01*
X147639901Y-53848490D02*
X146939901Y-53848490D01*
X146939901Y-53848490D02*
X147039901Y-53915157D01*
X147039901Y-53915157D02*
X147106568Y-53981824D01*
X147106568Y-53981824D02*
X147139901Y-54048490D01*
D11*
X149072417Y-54281824D02*
X148834322Y-54448490D01*
X149072417Y-54567538D02*
X148572417Y-54567538D01*
X148572417Y-54567538D02*
X148572417Y-54377062D01*
X148572417Y-54377062D02*
X148596227Y-54329443D01*
X148596227Y-54329443D02*
X148620036Y-54305633D01*
X148620036Y-54305633D02*
X148667655Y-54281824D01*
X148667655Y-54281824D02*
X148739084Y-54281824D01*
X148739084Y-54281824D02*
X148786703Y-54305633D01*
X148786703Y-54305633D02*
X148810512Y-54329443D01*
X148810512Y-54329443D02*
X148834322Y-54377062D01*
X148834322Y-54377062D02*
X148834322Y-54567538D01*
X149072417Y-53805633D02*
X149072417Y-54091347D01*
X149072417Y-53948490D02*
X148572417Y-53948490D01*
X148572417Y-53948490D02*
X148643846Y-53996109D01*
X148643846Y-53996109D02*
X148691465Y-54043728D01*
X148691465Y-54043728D02*
X148715274Y-54091347D01*
D10*
X137737087Y-50829014D02*
X138737087Y-50590919D01*
X138737087Y-50590919D02*
X138022801Y-50400443D01*
X138022801Y-50400443D02*
X138737087Y-50209967D01*
X138737087Y-50209967D02*
X137737087Y-49971872D01*
X138689468Y-49638538D02*
X138737087Y-49495681D01*
X138737087Y-49495681D02*
X138737087Y-49257586D01*
X138737087Y-49257586D02*
X138689468Y-49162348D01*
X138689468Y-49162348D02*
X138641848Y-49114729D01*
X138641848Y-49114729D02*
X138546610Y-49067110D01*
X138546610Y-49067110D02*
X138451372Y-49067110D01*
X138451372Y-49067110D02*
X138356134Y-49114729D01*
X138356134Y-49114729D02*
X138308515Y-49162348D01*
X138308515Y-49162348D02*
X138260896Y-49257586D01*
X138260896Y-49257586D02*
X138213277Y-49448062D01*
X138213277Y-49448062D02*
X138165658Y-49543300D01*
X138165658Y-49543300D02*
X138118039Y-49590919D01*
X138118039Y-49590919D02*
X138022801Y-49638538D01*
X138022801Y-49638538D02*
X137927563Y-49638538D01*
X137927563Y-49638538D02*
X137832325Y-49590919D01*
X137832325Y-49590919D02*
X137784706Y-49543300D01*
X137784706Y-49543300D02*
X137737087Y-49448062D01*
X137737087Y-49448062D02*
X137737087Y-49209967D01*
X137737087Y-49209967D02*
X137784706Y-49067110D01*
X137832325Y-48686157D02*
X137784706Y-48638538D01*
X137784706Y-48638538D02*
X137737087Y-48543300D01*
X137737087Y-48543300D02*
X137737087Y-48305205D01*
X137737087Y-48305205D02*
X137784706Y-48209967D01*
X137784706Y-48209967D02*
X137832325Y-48162348D01*
X137832325Y-48162348D02*
X137927563Y-48114729D01*
X137927563Y-48114729D02*
X138022801Y-48114729D01*
X138022801Y-48114729D02*
X138165658Y-48162348D01*
X138165658Y-48162348D02*
X138737087Y-48733776D01*
X138737087Y-48733776D02*
X138737087Y-48114729D01*
X138165658Y-47543300D02*
X138118039Y-47638538D01*
X138118039Y-47638538D02*
X138070420Y-47686157D01*
X138070420Y-47686157D02*
X137975182Y-47733776D01*
X137975182Y-47733776D02*
X137927563Y-47733776D01*
X137927563Y-47733776D02*
X137832325Y-47686157D01*
X137832325Y-47686157D02*
X137784706Y-47638538D01*
X137784706Y-47638538D02*
X137737087Y-47543300D01*
X137737087Y-47543300D02*
X137737087Y-47352824D01*
X137737087Y-47352824D02*
X137784706Y-47257586D01*
X137784706Y-47257586D02*
X137832325Y-47209967D01*
X137832325Y-47209967D02*
X137927563Y-47162348D01*
X137927563Y-47162348D02*
X137975182Y-47162348D01*
X137975182Y-47162348D02*
X138070420Y-47209967D01*
X138070420Y-47209967D02*
X138118039Y-47257586D01*
X138118039Y-47257586D02*
X138165658Y-47352824D01*
X138165658Y-47352824D02*
X138165658Y-47543300D01*
X138165658Y-47543300D02*
X138213277Y-47638538D01*
X138213277Y-47638538D02*
X138260896Y-47686157D01*
X138260896Y-47686157D02*
X138356134Y-47733776D01*
X138356134Y-47733776D02*
X138546610Y-47733776D01*
X138546610Y-47733776D02*
X138641848Y-47686157D01*
X138641848Y-47686157D02*
X138689468Y-47638538D01*
X138689468Y-47638538D02*
X138737087Y-47543300D01*
X138737087Y-47543300D02*
X138737087Y-47352824D01*
X138737087Y-47352824D02*
X138689468Y-47257586D01*
X138689468Y-47257586D02*
X138641848Y-47209967D01*
X138641848Y-47209967D02*
X138546610Y-47162348D01*
X138546610Y-47162348D02*
X138356134Y-47162348D01*
X138356134Y-47162348D02*
X138260896Y-47209967D01*
X138260896Y-47209967D02*
X138213277Y-47257586D01*
X138213277Y-47257586D02*
X138165658Y-47352824D01*
X138737087Y-46209967D02*
X138737087Y-46781395D01*
X138737087Y-46495681D02*
X137737087Y-46495681D01*
X137737087Y-46495681D02*
X137879944Y-46590919D01*
X137879944Y-46590919D02*
X137975182Y-46686157D01*
X137975182Y-46686157D02*
X138022801Y-46781395D01*
X138737087Y-45257586D02*
X138737087Y-45829014D01*
X138737087Y-45543300D02*
X137737087Y-45543300D01*
X137737087Y-45543300D02*
X137879944Y-45638538D01*
X137879944Y-45638538D02*
X137975182Y-45733776D01*
X137975182Y-45733776D02*
X138022801Y-45829014D01*
X141147834Y-48766157D02*
X141941168Y-48766157D01*
X141941168Y-48766157D02*
X142034501Y-48719491D01*
X142034501Y-48719491D02*
X142081168Y-48672824D01*
X142081168Y-48672824D02*
X142127834Y-48579491D01*
X142127834Y-48579491D02*
X142127834Y-48392824D01*
X142127834Y-48392824D02*
X142081168Y-48299491D01*
X142081168Y-48299491D02*
X142034501Y-48252824D01*
X142034501Y-48252824D02*
X141941168Y-48206157D01*
X141941168Y-48206157D02*
X141147834Y-48206157D01*
X141147834Y-47832824D02*
X141147834Y-47226157D01*
X141147834Y-47226157D02*
X141521168Y-47552824D01*
X141521168Y-47552824D02*
X141521168Y-47412824D01*
X141521168Y-47412824D02*
X141567834Y-47319490D01*
X141567834Y-47319490D02*
X141614501Y-47272824D01*
X141614501Y-47272824D02*
X141707834Y-47226157D01*
X141707834Y-47226157D02*
X141941168Y-47226157D01*
X141941168Y-47226157D02*
X142034501Y-47272824D01*
X142034501Y-47272824D02*
X142081168Y-47319490D01*
X142081168Y-47319490D02*
X142127834Y-47412824D01*
X142127834Y-47412824D02*
X142127834Y-47692824D01*
X142127834Y-47692824D02*
X142081168Y-47786157D01*
X142081168Y-47786157D02*
X142034501Y-47832824D01*
X144834357Y-50741014D02*
X145834357Y-50502919D01*
X145834357Y-50502919D02*
X145120071Y-50312443D01*
X145120071Y-50312443D02*
X145834357Y-50121967D01*
X145834357Y-50121967D02*
X144834357Y-49883872D01*
X145786738Y-49550538D02*
X145834357Y-49407681D01*
X145834357Y-49407681D02*
X145834357Y-49169586D01*
X145834357Y-49169586D02*
X145786738Y-49074348D01*
X145786738Y-49074348D02*
X145739118Y-49026729D01*
X145739118Y-49026729D02*
X145643880Y-48979110D01*
X145643880Y-48979110D02*
X145548642Y-48979110D01*
X145548642Y-48979110D02*
X145453404Y-49026729D01*
X145453404Y-49026729D02*
X145405785Y-49074348D01*
X145405785Y-49074348D02*
X145358166Y-49169586D01*
X145358166Y-49169586D02*
X145310547Y-49360062D01*
X145310547Y-49360062D02*
X145262928Y-49455300D01*
X145262928Y-49455300D02*
X145215309Y-49502919D01*
X145215309Y-49502919D02*
X145120071Y-49550538D01*
X145120071Y-49550538D02*
X145024833Y-49550538D01*
X145024833Y-49550538D02*
X144929595Y-49502919D01*
X144929595Y-49502919D02*
X144881976Y-49455300D01*
X144881976Y-49455300D02*
X144834357Y-49360062D01*
X144834357Y-49360062D02*
X144834357Y-49121967D01*
X144834357Y-49121967D02*
X144881976Y-48979110D01*
X144929595Y-48598157D02*
X144881976Y-48550538D01*
X144881976Y-48550538D02*
X144834357Y-48455300D01*
X144834357Y-48455300D02*
X144834357Y-48217205D01*
X144834357Y-48217205D02*
X144881976Y-48121967D01*
X144881976Y-48121967D02*
X144929595Y-48074348D01*
X144929595Y-48074348D02*
X145024833Y-48026729D01*
X145024833Y-48026729D02*
X145120071Y-48026729D01*
X145120071Y-48026729D02*
X145262928Y-48074348D01*
X145262928Y-48074348D02*
X145834357Y-48645776D01*
X145834357Y-48645776D02*
X145834357Y-48026729D01*
X145262928Y-47455300D02*
X145215309Y-47550538D01*
X145215309Y-47550538D02*
X145167690Y-47598157D01*
X145167690Y-47598157D02*
X145072452Y-47645776D01*
X145072452Y-47645776D02*
X145024833Y-47645776D01*
X145024833Y-47645776D02*
X144929595Y-47598157D01*
X144929595Y-47598157D02*
X144881976Y-47550538D01*
X144881976Y-47550538D02*
X144834357Y-47455300D01*
X144834357Y-47455300D02*
X144834357Y-47264824D01*
X144834357Y-47264824D02*
X144881976Y-47169586D01*
X144881976Y-47169586D02*
X144929595Y-47121967D01*
X144929595Y-47121967D02*
X145024833Y-47074348D01*
X145024833Y-47074348D02*
X145072452Y-47074348D01*
X145072452Y-47074348D02*
X145167690Y-47121967D01*
X145167690Y-47121967D02*
X145215309Y-47169586D01*
X145215309Y-47169586D02*
X145262928Y-47264824D01*
X145262928Y-47264824D02*
X145262928Y-47455300D01*
X145262928Y-47455300D02*
X145310547Y-47550538D01*
X145310547Y-47550538D02*
X145358166Y-47598157D01*
X145358166Y-47598157D02*
X145453404Y-47645776D01*
X145453404Y-47645776D02*
X145643880Y-47645776D01*
X145643880Y-47645776D02*
X145739118Y-47598157D01*
X145739118Y-47598157D02*
X145786738Y-47550538D01*
X145786738Y-47550538D02*
X145834357Y-47455300D01*
X145834357Y-47455300D02*
X145834357Y-47264824D01*
X145834357Y-47264824D02*
X145786738Y-47169586D01*
X145786738Y-47169586D02*
X145739118Y-47121967D01*
X145739118Y-47121967D02*
X145643880Y-47074348D01*
X145643880Y-47074348D02*
X145453404Y-47074348D01*
X145453404Y-47074348D02*
X145358166Y-47121967D01*
X145358166Y-47121967D02*
X145310547Y-47169586D01*
X145310547Y-47169586D02*
X145262928Y-47264824D01*
X145834357Y-46121967D02*
X145834357Y-46693395D01*
X145834357Y-46407681D02*
X144834357Y-46407681D01*
X144834357Y-46407681D02*
X144977214Y-46502919D01*
X144977214Y-46502919D02*
X145072452Y-46598157D01*
X145072452Y-46598157D02*
X145120071Y-46693395D01*
X145834357Y-45169586D02*
X145834357Y-45741014D01*
X145834357Y-45455300D02*
X144834357Y-45455300D01*
X144834357Y-45455300D02*
X144977214Y-45550538D01*
X144977214Y-45550538D02*
X145072452Y-45645776D01*
X145072452Y-45645776D02*
X145120071Y-45741014D01*
X150291834Y-48678157D02*
X151085168Y-48678157D01*
X151085168Y-48678157D02*
X151178501Y-48631491D01*
X151178501Y-48631491D02*
X151225168Y-48584824D01*
X151225168Y-48584824D02*
X151271834Y-48491491D01*
X151271834Y-48491491D02*
X151271834Y-48304824D01*
X151271834Y-48304824D02*
X151225168Y-48211491D01*
X151225168Y-48211491D02*
X151178501Y-48164824D01*
X151178501Y-48164824D02*
X151085168Y-48118157D01*
X151085168Y-48118157D02*
X150291834Y-48118157D01*
X150385168Y-47698157D02*
X150338501Y-47651490D01*
X150338501Y-47651490D02*
X150291834Y-47558157D01*
X150291834Y-47558157D02*
X150291834Y-47324824D01*
X150291834Y-47324824D02*
X150338501Y-47231490D01*
X150338501Y-47231490D02*
X150385168Y-47184824D01*
X150385168Y-47184824D02*
X150478501Y-47138157D01*
X150478501Y-47138157D02*
X150571834Y-47138157D01*
X150571834Y-47138157D02*
X150711834Y-47184824D01*
X150711834Y-47184824D02*
X151271834Y-47744824D01*
X151271834Y-47744824D02*
X151271834Y-47138157D01*
D12*
X135827901Y-54277657D02*
X135494568Y-54510990D01*
X135827901Y-54677657D02*
X135127901Y-54677657D01*
X135127901Y-54677657D02*
X135127901Y-54410990D01*
X135127901Y-54410990D02*
X135161234Y-54344324D01*
X135161234Y-54344324D02*
X135194568Y-54310990D01*
X135194568Y-54310990D02*
X135261234Y-54277657D01*
X135261234Y-54277657D02*
X135361234Y-54277657D01*
X135361234Y-54277657D02*
X135427901Y-54310990D01*
X135427901Y-54310990D02*
X135461234Y-54344324D01*
X135461234Y-54344324D02*
X135494568Y-54410990D01*
X135494568Y-54410990D02*
X135494568Y-54677657D01*
X135127901Y-54044324D02*
X135127901Y-53577657D01*
X135127901Y-53577657D02*
X135827901Y-53877657D01*
D11*
X134086417Y-54244324D02*
X133848322Y-54410990D01*
X134086417Y-54530038D02*
X133586417Y-54530038D01*
X133586417Y-54530038D02*
X133586417Y-54339562D01*
X133586417Y-54339562D02*
X133610227Y-54291943D01*
X133610227Y-54291943D02*
X133634036Y-54268133D01*
X133634036Y-54268133D02*
X133681655Y-54244324D01*
X133681655Y-54244324D02*
X133753084Y-54244324D01*
X133753084Y-54244324D02*
X133800703Y-54268133D01*
X133800703Y-54268133D02*
X133824512Y-54291943D01*
X133824512Y-54291943D02*
X133848322Y-54339562D01*
X133848322Y-54339562D02*
X133848322Y-54530038D01*
X133586417Y-54077657D02*
X133586417Y-53744324D01*
X133586417Y-53744324D02*
X134086417Y-53958609D01*
D10*
X157658087Y-41038109D02*
X157658087Y-41514299D01*
X157658087Y-41514299D02*
X156658087Y-41514299D01*
X157134277Y-40704775D02*
X157134277Y-40371442D01*
X157658087Y-40228585D02*
X157658087Y-40704775D01*
X157658087Y-40704775D02*
X156658087Y-40704775D01*
X156658087Y-40704775D02*
X156658087Y-40228585D01*
X157658087Y-39800013D02*
X156658087Y-39800013D01*
X156658087Y-39800013D02*
X156658087Y-39561918D01*
X156658087Y-39561918D02*
X156705706Y-39419061D01*
X156705706Y-39419061D02*
X156800944Y-39323823D01*
X156800944Y-39323823D02*
X156896182Y-39276204D01*
X156896182Y-39276204D02*
X157086658Y-39228585D01*
X157086658Y-39228585D02*
X157229515Y-39228585D01*
X157229515Y-39228585D02*
X157419991Y-39276204D01*
X157419991Y-39276204D02*
X157515229Y-39323823D01*
X157515229Y-39323823D02*
X157610468Y-39419061D01*
X157610468Y-39419061D02*
X157658087Y-39561918D01*
X157658087Y-39561918D02*
X157658087Y-39800013D01*
X157610468Y-38847632D02*
X157658087Y-38752394D01*
X157658087Y-38752394D02*
X157658087Y-38561918D01*
X157658087Y-38561918D02*
X157610468Y-38466680D01*
X157610468Y-38466680D02*
X157515229Y-38419061D01*
X157515229Y-38419061D02*
X157467610Y-38419061D01*
X157467610Y-38419061D02*
X157372372Y-38466680D01*
X157372372Y-38466680D02*
X157324753Y-38561918D01*
X157324753Y-38561918D02*
X157324753Y-38704775D01*
X157324753Y-38704775D02*
X157277134Y-38800013D01*
X157277134Y-38800013D02*
X157181896Y-38847632D01*
X157181896Y-38847632D02*
X157134277Y-38847632D01*
X157134277Y-38847632D02*
X157039039Y-38800013D01*
X157039039Y-38800013D02*
X156991420Y-38704775D01*
X156991420Y-38704775D02*
X156991420Y-38561918D01*
X156991420Y-38561918D02*
X157039039Y-38466680D01*
X138859935Y-39445309D02*
X138859935Y-40159594D01*
X138859935Y-40159594D02*
X138812316Y-40302451D01*
X138812316Y-40302451D02*
X138717078Y-40397690D01*
X138717078Y-40397690D02*
X138574221Y-40445309D01*
X138574221Y-40445309D02*
X138478983Y-40445309D01*
X139288507Y-39540547D02*
X139336126Y-39492928D01*
X139336126Y-39492928D02*
X139431364Y-39445309D01*
X139431364Y-39445309D02*
X139669459Y-39445309D01*
X139669459Y-39445309D02*
X139764697Y-39492928D01*
X139764697Y-39492928D02*
X139812316Y-39540547D01*
X139812316Y-39540547D02*
X139859935Y-39635785D01*
X139859935Y-39635785D02*
X139859935Y-39731023D01*
X139859935Y-39731023D02*
X139812316Y-39873880D01*
X139812316Y-39873880D02*
X139240888Y-40445309D01*
X139240888Y-40445309D02*
X139859935Y-40445309D01*
D12*
X134504601Y-57073124D02*
X134271268Y-56739791D01*
X134104601Y-57073124D02*
X134104601Y-56373124D01*
X134104601Y-56373124D02*
X134371268Y-56373124D01*
X134371268Y-56373124D02*
X134437935Y-56406457D01*
X134437935Y-56406457D02*
X134471268Y-56439791D01*
X134471268Y-56439791D02*
X134504601Y-56506457D01*
X134504601Y-56506457D02*
X134504601Y-56606457D01*
X134504601Y-56606457D02*
X134471268Y-56673124D01*
X134471268Y-56673124D02*
X134437935Y-56706457D01*
X134437935Y-56706457D02*
X134371268Y-56739791D01*
X134371268Y-56739791D02*
X134104601Y-56739791D01*
X135137935Y-56373124D02*
X134804601Y-56373124D01*
X134804601Y-56373124D02*
X134771268Y-56706457D01*
X134771268Y-56706457D02*
X134804601Y-56673124D01*
X134804601Y-56673124D02*
X134871268Y-56639791D01*
X134871268Y-56639791D02*
X135037935Y-56639791D01*
X135037935Y-56639791D02*
X135104601Y-56673124D01*
X135104601Y-56673124D02*
X135137935Y-56706457D01*
X135137935Y-56706457D02*
X135171268Y-56773124D01*
X135171268Y-56773124D02*
X135171268Y-56939791D01*
X135171268Y-56939791D02*
X135137935Y-57006457D01*
X135137935Y-57006457D02*
X135104601Y-57039791D01*
X135104601Y-57039791D02*
X135037935Y-57073124D01*
X135037935Y-57073124D02*
X134871268Y-57073124D01*
X134871268Y-57073124D02*
X134804601Y-57039791D01*
X134804601Y-57039791D02*
X134771268Y-57006457D01*
D11*
X134537934Y-58505640D02*
X134371268Y-58267545D01*
X134252220Y-58505640D02*
X134252220Y-58005640D01*
X134252220Y-58005640D02*
X134442696Y-58005640D01*
X134442696Y-58005640D02*
X134490315Y-58029450D01*
X134490315Y-58029450D02*
X134514125Y-58053259D01*
X134514125Y-58053259D02*
X134537934Y-58100878D01*
X134537934Y-58100878D02*
X134537934Y-58172307D01*
X134537934Y-58172307D02*
X134514125Y-58219926D01*
X134514125Y-58219926D02*
X134490315Y-58243735D01*
X134490315Y-58243735D02*
X134442696Y-58267545D01*
X134442696Y-58267545D02*
X134252220Y-58267545D01*
X134990315Y-58005640D02*
X134752220Y-58005640D01*
X134752220Y-58005640D02*
X134728411Y-58243735D01*
X134728411Y-58243735D02*
X134752220Y-58219926D01*
X134752220Y-58219926D02*
X134799839Y-58196116D01*
X134799839Y-58196116D02*
X134918887Y-58196116D01*
X134918887Y-58196116D02*
X134966506Y-58219926D01*
X134966506Y-58219926D02*
X134990315Y-58243735D01*
X134990315Y-58243735D02*
X135014125Y-58291354D01*
X135014125Y-58291354D02*
X135014125Y-58410402D01*
X135014125Y-58410402D02*
X134990315Y-58458021D01*
X134990315Y-58458021D02*
X134966506Y-58481831D01*
X134966506Y-58481831D02*
X134918887Y-58505640D01*
X134918887Y-58505640D02*
X134799839Y-58505640D01*
X134799839Y-58505640D02*
X134752220Y-58481831D01*
X134752220Y-58481831D02*
X134728411Y-58458021D01*
D10*
X126220087Y-50807514D02*
X127220087Y-50569419D01*
X127220087Y-50569419D02*
X126505801Y-50378943D01*
X126505801Y-50378943D02*
X127220087Y-50188467D01*
X127220087Y-50188467D02*
X126220087Y-49950372D01*
X127172468Y-49617038D02*
X127220087Y-49474181D01*
X127220087Y-49474181D02*
X127220087Y-49236086D01*
X127220087Y-49236086D02*
X127172468Y-49140848D01*
X127172468Y-49140848D02*
X127124848Y-49093229D01*
X127124848Y-49093229D02*
X127029610Y-49045610D01*
X127029610Y-49045610D02*
X126934372Y-49045610D01*
X126934372Y-49045610D02*
X126839134Y-49093229D01*
X126839134Y-49093229D02*
X126791515Y-49140848D01*
X126791515Y-49140848D02*
X126743896Y-49236086D01*
X126743896Y-49236086D02*
X126696277Y-49426562D01*
X126696277Y-49426562D02*
X126648658Y-49521800D01*
X126648658Y-49521800D02*
X126601039Y-49569419D01*
X126601039Y-49569419D02*
X126505801Y-49617038D01*
X126505801Y-49617038D02*
X126410563Y-49617038D01*
X126410563Y-49617038D02*
X126315325Y-49569419D01*
X126315325Y-49569419D02*
X126267706Y-49521800D01*
X126267706Y-49521800D02*
X126220087Y-49426562D01*
X126220087Y-49426562D02*
X126220087Y-49188467D01*
X126220087Y-49188467D02*
X126267706Y-49045610D01*
X126315325Y-48664657D02*
X126267706Y-48617038D01*
X126267706Y-48617038D02*
X126220087Y-48521800D01*
X126220087Y-48521800D02*
X126220087Y-48283705D01*
X126220087Y-48283705D02*
X126267706Y-48188467D01*
X126267706Y-48188467D02*
X126315325Y-48140848D01*
X126315325Y-48140848D02*
X126410563Y-48093229D01*
X126410563Y-48093229D02*
X126505801Y-48093229D01*
X126505801Y-48093229D02*
X126648658Y-48140848D01*
X126648658Y-48140848D02*
X127220087Y-48712276D01*
X127220087Y-48712276D02*
X127220087Y-48093229D01*
X126648658Y-47521800D02*
X126601039Y-47617038D01*
X126601039Y-47617038D02*
X126553420Y-47664657D01*
X126553420Y-47664657D02*
X126458182Y-47712276D01*
X126458182Y-47712276D02*
X126410563Y-47712276D01*
X126410563Y-47712276D02*
X126315325Y-47664657D01*
X126315325Y-47664657D02*
X126267706Y-47617038D01*
X126267706Y-47617038D02*
X126220087Y-47521800D01*
X126220087Y-47521800D02*
X126220087Y-47331324D01*
X126220087Y-47331324D02*
X126267706Y-47236086D01*
X126267706Y-47236086D02*
X126315325Y-47188467D01*
X126315325Y-47188467D02*
X126410563Y-47140848D01*
X126410563Y-47140848D02*
X126458182Y-47140848D01*
X126458182Y-47140848D02*
X126553420Y-47188467D01*
X126553420Y-47188467D02*
X126601039Y-47236086D01*
X126601039Y-47236086D02*
X126648658Y-47331324D01*
X126648658Y-47331324D02*
X126648658Y-47521800D01*
X126648658Y-47521800D02*
X126696277Y-47617038D01*
X126696277Y-47617038D02*
X126743896Y-47664657D01*
X126743896Y-47664657D02*
X126839134Y-47712276D01*
X126839134Y-47712276D02*
X127029610Y-47712276D01*
X127029610Y-47712276D02*
X127124848Y-47664657D01*
X127124848Y-47664657D02*
X127172468Y-47617038D01*
X127172468Y-47617038D02*
X127220087Y-47521800D01*
X127220087Y-47521800D02*
X127220087Y-47331324D01*
X127220087Y-47331324D02*
X127172468Y-47236086D01*
X127172468Y-47236086D02*
X127124848Y-47188467D01*
X127124848Y-47188467D02*
X127029610Y-47140848D01*
X127029610Y-47140848D02*
X126839134Y-47140848D01*
X126839134Y-47140848D02*
X126743896Y-47188467D01*
X126743896Y-47188467D02*
X126696277Y-47236086D01*
X126696277Y-47236086D02*
X126648658Y-47331324D01*
X127220087Y-46188467D02*
X127220087Y-46759895D01*
X127220087Y-46474181D02*
X126220087Y-46474181D01*
X126220087Y-46474181D02*
X126362944Y-46569419D01*
X126362944Y-46569419D02*
X126458182Y-46664657D01*
X126458182Y-46664657D02*
X126505801Y-46759895D01*
X127220087Y-45236086D02*
X127220087Y-45807514D01*
X127220087Y-45521800D02*
X126220087Y-45521800D01*
X126220087Y-45521800D02*
X126362944Y-45617038D01*
X126362944Y-45617038D02*
X126458182Y-45712276D01*
X126458182Y-45712276D02*
X126505801Y-45807514D01*
X131495834Y-48744657D02*
X132289168Y-48744657D01*
X132289168Y-48744657D02*
X132382501Y-48697991D01*
X132382501Y-48697991D02*
X132429168Y-48651324D01*
X132429168Y-48651324D02*
X132475834Y-48557991D01*
X132475834Y-48557991D02*
X132475834Y-48371324D01*
X132475834Y-48371324D02*
X132429168Y-48277991D01*
X132429168Y-48277991D02*
X132382501Y-48231324D01*
X132382501Y-48231324D02*
X132289168Y-48184657D01*
X132289168Y-48184657D02*
X131495834Y-48184657D01*
X131822501Y-47297990D02*
X132475834Y-47297990D01*
X131449168Y-47531324D02*
X132149168Y-47764657D01*
X132149168Y-47764657D02*
X132149168Y-47157990D01*
D11*
X124942417Y-54244324D02*
X124704322Y-54410990D01*
X124942417Y-54530038D02*
X124442417Y-54530038D01*
X124442417Y-54530038D02*
X124442417Y-54339562D01*
X124442417Y-54339562D02*
X124466227Y-54291943D01*
X124466227Y-54291943D02*
X124490036Y-54268133D01*
X124490036Y-54268133D02*
X124537655Y-54244324D01*
X124537655Y-54244324D02*
X124609084Y-54244324D01*
X124609084Y-54244324D02*
X124656703Y-54268133D01*
X124656703Y-54268133D02*
X124680512Y-54291943D01*
X124680512Y-54291943D02*
X124704322Y-54339562D01*
X124704322Y-54339562D02*
X124704322Y-54530038D01*
X124656703Y-53958609D02*
X124632893Y-54006228D01*
X124632893Y-54006228D02*
X124609084Y-54030038D01*
X124609084Y-54030038D02*
X124561465Y-54053847D01*
X124561465Y-54053847D02*
X124537655Y-54053847D01*
X124537655Y-54053847D02*
X124490036Y-54030038D01*
X124490036Y-54030038D02*
X124466227Y-54006228D01*
X124466227Y-54006228D02*
X124442417Y-53958609D01*
X124442417Y-53958609D02*
X124442417Y-53863371D01*
X124442417Y-53863371D02*
X124466227Y-53815752D01*
X124466227Y-53815752D02*
X124490036Y-53791943D01*
X124490036Y-53791943D02*
X124537655Y-53768133D01*
X124537655Y-53768133D02*
X124561465Y-53768133D01*
X124561465Y-53768133D02*
X124609084Y-53791943D01*
X124609084Y-53791943D02*
X124632893Y-53815752D01*
X124632893Y-53815752D02*
X124656703Y-53863371D01*
X124656703Y-53863371D02*
X124656703Y-53958609D01*
X124656703Y-53958609D02*
X124680512Y-54006228D01*
X124680512Y-54006228D02*
X124704322Y-54030038D01*
X124704322Y-54030038D02*
X124751941Y-54053847D01*
X124751941Y-54053847D02*
X124847179Y-54053847D01*
X124847179Y-54053847D02*
X124894798Y-54030038D01*
X124894798Y-54030038D02*
X124918608Y-54006228D01*
X124918608Y-54006228D02*
X124942417Y-53958609D01*
X124942417Y-53958609D02*
X124942417Y-53863371D01*
X124942417Y-53863371D02*
X124918608Y-53815752D01*
X124918608Y-53815752D02*
X124894798Y-53791943D01*
X124894798Y-53791943D02*
X124847179Y-53768133D01*
X124847179Y-53768133D02*
X124751941Y-53768133D01*
X124751941Y-53768133D02*
X124704322Y-53791943D01*
X124704322Y-53791943D02*
X124680512Y-53815752D01*
X124680512Y-53815752D02*
X124656703Y-53863371D01*
D10*
X165112468Y-56569919D02*
X165160087Y-56427062D01*
X165160087Y-56427062D02*
X165160087Y-56188967D01*
X165160087Y-56188967D02*
X165112468Y-56093729D01*
X165112468Y-56093729D02*
X165064848Y-56046110D01*
X165064848Y-56046110D02*
X164969610Y-55998491D01*
X164969610Y-55998491D02*
X164874372Y-55998491D01*
X164874372Y-55998491D02*
X164779134Y-56046110D01*
X164779134Y-56046110D02*
X164731515Y-56093729D01*
X164731515Y-56093729D02*
X164683896Y-56188967D01*
X164683896Y-56188967D02*
X164636277Y-56379443D01*
X164636277Y-56379443D02*
X164588658Y-56474681D01*
X164588658Y-56474681D02*
X164541039Y-56522300D01*
X164541039Y-56522300D02*
X164445801Y-56569919D01*
X164445801Y-56569919D02*
X164350563Y-56569919D01*
X164350563Y-56569919D02*
X164255325Y-56522300D01*
X164255325Y-56522300D02*
X164207706Y-56474681D01*
X164207706Y-56474681D02*
X164160087Y-56379443D01*
X164160087Y-56379443D02*
X164160087Y-56141348D01*
X164160087Y-56141348D02*
X164207706Y-55998491D01*
X164160087Y-55665157D02*
X165160087Y-55427062D01*
X165160087Y-55427062D02*
X164445801Y-55236586D01*
X164445801Y-55236586D02*
X165160087Y-55046110D01*
X165160087Y-55046110D02*
X164160087Y-54808015D01*
X165255325Y-54665158D02*
X165255325Y-53903253D01*
X165112468Y-53712776D02*
X165160087Y-53569919D01*
X165160087Y-53569919D02*
X165160087Y-53331824D01*
X165160087Y-53331824D02*
X165112468Y-53236586D01*
X165112468Y-53236586D02*
X165064848Y-53188967D01*
X165064848Y-53188967D02*
X164969610Y-53141348D01*
X164969610Y-53141348D02*
X164874372Y-53141348D01*
X164874372Y-53141348D02*
X164779134Y-53188967D01*
X164779134Y-53188967D02*
X164731515Y-53236586D01*
X164731515Y-53236586D02*
X164683896Y-53331824D01*
X164683896Y-53331824D02*
X164636277Y-53522300D01*
X164636277Y-53522300D02*
X164588658Y-53617538D01*
X164588658Y-53617538D02*
X164541039Y-53665157D01*
X164541039Y-53665157D02*
X164445801Y-53712776D01*
X164445801Y-53712776D02*
X164350563Y-53712776D01*
X164350563Y-53712776D02*
X164255325Y-53665157D01*
X164255325Y-53665157D02*
X164207706Y-53617538D01*
X164207706Y-53617538D02*
X164160087Y-53522300D01*
X164160087Y-53522300D02*
X164160087Y-53284205D01*
X164160087Y-53284205D02*
X164207706Y-53141348D01*
X165160087Y-52712776D02*
X164160087Y-52712776D01*
X164160087Y-52712776D02*
X164160087Y-52331824D01*
X164160087Y-52331824D02*
X164207706Y-52236586D01*
X164207706Y-52236586D02*
X164255325Y-52188967D01*
X164255325Y-52188967D02*
X164350563Y-52141348D01*
X164350563Y-52141348D02*
X164493420Y-52141348D01*
X164493420Y-52141348D02*
X164588658Y-52188967D01*
X164588658Y-52188967D02*
X164636277Y-52236586D01*
X164636277Y-52236586D02*
X164683896Y-52331824D01*
X164683896Y-52331824D02*
X164683896Y-52712776D01*
X165112468Y-51760395D02*
X165160087Y-51617538D01*
X165160087Y-51617538D02*
X165160087Y-51379443D01*
X165160087Y-51379443D02*
X165112468Y-51284205D01*
X165112468Y-51284205D02*
X165064848Y-51236586D01*
X165064848Y-51236586D02*
X164969610Y-51188967D01*
X164969610Y-51188967D02*
X164874372Y-51188967D01*
X164874372Y-51188967D02*
X164779134Y-51236586D01*
X164779134Y-51236586D02*
X164731515Y-51284205D01*
X164731515Y-51284205D02*
X164683896Y-51379443D01*
X164683896Y-51379443D02*
X164636277Y-51569919D01*
X164636277Y-51569919D02*
X164588658Y-51665157D01*
X164588658Y-51665157D02*
X164541039Y-51712776D01*
X164541039Y-51712776D02*
X164445801Y-51760395D01*
X164445801Y-51760395D02*
X164350563Y-51760395D01*
X164350563Y-51760395D02*
X164255325Y-51712776D01*
X164255325Y-51712776D02*
X164207706Y-51665157D01*
X164207706Y-51665157D02*
X164160087Y-51569919D01*
X164160087Y-51569919D02*
X164160087Y-51331824D01*
X164160087Y-51331824D02*
X164207706Y-51188967D01*
X164160087Y-50903252D02*
X164160087Y-50331824D01*
X165160087Y-50617538D02*
X164160087Y-50617538D01*
D12*
X158907568Y-53565156D02*
X158931377Y-53493728D01*
X158931377Y-53493728D02*
X158931377Y-53374680D01*
X158931377Y-53374680D02*
X158907568Y-53327061D01*
X158907568Y-53327061D02*
X158883758Y-53303252D01*
X158883758Y-53303252D02*
X158836139Y-53279442D01*
X158836139Y-53279442D02*
X158788520Y-53279442D01*
X158788520Y-53279442D02*
X158740901Y-53303252D01*
X158740901Y-53303252D02*
X158717091Y-53327061D01*
X158717091Y-53327061D02*
X158693282Y-53374680D01*
X158693282Y-53374680D02*
X158669472Y-53469918D01*
X158669472Y-53469918D02*
X158645663Y-53517537D01*
X158645663Y-53517537D02*
X158621853Y-53541347D01*
X158621853Y-53541347D02*
X158574234Y-53565156D01*
X158574234Y-53565156D02*
X158526615Y-53565156D01*
X158526615Y-53565156D02*
X158478996Y-53541347D01*
X158478996Y-53541347D02*
X158455187Y-53517537D01*
X158455187Y-53517537D02*
X158431377Y-53469918D01*
X158431377Y-53469918D02*
X158431377Y-53350871D01*
X158431377Y-53350871D02*
X158455187Y-53279442D01*
X158431377Y-53112776D02*
X158931377Y-52993728D01*
X158931377Y-52993728D02*
X158574234Y-52898490D01*
X158574234Y-52898490D02*
X158931377Y-52803252D01*
X158931377Y-52803252D02*
X158431377Y-52684205D01*
X158931377Y-52231823D02*
X158931377Y-52517537D01*
X158931377Y-52374680D02*
X158431377Y-52374680D01*
X158431377Y-52374680D02*
X158502806Y-52422299D01*
X158502806Y-52422299D02*
X158550425Y-52469918D01*
X158550425Y-52469918D02*
X158574234Y-52517537D01*
D10*
X153520086Y-61160102D02*
X153520086Y-61731530D01*
X153520086Y-61445816D02*
X152520086Y-61445816D01*
X152520086Y-61445816D02*
X152662943Y-61541054D01*
X152662943Y-61541054D02*
X152758181Y-61636292D01*
X152758181Y-61636292D02*
X152805800Y-61731530D01*
X152520086Y-60541054D02*
X152520086Y-60445816D01*
X152520086Y-60445816D02*
X152567705Y-60350578D01*
X152567705Y-60350578D02*
X152615324Y-60302959D01*
X152615324Y-60302959D02*
X152710562Y-60255340D01*
X152710562Y-60255340D02*
X152901038Y-60207721D01*
X152901038Y-60207721D02*
X153139133Y-60207721D01*
X153139133Y-60207721D02*
X153329609Y-60255340D01*
X153329609Y-60255340D02*
X153424847Y-60302959D01*
X153424847Y-60302959D02*
X153472467Y-60350578D01*
X153472467Y-60350578D02*
X153520086Y-60445816D01*
X153520086Y-60445816D02*
X153520086Y-60541054D01*
X153520086Y-60541054D02*
X153472467Y-60636292D01*
X153472467Y-60636292D02*
X153424847Y-60683911D01*
X153424847Y-60683911D02*
X153329609Y-60731530D01*
X153329609Y-60731530D02*
X153139133Y-60779149D01*
X153139133Y-60779149D02*
X152901038Y-60779149D01*
X152901038Y-60779149D02*
X152710562Y-60731530D01*
X152710562Y-60731530D02*
X152615324Y-60683911D01*
X152615324Y-60683911D02*
X152567705Y-60636292D01*
X152567705Y-60636292D02*
X152520086Y-60541054D01*
X152520086Y-59588673D02*
X152520086Y-59493435D01*
X152520086Y-59493435D02*
X152567705Y-59398197D01*
X152567705Y-59398197D02*
X152615324Y-59350578D01*
X152615324Y-59350578D02*
X152710562Y-59302959D01*
X152710562Y-59302959D02*
X152901038Y-59255340D01*
X152901038Y-59255340D02*
X153139133Y-59255340D01*
X153139133Y-59255340D02*
X153329609Y-59302959D01*
X153329609Y-59302959D02*
X153424847Y-59350578D01*
X153424847Y-59350578D02*
X153472467Y-59398197D01*
X153472467Y-59398197D02*
X153520086Y-59493435D01*
X153520086Y-59493435D02*
X153520086Y-59588673D01*
X153520086Y-59588673D02*
X153472467Y-59683911D01*
X153472467Y-59683911D02*
X153424847Y-59731530D01*
X153424847Y-59731530D02*
X153329609Y-59779149D01*
X153329609Y-59779149D02*
X153139133Y-59826768D01*
X153139133Y-59826768D02*
X152901038Y-59826768D01*
X152901038Y-59826768D02*
X152710562Y-59779149D01*
X152710562Y-59779149D02*
X152615324Y-59731530D01*
X152615324Y-59731530D02*
X152567705Y-59683911D01*
X152567705Y-59683911D02*
X152520086Y-59588673D01*
X152853419Y-58826768D02*
X153520086Y-58826768D01*
X152948657Y-58826768D02*
X152901038Y-58779149D01*
X152901038Y-58779149D02*
X152853419Y-58683911D01*
X152853419Y-58683911D02*
X152853419Y-58541054D01*
X152853419Y-58541054D02*
X152901038Y-58445816D01*
X152901038Y-58445816D02*
X152996276Y-58398197D01*
X152996276Y-58398197D02*
X153520086Y-58398197D01*
X152996276Y-57588673D02*
X152996276Y-57922006D01*
X153520086Y-57922006D02*
X152520086Y-57922006D01*
X152520086Y-57922006D02*
X152520086Y-57445816D01*
X153615324Y-57302959D02*
X153615324Y-56541054D01*
X153424847Y-55731530D02*
X153472467Y-55779149D01*
X153472467Y-55779149D02*
X153520086Y-55922006D01*
X153520086Y-55922006D02*
X153520086Y-56017244D01*
X153520086Y-56017244D02*
X153472467Y-56160101D01*
X153472467Y-56160101D02*
X153377228Y-56255339D01*
X153377228Y-56255339D02*
X153281990Y-56302958D01*
X153281990Y-56302958D02*
X153091514Y-56350577D01*
X153091514Y-56350577D02*
X152948657Y-56350577D01*
X152948657Y-56350577D02*
X152758181Y-56302958D01*
X152758181Y-56302958D02*
X152662943Y-56255339D01*
X152662943Y-56255339D02*
X152567705Y-56160101D01*
X152567705Y-56160101D02*
X152520086Y-56017244D01*
X152520086Y-56017244D02*
X152520086Y-55922006D01*
X152520086Y-55922006D02*
X152567705Y-55779149D01*
X152567705Y-55779149D02*
X152615324Y-55731530D01*
X153472467Y-54922006D02*
X153520086Y-55017244D01*
X153520086Y-55017244D02*
X153520086Y-55207720D01*
X153520086Y-55207720D02*
X153472467Y-55302958D01*
X153472467Y-55302958D02*
X153377228Y-55350577D01*
X153377228Y-55350577D02*
X152996276Y-55350577D01*
X152996276Y-55350577D02*
X152901038Y-55302958D01*
X152901038Y-55302958D02*
X152853419Y-55207720D01*
X152853419Y-55207720D02*
X152853419Y-55017244D01*
X152853419Y-55017244D02*
X152901038Y-54922006D01*
X152901038Y-54922006D02*
X152996276Y-54874387D01*
X152996276Y-54874387D02*
X153091514Y-54874387D01*
X153091514Y-54874387D02*
X153186752Y-55350577D01*
X153520086Y-54445815D02*
X152853419Y-54445815D01*
X153043895Y-54445815D02*
X152948657Y-54398196D01*
X152948657Y-54398196D02*
X152901038Y-54350577D01*
X152901038Y-54350577D02*
X152853419Y-54255339D01*
X152853419Y-54255339D02*
X152853419Y-54160101D01*
X153520086Y-53398196D02*
X152996276Y-53398196D01*
X152996276Y-53398196D02*
X152901038Y-53445815D01*
X152901038Y-53445815D02*
X152853419Y-53541053D01*
X152853419Y-53541053D02*
X152853419Y-53731529D01*
X152853419Y-53731529D02*
X152901038Y-53826767D01*
X153472467Y-53398196D02*
X153520086Y-53493434D01*
X153520086Y-53493434D02*
X153520086Y-53731529D01*
X153520086Y-53731529D02*
X153472467Y-53826767D01*
X153472467Y-53826767D02*
X153377228Y-53874386D01*
X153377228Y-53874386D02*
X153281990Y-53874386D01*
X153281990Y-53874386D02*
X153186752Y-53826767D01*
X153186752Y-53826767D02*
X153139133Y-53731529D01*
X153139133Y-53731529D02*
X153139133Y-53493434D01*
X153139133Y-53493434D02*
X153091514Y-53398196D01*
X153520086Y-52922005D02*
X152853419Y-52922005D01*
X152948657Y-52922005D02*
X152901038Y-52874386D01*
X152901038Y-52874386D02*
X152853419Y-52779148D01*
X152853419Y-52779148D02*
X152853419Y-52636291D01*
X152853419Y-52636291D02*
X152901038Y-52541053D01*
X152901038Y-52541053D02*
X152996276Y-52493434D01*
X152996276Y-52493434D02*
X153520086Y-52493434D01*
X152996276Y-52493434D02*
X152901038Y-52445815D01*
X152901038Y-52445815D02*
X152853419Y-52350577D01*
X152853419Y-52350577D02*
X152853419Y-52207720D01*
X152853419Y-52207720D02*
X152901038Y-52112481D01*
X152901038Y-52112481D02*
X152996276Y-52064862D01*
X152996276Y-52064862D02*
X153520086Y-52064862D01*
X153520086Y-51588672D02*
X152853419Y-51588672D01*
X152520086Y-51588672D02*
X152567705Y-51636291D01*
X152567705Y-51636291D02*
X152615324Y-51588672D01*
X152615324Y-51588672D02*
X152567705Y-51541053D01*
X152567705Y-51541053D02*
X152520086Y-51588672D01*
X152520086Y-51588672D02*
X152615324Y-51588672D01*
X153472467Y-50683911D02*
X153520086Y-50779149D01*
X153520086Y-50779149D02*
X153520086Y-50969625D01*
X153520086Y-50969625D02*
X153472467Y-51064863D01*
X153472467Y-51064863D02*
X153424847Y-51112482D01*
X153424847Y-51112482D02*
X153329609Y-51160101D01*
X153329609Y-51160101D02*
X153043895Y-51160101D01*
X153043895Y-51160101D02*
X152948657Y-51112482D01*
X152948657Y-51112482D02*
X152901038Y-51064863D01*
X152901038Y-51064863D02*
X152853419Y-50969625D01*
X152853419Y-50969625D02*
X152853419Y-50779149D01*
X152853419Y-50779149D02*
X152901038Y-50683911D01*
D11*
X151564798Y-54244324D02*
X151588608Y-54268133D01*
X151588608Y-54268133D02*
X151612417Y-54339562D01*
X151612417Y-54339562D02*
X151612417Y-54387181D01*
X151612417Y-54387181D02*
X151588608Y-54458609D01*
X151588608Y-54458609D02*
X151540988Y-54506228D01*
X151540988Y-54506228D02*
X151493369Y-54530038D01*
X151493369Y-54530038D02*
X151398131Y-54553847D01*
X151398131Y-54553847D02*
X151326703Y-54553847D01*
X151326703Y-54553847D02*
X151231465Y-54530038D01*
X151231465Y-54530038D02*
X151183846Y-54506228D01*
X151183846Y-54506228D02*
X151136227Y-54458609D01*
X151136227Y-54458609D02*
X151112417Y-54387181D01*
X151112417Y-54387181D02*
X151112417Y-54339562D01*
X151112417Y-54339562D02*
X151136227Y-54268133D01*
X151136227Y-54268133D02*
X151160036Y-54244324D01*
X151112417Y-54077657D02*
X151112417Y-53768133D01*
X151112417Y-53768133D02*
X151302893Y-53934800D01*
X151302893Y-53934800D02*
X151302893Y-53863371D01*
X151302893Y-53863371D02*
X151326703Y-53815752D01*
X151326703Y-53815752D02*
X151350512Y-53791943D01*
X151350512Y-53791943D02*
X151398131Y-53768133D01*
X151398131Y-53768133D02*
X151517179Y-53768133D01*
X151517179Y-53768133D02*
X151564798Y-53791943D01*
X151564798Y-53791943D02*
X151588608Y-53815752D01*
X151588608Y-53815752D02*
X151612417Y-53863371D01*
X151612417Y-53863371D02*
X151612417Y-54006228D01*
X151612417Y-54006228D02*
X151588608Y-54053847D01*
X151588608Y-54053847D02*
X151564798Y-54077657D01*
D12*
X129987901Y-54293657D02*
X129654568Y-54526990D01*
X129987901Y-54693657D02*
X129287901Y-54693657D01*
X129287901Y-54693657D02*
X129287901Y-54426990D01*
X129287901Y-54426990D02*
X129321234Y-54360324D01*
X129321234Y-54360324D02*
X129354568Y-54326990D01*
X129354568Y-54326990D02*
X129421234Y-54293657D01*
X129421234Y-54293657D02*
X129521234Y-54293657D01*
X129521234Y-54293657D02*
X129587901Y-54326990D01*
X129587901Y-54326990D02*
X129621234Y-54360324D01*
X129621234Y-54360324D02*
X129654568Y-54426990D01*
X129654568Y-54426990D02*
X129654568Y-54693657D01*
X129287901Y-54060324D02*
X129287901Y-53626990D01*
X129287901Y-53626990D02*
X129554568Y-53860324D01*
X129554568Y-53860324D02*
X129554568Y-53760324D01*
X129554568Y-53760324D02*
X129587901Y-53693657D01*
X129587901Y-53693657D02*
X129621234Y-53660324D01*
X129621234Y-53660324D02*
X129687901Y-53626990D01*
X129687901Y-53626990D02*
X129854568Y-53626990D01*
X129854568Y-53626990D02*
X129921234Y-53660324D01*
X129921234Y-53660324D02*
X129954568Y-53693657D01*
X129954568Y-53693657D02*
X129987901Y-53760324D01*
X129987901Y-53760324D02*
X129987901Y-53960324D01*
X129987901Y-53960324D02*
X129954568Y-54026990D01*
X129954568Y-54026990D02*
X129921234Y-54060324D01*
D11*
X131546417Y-54260324D02*
X131308322Y-54426990D01*
X131546417Y-54546038D02*
X131046417Y-54546038D01*
X131046417Y-54546038D02*
X131046417Y-54355562D01*
X131046417Y-54355562D02*
X131070227Y-54307943D01*
X131070227Y-54307943D02*
X131094036Y-54284133D01*
X131094036Y-54284133D02*
X131141655Y-54260324D01*
X131141655Y-54260324D02*
X131213084Y-54260324D01*
X131213084Y-54260324D02*
X131260703Y-54284133D01*
X131260703Y-54284133D02*
X131284512Y-54307943D01*
X131284512Y-54307943D02*
X131308322Y-54355562D01*
X131308322Y-54355562D02*
X131308322Y-54546038D01*
X131046417Y-54093657D02*
X131046417Y-53784133D01*
X131046417Y-53784133D02*
X131236893Y-53950800D01*
X131236893Y-53950800D02*
X131236893Y-53879371D01*
X131236893Y-53879371D02*
X131260703Y-53831752D01*
X131260703Y-53831752D02*
X131284512Y-53807943D01*
X131284512Y-53807943D02*
X131332131Y-53784133D01*
X131332131Y-53784133D02*
X131451179Y-53784133D01*
X131451179Y-53784133D02*
X131498798Y-53807943D01*
X131498798Y-53807943D02*
X131522608Y-53831752D01*
X131522608Y-53831752D02*
X131546417Y-53879371D01*
X131546417Y-53879371D02*
X131546417Y-54022228D01*
X131546417Y-54022228D02*
X131522608Y-54069847D01*
X131522608Y-54069847D02*
X131498798Y-54093657D01*
D10*
X118881087Y-50788014D02*
X119881087Y-50549919D01*
X119881087Y-50549919D02*
X119166801Y-50359443D01*
X119166801Y-50359443D02*
X119881087Y-50168967D01*
X119881087Y-50168967D02*
X118881087Y-49930872D01*
X119833468Y-49597538D02*
X119881087Y-49454681D01*
X119881087Y-49454681D02*
X119881087Y-49216586D01*
X119881087Y-49216586D02*
X119833468Y-49121348D01*
X119833468Y-49121348D02*
X119785848Y-49073729D01*
X119785848Y-49073729D02*
X119690610Y-49026110D01*
X119690610Y-49026110D02*
X119595372Y-49026110D01*
X119595372Y-49026110D02*
X119500134Y-49073729D01*
X119500134Y-49073729D02*
X119452515Y-49121348D01*
X119452515Y-49121348D02*
X119404896Y-49216586D01*
X119404896Y-49216586D02*
X119357277Y-49407062D01*
X119357277Y-49407062D02*
X119309658Y-49502300D01*
X119309658Y-49502300D02*
X119262039Y-49549919D01*
X119262039Y-49549919D02*
X119166801Y-49597538D01*
X119166801Y-49597538D02*
X119071563Y-49597538D01*
X119071563Y-49597538D02*
X118976325Y-49549919D01*
X118976325Y-49549919D02*
X118928706Y-49502300D01*
X118928706Y-49502300D02*
X118881087Y-49407062D01*
X118881087Y-49407062D02*
X118881087Y-49168967D01*
X118881087Y-49168967D02*
X118928706Y-49026110D01*
X118976325Y-48645157D02*
X118928706Y-48597538D01*
X118928706Y-48597538D02*
X118881087Y-48502300D01*
X118881087Y-48502300D02*
X118881087Y-48264205D01*
X118881087Y-48264205D02*
X118928706Y-48168967D01*
X118928706Y-48168967D02*
X118976325Y-48121348D01*
X118976325Y-48121348D02*
X119071563Y-48073729D01*
X119071563Y-48073729D02*
X119166801Y-48073729D01*
X119166801Y-48073729D02*
X119309658Y-48121348D01*
X119309658Y-48121348D02*
X119881087Y-48692776D01*
X119881087Y-48692776D02*
X119881087Y-48073729D01*
X119309658Y-47502300D02*
X119262039Y-47597538D01*
X119262039Y-47597538D02*
X119214420Y-47645157D01*
X119214420Y-47645157D02*
X119119182Y-47692776D01*
X119119182Y-47692776D02*
X119071563Y-47692776D01*
X119071563Y-47692776D02*
X118976325Y-47645157D01*
X118976325Y-47645157D02*
X118928706Y-47597538D01*
X118928706Y-47597538D02*
X118881087Y-47502300D01*
X118881087Y-47502300D02*
X118881087Y-47311824D01*
X118881087Y-47311824D02*
X118928706Y-47216586D01*
X118928706Y-47216586D02*
X118976325Y-47168967D01*
X118976325Y-47168967D02*
X119071563Y-47121348D01*
X119071563Y-47121348D02*
X119119182Y-47121348D01*
X119119182Y-47121348D02*
X119214420Y-47168967D01*
X119214420Y-47168967D02*
X119262039Y-47216586D01*
X119262039Y-47216586D02*
X119309658Y-47311824D01*
X119309658Y-47311824D02*
X119309658Y-47502300D01*
X119309658Y-47502300D02*
X119357277Y-47597538D01*
X119357277Y-47597538D02*
X119404896Y-47645157D01*
X119404896Y-47645157D02*
X119500134Y-47692776D01*
X119500134Y-47692776D02*
X119690610Y-47692776D01*
X119690610Y-47692776D02*
X119785848Y-47645157D01*
X119785848Y-47645157D02*
X119833468Y-47597538D01*
X119833468Y-47597538D02*
X119881087Y-47502300D01*
X119881087Y-47502300D02*
X119881087Y-47311824D01*
X119881087Y-47311824D02*
X119833468Y-47216586D01*
X119833468Y-47216586D02*
X119785848Y-47168967D01*
X119785848Y-47168967D02*
X119690610Y-47121348D01*
X119690610Y-47121348D02*
X119500134Y-47121348D01*
X119500134Y-47121348D02*
X119404896Y-47168967D01*
X119404896Y-47168967D02*
X119357277Y-47216586D01*
X119357277Y-47216586D02*
X119309658Y-47311824D01*
X119881087Y-46168967D02*
X119881087Y-46740395D01*
X119881087Y-46454681D02*
X118881087Y-46454681D01*
X118881087Y-46454681D02*
X119023944Y-46549919D01*
X119023944Y-46549919D02*
X119119182Y-46645157D01*
X119119182Y-46645157D02*
X119166801Y-46740395D01*
X119881087Y-45216586D02*
X119881087Y-45788014D01*
X119881087Y-45502300D02*
X118881087Y-45502300D01*
X118881087Y-45502300D02*
X119023944Y-45597538D01*
X119023944Y-45597538D02*
X119119182Y-45692776D01*
X119119182Y-45692776D02*
X119166801Y-45788014D01*
X122291834Y-48725157D02*
X123085168Y-48725157D01*
X123085168Y-48725157D02*
X123178501Y-48678491D01*
X123178501Y-48678491D02*
X123225168Y-48631824D01*
X123225168Y-48631824D02*
X123271834Y-48538491D01*
X123271834Y-48538491D02*
X123271834Y-48351824D01*
X123271834Y-48351824D02*
X123225168Y-48258491D01*
X123225168Y-48258491D02*
X123178501Y-48211824D01*
X123178501Y-48211824D02*
X123085168Y-48165157D01*
X123085168Y-48165157D02*
X122291834Y-48165157D01*
X122291834Y-47231824D02*
X122291834Y-47698490D01*
X122291834Y-47698490D02*
X122758501Y-47745157D01*
X122758501Y-47745157D02*
X122711834Y-47698490D01*
X122711834Y-47698490D02*
X122665168Y-47605157D01*
X122665168Y-47605157D02*
X122665168Y-47371824D01*
X122665168Y-47371824D02*
X122711834Y-47278490D01*
X122711834Y-47278490D02*
X122758501Y-47231824D01*
X122758501Y-47231824D02*
X122851834Y-47185157D01*
X122851834Y-47185157D02*
X123085168Y-47185157D01*
X123085168Y-47185157D02*
X123178501Y-47231824D01*
X123178501Y-47231824D02*
X123225168Y-47278490D01*
X123225168Y-47278490D02*
X123271834Y-47371824D01*
X123271834Y-47371824D02*
X123271834Y-47605157D01*
X123271834Y-47605157D02*
X123225168Y-47698490D01*
X123225168Y-47698490D02*
X123178501Y-47745157D01*
X134521838Y-85633499D02*
X134664695Y-85681118D01*
X134664695Y-85681118D02*
X134712314Y-85728737D01*
X134712314Y-85728737D02*
X134759933Y-85823975D01*
X134759933Y-85823975D02*
X134759933Y-85966832D01*
X134759933Y-85966832D02*
X134712314Y-86062070D01*
X134712314Y-86062070D02*
X134664695Y-86109690D01*
X134664695Y-86109690D02*
X134569457Y-86157309D01*
X134569457Y-86157309D02*
X134188505Y-86157309D01*
X134188505Y-86157309D02*
X134188505Y-85157309D01*
X134188505Y-85157309D02*
X134521838Y-85157309D01*
X134521838Y-85157309D02*
X134617076Y-85204928D01*
X134617076Y-85204928D02*
X134664695Y-85252547D01*
X134664695Y-85252547D02*
X134712314Y-85347785D01*
X134712314Y-85347785D02*
X134712314Y-85443023D01*
X134712314Y-85443023D02*
X134664695Y-85538261D01*
X134664695Y-85538261D02*
X134617076Y-85585880D01*
X134617076Y-85585880D02*
X134521838Y-85633499D01*
X134521838Y-85633499D02*
X134188505Y-85633499D01*
X135617076Y-86157309D02*
X135617076Y-85633499D01*
X135617076Y-85633499D02*
X135569457Y-85538261D01*
X135569457Y-85538261D02*
X135474219Y-85490642D01*
X135474219Y-85490642D02*
X135283743Y-85490642D01*
X135283743Y-85490642D02*
X135188505Y-85538261D01*
X135617076Y-86109690D02*
X135521838Y-86157309D01*
X135521838Y-86157309D02*
X135283743Y-86157309D01*
X135283743Y-86157309D02*
X135188505Y-86109690D01*
X135188505Y-86109690D02*
X135140886Y-86014451D01*
X135140886Y-86014451D02*
X135140886Y-85919213D01*
X135140886Y-85919213D02*
X135188505Y-85823975D01*
X135188505Y-85823975D02*
X135283743Y-85776356D01*
X135283743Y-85776356D02*
X135521838Y-85776356D01*
X135521838Y-85776356D02*
X135617076Y-85728737D01*
X135950410Y-85490642D02*
X136331362Y-85490642D01*
X136093267Y-85157309D02*
X136093267Y-86014451D01*
X136093267Y-86014451D02*
X136140886Y-86109690D01*
X136140886Y-86109690D02*
X136236124Y-86157309D01*
X136236124Y-86157309D02*
X136331362Y-86157309D01*
X136521839Y-85490642D02*
X136902791Y-85490642D01*
X136664696Y-85157309D02*
X136664696Y-86014451D01*
X136664696Y-86014451D02*
X136712315Y-86109690D01*
X136712315Y-86109690D02*
X136807553Y-86157309D01*
X136807553Y-86157309D02*
X136902791Y-86157309D01*
X137617077Y-86109690D02*
X137521839Y-86157309D01*
X137521839Y-86157309D02*
X137331363Y-86157309D01*
X137331363Y-86157309D02*
X137236125Y-86109690D01*
X137236125Y-86109690D02*
X137188506Y-86014451D01*
X137188506Y-86014451D02*
X137188506Y-85633499D01*
X137188506Y-85633499D02*
X137236125Y-85538261D01*
X137236125Y-85538261D02*
X137331363Y-85490642D01*
X137331363Y-85490642D02*
X137521839Y-85490642D01*
X137521839Y-85490642D02*
X137617077Y-85538261D01*
X137617077Y-85538261D02*
X137664696Y-85633499D01*
X137664696Y-85633499D02*
X137664696Y-85728737D01*
X137664696Y-85728737D02*
X137188506Y-85823975D01*
X138093268Y-86157309D02*
X138093268Y-85490642D01*
X138093268Y-85681118D02*
X138140887Y-85585880D01*
X138140887Y-85585880D02*
X138188506Y-85538261D01*
X138188506Y-85538261D02*
X138283744Y-85490642D01*
X138283744Y-85490642D02*
X138378982Y-85490642D01*
X138617078Y-85490642D02*
X138855173Y-86157309D01*
X139093268Y-85490642D02*
X138855173Y-86157309D01*
X138855173Y-86157309D02*
X138759935Y-86395404D01*
X138759935Y-86395404D02*
X138712316Y-86443023D01*
X138712316Y-86443023D02*
X138617078Y-86490642D01*
X140140888Y-85157309D02*
X140759935Y-85157309D01*
X140759935Y-85157309D02*
X140426602Y-85538261D01*
X140426602Y-85538261D02*
X140569459Y-85538261D01*
X140569459Y-85538261D02*
X140664697Y-85585880D01*
X140664697Y-85585880D02*
X140712316Y-85633499D01*
X140712316Y-85633499D02*
X140759935Y-85728737D01*
X140759935Y-85728737D02*
X140759935Y-85966832D01*
X140759935Y-85966832D02*
X140712316Y-86062070D01*
X140712316Y-86062070D02*
X140664697Y-86109690D01*
X140664697Y-86109690D02*
X140569459Y-86157309D01*
X140569459Y-86157309D02*
X140283745Y-86157309D01*
X140283745Y-86157309D02*
X140188507Y-86109690D01*
X140188507Y-86109690D02*
X140140888Y-86062070D01*
X141188507Y-86062070D02*
X141236126Y-86109690D01*
X141236126Y-86109690D02*
X141188507Y-86157309D01*
X141188507Y-86157309D02*
X141140888Y-86109690D01*
X141140888Y-86109690D02*
X141188507Y-86062070D01*
X141188507Y-86062070D02*
X141188507Y-86157309D01*
X141569459Y-85157309D02*
X142236125Y-85157309D01*
X142236125Y-85157309D02*
X141807554Y-86157309D01*
X142474221Y-85157309D02*
X142807554Y-86157309D01*
X142807554Y-86157309D02*
X143140887Y-85157309D01*
D12*
G04 #@! TO.C,C4*
X126392268Y-47064991D02*
X127642268Y-47064991D01*
X126392268Y-49064991D02*
X126392268Y-47064991D01*
X127642268Y-47064991D02*
X127642268Y-49064991D01*
X127642268Y-49064991D02*
X126392268Y-49064991D01*
G04 #@! TO.C,J1*
X153163269Y-59040489D02*
X155703269Y-59040489D01*
X153163269Y-68565489D02*
X153163269Y-59040489D01*
X153798269Y-69200489D02*
X153163269Y-68565489D01*
X155703269Y-59040489D02*
X155703269Y-69200489D01*
X155703269Y-69200489D02*
X153798269Y-69200489D01*
G04 #@! TO.C,C2*
X144918268Y-53160991D02*
X146168268Y-53160991D01*
X144918268Y-55160991D02*
X144918268Y-53160991D01*
X146168268Y-53160991D02*
X146168268Y-55160991D01*
X146168268Y-55160991D02*
X144918268Y-55160991D01*
G04 #@! TO.C,C1*
X135536268Y-47064991D02*
X136786268Y-47064991D01*
X135536268Y-49064991D02*
X135536268Y-47064991D01*
X136786268Y-47064991D02*
X136786268Y-49064991D01*
X136786268Y-49064991D02*
X135536268Y-49064991D01*
G04 #@! TO.C,R6*
X141616268Y-53160991D02*
X142866268Y-53160991D01*
X141616268Y-55160991D02*
X141616268Y-53160991D01*
X142866268Y-53160991D02*
X142866268Y-55160991D01*
X142866268Y-55160991D02*
X141616268Y-55160991D01*
G04 #@! TO.C,R2*
X139330268Y-53160991D02*
X140580268Y-53160991D01*
X139330268Y-55160991D02*
X139330268Y-53160991D01*
X140580268Y-53160991D02*
X140580268Y-55160991D01*
X140580268Y-55160991D02*
X139330268Y-55160991D01*
G04 #@! TO.C,R4*
X121566268Y-53144991D02*
X122816268Y-53144991D01*
X121566268Y-55144991D02*
X121566268Y-53144991D01*
X122816268Y-53144991D02*
X122816268Y-55144991D01*
X122816268Y-55144991D02*
X121566268Y-55144991D01*
G04 #@! TO.C,R1*
X148220268Y-53198491D02*
X149470268Y-53198491D01*
X148220268Y-55198491D02*
X148220268Y-53198491D01*
X149470268Y-53198491D02*
X149470268Y-55198491D01*
X149470268Y-55198491D02*
X148220268Y-55198491D01*
G04 #@! TO.C,U3*
X139232268Y-46069491D02*
X143157268Y-46069491D01*
X139232268Y-49969491D02*
X139232268Y-46069491D01*
X143157268Y-46069491D02*
X144132269Y-47044491D01*
X144132268Y-49969491D02*
X139232268Y-49969491D01*
X144132269Y-47044491D02*
X144132268Y-49969491D01*
G04 #@! TO.C,U2*
X148376268Y-45981491D02*
X152301268Y-45981491D01*
X148376268Y-49881491D02*
X148376268Y-45981491D01*
X152301268Y-45981491D02*
X153276269Y-46956491D01*
X153276268Y-49881491D02*
X148376268Y-49881491D01*
X153276269Y-46956491D02*
X153276268Y-49881491D01*
G04 #@! TO.C,R7*
X133234268Y-53160991D02*
X134484268Y-53160991D01*
X133234268Y-55160991D02*
X133234268Y-53160991D01*
X134484268Y-53160991D02*
X134484268Y-55160991D01*
X134484268Y-55160991D02*
X133234268Y-55160991D01*
G04 #@! TO.C,J2*
X122683269Y-39355490D02*
X123318269Y-38720490D01*
X122683269Y-41260490D02*
X122683269Y-39355490D01*
X123318269Y-38720490D02*
X155703269Y-38720490D01*
X155703269Y-38720490D02*
X155703269Y-41260490D01*
X155703269Y-41260490D02*
X122683269Y-41260490D01*
G04 #@! TO.C,R5*
X133621268Y-57653491D02*
X135621268Y-57653491D01*
X133621268Y-58903491D02*
X133621268Y-57653491D01*
X135621268Y-57653491D02*
X135621268Y-58903491D01*
X135621268Y-58903491D02*
X133621268Y-58903491D01*
G04 #@! TO.C,U4*
X129580268Y-46047991D02*
X133505268Y-46047991D01*
X129580268Y-49947991D02*
X129580268Y-46047991D01*
X133505268Y-46047991D02*
X134480269Y-47022991D01*
X134480268Y-49947991D02*
X129580268Y-49947991D01*
X134480269Y-47022991D02*
X134480268Y-49947991D01*
G04 #@! TO.C,R8*
X124090268Y-53160991D02*
X125340268Y-53160991D01*
X124090268Y-55160991D02*
X124090268Y-53160991D01*
X125340268Y-53160991D02*
X125340268Y-55160991D01*
X125340268Y-55160991D02*
X124090268Y-55160991D01*
G04 #@! TO.C,SW1*
X154805268Y-57498492D02*
X154805268Y-48898491D01*
X154805268Y-57498492D02*
X159205268Y-57498492D01*
X159205267Y-53198491D02*
X163205268Y-53198490D01*
X159205268Y-48898491D02*
X154805268Y-48898491D01*
X159205268Y-57498492D02*
X159205268Y-48898491D01*
X163205268Y-53198490D02*
X163205268Y-55198491D01*
X163205268Y-55198491D02*
X159205268Y-55198491D01*
G04 #@! TO.C,C3*
X150760268Y-53160991D02*
X152010268Y-53160991D01*
X150760268Y-55160991D02*
X150760268Y-53160991D01*
X152010268Y-53160991D02*
X152010268Y-55160991D01*
X152010268Y-55160991D02*
X150760268Y-55160991D01*
G04 #@! TO.C,R3*
X130694268Y-53176991D02*
X131944268Y-53176991D01*
X130694268Y-55176991D02*
X130694268Y-53176991D01*
X131944268Y-53176991D02*
X131944268Y-55176991D01*
X131944268Y-55176991D02*
X130694268Y-55176991D01*
G04 #@! TO.C,U5*
X120376268Y-46028491D02*
X124301268Y-46028491D01*
X120376268Y-49928491D02*
X120376268Y-46028491D01*
X124301268Y-46028491D02*
X125276269Y-47003491D01*
X125276268Y-49928491D02*
X120376268Y-49928491D01*
X125276269Y-47003491D02*
X125276268Y-49928491D01*
G04 #@! TD*
M02*
