%TF.GenerationSoftware,KiCad,Pcbnew,8.0.1*%
%TF.CreationDate,2024-07-15T10:08:49+02:00*%
%TF.ProjectId,RGB 2x2 with WS2811,52474220-3278-4322-9077-697468205753,rev?*%
%TF.SameCoordinates,Original*%
%TF.FileFunction,Drillmap*%
%TF.FilePolarity,Positive*%
%FSLAX45Y45*%
G04 Gerber Fmt 4.5, Leading zero omitted, Abs format (unit mm)*
G04 Created by KiCad (PCBNEW 8.0.1) date 2024-07-15 10:08:49*
%MOMM*%
%LPD*%
G01*
G04 APERTURE LIST*
%ADD10C,0.200000*%
%ADD11C,0.180000*%
%ADD12C,0.220000*%
%ADD13C,0.350000*%
G04 APERTURE END LIST*
D10*
X12014327Y-3618049D02*
X15697327Y-3618049D01*
X11760327Y-9333049D02*
X11760327Y-3872049D01*
X11760327Y-3872049D02*
G75*
G02*
X12014327Y-3618047I254003J-1D01*
G01*
X12014327Y-9587049D02*
G75*
G02*
X11760331Y-9333049I3J253999D01*
G01*
X15951327Y-3872049D02*
X15951327Y-9333049D01*
X15951327Y-9333049D02*
G75*
G02*
X15697327Y-9587047I-253997J-1D01*
G01*
X15697326Y-9587049D02*
X12014327Y-9587049D01*
X15697327Y-3618049D02*
G75*
G02*
X15951331Y-3872049I3J-254001D01*
G01*
D11*
X15669327Y-9250249D02*
X15849327Y-9430249D01*
X15849327Y-9250249D02*
X15669327Y-9430249D01*
D12*
X12124327Y-3872049D02*
G75*
G02*
X11904327Y-3872049I-110000J0D01*
G01*
X11904327Y-3872049D02*
G75*
G02*
X12124327Y-3872049I110000J0D01*
G01*
X12124327Y-7301049D02*
G75*
G02*
X11904327Y-7301049I-110000J0D01*
G01*
X11904327Y-7301049D02*
G75*
G02*
X12124327Y-7301049I110000J0D01*
G01*
X15807327Y-7301049D02*
G75*
G02*
X15587327Y-7301049I-110000J0D01*
G01*
X15587327Y-7301049D02*
G75*
G02*
X15807327Y-7301049I110000J0D01*
G01*
X15807327Y-4507049D02*
G75*
G02*
X15587327Y-4507049I-110000J0D01*
G01*
X15587327Y-4507049D02*
G75*
G02*
X15807327Y-4507049I110000J0D01*
G01*
D13*
X12649327Y-8345249D02*
X12649327Y-8695249D01*
X12474327Y-8520249D02*
X12824327Y-8520249D01*
X15069327Y-8345249D02*
X15069327Y-8695249D01*
X14894327Y-8520249D02*
X15244327Y-8520249D01*
D10*
X12011104Y-9908533D02*
X12011104Y-9708533D01*
X12011104Y-9708533D02*
X12058723Y-9708533D01*
X12058723Y-9708533D02*
X12087294Y-9718057D01*
X12087294Y-9718057D02*
X12106342Y-9737104D01*
X12106342Y-9737104D02*
X12115866Y-9756152D01*
X12115866Y-9756152D02*
X12125389Y-9794247D01*
X12125389Y-9794247D02*
X12125389Y-9822819D01*
X12125389Y-9822819D02*
X12115866Y-9860914D01*
X12115866Y-9860914D02*
X12106342Y-9879961D01*
X12106342Y-9879961D02*
X12087294Y-9899009D01*
X12087294Y-9899009D02*
X12058723Y-9908533D01*
X12058723Y-9908533D02*
X12011104Y-9908533D01*
X12211104Y-9908533D02*
X12211104Y-9775200D01*
X12211104Y-9813295D02*
X12220627Y-9794247D01*
X12220627Y-9794247D02*
X12230151Y-9784723D01*
X12230151Y-9784723D02*
X12249199Y-9775200D01*
X12249199Y-9775200D02*
X12268247Y-9775200D01*
X12334913Y-9908533D02*
X12334913Y-9775200D01*
X12334913Y-9708533D02*
X12325389Y-9718057D01*
X12325389Y-9718057D02*
X12334913Y-9727581D01*
X12334913Y-9727581D02*
X12344437Y-9718057D01*
X12344437Y-9718057D02*
X12334913Y-9708533D01*
X12334913Y-9708533D02*
X12334913Y-9727581D01*
X12458723Y-9908533D02*
X12439675Y-9899009D01*
X12439675Y-9899009D02*
X12430151Y-9879961D01*
X12430151Y-9879961D02*
X12430151Y-9708533D01*
X12563485Y-9908533D02*
X12544437Y-9899009D01*
X12544437Y-9899009D02*
X12534913Y-9879961D01*
X12534913Y-9879961D02*
X12534913Y-9708533D01*
X12792056Y-9908533D02*
X12792056Y-9708533D01*
X12792056Y-9708533D02*
X12858723Y-9851390D01*
X12858723Y-9851390D02*
X12925389Y-9708533D01*
X12925389Y-9708533D02*
X12925389Y-9908533D01*
X13106342Y-9908533D02*
X13106342Y-9803771D01*
X13106342Y-9803771D02*
X13096818Y-9784723D01*
X13096818Y-9784723D02*
X13077770Y-9775200D01*
X13077770Y-9775200D02*
X13039675Y-9775200D01*
X13039675Y-9775200D02*
X13020627Y-9784723D01*
X13106342Y-9899009D02*
X13087294Y-9908533D01*
X13087294Y-9908533D02*
X13039675Y-9908533D01*
X13039675Y-9908533D02*
X13020627Y-9899009D01*
X13020627Y-9899009D02*
X13011104Y-9879961D01*
X13011104Y-9879961D02*
X13011104Y-9860914D01*
X13011104Y-9860914D02*
X13020627Y-9841866D01*
X13020627Y-9841866D02*
X13039675Y-9832342D01*
X13039675Y-9832342D02*
X13087294Y-9832342D01*
X13087294Y-9832342D02*
X13106342Y-9822819D01*
X13201580Y-9775200D02*
X13201580Y-9975200D01*
X13201580Y-9784723D02*
X13220627Y-9775200D01*
X13220627Y-9775200D02*
X13258723Y-9775200D01*
X13258723Y-9775200D02*
X13277770Y-9784723D01*
X13277770Y-9784723D02*
X13287294Y-9794247D01*
X13287294Y-9794247D02*
X13296818Y-9813295D01*
X13296818Y-9813295D02*
X13296818Y-9870438D01*
X13296818Y-9870438D02*
X13287294Y-9889485D01*
X13287294Y-9889485D02*
X13277770Y-9899009D01*
X13277770Y-9899009D02*
X13258723Y-9908533D01*
X13258723Y-9908533D02*
X13220627Y-9908533D01*
X13220627Y-9908533D02*
X13201580Y-9899009D01*
X13382532Y-9889485D02*
X13392056Y-9899009D01*
X13392056Y-9899009D02*
X13382532Y-9908533D01*
X13382532Y-9908533D02*
X13373008Y-9899009D01*
X13373008Y-9899009D02*
X13382532Y-9889485D01*
X13382532Y-9889485D02*
X13382532Y-9908533D01*
X13382532Y-9784723D02*
X13392056Y-9794247D01*
X13392056Y-9794247D02*
X13382532Y-9803771D01*
X13382532Y-9803771D02*
X13373008Y-9794247D01*
X13373008Y-9794247D02*
X13382532Y-9784723D01*
X13382532Y-9784723D02*
X13382532Y-9803771D01*
D11*
X11570327Y-10147049D02*
X11750327Y-10327049D01*
X11750327Y-10147049D02*
X11570327Y-10327049D01*
D10*
X12115866Y-10328533D02*
X12001580Y-10328533D01*
X12058723Y-10328533D02*
X12058723Y-10128533D01*
X12058723Y-10128533D02*
X12039675Y-10157104D01*
X12039675Y-10157104D02*
X12020627Y-10176152D01*
X12020627Y-10176152D02*
X12001580Y-10185676D01*
X12201580Y-10309485D02*
X12211104Y-10319009D01*
X12211104Y-10319009D02*
X12201580Y-10328533D01*
X12201580Y-10328533D02*
X12192056Y-10319009D01*
X12192056Y-10319009D02*
X12201580Y-10309485D01*
X12201580Y-10309485D02*
X12201580Y-10328533D01*
X12325389Y-10214247D02*
X12306342Y-10204723D01*
X12306342Y-10204723D02*
X12296818Y-10195200D01*
X12296818Y-10195200D02*
X12287294Y-10176152D01*
X12287294Y-10176152D02*
X12287294Y-10166628D01*
X12287294Y-10166628D02*
X12296818Y-10147581D01*
X12296818Y-10147581D02*
X12306342Y-10138057D01*
X12306342Y-10138057D02*
X12325389Y-10128533D01*
X12325389Y-10128533D02*
X12363485Y-10128533D01*
X12363485Y-10128533D02*
X12382532Y-10138057D01*
X12382532Y-10138057D02*
X12392056Y-10147581D01*
X12392056Y-10147581D02*
X12401580Y-10166628D01*
X12401580Y-10166628D02*
X12401580Y-10176152D01*
X12401580Y-10176152D02*
X12392056Y-10195200D01*
X12392056Y-10195200D02*
X12382532Y-10204723D01*
X12382532Y-10204723D02*
X12363485Y-10214247D01*
X12363485Y-10214247D02*
X12325389Y-10214247D01*
X12325389Y-10214247D02*
X12306342Y-10223771D01*
X12306342Y-10223771D02*
X12296818Y-10233295D01*
X12296818Y-10233295D02*
X12287294Y-10252342D01*
X12287294Y-10252342D02*
X12287294Y-10290438D01*
X12287294Y-10290438D02*
X12296818Y-10309485D01*
X12296818Y-10309485D02*
X12306342Y-10319009D01*
X12306342Y-10319009D02*
X12325389Y-10328533D01*
X12325389Y-10328533D02*
X12363485Y-10328533D01*
X12363485Y-10328533D02*
X12382532Y-10319009D01*
X12382532Y-10319009D02*
X12392056Y-10309485D01*
X12392056Y-10309485D02*
X12401580Y-10290438D01*
X12401580Y-10290438D02*
X12401580Y-10252342D01*
X12401580Y-10252342D02*
X12392056Y-10233295D01*
X12392056Y-10233295D02*
X12382532Y-10223771D01*
X12382532Y-10223771D02*
X12363485Y-10214247D01*
X12525389Y-10128533D02*
X12544437Y-10128533D01*
X12544437Y-10128533D02*
X12563485Y-10138057D01*
X12563485Y-10138057D02*
X12573008Y-10147581D01*
X12573008Y-10147581D02*
X12582532Y-10166628D01*
X12582532Y-10166628D02*
X12592056Y-10204723D01*
X12592056Y-10204723D02*
X12592056Y-10252342D01*
X12592056Y-10252342D02*
X12582532Y-10290438D01*
X12582532Y-10290438D02*
X12573008Y-10309485D01*
X12573008Y-10309485D02*
X12563485Y-10319009D01*
X12563485Y-10319009D02*
X12544437Y-10328533D01*
X12544437Y-10328533D02*
X12525389Y-10328533D01*
X12525389Y-10328533D02*
X12506342Y-10319009D01*
X12506342Y-10319009D02*
X12496818Y-10309485D01*
X12496818Y-10309485D02*
X12487294Y-10290438D01*
X12487294Y-10290438D02*
X12477770Y-10252342D01*
X12477770Y-10252342D02*
X12477770Y-10204723D01*
X12477770Y-10204723D02*
X12487294Y-10166628D01*
X12487294Y-10166628D02*
X12496818Y-10147581D01*
X12496818Y-10147581D02*
X12506342Y-10138057D01*
X12506342Y-10138057D02*
X12525389Y-10128533D01*
X12715866Y-10128533D02*
X12734913Y-10128533D01*
X12734913Y-10128533D02*
X12753961Y-10138057D01*
X12753961Y-10138057D02*
X12763485Y-10147581D01*
X12763485Y-10147581D02*
X12773008Y-10166628D01*
X12773008Y-10166628D02*
X12782532Y-10204723D01*
X12782532Y-10204723D02*
X12782532Y-10252342D01*
X12782532Y-10252342D02*
X12773008Y-10290438D01*
X12773008Y-10290438D02*
X12763485Y-10309485D01*
X12763485Y-10309485D02*
X12753961Y-10319009D01*
X12753961Y-10319009D02*
X12734913Y-10328533D01*
X12734913Y-10328533D02*
X12715866Y-10328533D01*
X12715866Y-10328533D02*
X12696818Y-10319009D01*
X12696818Y-10319009D02*
X12687294Y-10309485D01*
X12687294Y-10309485D02*
X12677770Y-10290438D01*
X12677770Y-10290438D02*
X12668247Y-10252342D01*
X12668247Y-10252342D02*
X12668247Y-10204723D01*
X12668247Y-10204723D02*
X12677770Y-10166628D01*
X12677770Y-10166628D02*
X12687294Y-10147581D01*
X12687294Y-10147581D02*
X12696818Y-10138057D01*
X12696818Y-10138057D02*
X12715866Y-10128533D01*
X12868247Y-10328533D02*
X12868247Y-10195200D01*
X12868247Y-10214247D02*
X12877770Y-10204723D01*
X12877770Y-10204723D02*
X12896818Y-10195200D01*
X12896818Y-10195200D02*
X12925389Y-10195200D01*
X12925389Y-10195200D02*
X12944437Y-10204723D01*
X12944437Y-10204723D02*
X12953961Y-10223771D01*
X12953961Y-10223771D02*
X12953961Y-10328533D01*
X12953961Y-10223771D02*
X12963485Y-10204723D01*
X12963485Y-10204723D02*
X12982532Y-10195200D01*
X12982532Y-10195200D02*
X13011104Y-10195200D01*
X13011104Y-10195200D02*
X13030151Y-10204723D01*
X13030151Y-10204723D02*
X13039675Y-10223771D01*
X13039675Y-10223771D02*
X13039675Y-10328533D01*
X13134913Y-10328533D02*
X13134913Y-10195200D01*
X13134913Y-10214247D02*
X13144437Y-10204723D01*
X13144437Y-10204723D02*
X13163485Y-10195200D01*
X13163485Y-10195200D02*
X13192056Y-10195200D01*
X13192056Y-10195200D02*
X13211104Y-10204723D01*
X13211104Y-10204723D02*
X13220628Y-10223771D01*
X13220628Y-10223771D02*
X13220628Y-10328533D01*
X13220628Y-10223771D02*
X13230151Y-10204723D01*
X13230151Y-10204723D02*
X13249199Y-10195200D01*
X13249199Y-10195200D02*
X13277770Y-10195200D01*
X13277770Y-10195200D02*
X13296818Y-10204723D01*
X13296818Y-10204723D02*
X13306342Y-10223771D01*
X13306342Y-10223771D02*
X13306342Y-10328533D01*
X13696818Y-10119009D02*
X13525390Y-10376152D01*
X13953961Y-10128533D02*
X13973009Y-10128533D01*
X13973009Y-10128533D02*
X13992056Y-10138057D01*
X13992056Y-10138057D02*
X14001580Y-10147581D01*
X14001580Y-10147581D02*
X14011104Y-10166628D01*
X14011104Y-10166628D02*
X14020628Y-10204723D01*
X14020628Y-10204723D02*
X14020628Y-10252342D01*
X14020628Y-10252342D02*
X14011104Y-10290438D01*
X14011104Y-10290438D02*
X14001580Y-10309485D01*
X14001580Y-10309485D02*
X13992056Y-10319009D01*
X13992056Y-10319009D02*
X13973009Y-10328533D01*
X13973009Y-10328533D02*
X13953961Y-10328533D01*
X13953961Y-10328533D02*
X13934913Y-10319009D01*
X13934913Y-10319009D02*
X13925390Y-10309485D01*
X13925390Y-10309485D02*
X13915866Y-10290438D01*
X13915866Y-10290438D02*
X13906342Y-10252342D01*
X13906342Y-10252342D02*
X13906342Y-10204723D01*
X13906342Y-10204723D02*
X13915866Y-10166628D01*
X13915866Y-10166628D02*
X13925390Y-10147581D01*
X13925390Y-10147581D02*
X13934913Y-10138057D01*
X13934913Y-10138057D02*
X13953961Y-10128533D01*
X14106342Y-10309485D02*
X14115866Y-10319009D01*
X14115866Y-10319009D02*
X14106342Y-10328533D01*
X14106342Y-10328533D02*
X14096818Y-10319009D01*
X14096818Y-10319009D02*
X14106342Y-10309485D01*
X14106342Y-10309485D02*
X14106342Y-10328533D01*
X14239675Y-10128533D02*
X14258723Y-10128533D01*
X14258723Y-10128533D02*
X14277771Y-10138057D01*
X14277771Y-10138057D02*
X14287294Y-10147581D01*
X14287294Y-10147581D02*
X14296818Y-10166628D01*
X14296818Y-10166628D02*
X14306342Y-10204723D01*
X14306342Y-10204723D02*
X14306342Y-10252342D01*
X14306342Y-10252342D02*
X14296818Y-10290438D01*
X14296818Y-10290438D02*
X14287294Y-10309485D01*
X14287294Y-10309485D02*
X14277771Y-10319009D01*
X14277771Y-10319009D02*
X14258723Y-10328533D01*
X14258723Y-10328533D02*
X14239675Y-10328533D01*
X14239675Y-10328533D02*
X14220628Y-10319009D01*
X14220628Y-10319009D02*
X14211104Y-10309485D01*
X14211104Y-10309485D02*
X14201580Y-10290438D01*
X14201580Y-10290438D02*
X14192056Y-10252342D01*
X14192056Y-10252342D02*
X14192056Y-10204723D01*
X14192056Y-10204723D02*
X14201580Y-10166628D01*
X14201580Y-10166628D02*
X14211104Y-10147581D01*
X14211104Y-10147581D02*
X14220628Y-10138057D01*
X14220628Y-10138057D02*
X14239675Y-10128533D01*
X14373009Y-10128533D02*
X14506342Y-10128533D01*
X14506342Y-10128533D02*
X14420628Y-10328533D01*
X14620628Y-10128533D02*
X14639675Y-10128533D01*
X14639675Y-10128533D02*
X14658723Y-10138057D01*
X14658723Y-10138057D02*
X14668247Y-10147581D01*
X14668247Y-10147581D02*
X14677771Y-10166628D01*
X14677771Y-10166628D02*
X14687294Y-10204723D01*
X14687294Y-10204723D02*
X14687294Y-10252342D01*
X14687294Y-10252342D02*
X14677771Y-10290438D01*
X14677771Y-10290438D02*
X14668247Y-10309485D01*
X14668247Y-10309485D02*
X14658723Y-10319009D01*
X14658723Y-10319009D02*
X14639675Y-10328533D01*
X14639675Y-10328533D02*
X14620628Y-10328533D01*
X14620628Y-10328533D02*
X14601580Y-10319009D01*
X14601580Y-10319009D02*
X14592056Y-10309485D01*
X14592056Y-10309485D02*
X14582532Y-10290438D01*
X14582532Y-10290438D02*
X14573009Y-10252342D01*
X14573009Y-10252342D02*
X14573009Y-10204723D01*
X14573009Y-10204723D02*
X14582532Y-10166628D01*
X14582532Y-10166628D02*
X14592056Y-10147581D01*
X14592056Y-10147581D02*
X14601580Y-10138057D01*
X14601580Y-10138057D02*
X14620628Y-10128533D01*
X14782532Y-10328533D02*
X14820628Y-10328533D01*
X14820628Y-10328533D02*
X14839675Y-10319009D01*
X14839675Y-10319009D02*
X14849199Y-10309485D01*
X14849199Y-10309485D02*
X14868247Y-10280914D01*
X14868247Y-10280914D02*
X14877771Y-10242819D01*
X14877771Y-10242819D02*
X14877771Y-10166628D01*
X14877771Y-10166628D02*
X14868247Y-10147581D01*
X14868247Y-10147581D02*
X14858723Y-10138057D01*
X14858723Y-10138057D02*
X14839675Y-10128533D01*
X14839675Y-10128533D02*
X14801580Y-10128533D01*
X14801580Y-10128533D02*
X14782532Y-10138057D01*
X14782532Y-10138057D02*
X14773009Y-10147581D01*
X14773009Y-10147581D02*
X14763485Y-10166628D01*
X14763485Y-10166628D02*
X14763485Y-10214247D01*
X14763485Y-10214247D02*
X14773009Y-10233295D01*
X14773009Y-10233295D02*
X14782532Y-10242819D01*
X14782532Y-10242819D02*
X14801580Y-10252342D01*
X14801580Y-10252342D02*
X14839675Y-10252342D01*
X14839675Y-10252342D02*
X14858723Y-10242819D01*
X14858723Y-10242819D02*
X14868247Y-10233295D01*
X14868247Y-10233295D02*
X14877771Y-10214247D01*
X14953961Y-10128533D02*
X14953961Y-10166628D01*
X15030152Y-10128533D02*
X15030152Y-10166628D01*
X15325390Y-10404723D02*
X15315866Y-10395200D01*
X15315866Y-10395200D02*
X15296818Y-10366628D01*
X15296818Y-10366628D02*
X15287294Y-10347581D01*
X15287294Y-10347581D02*
X15277771Y-10319009D01*
X15277771Y-10319009D02*
X15268247Y-10271390D01*
X15268247Y-10271390D02*
X15268247Y-10233295D01*
X15268247Y-10233295D02*
X15277771Y-10185676D01*
X15277771Y-10185676D02*
X15287294Y-10157104D01*
X15287294Y-10157104D02*
X15296818Y-10138057D01*
X15296818Y-10138057D02*
X15315866Y-10109485D01*
X15315866Y-10109485D02*
X15325390Y-10099961D01*
X15506342Y-10328533D02*
X15392056Y-10328533D01*
X15449199Y-10328533D02*
X15449199Y-10128533D01*
X15449199Y-10128533D02*
X15430152Y-10157104D01*
X15430152Y-10157104D02*
X15411104Y-10176152D01*
X15411104Y-10176152D02*
X15392056Y-10185676D01*
X15744437Y-10328533D02*
X15744437Y-10128533D01*
X15830152Y-10328533D02*
X15830152Y-10223771D01*
X15830152Y-10223771D02*
X15820628Y-10204723D01*
X15820628Y-10204723D02*
X15801580Y-10195200D01*
X15801580Y-10195200D02*
X15773009Y-10195200D01*
X15773009Y-10195200D02*
X15753961Y-10204723D01*
X15753961Y-10204723D02*
X15744437Y-10214247D01*
X15953961Y-10328533D02*
X15934914Y-10319009D01*
X15934914Y-10319009D02*
X15925390Y-10309485D01*
X15925390Y-10309485D02*
X15915866Y-10290438D01*
X15915866Y-10290438D02*
X15915866Y-10233295D01*
X15915866Y-10233295D02*
X15925390Y-10214247D01*
X15925390Y-10214247D02*
X15934914Y-10204723D01*
X15934914Y-10204723D02*
X15953961Y-10195200D01*
X15953961Y-10195200D02*
X15982533Y-10195200D01*
X15982533Y-10195200D02*
X16001580Y-10204723D01*
X16001580Y-10204723D02*
X16011104Y-10214247D01*
X16011104Y-10214247D02*
X16020628Y-10233295D01*
X16020628Y-10233295D02*
X16020628Y-10290438D01*
X16020628Y-10290438D02*
X16011104Y-10309485D01*
X16011104Y-10309485D02*
X16001580Y-10319009D01*
X16001580Y-10319009D02*
X15982533Y-10328533D01*
X15982533Y-10328533D02*
X15953961Y-10328533D01*
X16134914Y-10328533D02*
X16115866Y-10319009D01*
X16115866Y-10319009D02*
X16106342Y-10299961D01*
X16106342Y-10299961D02*
X16106342Y-10128533D01*
X16287295Y-10319009D02*
X16268247Y-10328533D01*
X16268247Y-10328533D02*
X16230152Y-10328533D01*
X16230152Y-10328533D02*
X16211104Y-10319009D01*
X16211104Y-10319009D02*
X16201580Y-10299961D01*
X16201580Y-10299961D02*
X16201580Y-10223771D01*
X16201580Y-10223771D02*
X16211104Y-10204723D01*
X16211104Y-10204723D02*
X16230152Y-10195200D01*
X16230152Y-10195200D02*
X16268247Y-10195200D01*
X16268247Y-10195200D02*
X16287295Y-10204723D01*
X16287295Y-10204723D02*
X16296818Y-10223771D01*
X16296818Y-10223771D02*
X16296818Y-10242819D01*
X16296818Y-10242819D02*
X16201580Y-10261866D01*
X16363485Y-10404723D02*
X16373009Y-10395200D01*
X16373009Y-10395200D02*
X16392056Y-10366628D01*
X16392056Y-10366628D02*
X16401580Y-10347581D01*
X16401580Y-10347581D02*
X16411104Y-10319009D01*
X16411104Y-10319009D02*
X16420628Y-10271390D01*
X16420628Y-10271390D02*
X16420628Y-10233295D01*
X16420628Y-10233295D02*
X16411104Y-10185676D01*
X16411104Y-10185676D02*
X16401580Y-10157104D01*
X16401580Y-10157104D02*
X16392056Y-10138057D01*
X16392056Y-10138057D02*
X16373009Y-10109485D01*
X16373009Y-10109485D02*
X16363485Y-10099961D01*
X16725390Y-10404723D02*
X16715866Y-10395200D01*
X16715866Y-10395200D02*
X16696818Y-10366628D01*
X16696818Y-10366628D02*
X16687295Y-10347581D01*
X16687295Y-10347581D02*
X16677771Y-10319009D01*
X16677771Y-10319009D02*
X16668247Y-10271390D01*
X16668247Y-10271390D02*
X16668247Y-10233295D01*
X16668247Y-10233295D02*
X16677771Y-10185676D01*
X16677771Y-10185676D02*
X16687295Y-10157104D01*
X16687295Y-10157104D02*
X16696818Y-10138057D01*
X16696818Y-10138057D02*
X16715866Y-10109485D01*
X16715866Y-10109485D02*
X16725390Y-10099961D01*
X16801580Y-10195200D02*
X16801580Y-10328533D01*
X16801580Y-10214247D02*
X16811104Y-10204723D01*
X16811104Y-10204723D02*
X16830152Y-10195200D01*
X16830152Y-10195200D02*
X16858723Y-10195200D01*
X16858723Y-10195200D02*
X16877771Y-10204723D01*
X16877771Y-10204723D02*
X16887295Y-10223771D01*
X16887295Y-10223771D02*
X16887295Y-10328533D01*
X17011104Y-10328533D02*
X16992057Y-10319009D01*
X16992057Y-10319009D02*
X16982533Y-10309485D01*
X16982533Y-10309485D02*
X16973009Y-10290438D01*
X16973009Y-10290438D02*
X16973009Y-10233295D01*
X16973009Y-10233295D02*
X16982533Y-10214247D01*
X16982533Y-10214247D02*
X16992057Y-10204723D01*
X16992057Y-10204723D02*
X17011104Y-10195200D01*
X17011104Y-10195200D02*
X17039676Y-10195200D01*
X17039676Y-10195200D02*
X17058723Y-10204723D01*
X17058723Y-10204723D02*
X17068247Y-10214247D01*
X17068247Y-10214247D02*
X17077771Y-10233295D01*
X17077771Y-10233295D02*
X17077771Y-10290438D01*
X17077771Y-10290438D02*
X17068247Y-10309485D01*
X17068247Y-10309485D02*
X17058723Y-10319009D01*
X17058723Y-10319009D02*
X17039676Y-10328533D01*
X17039676Y-10328533D02*
X17011104Y-10328533D01*
X17134914Y-10195200D02*
X17211104Y-10195200D01*
X17163485Y-10128533D02*
X17163485Y-10299961D01*
X17163485Y-10299961D02*
X17173009Y-10319009D01*
X17173009Y-10319009D02*
X17192057Y-10328533D01*
X17192057Y-10328533D02*
X17211104Y-10328533D01*
X17430152Y-10195200D02*
X17430152Y-10395200D01*
X17430152Y-10204723D02*
X17449199Y-10195200D01*
X17449199Y-10195200D02*
X17487295Y-10195200D01*
X17487295Y-10195200D02*
X17506342Y-10204723D01*
X17506342Y-10204723D02*
X17515866Y-10214247D01*
X17515866Y-10214247D02*
X17525390Y-10233295D01*
X17525390Y-10233295D02*
X17525390Y-10290438D01*
X17525390Y-10290438D02*
X17515866Y-10309485D01*
X17515866Y-10309485D02*
X17506342Y-10319009D01*
X17506342Y-10319009D02*
X17487295Y-10328533D01*
X17487295Y-10328533D02*
X17449199Y-10328533D01*
X17449199Y-10328533D02*
X17430152Y-10319009D01*
X17639676Y-10328533D02*
X17620628Y-10319009D01*
X17620628Y-10319009D02*
X17611104Y-10299961D01*
X17611104Y-10299961D02*
X17611104Y-10128533D01*
X17801580Y-10328533D02*
X17801580Y-10223771D01*
X17801580Y-10223771D02*
X17792057Y-10204723D01*
X17792057Y-10204723D02*
X17773009Y-10195200D01*
X17773009Y-10195200D02*
X17734914Y-10195200D01*
X17734914Y-10195200D02*
X17715866Y-10204723D01*
X17801580Y-10319009D02*
X17782533Y-10328533D01*
X17782533Y-10328533D02*
X17734914Y-10328533D01*
X17734914Y-10328533D02*
X17715866Y-10319009D01*
X17715866Y-10319009D02*
X17706342Y-10299961D01*
X17706342Y-10299961D02*
X17706342Y-10280914D01*
X17706342Y-10280914D02*
X17715866Y-10261866D01*
X17715866Y-10261866D02*
X17734914Y-10252342D01*
X17734914Y-10252342D02*
X17782533Y-10252342D01*
X17782533Y-10252342D02*
X17801580Y-10242819D01*
X17868247Y-10195200D02*
X17944438Y-10195200D01*
X17896819Y-10128533D02*
X17896819Y-10299961D01*
X17896819Y-10299961D02*
X17906342Y-10319009D01*
X17906342Y-10319009D02*
X17925390Y-10328533D01*
X17925390Y-10328533D02*
X17944438Y-10328533D01*
X18087295Y-10319009D02*
X18068247Y-10328533D01*
X18068247Y-10328533D02*
X18030152Y-10328533D01*
X18030152Y-10328533D02*
X18011104Y-10319009D01*
X18011104Y-10319009D02*
X18001580Y-10299961D01*
X18001580Y-10299961D02*
X18001580Y-10223771D01*
X18001580Y-10223771D02*
X18011104Y-10204723D01*
X18011104Y-10204723D02*
X18030152Y-10195200D01*
X18030152Y-10195200D02*
X18068247Y-10195200D01*
X18068247Y-10195200D02*
X18087295Y-10204723D01*
X18087295Y-10204723D02*
X18096819Y-10223771D01*
X18096819Y-10223771D02*
X18096819Y-10242819D01*
X18096819Y-10242819D02*
X18001580Y-10261866D01*
X18268247Y-10328533D02*
X18268247Y-10128533D01*
X18268247Y-10319009D02*
X18249200Y-10328533D01*
X18249200Y-10328533D02*
X18211104Y-10328533D01*
X18211104Y-10328533D02*
X18192057Y-10319009D01*
X18192057Y-10319009D02*
X18182533Y-10309485D01*
X18182533Y-10309485D02*
X18173009Y-10290438D01*
X18173009Y-10290438D02*
X18173009Y-10233295D01*
X18173009Y-10233295D02*
X18182533Y-10214247D01*
X18182533Y-10214247D02*
X18192057Y-10204723D01*
X18192057Y-10204723D02*
X18211104Y-10195200D01*
X18211104Y-10195200D02*
X18249200Y-10195200D01*
X18249200Y-10195200D02*
X18268247Y-10204723D01*
X18344438Y-10404723D02*
X18353961Y-10395200D01*
X18353961Y-10395200D02*
X18373009Y-10366628D01*
X18373009Y-10366628D02*
X18382533Y-10347581D01*
X18382533Y-10347581D02*
X18392057Y-10319009D01*
X18392057Y-10319009D02*
X18401580Y-10271390D01*
X18401580Y-10271390D02*
X18401580Y-10233295D01*
X18401580Y-10233295D02*
X18392057Y-10185676D01*
X18392057Y-10185676D02*
X18382533Y-10157104D01*
X18382533Y-10157104D02*
X18373009Y-10138057D01*
X18373009Y-10138057D02*
X18353961Y-10109485D01*
X18353961Y-10109485D02*
X18344438Y-10099961D01*
X11750327Y-10537049D02*
G75*
G02*
X11550327Y-10537049I-100000J0D01*
G01*
X11550327Y-10537049D02*
G75*
G02*
X11750327Y-10537049I100000J0D01*
G01*
X12001580Y-10447581D02*
X12011104Y-10438057D01*
X12011104Y-10438057D02*
X12030151Y-10428533D01*
X12030151Y-10428533D02*
X12077770Y-10428533D01*
X12077770Y-10428533D02*
X12096818Y-10438057D01*
X12096818Y-10438057D02*
X12106342Y-10447581D01*
X12106342Y-10447581D02*
X12115866Y-10466628D01*
X12115866Y-10466628D02*
X12115866Y-10485676D01*
X12115866Y-10485676D02*
X12106342Y-10514247D01*
X12106342Y-10514247D02*
X11992056Y-10628533D01*
X11992056Y-10628533D02*
X12115866Y-10628533D01*
X12201580Y-10609485D02*
X12211104Y-10619009D01*
X12211104Y-10619009D02*
X12201580Y-10628533D01*
X12201580Y-10628533D02*
X12192056Y-10619009D01*
X12192056Y-10619009D02*
X12201580Y-10609485D01*
X12201580Y-10609485D02*
X12201580Y-10628533D01*
X12287294Y-10447581D02*
X12296818Y-10438057D01*
X12296818Y-10438057D02*
X12315866Y-10428533D01*
X12315866Y-10428533D02*
X12363485Y-10428533D01*
X12363485Y-10428533D02*
X12382532Y-10438057D01*
X12382532Y-10438057D02*
X12392056Y-10447581D01*
X12392056Y-10447581D02*
X12401580Y-10466628D01*
X12401580Y-10466628D02*
X12401580Y-10485676D01*
X12401580Y-10485676D02*
X12392056Y-10514247D01*
X12392056Y-10514247D02*
X12277770Y-10628533D01*
X12277770Y-10628533D02*
X12401580Y-10628533D01*
X12525389Y-10428533D02*
X12544437Y-10428533D01*
X12544437Y-10428533D02*
X12563485Y-10438057D01*
X12563485Y-10438057D02*
X12573008Y-10447581D01*
X12573008Y-10447581D02*
X12582532Y-10466628D01*
X12582532Y-10466628D02*
X12592056Y-10504723D01*
X12592056Y-10504723D02*
X12592056Y-10552342D01*
X12592056Y-10552342D02*
X12582532Y-10590438D01*
X12582532Y-10590438D02*
X12573008Y-10609485D01*
X12573008Y-10609485D02*
X12563485Y-10619009D01*
X12563485Y-10619009D02*
X12544437Y-10628533D01*
X12544437Y-10628533D02*
X12525389Y-10628533D01*
X12525389Y-10628533D02*
X12506342Y-10619009D01*
X12506342Y-10619009D02*
X12496818Y-10609485D01*
X12496818Y-10609485D02*
X12487294Y-10590438D01*
X12487294Y-10590438D02*
X12477770Y-10552342D01*
X12477770Y-10552342D02*
X12477770Y-10504723D01*
X12477770Y-10504723D02*
X12487294Y-10466628D01*
X12487294Y-10466628D02*
X12496818Y-10447581D01*
X12496818Y-10447581D02*
X12506342Y-10438057D01*
X12506342Y-10438057D02*
X12525389Y-10428533D01*
X12715866Y-10428533D02*
X12734913Y-10428533D01*
X12734913Y-10428533D02*
X12753961Y-10438057D01*
X12753961Y-10438057D02*
X12763485Y-10447581D01*
X12763485Y-10447581D02*
X12773008Y-10466628D01*
X12773008Y-10466628D02*
X12782532Y-10504723D01*
X12782532Y-10504723D02*
X12782532Y-10552342D01*
X12782532Y-10552342D02*
X12773008Y-10590438D01*
X12773008Y-10590438D02*
X12763485Y-10609485D01*
X12763485Y-10609485D02*
X12753961Y-10619009D01*
X12753961Y-10619009D02*
X12734913Y-10628533D01*
X12734913Y-10628533D02*
X12715866Y-10628533D01*
X12715866Y-10628533D02*
X12696818Y-10619009D01*
X12696818Y-10619009D02*
X12687294Y-10609485D01*
X12687294Y-10609485D02*
X12677770Y-10590438D01*
X12677770Y-10590438D02*
X12668247Y-10552342D01*
X12668247Y-10552342D02*
X12668247Y-10504723D01*
X12668247Y-10504723D02*
X12677770Y-10466628D01*
X12677770Y-10466628D02*
X12687294Y-10447581D01*
X12687294Y-10447581D02*
X12696818Y-10438057D01*
X12696818Y-10438057D02*
X12715866Y-10428533D01*
X12868247Y-10628533D02*
X12868247Y-10495200D01*
X12868247Y-10514247D02*
X12877770Y-10504723D01*
X12877770Y-10504723D02*
X12896818Y-10495200D01*
X12896818Y-10495200D02*
X12925389Y-10495200D01*
X12925389Y-10495200D02*
X12944437Y-10504723D01*
X12944437Y-10504723D02*
X12953961Y-10523771D01*
X12953961Y-10523771D02*
X12953961Y-10628533D01*
X12953961Y-10523771D02*
X12963485Y-10504723D01*
X12963485Y-10504723D02*
X12982532Y-10495200D01*
X12982532Y-10495200D02*
X13011104Y-10495200D01*
X13011104Y-10495200D02*
X13030151Y-10504723D01*
X13030151Y-10504723D02*
X13039675Y-10523771D01*
X13039675Y-10523771D02*
X13039675Y-10628533D01*
X13134913Y-10628533D02*
X13134913Y-10495200D01*
X13134913Y-10514247D02*
X13144437Y-10504723D01*
X13144437Y-10504723D02*
X13163485Y-10495200D01*
X13163485Y-10495200D02*
X13192056Y-10495200D01*
X13192056Y-10495200D02*
X13211104Y-10504723D01*
X13211104Y-10504723D02*
X13220628Y-10523771D01*
X13220628Y-10523771D02*
X13220628Y-10628533D01*
X13220628Y-10523771D02*
X13230151Y-10504723D01*
X13230151Y-10504723D02*
X13249199Y-10495200D01*
X13249199Y-10495200D02*
X13277770Y-10495200D01*
X13277770Y-10495200D02*
X13296818Y-10504723D01*
X13296818Y-10504723D02*
X13306342Y-10523771D01*
X13306342Y-10523771D02*
X13306342Y-10628533D01*
X13696818Y-10419009D02*
X13525390Y-10676152D01*
X13953961Y-10428533D02*
X13973009Y-10428533D01*
X13973009Y-10428533D02*
X13992056Y-10438057D01*
X13992056Y-10438057D02*
X14001580Y-10447581D01*
X14001580Y-10447581D02*
X14011104Y-10466628D01*
X14011104Y-10466628D02*
X14020628Y-10504723D01*
X14020628Y-10504723D02*
X14020628Y-10552342D01*
X14020628Y-10552342D02*
X14011104Y-10590438D01*
X14011104Y-10590438D02*
X14001580Y-10609485D01*
X14001580Y-10609485D02*
X13992056Y-10619009D01*
X13992056Y-10619009D02*
X13973009Y-10628533D01*
X13973009Y-10628533D02*
X13953961Y-10628533D01*
X13953961Y-10628533D02*
X13934913Y-10619009D01*
X13934913Y-10619009D02*
X13925390Y-10609485D01*
X13925390Y-10609485D02*
X13915866Y-10590438D01*
X13915866Y-10590438D02*
X13906342Y-10552342D01*
X13906342Y-10552342D02*
X13906342Y-10504723D01*
X13906342Y-10504723D02*
X13915866Y-10466628D01*
X13915866Y-10466628D02*
X13925390Y-10447581D01*
X13925390Y-10447581D02*
X13934913Y-10438057D01*
X13934913Y-10438057D02*
X13953961Y-10428533D01*
X14106342Y-10609485D02*
X14115866Y-10619009D01*
X14115866Y-10619009D02*
X14106342Y-10628533D01*
X14106342Y-10628533D02*
X14096818Y-10619009D01*
X14096818Y-10619009D02*
X14106342Y-10609485D01*
X14106342Y-10609485D02*
X14106342Y-10628533D01*
X14239675Y-10428533D02*
X14258723Y-10428533D01*
X14258723Y-10428533D02*
X14277771Y-10438057D01*
X14277771Y-10438057D02*
X14287294Y-10447581D01*
X14287294Y-10447581D02*
X14296818Y-10466628D01*
X14296818Y-10466628D02*
X14306342Y-10504723D01*
X14306342Y-10504723D02*
X14306342Y-10552342D01*
X14306342Y-10552342D02*
X14296818Y-10590438D01*
X14296818Y-10590438D02*
X14287294Y-10609485D01*
X14287294Y-10609485D02*
X14277771Y-10619009D01*
X14277771Y-10619009D02*
X14258723Y-10628533D01*
X14258723Y-10628533D02*
X14239675Y-10628533D01*
X14239675Y-10628533D02*
X14220628Y-10619009D01*
X14220628Y-10619009D02*
X14211104Y-10609485D01*
X14211104Y-10609485D02*
X14201580Y-10590438D01*
X14201580Y-10590438D02*
X14192056Y-10552342D01*
X14192056Y-10552342D02*
X14192056Y-10504723D01*
X14192056Y-10504723D02*
X14201580Y-10466628D01*
X14201580Y-10466628D02*
X14211104Y-10447581D01*
X14211104Y-10447581D02*
X14220628Y-10438057D01*
X14220628Y-10438057D02*
X14239675Y-10428533D01*
X14420628Y-10514247D02*
X14401580Y-10504723D01*
X14401580Y-10504723D02*
X14392056Y-10495200D01*
X14392056Y-10495200D02*
X14382532Y-10476152D01*
X14382532Y-10476152D02*
X14382532Y-10466628D01*
X14382532Y-10466628D02*
X14392056Y-10447581D01*
X14392056Y-10447581D02*
X14401580Y-10438057D01*
X14401580Y-10438057D02*
X14420628Y-10428533D01*
X14420628Y-10428533D02*
X14458723Y-10428533D01*
X14458723Y-10428533D02*
X14477771Y-10438057D01*
X14477771Y-10438057D02*
X14487294Y-10447581D01*
X14487294Y-10447581D02*
X14496818Y-10466628D01*
X14496818Y-10466628D02*
X14496818Y-10476152D01*
X14496818Y-10476152D02*
X14487294Y-10495200D01*
X14487294Y-10495200D02*
X14477771Y-10504723D01*
X14477771Y-10504723D02*
X14458723Y-10514247D01*
X14458723Y-10514247D02*
X14420628Y-10514247D01*
X14420628Y-10514247D02*
X14401580Y-10523771D01*
X14401580Y-10523771D02*
X14392056Y-10533295D01*
X14392056Y-10533295D02*
X14382532Y-10552342D01*
X14382532Y-10552342D02*
X14382532Y-10590438D01*
X14382532Y-10590438D02*
X14392056Y-10609485D01*
X14392056Y-10609485D02*
X14401580Y-10619009D01*
X14401580Y-10619009D02*
X14420628Y-10628533D01*
X14420628Y-10628533D02*
X14458723Y-10628533D01*
X14458723Y-10628533D02*
X14477771Y-10619009D01*
X14477771Y-10619009D02*
X14487294Y-10609485D01*
X14487294Y-10609485D02*
X14496818Y-10590438D01*
X14496818Y-10590438D02*
X14496818Y-10552342D01*
X14496818Y-10552342D02*
X14487294Y-10533295D01*
X14487294Y-10533295D02*
X14477771Y-10523771D01*
X14477771Y-10523771D02*
X14458723Y-10514247D01*
X14668247Y-10428533D02*
X14630151Y-10428533D01*
X14630151Y-10428533D02*
X14611104Y-10438057D01*
X14611104Y-10438057D02*
X14601580Y-10447581D01*
X14601580Y-10447581D02*
X14582532Y-10476152D01*
X14582532Y-10476152D02*
X14573009Y-10514247D01*
X14573009Y-10514247D02*
X14573009Y-10590438D01*
X14573009Y-10590438D02*
X14582532Y-10609485D01*
X14582532Y-10609485D02*
X14592056Y-10619009D01*
X14592056Y-10619009D02*
X14611104Y-10628533D01*
X14611104Y-10628533D02*
X14649199Y-10628533D01*
X14649199Y-10628533D02*
X14668247Y-10619009D01*
X14668247Y-10619009D02*
X14677771Y-10609485D01*
X14677771Y-10609485D02*
X14687294Y-10590438D01*
X14687294Y-10590438D02*
X14687294Y-10542819D01*
X14687294Y-10542819D02*
X14677771Y-10523771D01*
X14677771Y-10523771D02*
X14668247Y-10514247D01*
X14668247Y-10514247D02*
X14649199Y-10504723D01*
X14649199Y-10504723D02*
X14611104Y-10504723D01*
X14611104Y-10504723D02*
X14592056Y-10514247D01*
X14592056Y-10514247D02*
X14582532Y-10523771D01*
X14582532Y-10523771D02*
X14573009Y-10542819D01*
X14858723Y-10428533D02*
X14820628Y-10428533D01*
X14820628Y-10428533D02*
X14801580Y-10438057D01*
X14801580Y-10438057D02*
X14792056Y-10447581D01*
X14792056Y-10447581D02*
X14773009Y-10476152D01*
X14773009Y-10476152D02*
X14763485Y-10514247D01*
X14763485Y-10514247D02*
X14763485Y-10590438D01*
X14763485Y-10590438D02*
X14773009Y-10609485D01*
X14773009Y-10609485D02*
X14782532Y-10619009D01*
X14782532Y-10619009D02*
X14801580Y-10628533D01*
X14801580Y-10628533D02*
X14839675Y-10628533D01*
X14839675Y-10628533D02*
X14858723Y-10619009D01*
X14858723Y-10619009D02*
X14868247Y-10609485D01*
X14868247Y-10609485D02*
X14877771Y-10590438D01*
X14877771Y-10590438D02*
X14877771Y-10542819D01*
X14877771Y-10542819D02*
X14868247Y-10523771D01*
X14868247Y-10523771D02*
X14858723Y-10514247D01*
X14858723Y-10514247D02*
X14839675Y-10504723D01*
X14839675Y-10504723D02*
X14801580Y-10504723D01*
X14801580Y-10504723D02*
X14782532Y-10514247D01*
X14782532Y-10514247D02*
X14773009Y-10523771D01*
X14773009Y-10523771D02*
X14763485Y-10542819D01*
X14953961Y-10428533D02*
X14953961Y-10466628D01*
X15030152Y-10428533D02*
X15030152Y-10466628D01*
X15325390Y-10704723D02*
X15315866Y-10695200D01*
X15315866Y-10695200D02*
X15296818Y-10666628D01*
X15296818Y-10666628D02*
X15287294Y-10647581D01*
X15287294Y-10647581D02*
X15277771Y-10619009D01*
X15277771Y-10619009D02*
X15268247Y-10571390D01*
X15268247Y-10571390D02*
X15268247Y-10533295D01*
X15268247Y-10533295D02*
X15277771Y-10485676D01*
X15277771Y-10485676D02*
X15287294Y-10457104D01*
X15287294Y-10457104D02*
X15296818Y-10438057D01*
X15296818Y-10438057D02*
X15315866Y-10409485D01*
X15315866Y-10409485D02*
X15325390Y-10399961D01*
X15487294Y-10495200D02*
X15487294Y-10628533D01*
X15439675Y-10419009D02*
X15392056Y-10561866D01*
X15392056Y-10561866D02*
X15515866Y-10561866D01*
X15744437Y-10628533D02*
X15744437Y-10428533D01*
X15830152Y-10628533D02*
X15830152Y-10523771D01*
X15830152Y-10523771D02*
X15820628Y-10504723D01*
X15820628Y-10504723D02*
X15801580Y-10495200D01*
X15801580Y-10495200D02*
X15773009Y-10495200D01*
X15773009Y-10495200D02*
X15753961Y-10504723D01*
X15753961Y-10504723D02*
X15744437Y-10514247D01*
X15953961Y-10628533D02*
X15934914Y-10619009D01*
X15934914Y-10619009D02*
X15925390Y-10609485D01*
X15925390Y-10609485D02*
X15915866Y-10590438D01*
X15915866Y-10590438D02*
X15915866Y-10533295D01*
X15915866Y-10533295D02*
X15925390Y-10514247D01*
X15925390Y-10514247D02*
X15934914Y-10504723D01*
X15934914Y-10504723D02*
X15953961Y-10495200D01*
X15953961Y-10495200D02*
X15982533Y-10495200D01*
X15982533Y-10495200D02*
X16001580Y-10504723D01*
X16001580Y-10504723D02*
X16011104Y-10514247D01*
X16011104Y-10514247D02*
X16020628Y-10533295D01*
X16020628Y-10533295D02*
X16020628Y-10590438D01*
X16020628Y-10590438D02*
X16011104Y-10609485D01*
X16011104Y-10609485D02*
X16001580Y-10619009D01*
X16001580Y-10619009D02*
X15982533Y-10628533D01*
X15982533Y-10628533D02*
X15953961Y-10628533D01*
X16134914Y-10628533D02*
X16115866Y-10619009D01*
X16115866Y-10619009D02*
X16106342Y-10599961D01*
X16106342Y-10599961D02*
X16106342Y-10428533D01*
X16287295Y-10619009D02*
X16268247Y-10628533D01*
X16268247Y-10628533D02*
X16230152Y-10628533D01*
X16230152Y-10628533D02*
X16211104Y-10619009D01*
X16211104Y-10619009D02*
X16201580Y-10599961D01*
X16201580Y-10599961D02*
X16201580Y-10523771D01*
X16201580Y-10523771D02*
X16211104Y-10504723D01*
X16211104Y-10504723D02*
X16230152Y-10495200D01*
X16230152Y-10495200D02*
X16268247Y-10495200D01*
X16268247Y-10495200D02*
X16287295Y-10504723D01*
X16287295Y-10504723D02*
X16296818Y-10523771D01*
X16296818Y-10523771D02*
X16296818Y-10542819D01*
X16296818Y-10542819D02*
X16201580Y-10561866D01*
X16373009Y-10619009D02*
X16392056Y-10628533D01*
X16392056Y-10628533D02*
X16430152Y-10628533D01*
X16430152Y-10628533D02*
X16449199Y-10619009D01*
X16449199Y-10619009D02*
X16458723Y-10599961D01*
X16458723Y-10599961D02*
X16458723Y-10590438D01*
X16458723Y-10590438D02*
X16449199Y-10571390D01*
X16449199Y-10571390D02*
X16430152Y-10561866D01*
X16430152Y-10561866D02*
X16401580Y-10561866D01*
X16401580Y-10561866D02*
X16382533Y-10552342D01*
X16382533Y-10552342D02*
X16373009Y-10533295D01*
X16373009Y-10533295D02*
X16373009Y-10523771D01*
X16373009Y-10523771D02*
X16382533Y-10504723D01*
X16382533Y-10504723D02*
X16401580Y-10495200D01*
X16401580Y-10495200D02*
X16430152Y-10495200D01*
X16430152Y-10495200D02*
X16449199Y-10504723D01*
X16525390Y-10704723D02*
X16534914Y-10695200D01*
X16534914Y-10695200D02*
X16553961Y-10666628D01*
X16553961Y-10666628D02*
X16563485Y-10647581D01*
X16563485Y-10647581D02*
X16573009Y-10619009D01*
X16573009Y-10619009D02*
X16582533Y-10571390D01*
X16582533Y-10571390D02*
X16582533Y-10533295D01*
X16582533Y-10533295D02*
X16573009Y-10485676D01*
X16573009Y-10485676D02*
X16563485Y-10457104D01*
X16563485Y-10457104D02*
X16553961Y-10438057D01*
X16553961Y-10438057D02*
X16534914Y-10409485D01*
X16534914Y-10409485D02*
X16525390Y-10399961D01*
X16887295Y-10704723D02*
X16877771Y-10695200D01*
X16877771Y-10695200D02*
X16858723Y-10666628D01*
X16858723Y-10666628D02*
X16849199Y-10647581D01*
X16849199Y-10647581D02*
X16839676Y-10619009D01*
X16839676Y-10619009D02*
X16830152Y-10571390D01*
X16830152Y-10571390D02*
X16830152Y-10533295D01*
X16830152Y-10533295D02*
X16839676Y-10485676D01*
X16839676Y-10485676D02*
X16849199Y-10457104D01*
X16849199Y-10457104D02*
X16858723Y-10438057D01*
X16858723Y-10438057D02*
X16877771Y-10409485D01*
X16877771Y-10409485D02*
X16887295Y-10399961D01*
X16963485Y-10495200D02*
X16963485Y-10628533D01*
X16963485Y-10514247D02*
X16973009Y-10504723D01*
X16973009Y-10504723D02*
X16992057Y-10495200D01*
X16992057Y-10495200D02*
X17020628Y-10495200D01*
X17020628Y-10495200D02*
X17039676Y-10504723D01*
X17039676Y-10504723D02*
X17049199Y-10523771D01*
X17049199Y-10523771D02*
X17049199Y-10628533D01*
X17173009Y-10628533D02*
X17153961Y-10619009D01*
X17153961Y-10619009D02*
X17144438Y-10609485D01*
X17144438Y-10609485D02*
X17134914Y-10590438D01*
X17134914Y-10590438D02*
X17134914Y-10533295D01*
X17134914Y-10533295D02*
X17144438Y-10514247D01*
X17144438Y-10514247D02*
X17153961Y-10504723D01*
X17153961Y-10504723D02*
X17173009Y-10495200D01*
X17173009Y-10495200D02*
X17201580Y-10495200D01*
X17201580Y-10495200D02*
X17220628Y-10504723D01*
X17220628Y-10504723D02*
X17230152Y-10514247D01*
X17230152Y-10514247D02*
X17239676Y-10533295D01*
X17239676Y-10533295D02*
X17239676Y-10590438D01*
X17239676Y-10590438D02*
X17230152Y-10609485D01*
X17230152Y-10609485D02*
X17220628Y-10619009D01*
X17220628Y-10619009D02*
X17201580Y-10628533D01*
X17201580Y-10628533D02*
X17173009Y-10628533D01*
X17296819Y-10495200D02*
X17373009Y-10495200D01*
X17325390Y-10428533D02*
X17325390Y-10599961D01*
X17325390Y-10599961D02*
X17334914Y-10619009D01*
X17334914Y-10619009D02*
X17353961Y-10628533D01*
X17353961Y-10628533D02*
X17373009Y-10628533D01*
X17592057Y-10495200D02*
X17592057Y-10695200D01*
X17592057Y-10504723D02*
X17611104Y-10495200D01*
X17611104Y-10495200D02*
X17649200Y-10495200D01*
X17649200Y-10495200D02*
X17668247Y-10504723D01*
X17668247Y-10504723D02*
X17677771Y-10514247D01*
X17677771Y-10514247D02*
X17687295Y-10533295D01*
X17687295Y-10533295D02*
X17687295Y-10590438D01*
X17687295Y-10590438D02*
X17677771Y-10609485D01*
X17677771Y-10609485D02*
X17668247Y-10619009D01*
X17668247Y-10619009D02*
X17649200Y-10628533D01*
X17649200Y-10628533D02*
X17611104Y-10628533D01*
X17611104Y-10628533D02*
X17592057Y-10619009D01*
X17801580Y-10628533D02*
X17782533Y-10619009D01*
X17782533Y-10619009D02*
X17773009Y-10599961D01*
X17773009Y-10599961D02*
X17773009Y-10428533D01*
X17963485Y-10628533D02*
X17963485Y-10523771D01*
X17963485Y-10523771D02*
X17953961Y-10504723D01*
X17953961Y-10504723D02*
X17934914Y-10495200D01*
X17934914Y-10495200D02*
X17896819Y-10495200D01*
X17896819Y-10495200D02*
X17877771Y-10504723D01*
X17963485Y-10619009D02*
X17944438Y-10628533D01*
X17944438Y-10628533D02*
X17896819Y-10628533D01*
X17896819Y-10628533D02*
X17877771Y-10619009D01*
X17877771Y-10619009D02*
X17868247Y-10599961D01*
X17868247Y-10599961D02*
X17868247Y-10580914D01*
X17868247Y-10580914D02*
X17877771Y-10561866D01*
X17877771Y-10561866D02*
X17896819Y-10552342D01*
X17896819Y-10552342D02*
X17944438Y-10552342D01*
X17944438Y-10552342D02*
X17963485Y-10542819D01*
X18030152Y-10495200D02*
X18106342Y-10495200D01*
X18058723Y-10428533D02*
X18058723Y-10599961D01*
X18058723Y-10599961D02*
X18068247Y-10619009D01*
X18068247Y-10619009D02*
X18087295Y-10628533D01*
X18087295Y-10628533D02*
X18106342Y-10628533D01*
X18249200Y-10619009D02*
X18230152Y-10628533D01*
X18230152Y-10628533D02*
X18192057Y-10628533D01*
X18192057Y-10628533D02*
X18173009Y-10619009D01*
X18173009Y-10619009D02*
X18163485Y-10599961D01*
X18163485Y-10599961D02*
X18163485Y-10523771D01*
X18163485Y-10523771D02*
X18173009Y-10504723D01*
X18173009Y-10504723D02*
X18192057Y-10495200D01*
X18192057Y-10495200D02*
X18230152Y-10495200D01*
X18230152Y-10495200D02*
X18249200Y-10504723D01*
X18249200Y-10504723D02*
X18258723Y-10523771D01*
X18258723Y-10523771D02*
X18258723Y-10542819D01*
X18258723Y-10542819D02*
X18163485Y-10561866D01*
X18430152Y-10628533D02*
X18430152Y-10428533D01*
X18430152Y-10619009D02*
X18411104Y-10628533D01*
X18411104Y-10628533D02*
X18373009Y-10628533D01*
X18373009Y-10628533D02*
X18353961Y-10619009D01*
X18353961Y-10619009D02*
X18344438Y-10609485D01*
X18344438Y-10609485D02*
X18334914Y-10590438D01*
X18334914Y-10590438D02*
X18334914Y-10533295D01*
X18334914Y-10533295D02*
X18344438Y-10514247D01*
X18344438Y-10514247D02*
X18353961Y-10504723D01*
X18353961Y-10504723D02*
X18373009Y-10495200D01*
X18373009Y-10495200D02*
X18411104Y-10495200D01*
X18411104Y-10495200D02*
X18430152Y-10504723D01*
X18506342Y-10704723D02*
X18515866Y-10695200D01*
X18515866Y-10695200D02*
X18534914Y-10666628D01*
X18534914Y-10666628D02*
X18544438Y-10647581D01*
X18544438Y-10647581D02*
X18553961Y-10619009D01*
X18553961Y-10619009D02*
X18563485Y-10571390D01*
X18563485Y-10571390D02*
X18563485Y-10533295D01*
X18563485Y-10533295D02*
X18553961Y-10485676D01*
X18553961Y-10485676D02*
X18544438Y-10457104D01*
X18544438Y-10457104D02*
X18534914Y-10438057D01*
X18534914Y-10438057D02*
X18515866Y-10409485D01*
X18515866Y-10409485D02*
X18506342Y-10399961D01*
X11650327Y-10757049D02*
X11650327Y-10957049D01*
X11550327Y-10857049D02*
X11750327Y-10857049D01*
X11992056Y-10748533D02*
X12115866Y-10748533D01*
X12115866Y-10748533D02*
X12049199Y-10824723D01*
X12049199Y-10824723D02*
X12077770Y-10824723D01*
X12077770Y-10824723D02*
X12096818Y-10834247D01*
X12096818Y-10834247D02*
X12106342Y-10843771D01*
X12106342Y-10843771D02*
X12115866Y-10862819D01*
X12115866Y-10862819D02*
X12115866Y-10910438D01*
X12115866Y-10910438D02*
X12106342Y-10929485D01*
X12106342Y-10929485D02*
X12096818Y-10939009D01*
X12096818Y-10939009D02*
X12077770Y-10948533D01*
X12077770Y-10948533D02*
X12020627Y-10948533D01*
X12020627Y-10948533D02*
X12001580Y-10939009D01*
X12001580Y-10939009D02*
X11992056Y-10929485D01*
X12201580Y-10929485D02*
X12211104Y-10939009D01*
X12211104Y-10939009D02*
X12201580Y-10948533D01*
X12201580Y-10948533D02*
X12192056Y-10939009D01*
X12192056Y-10939009D02*
X12201580Y-10929485D01*
X12201580Y-10929485D02*
X12201580Y-10948533D01*
X12392056Y-10748533D02*
X12296818Y-10748533D01*
X12296818Y-10748533D02*
X12287294Y-10843771D01*
X12287294Y-10843771D02*
X12296818Y-10834247D01*
X12296818Y-10834247D02*
X12315866Y-10824723D01*
X12315866Y-10824723D02*
X12363485Y-10824723D01*
X12363485Y-10824723D02*
X12382532Y-10834247D01*
X12382532Y-10834247D02*
X12392056Y-10843771D01*
X12392056Y-10843771D02*
X12401580Y-10862819D01*
X12401580Y-10862819D02*
X12401580Y-10910438D01*
X12401580Y-10910438D02*
X12392056Y-10929485D01*
X12392056Y-10929485D02*
X12382532Y-10939009D01*
X12382532Y-10939009D02*
X12363485Y-10948533D01*
X12363485Y-10948533D02*
X12315866Y-10948533D01*
X12315866Y-10948533D02*
X12296818Y-10939009D01*
X12296818Y-10939009D02*
X12287294Y-10929485D01*
X12525389Y-10748533D02*
X12544437Y-10748533D01*
X12544437Y-10748533D02*
X12563485Y-10758057D01*
X12563485Y-10758057D02*
X12573008Y-10767581D01*
X12573008Y-10767581D02*
X12582532Y-10786628D01*
X12582532Y-10786628D02*
X12592056Y-10824723D01*
X12592056Y-10824723D02*
X12592056Y-10872342D01*
X12592056Y-10872342D02*
X12582532Y-10910438D01*
X12582532Y-10910438D02*
X12573008Y-10929485D01*
X12573008Y-10929485D02*
X12563485Y-10939009D01*
X12563485Y-10939009D02*
X12544437Y-10948533D01*
X12544437Y-10948533D02*
X12525389Y-10948533D01*
X12525389Y-10948533D02*
X12506342Y-10939009D01*
X12506342Y-10939009D02*
X12496818Y-10929485D01*
X12496818Y-10929485D02*
X12487294Y-10910438D01*
X12487294Y-10910438D02*
X12477770Y-10872342D01*
X12477770Y-10872342D02*
X12477770Y-10824723D01*
X12477770Y-10824723D02*
X12487294Y-10786628D01*
X12487294Y-10786628D02*
X12496818Y-10767581D01*
X12496818Y-10767581D02*
X12506342Y-10758057D01*
X12506342Y-10758057D02*
X12525389Y-10748533D01*
X12715866Y-10748533D02*
X12734913Y-10748533D01*
X12734913Y-10748533D02*
X12753961Y-10758057D01*
X12753961Y-10758057D02*
X12763485Y-10767581D01*
X12763485Y-10767581D02*
X12773008Y-10786628D01*
X12773008Y-10786628D02*
X12782532Y-10824723D01*
X12782532Y-10824723D02*
X12782532Y-10872342D01*
X12782532Y-10872342D02*
X12773008Y-10910438D01*
X12773008Y-10910438D02*
X12763485Y-10929485D01*
X12763485Y-10929485D02*
X12753961Y-10939009D01*
X12753961Y-10939009D02*
X12734913Y-10948533D01*
X12734913Y-10948533D02*
X12715866Y-10948533D01*
X12715866Y-10948533D02*
X12696818Y-10939009D01*
X12696818Y-10939009D02*
X12687294Y-10929485D01*
X12687294Y-10929485D02*
X12677770Y-10910438D01*
X12677770Y-10910438D02*
X12668247Y-10872342D01*
X12668247Y-10872342D02*
X12668247Y-10824723D01*
X12668247Y-10824723D02*
X12677770Y-10786628D01*
X12677770Y-10786628D02*
X12687294Y-10767581D01*
X12687294Y-10767581D02*
X12696818Y-10758057D01*
X12696818Y-10758057D02*
X12715866Y-10748533D01*
X12868247Y-10948533D02*
X12868247Y-10815200D01*
X12868247Y-10834247D02*
X12877770Y-10824723D01*
X12877770Y-10824723D02*
X12896818Y-10815200D01*
X12896818Y-10815200D02*
X12925389Y-10815200D01*
X12925389Y-10815200D02*
X12944437Y-10824723D01*
X12944437Y-10824723D02*
X12953961Y-10843771D01*
X12953961Y-10843771D02*
X12953961Y-10948533D01*
X12953961Y-10843771D02*
X12963485Y-10824723D01*
X12963485Y-10824723D02*
X12982532Y-10815200D01*
X12982532Y-10815200D02*
X13011104Y-10815200D01*
X13011104Y-10815200D02*
X13030151Y-10824723D01*
X13030151Y-10824723D02*
X13039675Y-10843771D01*
X13039675Y-10843771D02*
X13039675Y-10948533D01*
X13134913Y-10948533D02*
X13134913Y-10815200D01*
X13134913Y-10834247D02*
X13144437Y-10824723D01*
X13144437Y-10824723D02*
X13163485Y-10815200D01*
X13163485Y-10815200D02*
X13192056Y-10815200D01*
X13192056Y-10815200D02*
X13211104Y-10824723D01*
X13211104Y-10824723D02*
X13220628Y-10843771D01*
X13220628Y-10843771D02*
X13220628Y-10948533D01*
X13220628Y-10843771D02*
X13230151Y-10824723D01*
X13230151Y-10824723D02*
X13249199Y-10815200D01*
X13249199Y-10815200D02*
X13277770Y-10815200D01*
X13277770Y-10815200D02*
X13296818Y-10824723D01*
X13296818Y-10824723D02*
X13306342Y-10843771D01*
X13306342Y-10843771D02*
X13306342Y-10948533D01*
X13696818Y-10739009D02*
X13525390Y-10996152D01*
X13953961Y-10748533D02*
X13973009Y-10748533D01*
X13973009Y-10748533D02*
X13992056Y-10758057D01*
X13992056Y-10758057D02*
X14001580Y-10767581D01*
X14001580Y-10767581D02*
X14011104Y-10786628D01*
X14011104Y-10786628D02*
X14020628Y-10824723D01*
X14020628Y-10824723D02*
X14020628Y-10872342D01*
X14020628Y-10872342D02*
X14011104Y-10910438D01*
X14011104Y-10910438D02*
X14001580Y-10929485D01*
X14001580Y-10929485D02*
X13992056Y-10939009D01*
X13992056Y-10939009D02*
X13973009Y-10948533D01*
X13973009Y-10948533D02*
X13953961Y-10948533D01*
X13953961Y-10948533D02*
X13934913Y-10939009D01*
X13934913Y-10939009D02*
X13925390Y-10929485D01*
X13925390Y-10929485D02*
X13915866Y-10910438D01*
X13915866Y-10910438D02*
X13906342Y-10872342D01*
X13906342Y-10872342D02*
X13906342Y-10824723D01*
X13906342Y-10824723D02*
X13915866Y-10786628D01*
X13915866Y-10786628D02*
X13925390Y-10767581D01*
X13925390Y-10767581D02*
X13934913Y-10758057D01*
X13934913Y-10758057D02*
X13953961Y-10748533D01*
X14106342Y-10929485D02*
X14115866Y-10939009D01*
X14115866Y-10939009D02*
X14106342Y-10948533D01*
X14106342Y-10948533D02*
X14096818Y-10939009D01*
X14096818Y-10939009D02*
X14106342Y-10929485D01*
X14106342Y-10929485D02*
X14106342Y-10948533D01*
X14306342Y-10948533D02*
X14192056Y-10948533D01*
X14249199Y-10948533D02*
X14249199Y-10748533D01*
X14249199Y-10748533D02*
X14230151Y-10777104D01*
X14230151Y-10777104D02*
X14211104Y-10796152D01*
X14211104Y-10796152D02*
X14192056Y-10805676D01*
X14373009Y-10748533D02*
X14496818Y-10748533D01*
X14496818Y-10748533D02*
X14430151Y-10824723D01*
X14430151Y-10824723D02*
X14458723Y-10824723D01*
X14458723Y-10824723D02*
X14477771Y-10834247D01*
X14477771Y-10834247D02*
X14487294Y-10843771D01*
X14487294Y-10843771D02*
X14496818Y-10862819D01*
X14496818Y-10862819D02*
X14496818Y-10910438D01*
X14496818Y-10910438D02*
X14487294Y-10929485D01*
X14487294Y-10929485D02*
X14477771Y-10939009D01*
X14477771Y-10939009D02*
X14458723Y-10948533D01*
X14458723Y-10948533D02*
X14401580Y-10948533D01*
X14401580Y-10948533D02*
X14382532Y-10939009D01*
X14382532Y-10939009D02*
X14373009Y-10929485D01*
X14563485Y-10748533D02*
X14696818Y-10748533D01*
X14696818Y-10748533D02*
X14611104Y-10948533D01*
X14801580Y-10834247D02*
X14782532Y-10824723D01*
X14782532Y-10824723D02*
X14773009Y-10815200D01*
X14773009Y-10815200D02*
X14763485Y-10796152D01*
X14763485Y-10796152D02*
X14763485Y-10786628D01*
X14763485Y-10786628D02*
X14773009Y-10767581D01*
X14773009Y-10767581D02*
X14782532Y-10758057D01*
X14782532Y-10758057D02*
X14801580Y-10748533D01*
X14801580Y-10748533D02*
X14839675Y-10748533D01*
X14839675Y-10748533D02*
X14858723Y-10758057D01*
X14858723Y-10758057D02*
X14868247Y-10767581D01*
X14868247Y-10767581D02*
X14877771Y-10786628D01*
X14877771Y-10786628D02*
X14877771Y-10796152D01*
X14877771Y-10796152D02*
X14868247Y-10815200D01*
X14868247Y-10815200D02*
X14858723Y-10824723D01*
X14858723Y-10824723D02*
X14839675Y-10834247D01*
X14839675Y-10834247D02*
X14801580Y-10834247D01*
X14801580Y-10834247D02*
X14782532Y-10843771D01*
X14782532Y-10843771D02*
X14773009Y-10853295D01*
X14773009Y-10853295D02*
X14763485Y-10872342D01*
X14763485Y-10872342D02*
X14763485Y-10910438D01*
X14763485Y-10910438D02*
X14773009Y-10929485D01*
X14773009Y-10929485D02*
X14782532Y-10939009D01*
X14782532Y-10939009D02*
X14801580Y-10948533D01*
X14801580Y-10948533D02*
X14839675Y-10948533D01*
X14839675Y-10948533D02*
X14858723Y-10939009D01*
X14858723Y-10939009D02*
X14868247Y-10929485D01*
X14868247Y-10929485D02*
X14877771Y-10910438D01*
X14877771Y-10910438D02*
X14877771Y-10872342D01*
X14877771Y-10872342D02*
X14868247Y-10853295D01*
X14868247Y-10853295D02*
X14858723Y-10843771D01*
X14858723Y-10843771D02*
X14839675Y-10834247D01*
X14953961Y-10748533D02*
X14953961Y-10786628D01*
X15030152Y-10748533D02*
X15030152Y-10786628D01*
X15325390Y-11024723D02*
X15315866Y-11015200D01*
X15315866Y-11015200D02*
X15296818Y-10986628D01*
X15296818Y-10986628D02*
X15287294Y-10967581D01*
X15287294Y-10967581D02*
X15277771Y-10939009D01*
X15277771Y-10939009D02*
X15268247Y-10891390D01*
X15268247Y-10891390D02*
X15268247Y-10853295D01*
X15268247Y-10853295D02*
X15277771Y-10805676D01*
X15277771Y-10805676D02*
X15287294Y-10777104D01*
X15287294Y-10777104D02*
X15296818Y-10758057D01*
X15296818Y-10758057D02*
X15315866Y-10729485D01*
X15315866Y-10729485D02*
X15325390Y-10719961D01*
X15392056Y-10767581D02*
X15401580Y-10758057D01*
X15401580Y-10758057D02*
X15420628Y-10748533D01*
X15420628Y-10748533D02*
X15468247Y-10748533D01*
X15468247Y-10748533D02*
X15487294Y-10758057D01*
X15487294Y-10758057D02*
X15496818Y-10767581D01*
X15496818Y-10767581D02*
X15506342Y-10786628D01*
X15506342Y-10786628D02*
X15506342Y-10805676D01*
X15506342Y-10805676D02*
X15496818Y-10834247D01*
X15496818Y-10834247D02*
X15382533Y-10948533D01*
X15382533Y-10948533D02*
X15506342Y-10948533D01*
X15744437Y-10948533D02*
X15744437Y-10748533D01*
X15830152Y-10948533D02*
X15830152Y-10843771D01*
X15830152Y-10843771D02*
X15820628Y-10824723D01*
X15820628Y-10824723D02*
X15801580Y-10815200D01*
X15801580Y-10815200D02*
X15773009Y-10815200D01*
X15773009Y-10815200D02*
X15753961Y-10824723D01*
X15753961Y-10824723D02*
X15744437Y-10834247D01*
X15953961Y-10948533D02*
X15934914Y-10939009D01*
X15934914Y-10939009D02*
X15925390Y-10929485D01*
X15925390Y-10929485D02*
X15915866Y-10910438D01*
X15915866Y-10910438D02*
X15915866Y-10853295D01*
X15915866Y-10853295D02*
X15925390Y-10834247D01*
X15925390Y-10834247D02*
X15934914Y-10824723D01*
X15934914Y-10824723D02*
X15953961Y-10815200D01*
X15953961Y-10815200D02*
X15982533Y-10815200D01*
X15982533Y-10815200D02*
X16001580Y-10824723D01*
X16001580Y-10824723D02*
X16011104Y-10834247D01*
X16011104Y-10834247D02*
X16020628Y-10853295D01*
X16020628Y-10853295D02*
X16020628Y-10910438D01*
X16020628Y-10910438D02*
X16011104Y-10929485D01*
X16011104Y-10929485D02*
X16001580Y-10939009D01*
X16001580Y-10939009D02*
X15982533Y-10948533D01*
X15982533Y-10948533D02*
X15953961Y-10948533D01*
X16134914Y-10948533D02*
X16115866Y-10939009D01*
X16115866Y-10939009D02*
X16106342Y-10919961D01*
X16106342Y-10919961D02*
X16106342Y-10748533D01*
X16287295Y-10939009D02*
X16268247Y-10948533D01*
X16268247Y-10948533D02*
X16230152Y-10948533D01*
X16230152Y-10948533D02*
X16211104Y-10939009D01*
X16211104Y-10939009D02*
X16201580Y-10919961D01*
X16201580Y-10919961D02*
X16201580Y-10843771D01*
X16201580Y-10843771D02*
X16211104Y-10824723D01*
X16211104Y-10824723D02*
X16230152Y-10815200D01*
X16230152Y-10815200D02*
X16268247Y-10815200D01*
X16268247Y-10815200D02*
X16287295Y-10824723D01*
X16287295Y-10824723D02*
X16296818Y-10843771D01*
X16296818Y-10843771D02*
X16296818Y-10862819D01*
X16296818Y-10862819D02*
X16201580Y-10881866D01*
X16373009Y-10939009D02*
X16392056Y-10948533D01*
X16392056Y-10948533D02*
X16430152Y-10948533D01*
X16430152Y-10948533D02*
X16449199Y-10939009D01*
X16449199Y-10939009D02*
X16458723Y-10919961D01*
X16458723Y-10919961D02*
X16458723Y-10910438D01*
X16458723Y-10910438D02*
X16449199Y-10891390D01*
X16449199Y-10891390D02*
X16430152Y-10881866D01*
X16430152Y-10881866D02*
X16401580Y-10881866D01*
X16401580Y-10881866D02*
X16382533Y-10872342D01*
X16382533Y-10872342D02*
X16373009Y-10853295D01*
X16373009Y-10853295D02*
X16373009Y-10843771D01*
X16373009Y-10843771D02*
X16382533Y-10824723D01*
X16382533Y-10824723D02*
X16401580Y-10815200D01*
X16401580Y-10815200D02*
X16430152Y-10815200D01*
X16430152Y-10815200D02*
X16449199Y-10824723D01*
X16525390Y-11024723D02*
X16534914Y-11015200D01*
X16534914Y-11015200D02*
X16553961Y-10986628D01*
X16553961Y-10986628D02*
X16563485Y-10967581D01*
X16563485Y-10967581D02*
X16573009Y-10939009D01*
X16573009Y-10939009D02*
X16582533Y-10891390D01*
X16582533Y-10891390D02*
X16582533Y-10853295D01*
X16582533Y-10853295D02*
X16573009Y-10805676D01*
X16573009Y-10805676D02*
X16563485Y-10777104D01*
X16563485Y-10777104D02*
X16553961Y-10758057D01*
X16553961Y-10758057D02*
X16534914Y-10729485D01*
X16534914Y-10729485D02*
X16525390Y-10719961D01*
X16887295Y-11024723D02*
X16877771Y-11015200D01*
X16877771Y-11015200D02*
X16858723Y-10986628D01*
X16858723Y-10986628D02*
X16849199Y-10967581D01*
X16849199Y-10967581D02*
X16839676Y-10939009D01*
X16839676Y-10939009D02*
X16830152Y-10891390D01*
X16830152Y-10891390D02*
X16830152Y-10853295D01*
X16830152Y-10853295D02*
X16839676Y-10805676D01*
X16839676Y-10805676D02*
X16849199Y-10777104D01*
X16849199Y-10777104D02*
X16858723Y-10758057D01*
X16858723Y-10758057D02*
X16877771Y-10729485D01*
X16877771Y-10729485D02*
X16887295Y-10719961D01*
X16963485Y-10815200D02*
X16963485Y-10948533D01*
X16963485Y-10834247D02*
X16973009Y-10824723D01*
X16973009Y-10824723D02*
X16992057Y-10815200D01*
X16992057Y-10815200D02*
X17020628Y-10815200D01*
X17020628Y-10815200D02*
X17039676Y-10824723D01*
X17039676Y-10824723D02*
X17049199Y-10843771D01*
X17049199Y-10843771D02*
X17049199Y-10948533D01*
X17173009Y-10948533D02*
X17153961Y-10939009D01*
X17153961Y-10939009D02*
X17144438Y-10929485D01*
X17144438Y-10929485D02*
X17134914Y-10910438D01*
X17134914Y-10910438D02*
X17134914Y-10853295D01*
X17134914Y-10853295D02*
X17144438Y-10834247D01*
X17144438Y-10834247D02*
X17153961Y-10824723D01*
X17153961Y-10824723D02*
X17173009Y-10815200D01*
X17173009Y-10815200D02*
X17201580Y-10815200D01*
X17201580Y-10815200D02*
X17220628Y-10824723D01*
X17220628Y-10824723D02*
X17230152Y-10834247D01*
X17230152Y-10834247D02*
X17239676Y-10853295D01*
X17239676Y-10853295D02*
X17239676Y-10910438D01*
X17239676Y-10910438D02*
X17230152Y-10929485D01*
X17230152Y-10929485D02*
X17220628Y-10939009D01*
X17220628Y-10939009D02*
X17201580Y-10948533D01*
X17201580Y-10948533D02*
X17173009Y-10948533D01*
X17296819Y-10815200D02*
X17373009Y-10815200D01*
X17325390Y-10748533D02*
X17325390Y-10919961D01*
X17325390Y-10919961D02*
X17334914Y-10939009D01*
X17334914Y-10939009D02*
X17353961Y-10948533D01*
X17353961Y-10948533D02*
X17373009Y-10948533D01*
X17592057Y-10815200D02*
X17592057Y-11015200D01*
X17592057Y-10824723D02*
X17611104Y-10815200D01*
X17611104Y-10815200D02*
X17649200Y-10815200D01*
X17649200Y-10815200D02*
X17668247Y-10824723D01*
X17668247Y-10824723D02*
X17677771Y-10834247D01*
X17677771Y-10834247D02*
X17687295Y-10853295D01*
X17687295Y-10853295D02*
X17687295Y-10910438D01*
X17687295Y-10910438D02*
X17677771Y-10929485D01*
X17677771Y-10929485D02*
X17668247Y-10939009D01*
X17668247Y-10939009D02*
X17649200Y-10948533D01*
X17649200Y-10948533D02*
X17611104Y-10948533D01*
X17611104Y-10948533D02*
X17592057Y-10939009D01*
X17801580Y-10948533D02*
X17782533Y-10939009D01*
X17782533Y-10939009D02*
X17773009Y-10919961D01*
X17773009Y-10919961D02*
X17773009Y-10748533D01*
X17963485Y-10948533D02*
X17963485Y-10843771D01*
X17963485Y-10843771D02*
X17953961Y-10824723D01*
X17953961Y-10824723D02*
X17934914Y-10815200D01*
X17934914Y-10815200D02*
X17896819Y-10815200D01*
X17896819Y-10815200D02*
X17877771Y-10824723D01*
X17963485Y-10939009D02*
X17944438Y-10948533D01*
X17944438Y-10948533D02*
X17896819Y-10948533D01*
X17896819Y-10948533D02*
X17877771Y-10939009D01*
X17877771Y-10939009D02*
X17868247Y-10919961D01*
X17868247Y-10919961D02*
X17868247Y-10900914D01*
X17868247Y-10900914D02*
X17877771Y-10881866D01*
X17877771Y-10881866D02*
X17896819Y-10872342D01*
X17896819Y-10872342D02*
X17944438Y-10872342D01*
X17944438Y-10872342D02*
X17963485Y-10862819D01*
X18030152Y-10815200D02*
X18106342Y-10815200D01*
X18058723Y-10748533D02*
X18058723Y-10919961D01*
X18058723Y-10919961D02*
X18068247Y-10939009D01*
X18068247Y-10939009D02*
X18087295Y-10948533D01*
X18087295Y-10948533D02*
X18106342Y-10948533D01*
X18249200Y-10939009D02*
X18230152Y-10948533D01*
X18230152Y-10948533D02*
X18192057Y-10948533D01*
X18192057Y-10948533D02*
X18173009Y-10939009D01*
X18173009Y-10939009D02*
X18163485Y-10919961D01*
X18163485Y-10919961D02*
X18163485Y-10843771D01*
X18163485Y-10843771D02*
X18173009Y-10824723D01*
X18173009Y-10824723D02*
X18192057Y-10815200D01*
X18192057Y-10815200D02*
X18230152Y-10815200D01*
X18230152Y-10815200D02*
X18249200Y-10824723D01*
X18249200Y-10824723D02*
X18258723Y-10843771D01*
X18258723Y-10843771D02*
X18258723Y-10862819D01*
X18258723Y-10862819D02*
X18163485Y-10881866D01*
X18430152Y-10948533D02*
X18430152Y-10748533D01*
X18430152Y-10939009D02*
X18411104Y-10948533D01*
X18411104Y-10948533D02*
X18373009Y-10948533D01*
X18373009Y-10948533D02*
X18353961Y-10939009D01*
X18353961Y-10939009D02*
X18344438Y-10929485D01*
X18344438Y-10929485D02*
X18334914Y-10910438D01*
X18334914Y-10910438D02*
X18334914Y-10853295D01*
X18334914Y-10853295D02*
X18344438Y-10834247D01*
X18344438Y-10834247D02*
X18353961Y-10824723D01*
X18353961Y-10824723D02*
X18373009Y-10815200D01*
X18373009Y-10815200D02*
X18411104Y-10815200D01*
X18411104Y-10815200D02*
X18430152Y-10824723D01*
X18506342Y-11024723D02*
X18515866Y-11015200D01*
X18515866Y-11015200D02*
X18534914Y-10986628D01*
X18534914Y-10986628D02*
X18544438Y-10967581D01*
X18544438Y-10967581D02*
X18553961Y-10939009D01*
X18553961Y-10939009D02*
X18563485Y-10891390D01*
X18563485Y-10891390D02*
X18563485Y-10853295D01*
X18563485Y-10853295D02*
X18553961Y-10805676D01*
X18553961Y-10805676D02*
X18544438Y-10777104D01*
X18544438Y-10777104D02*
X18534914Y-10758057D01*
X18534914Y-10758057D02*
X18515866Y-10729485D01*
X18515866Y-10729485D02*
X18506342Y-10719961D01*
M02*
