G04 #@! TF.GenerationSoftware,KiCad,Pcbnew,8.0.1*
G04 #@! TF.CreationDate,2024-07-15T10:08:49+02:00*
G04 #@! TF.ProjectId,RGB 2x2 with WS2811,52474220-3278-4322-9077-697468205753,rev?*
G04 #@! TF.SameCoordinates,Original*
G04 #@! TF.FileFunction,Other,User*
%FSLAX46Y46*%
G04 Gerber Fmt 4.6, Leading zero omitted, Abs format (unit mm)*
G04 Created by KiCad (PCBNEW 8.0.1) date 2024-07-15 10:08:49*
%MOMM*%
%LPD*%
G01*
G04 APERTURE LIST*
%ADD10C,0.050000*%
G04 APERTURE END LIST*
D10*
G04 #@! TO.C,PMOS*
X148195268Y-68949491D02*
X148195268Y-72349493D01*
X148195268Y-72349493D02*
X152035268Y-72349493D01*
X152035268Y-68949491D02*
X148195268Y-68949491D01*
X152035268Y-72349493D02*
X152035268Y-68949491D01*
G04 #@! TO.C,R11*
X144455268Y-43358491D02*
X148155268Y-43358491D01*
X144455268Y-45258491D02*
X144455268Y-43358491D01*
X148155268Y-43358491D02*
X148155268Y-45258491D01*
X148155268Y-45258491D02*
X144455268Y-45258491D01*
G04 #@! TO.C,R9*
X140645268Y-70790490D02*
X144345268Y-70790490D01*
X140645268Y-72690490D02*
X140645268Y-70790490D01*
X144345268Y-70790490D02*
X144345268Y-72690490D01*
X144345268Y-72690490D02*
X140645268Y-72690490D01*
G04 #@! TO.C,SW2*
X141319269Y-56674491D02*
X141319269Y-66974491D01*
X141319269Y-66974491D02*
X151769269Y-66974491D01*
X151769269Y-56674491D02*
X141319269Y-56674491D01*
X151769269Y-66974491D02*
X151769269Y-56674491D01*
G04 #@! TO.C,D2*
X145101268Y-68175492D02*
X147001268Y-68175492D01*
X145101268Y-72565492D02*
X145101268Y-68175492D01*
X147001268Y-68175492D02*
X147001268Y-72565492D01*
X147001268Y-72565492D02*
X145101268Y-72565492D01*
G04 #@! TO.C,D1*
X144055268Y-45439491D02*
X144055268Y-50289491D01*
X144055268Y-50289491D02*
X148555268Y-50289491D01*
X148555268Y-45439491D02*
X144055268Y-45439491D01*
X148555268Y-50289491D02*
X148555268Y-45439491D01*
G04 #@! TO.C,J5*
X123169268Y-65652491D02*
X126719267Y-65652491D01*
X123169268Y-74302491D02*
X123169268Y-65652491D01*
X126719267Y-65652491D02*
X126719268Y-74302491D01*
X126719268Y-74302491D02*
X123169268Y-74302491D01*
G04 #@! TD*
M02*
