G04 #@! TF.GenerationSoftware,KiCad,Pcbnew,8.0.1*
G04 #@! TF.CreationDate,2024-07-15T10:08:48+02:00*
G04 #@! TF.ProjectId,RGB 2x2 with WS2811,52474220-3278-4322-9077-697468205753,rev?*
G04 #@! TF.SameCoordinates,Original*
G04 #@! TF.FileFunction,Copper,L2,Bot*
G04 #@! TF.FilePolarity,Positive*
%FSLAX46Y46*%
G04 Gerber Fmt 4.6, Leading zero omitted, Abs format (unit mm)*
G04 Created by KiCad (PCBNEW 8.0.1) date 2024-07-15 10:08:48*
%MOMM*%
%LPD*%
G01*
G04 APERTURE LIST*
G04 Aperture macros list*
%AMRoundRect*
0 Rectangle with rounded corners*
0 $1 Rounding radius*
0 $2 $3 $4 $5 $6 $7 $8 $9 X,Y pos of 4 corners*
0 Add a 4 corners polygon primitive as box body*
4,1,4,$2,$3,$4,$5,$6,$7,$8,$9,$2,$3,0*
0 Add four circle primitives for the rounded corners*
1,1,$1+$1,$2,$3*
1,1,$1+$1,$4,$5*
1,1,$1+$1,$6,$7*
1,1,$1+$1,$8,$9*
0 Add four rect primitives between the rounded corners*
20,1,$1+$1,$2,$3,$4,$5,0*
20,1,$1+$1,$4,$5,$6,$7,0*
20,1,$1+$1,$6,$7,$8,$9,0*
20,1,$1+$1,$8,$9,$2,$3,0*%
G04 Aperture macros list end*
G04 #@! TA.AperFunction,ComponentPad*
%ADD10R,1.700000X1.700000*%
G04 #@! TD*
G04 #@! TA.AperFunction,ComponentPad*
%ADD11O,1.700000X1.700000*%
G04 #@! TD*
G04 #@! TA.AperFunction,ComponentPad*
%ADD12RoundRect,0.425000X0.425000X0.425000X-0.425000X0.425000X-0.425000X-0.425000X0.425000X-0.425000X0*%
G04 #@! TD*
G04 #@! TA.AperFunction,ComponentPad*
%ADD13O,3.500000X2.200000*%
G04 #@! TD*
G04 #@! TA.AperFunction,ComponentPad*
%ADD14O,2.500000X1.500000*%
G04 #@! TD*
G04 #@! TA.AperFunction,ComponentPad*
%ADD15R,2.500000X1.500000*%
G04 #@! TD*
G04 #@! TA.AperFunction,ComponentPad*
%ADD16C,2.600000*%
G04 #@! TD*
G04 #@! TA.AperFunction,SMDPad,CuDef*
%ADD17RoundRect,0.150000X-0.587500X-0.150000X0.587500X-0.150000X0.587500X0.150000X-0.587500X0.150000X0*%
G04 #@! TD*
G04 #@! TA.AperFunction,SMDPad,CuDef*
%ADD18O,1.998980X2.748280*%
G04 #@! TD*
G04 #@! TA.AperFunction,SMDPad,CuDef*
%ADD19O,2.032000X1.016000*%
G04 #@! TD*
G04 #@! TA.AperFunction,SMDPad,CuDef*
%ADD20C,1.143000*%
G04 #@! TD*
G04 #@! TA.AperFunction,SMDPad,CuDef*
%ADD21RoundRect,0.250000X0.350000X0.450000X-0.350000X0.450000X-0.350000X-0.450000X0.350000X-0.450000X0*%
G04 #@! TD*
G04 #@! TA.AperFunction,ComponentPad*
%ADD22R,1.600000X1.600000*%
G04 #@! TD*
G04 #@! TA.AperFunction,ComponentPad*
%ADD23O,1.600000X1.600000*%
G04 #@! TD*
G04 #@! TA.AperFunction,ComponentPad*
%ADD24RoundRect,0.304347X-0.395653X0.945653X-0.395653X-0.945653X0.395653X-0.945653X0.395653X0.945653X0*%
G04 #@! TD*
G04 #@! TA.AperFunction,ComponentPad*
%ADD25R,1.800000X1.800000*%
G04 #@! TD*
G04 #@! TA.AperFunction,ComponentPad*
%ADD26C,1.800000*%
G04 #@! TD*
G04 #@! TA.AperFunction,ViaPad*
%ADD27C,0.600000*%
G04 #@! TD*
G04 #@! TA.AperFunction,Conductor*
%ADD28C,0.200000*%
G04 #@! TD*
G04 #@! TA.AperFunction,Conductor*
%ADD29C,0.500000*%
G04 #@! TD*
G04 #@! TA.AperFunction,Conductor*
%ADD30C,0.400000*%
G04 #@! TD*
G04 #@! TA.AperFunction,Conductor*
%ADD31C,0.800000*%
G04 #@! TD*
G04 APERTURE END LIST*
D10*
G04 #@! TO.P,J1,1*
G04 #@! TO.N,ROW_1*
X154433269Y-67930489D03*
D11*
G04 #@! TO.P,J1,2*
G04 #@! TO.N,ROW_2*
X154433269Y-65390489D03*
G04 #@! TO.P,J1,3*
G04 #@! TO.N,COL_1*
X154433269Y-62850490D03*
G04 #@! TO.P,J1,4*
G04 #@! TO.N,COL_2*
X154433269Y-60310489D03*
G04 #@! TD*
D12*
G04 #@! TO.P,REF\u002A\u002A,*
G04 #@! TO.N,*
X128017269Y-69962492D03*
G04 #@! TD*
G04 #@! TO.P,REF\u002A\u002A,*
G04 #@! TO.N,*
X128017269Y-67422491D03*
G04 #@! TD*
G04 #@! TO.P,REF\u002A\u002A,*
G04 #@! TO.N,*
X130557269Y-67422491D03*
G04 #@! TD*
G04 #@! TO.P,REF\u002A\u002A,*
G04 #@! TO.N,*
X138177268Y-67422491D03*
G04 #@! TD*
G04 #@! TO.P,REF\u002A\u002A,*
G04 #@! TO.N,*
X135637267Y-72502491D03*
G04 #@! TD*
G04 #@! TO.P,REF\u002A\u002A,*
G04 #@! TO.N,*
X133097268Y-67422491D03*
G04 #@! TD*
G04 #@! TO.P,REF\u002A\u002A,*
G04 #@! TO.N,*
X133097269Y-72502491D03*
G04 #@! TD*
G04 #@! TO.P,REF\u002A\u002A,*
G04 #@! TO.N,*
X130557268Y-72502491D03*
G04 #@! TD*
D10*
G04 #@! TO.P,J2,1*
G04 #@! TO.N,+5V*
X123953269Y-39990490D03*
D11*
G04 #@! TO.P,J2,2*
G04 #@! TO.N,Net-(U5-OUTB)*
X126493269Y-39990490D03*
G04 #@! TO.P,J2,3*
G04 #@! TO.N,Net-(U5-OUTG)*
X129033268Y-39990490D03*
G04 #@! TO.P,J2,4*
G04 #@! TO.N,Net-(U5-OUTR)*
X131573269Y-39990490D03*
G04 #@! TO.P,J2,5*
G04 #@! TO.N,Net-(U4-OUTB)*
X134113269Y-39990490D03*
G04 #@! TO.P,J2,6*
G04 #@! TO.N,Net-(U4-OUTG)*
X136653269Y-39990490D03*
G04 #@! TO.P,J2,7*
G04 #@! TO.N,Net-(U4-OUTR)*
X139193269Y-39990490D03*
G04 #@! TO.P,J2,8*
G04 #@! TO.N,Net-(U3-OUTB)*
X141733270Y-39990490D03*
G04 #@! TO.P,J2,9*
G04 #@! TO.N,Net-(U3-OUTG)*
X144273269Y-39990490D03*
G04 #@! TO.P,J2,10*
G04 #@! TO.N,Net-(U3-OUTR)*
X146813269Y-39990490D03*
G04 #@! TO.P,J2,11*
G04 #@! TO.N,Net-(U2-OUTB)*
X149353269Y-39990490D03*
G04 #@! TO.P,J2,12*
G04 #@! TO.N,Net-(U2-OUTG)*
X151893268Y-39990490D03*
G04 #@! TO.P,J2,13*
G04 #@! TO.N,Net-(U2-OUTR)*
X154433269Y-39990490D03*
G04 #@! TD*
D12*
G04 #@! TO.P,REF\u002A\u002A,*
G04 #@! TO.N,*
X138177267Y-72502491D03*
G04 #@! TD*
G04 #@! TO.P,REF\u002A\u002A,*
G04 #@! TO.N,*
X133097268Y-69962491D03*
G04 #@! TD*
G04 #@! TO.P,REF\u002A\u002A,*
G04 #@! TO.N,*
X130557269Y-69962491D03*
G04 #@! TD*
G04 #@! TO.P,REF\u002A\u002A,*
G04 #@! TO.N,*
X135637268Y-67422491D03*
G04 #@! TD*
G04 #@! TO.P,REF\u002A\u002A,*
G04 #@! TO.N,*
X138177268Y-69962491D03*
G04 #@! TD*
D13*
G04 #@! TO.P,SW1,*
G04 #@! TO.N,*
X157005268Y-57298491D03*
X157005268Y-49098492D03*
D14*
G04 #@! TO.P,SW1,1,A*
G04 #@! TO.N,Net-(Q1-D)*
X157005268Y-51198491D03*
G04 #@! TO.P,SW1,2,B*
G04 #@! TO.N,Net-(BT1-+)*
X157005268Y-53198490D03*
D15*
G04 #@! TO.P,SW1,3*
G04 #@! TO.N,N/C*
X157005268Y-55198491D03*
G04 #@! TD*
D12*
G04 #@! TO.P,REF\u002A\u002A,*
G04 #@! TO.N,*
X128017268Y-72502491D03*
G04 #@! TD*
G04 #@! TO.P,REF\u002A\u002A,*
G04 #@! TO.N,*
X135637268Y-69962491D03*
G04 #@! TD*
D16*
G04 #@! TO.P,3.7V,1,+*
G04 #@! TO.N,Net-(BT1-+)*
X157593268Y-85202491D03*
G04 #@! TO.P,3.7V,2,-*
G04 #@! TO.N,GND*
X119593268Y-85202491D03*
G04 #@! TD*
D17*
G04 #@! TO.P,PMOS,1,G*
G04 #@! TO.N,Net-(D2-A)*
X149177768Y-71599492D03*
G04 #@! TO.P,PMOS,2,S*
G04 #@! TO.N,Net-(D2-K)*
X149177768Y-69699492D03*
G04 #@! TO.P,PMOS,3,D*
G04 #@! TO.N,Net-(Q1-D)*
X151052769Y-70649492D03*
G04 #@! TD*
D18*
G04 #@! TO.P,U1,1,PA02_A0_D0*
G04 #@! TO.N,DIP1*
X120905268Y-45669931D03*
G04 #@! TO.P,U1,2,PA4_A1_D1*
G04 #@! TO.N,DIP2*
X123445268Y-45669931D03*
G04 #@! TO.P,U1,3,PA10_A2_D2*
G04 #@! TO.N,DIP3*
X125985268Y-45669931D03*
G04 #@! TO.P,U1,4,PA11_A3_D3*
G04 #@! TO.N,ROW_1*
X128525268Y-45669931D03*
G04 #@! TO.P,U1,5,PA8_A4_D4_SDA*
G04 #@! TO.N,unconnected-(U1-PA8_A4_D4_SDA-Pad5)*
X131065268Y-45669931D03*
G04 #@! TO.P,U1,6,PA9_A5_D5_SCL*
G04 #@! TO.N,unconnected-(U1-PA9_A5_D5_SCL-Pad6)*
X133605268Y-45669931D03*
G04 #@! TO.P,U1,7,PB08_A6_D6_TX*
G04 #@! TO.N,ROW_2*
X136145268Y-45669931D03*
G04 #@! TO.P,U1,8,PB09_A7_D7_RX*
G04 #@! TO.N,DATA*
X136145268Y-61834491D03*
G04 #@! TO.P,U1,9,PA7_A8_D8_SCK*
G04 #@! TO.N,unconnected-(U1-PA7_A8_D8_SCK-Pad9)*
X133605268Y-61834491D03*
G04 #@! TO.P,U1,10,PA5_A9_D9_MISO*
G04 #@! TO.N,COL_2*
X131065268Y-61834491D03*
G04 #@! TO.P,U1,11,PA6_A10_D10_MOSI*
G04 #@! TO.N,COL_1*
X128525268Y-61834491D03*
G04 #@! TO.P,U1,12,3V3*
G04 #@! TO.N,unconnected-(U1-3V3-Pad12)*
X125985268Y-61834491D03*
G04 #@! TO.P,U1,13,GND*
G04 #@! TO.N,GND*
X123445268Y-61834491D03*
G04 #@! TO.P,U1,14,5V*
G04 #@! TO.N,+5V*
X120905268Y-61834491D03*
D19*
G04 #@! TO.P,U1,15,5V*
X137223088Y-52536811D03*
G04 #@! TO.P,U1,16,GND*
G04 #@! TO.N,GND*
X137223088Y-55086811D03*
D20*
G04 #@! TO.P,U1,17,PA31_SWDIO*
G04 #@! TO.N,unconnected-(U1-PA31_SWDIO-Pad17)*
X120218901Y-52535614D03*
G04 #@! TO.P,U1,18,PA30_SWCLK*
G04 #@! TO.N,unconnected-(U1-PA30_SWCLK-Pad18)*
X120218901Y-55075614D03*
G04 #@! TO.P,U1,19,RESET*
G04 #@! TO.N,unconnected-(U1-RESET-Pad19)*
X122758901Y-52535614D03*
G04 #@! TO.P,U1,20,GND*
G04 #@! TO.N,GND*
X122758901Y-55075614D03*
G04 #@! TD*
D21*
G04 #@! TO.P,R11,1*
G04 #@! TO.N,GND*
X147305268Y-44308491D03*
G04 #@! TO.P,R11,2*
G04 #@! TO.N,Net-(D1-Pad1)*
X145305268Y-44308491D03*
G04 #@! TD*
G04 #@! TO.P,R9,1*
G04 #@! TO.N,Net-(D2-A)*
X143495268Y-71740490D03*
G04 #@! TO.P,R9,2*
G04 #@! TO.N,GND*
X141495268Y-71740490D03*
G04 #@! TD*
D22*
G04 #@! TO.P,SW2,1*
G04 #@! TO.N,DIP1*
X144019269Y-58024491D03*
D23*
G04 #@! TO.P,SW2,2*
G04 #@! TO.N,DIP2*
X146559269Y-58024491D03*
G04 #@! TO.P,SW2,3*
G04 #@! TO.N,DIP3*
X149099268Y-58024491D03*
G04 #@! TO.P,SW2,4*
G04 #@! TO.N,GND*
X149099269Y-65644491D03*
G04 #@! TO.P,SW2,5*
X146559269Y-65644491D03*
G04 #@! TO.P,SW2,6*
X144019269Y-65644491D03*
G04 #@! TD*
D24*
G04 #@! TO.P,D2,1,K*
G04 #@! TO.N,Net-(D2-K)*
X146051268Y-69691492D03*
G04 #@! TO.P,D2,2,A*
G04 #@! TO.N,Net-(D2-A)*
X146051268Y-72501492D03*
G04 #@! TD*
D25*
G04 #@! TO.P,D1,1*
G04 #@! TO.N,Net-(D1-Pad1)*
X146305268Y-46589491D03*
D26*
G04 #@! TO.P,D1,2*
G04 #@! TO.N,Net-(Q1-D)*
X146305268Y-49129491D03*
G04 #@! TD*
D10*
G04 #@! TO.P,J5,1*
G04 #@! TO.N,GND*
X124969268Y-72502491D03*
D11*
G04 #@! TO.P,J5,2*
G04 #@! TO.N,Net-(D2-K)*
X124969268Y-69962491D03*
G04 #@! TO.P,J5,3*
G04 #@! TO.N,+5V*
X124969268Y-67422492D03*
G04 #@! TD*
D27*
G04 #@! TO.N,GND*
X144273268Y-53706491D03*
X122937268Y-71232490D03*
X142241268Y-65644490D03*
X141479268Y-73772490D03*
X122937268Y-57262490D03*
X129795268Y-48372491D03*
X150877268Y-65644490D03*
X140463268Y-43038491D03*
X134113268Y-48372491D03*
X148921268Y-43546491D03*
G04 #@! TO.N,Net-(U3-VDD)*
X143266881Y-52954104D03*
X144273268Y-55484491D03*
G04 #@! TO.N,ROW_2*
X151985268Y-57256834D03*
G04 #@! TO.N,ROW_1*
X151385268Y-58786491D03*
G04 #@! TO.N,+5V*
X135129268Y-54976491D03*
G04 #@! TO.N,DATA*
X135344896Y-60310491D03*
G04 #@! TD*
D28*
G04 #@! TO.N,GND*
X144019269Y-65644491D02*
X149099269Y-65644491D01*
X144273268Y-53706491D02*
X144273268Y-52182491D01*
X122758901Y-55830329D02*
X122758901Y-55075614D01*
X140635408Y-51674491D02*
X137223088Y-55086811D01*
X121829268Y-60218491D02*
X121829268Y-56759962D01*
X143765268Y-51674491D02*
X140635408Y-51674491D01*
X121829268Y-56759962D02*
X122758901Y-55830329D01*
X144273268Y-52182491D02*
X143765268Y-51674491D01*
X134113268Y-48372491D02*
X129795268Y-48372491D01*
X123445268Y-61834491D02*
X121829268Y-60218491D01*
G04 #@! TO.N,Net-(U3-VDD)*
X143266881Y-54478104D02*
X143266881Y-52954104D01*
X144273268Y-55484491D02*
X143266881Y-54478104D01*
G04 #@! TO.N,COL_2*
X133005268Y-63774491D02*
X150969267Y-63774491D01*
X150969267Y-63774491D02*
X154433269Y-60310489D01*
X131065268Y-61834491D02*
X133005268Y-63774491D01*
G04 #@! TO.N,COL_1*
X151134953Y-64174491D02*
X152458954Y-62850490D01*
X152458954Y-62850490D02*
X154433269Y-62850490D01*
X128525268Y-61834491D02*
X130865268Y-64174491D01*
X130865268Y-64174491D02*
X151134953Y-64174491D01*
G04 #@! TO.N,ROW_2*
X137419408Y-46944071D02*
X136145268Y-45669931D01*
X142082848Y-46944071D02*
X137419408Y-46944071D01*
X151785268Y-53090491D02*
X150223268Y-51528491D01*
X151785268Y-57056834D02*
X151785268Y-53090491D01*
X146667268Y-51528491D02*
X142082848Y-46944071D01*
X151985268Y-57256834D02*
X151785268Y-57056834D01*
X150223268Y-51528491D02*
X146667268Y-51528491D01*
G04 #@! TO.N,ROW_1*
X151385268Y-53256177D02*
X150057582Y-51928491D01*
X150057582Y-51928491D02*
X146501582Y-51928491D01*
X141917162Y-47344071D02*
X130199408Y-47344071D01*
X146501582Y-51928491D02*
X141917162Y-47344071D01*
X130199408Y-47344071D02*
X128525268Y-45669931D01*
X151385268Y-58786491D02*
X151385268Y-53256177D01*
D29*
G04 #@! TO.N,+5V*
X118873268Y-45070491D02*
X123953269Y-39990490D01*
X136552948Y-52536811D02*
X137223088Y-52536811D01*
X135891268Y-53198491D02*
X136552948Y-52536811D01*
X135129268Y-54976491D02*
X135891268Y-54214491D01*
X124969268Y-67422492D02*
X124969268Y-65898491D01*
X118873268Y-59802491D02*
X118873268Y-45070491D01*
X135891268Y-54214491D02*
X135891268Y-53198491D01*
X124969268Y-65898491D02*
X120905268Y-61834491D01*
X120905268Y-61834491D02*
X118873268Y-59802491D01*
D28*
G04 #@! TO.N,Net-(D1-Pad1)*
X145305268Y-45589491D02*
X146305268Y-46589491D01*
X145305268Y-44308491D02*
X145305268Y-45589491D01*
G04 #@! TO.N,DATA*
X136145268Y-61110863D02*
X136145268Y-61834491D01*
X135344896Y-60310491D02*
X136145268Y-61110863D01*
G04 #@! TO.N,DIP2*
X123445268Y-47160177D02*
X123445268Y-45669931D01*
X146559269Y-58024491D02*
X146305269Y-58278491D01*
X146305269Y-58278491D02*
X144951269Y-56924491D01*
X144951269Y-56924491D02*
X133209583Y-56924491D01*
X133209583Y-56924491D02*
X123445268Y-47160177D01*
G04 #@! TO.N,DIP3*
X147599268Y-56524491D02*
X133375268Y-56524491D01*
X125985268Y-49134491D02*
X125985268Y-45669931D01*
X133375268Y-56524491D02*
X125985268Y-49134491D01*
X149099268Y-58024491D02*
X147599268Y-56524491D01*
G04 #@! TO.N,DIP1*
X133043897Y-57324491D02*
X123329897Y-47610491D01*
X121504708Y-45669931D02*
X120905268Y-45669931D01*
X143319269Y-57324491D02*
X133043897Y-57324491D01*
X120905268Y-46594491D02*
X120905268Y-45669931D01*
X123329897Y-47610491D02*
X121921268Y-47610491D01*
X120742708Y-46431931D02*
X121504708Y-45669931D01*
X144019269Y-58024491D02*
X143319269Y-57324491D01*
X121921268Y-47610491D02*
X120905268Y-46594491D01*
D29*
G04 #@! TO.N,Net-(Q1-D)*
X154805268Y-58650491D02*
X155957268Y-59802491D01*
X157005268Y-51198491D02*
X156433268Y-51198491D01*
D28*
X150426954Y-51166491D02*
X150388953Y-51128491D01*
X156973268Y-51166491D02*
X150426954Y-51166491D01*
D29*
X154254267Y-70649492D02*
X151052769Y-70649492D01*
X154805268Y-52826491D02*
X154805268Y-58650491D01*
D28*
X157005268Y-51198491D02*
X156973268Y-51166491D01*
X150388953Y-51128491D02*
X146832954Y-51128491D01*
D29*
X156433268Y-51198491D02*
X154805268Y-52826491D01*
X155957268Y-59802491D02*
X155957268Y-68946491D01*
X155957268Y-68946491D02*
X154254267Y-70649492D01*
D28*
X146832954Y-51128491D02*
X146305268Y-50600805D01*
X146305268Y-50600805D02*
X146305268Y-49129491D01*
D30*
G04 #@! TO.N,Net-(D2-K)*
X125223268Y-69708491D02*
X126525922Y-68405837D01*
X146069265Y-69708490D02*
X149168770Y-69708490D01*
X142477270Y-69690493D02*
X146051268Y-69690493D01*
X127070616Y-65898491D02*
X138685268Y-65898491D01*
X146051268Y-69690493D02*
X146069265Y-69708490D01*
X149168770Y-69708490D02*
X149177768Y-69699492D01*
X138685268Y-65898491D02*
X142477270Y-69690493D01*
X126525922Y-66443185D02*
X127070616Y-65898491D01*
X126525922Y-68405837D02*
X126525922Y-66443185D01*
X124627921Y-69708491D02*
X125223268Y-69708491D01*
D29*
G04 #@! TO.N,Net-(D2-A)*
X146042269Y-71731492D02*
X149045768Y-71731492D01*
X149045768Y-71731492D02*
X149177768Y-71599492D01*
D31*
X143749268Y-71731492D02*
X146042269Y-71731492D01*
G04 #@! TD*
G04 #@! TA.AperFunction,Conductor*
G04 #@! TO.N,GND*
G36*
X158932101Y-58387621D02*
G01*
X158988034Y-58429493D01*
X159012451Y-58494957D01*
X159012767Y-58503803D01*
X159012767Y-83779212D01*
X158993082Y-83846251D01*
X158940278Y-83892006D01*
X158871120Y-83901950D01*
X158807564Y-83872925D01*
X158804426Y-83870111D01*
X158719009Y-83790856D01*
X158679306Y-83763787D01*
X158496043Y-83638840D01*
X158496037Y-83638837D01*
X158496036Y-83638836D01*
X158496035Y-83638835D01*
X158252911Y-83521754D01*
X158252913Y-83521754D01*
X157995041Y-83442211D01*
X157995035Y-83442209D01*
X157728204Y-83401991D01*
X157728197Y-83401991D01*
X157458339Y-83401991D01*
X157458331Y-83401991D01*
X157191500Y-83442209D01*
X157191494Y-83442211D01*
X156933626Y-83521753D01*
X156690498Y-83638837D01*
X156467526Y-83790856D01*
X156269710Y-83974401D01*
X156101453Y-84185389D01*
X155966526Y-84419090D01*
X155966524Y-84419094D01*
X155867934Y-84670295D01*
X155867932Y-84670302D01*
X155807884Y-84933389D01*
X155787719Y-85202486D01*
X155787719Y-85202495D01*
X155807884Y-85471592D01*
X155862861Y-85712461D01*
X155867934Y-85734686D01*
X155966525Y-85985889D01*
X156101453Y-86219593D01*
X156237188Y-86389798D01*
X156269710Y-86430580D01*
X156456451Y-86603849D01*
X156467527Y-86614126D01*
X156690494Y-86766142D01*
X156933627Y-86883229D01*
X157191496Y-86962771D01*
X157191497Y-86962771D01*
X157191500Y-86962772D01*
X157458331Y-87002990D01*
X157458336Y-87002990D01*
X157458339Y-87002991D01*
X157458340Y-87002991D01*
X157728196Y-87002991D01*
X157728197Y-87002991D01*
X157728204Y-87002990D01*
X157995035Y-86962772D01*
X157995036Y-86962771D01*
X157995040Y-86962771D01*
X158252909Y-86883229D01*
X158496043Y-86766142D01*
X158719009Y-86614126D01*
X158758544Y-86577442D01*
X158804426Y-86534871D01*
X158866958Y-86503702D01*
X158936414Y-86511289D01*
X158990743Y-86555222D01*
X159012695Y-86621554D01*
X159012767Y-86625769D01*
X159012767Y-93326427D01*
X159012502Y-93334537D01*
X158995851Y-93588596D01*
X158993733Y-93604678D01*
X158944859Y-93850381D01*
X158940661Y-93866047D01*
X158860134Y-94103272D01*
X158853927Y-94118258D01*
X158743122Y-94342947D01*
X158735012Y-94356993D01*
X158595829Y-94565296D01*
X158585954Y-94578166D01*
X158420768Y-94766521D01*
X158409300Y-94777989D01*
X158220955Y-94943162D01*
X158208086Y-94953037D01*
X157999778Y-95092222D01*
X157985731Y-95100332D01*
X157761041Y-95211134D01*
X157746055Y-95217341D01*
X157508829Y-95297866D01*
X157493162Y-95302064D01*
X157247451Y-95350936D01*
X157231370Y-95353053D01*
X157126961Y-95359895D01*
X156976955Y-95369725D01*
X156968867Y-95369990D01*
X120209168Y-95369990D01*
X120147328Y-95369989D01*
X120139218Y-95369723D01*
X119885181Y-95353069D01*
X119869101Y-95350952D01*
X119623395Y-95302076D01*
X119607727Y-95297878D01*
X119370499Y-95217346D01*
X119355515Y-95211139D01*
X119130830Y-95100335D01*
X119116782Y-95092225D01*
X118908477Y-94953037D01*
X118895609Y-94943162D01*
X118707263Y-94777984D01*
X118695794Y-94766515D01*
X118586014Y-94641334D01*
X118530613Y-94578159D01*
X118520740Y-94565293D01*
X118456201Y-94468702D01*
X118381552Y-94356979D01*
X118373451Y-94342947D01*
X118262645Y-94118251D01*
X118256443Y-94103278D01*
X118175914Y-93866043D01*
X118171716Y-93850376D01*
X118163045Y-93806781D01*
X118122842Y-93604660D01*
X118120726Y-93588586D01*
X118114464Y-93493042D01*
X156442768Y-93493042D01*
X156471097Y-93671901D01*
X156527055Y-93844127D01*
X156527056Y-93844130D01*
X156609274Y-94005488D01*
X156715709Y-94151985D01*
X156715713Y-94151990D01*
X156843768Y-94280045D01*
X156843773Y-94280049D01*
X156930332Y-94342937D01*
X156990274Y-94386487D01*
X157059193Y-94421603D01*
X157151628Y-94468702D01*
X157151631Y-94468703D01*
X157237744Y-94496682D01*
X157323859Y-94524662D01*
X157406697Y-94537782D01*
X157502717Y-94552991D01*
X157502722Y-94552991D01*
X157683819Y-94552991D01*
X157770527Y-94539256D01*
X157862677Y-94524662D01*
X158034907Y-94468702D01*
X158196262Y-94386487D01*
X158342769Y-94280044D01*
X158470821Y-94151992D01*
X158577264Y-94005485D01*
X158659479Y-93844130D01*
X158715439Y-93671900D01*
X158730033Y-93579750D01*
X158743768Y-93493042D01*
X158743768Y-93311939D01*
X158727287Y-93207888D01*
X158715439Y-93133082D01*
X158659479Y-92960852D01*
X158659479Y-92960851D01*
X158631008Y-92904975D01*
X158577264Y-92799497D01*
X158563664Y-92780778D01*
X158470826Y-92652996D01*
X158470822Y-92652991D01*
X158342767Y-92524936D01*
X158342762Y-92524932D01*
X158196265Y-92418497D01*
X158196264Y-92418496D01*
X158196262Y-92418495D01*
X158144568Y-92392155D01*
X158034907Y-92336279D01*
X158034904Y-92336278D01*
X157862678Y-92280320D01*
X157683819Y-92251991D01*
X157683814Y-92251991D01*
X157502722Y-92251991D01*
X157502717Y-92251991D01*
X157323857Y-92280320D01*
X157151631Y-92336278D01*
X157151628Y-92336279D01*
X156990270Y-92418497D01*
X156843773Y-92524932D01*
X156843768Y-92524936D01*
X156715713Y-92652991D01*
X156715709Y-92652996D01*
X156609274Y-92799493D01*
X156527056Y-92960851D01*
X156527055Y-92960854D01*
X156471097Y-93133080D01*
X156442768Y-93311939D01*
X156442768Y-93493042D01*
X118114464Y-93493042D01*
X118104033Y-93333890D01*
X118103769Y-93325788D01*
X118103769Y-86389798D01*
X118123454Y-86322759D01*
X118140088Y-86302117D01*
X118877421Y-85564784D01*
X118884317Y-85581433D01*
X118971867Y-85712461D01*
X119083298Y-85823892D01*
X119214326Y-85911442D01*
X119230973Y-85918337D01*
X118508116Y-86641193D01*
X118690751Y-86765711D01*
X118690753Y-86765712D01*
X118933807Y-86882760D01*
X118933805Y-86882760D01*
X119191605Y-86962281D01*
X119191611Y-86962283D01*
X119458369Y-87002490D01*
X119458378Y-87002491D01*
X119728158Y-87002491D01*
X119728166Y-87002490D01*
X119994924Y-86962283D01*
X119994930Y-86962281D01*
X120252729Y-86882760D01*
X120495789Y-86765709D01*
X120678418Y-86641193D01*
X119955562Y-85918337D01*
X119972210Y-85911442D01*
X120103238Y-85823892D01*
X120214669Y-85712461D01*
X120302219Y-85581433D01*
X120309114Y-85564785D01*
X121030971Y-86286642D01*
X121030972Y-86286641D01*
X121084661Y-86219319D01*
X121084668Y-86219308D01*
X121219558Y-85985672D01*
X121318119Y-85734543D01*
X121318125Y-85734524D01*
X121378154Y-85471519D01*
X121378154Y-85471517D01*
X121388488Y-85333618D01*
X124492768Y-85333618D01*
X124506227Y-85435842D01*
X124526998Y-85593607D01*
X124594870Y-85846909D01*
X124594873Y-85846919D01*
X124695221Y-86089181D01*
X124695226Y-86089191D01*
X124826343Y-86316294D01*
X124985986Y-86524342D01*
X124985994Y-86524351D01*
X125171408Y-86709765D01*
X125171416Y-86709772D01*
X125379464Y-86869415D01*
X125606567Y-87000532D01*
X125606577Y-87000537D01*
X125848839Y-87100885D01*
X125848849Y-87100889D01*
X126102152Y-87168761D01*
X126362148Y-87202991D01*
X126362155Y-87202991D01*
X126624381Y-87202991D01*
X126624388Y-87202991D01*
X126884384Y-87168761D01*
X127137687Y-87100889D01*
X127314608Y-87027605D01*
X127379958Y-87000537D01*
X127379959Y-87000536D01*
X127379965Y-87000534D01*
X127607071Y-86869415D01*
X127815119Y-86709773D01*
X127815123Y-86709768D01*
X127815128Y-86709765D01*
X128000542Y-86524351D01*
X128000545Y-86524346D01*
X128000550Y-86524342D01*
X128160192Y-86316294D01*
X128291311Y-86089188D01*
X128391666Y-85846910D01*
X128459538Y-85593607D01*
X128493767Y-85333618D01*
X148692768Y-85333618D01*
X148706227Y-85435842D01*
X148726998Y-85593607D01*
X148794870Y-85846909D01*
X148794873Y-85846919D01*
X148895221Y-86089181D01*
X148895226Y-86089191D01*
X149026343Y-86316294D01*
X149185986Y-86524342D01*
X149185994Y-86524351D01*
X149371408Y-86709765D01*
X149371416Y-86709772D01*
X149579464Y-86869415D01*
X149806567Y-87000532D01*
X149806577Y-87000537D01*
X150048839Y-87100885D01*
X150048849Y-87100889D01*
X150302152Y-87168761D01*
X150562148Y-87202991D01*
X150562155Y-87202991D01*
X150824381Y-87202991D01*
X150824388Y-87202991D01*
X151084384Y-87168761D01*
X151337687Y-87100889D01*
X151514608Y-87027605D01*
X151579958Y-87000537D01*
X151579959Y-87000536D01*
X151579965Y-87000534D01*
X151807071Y-86869415D01*
X152015119Y-86709773D01*
X152015123Y-86709768D01*
X152015128Y-86709765D01*
X152200542Y-86524351D01*
X152200545Y-86524346D01*
X152200550Y-86524342D01*
X152360192Y-86316294D01*
X152491311Y-86089188D01*
X152591666Y-85846910D01*
X152659538Y-85593607D01*
X152693768Y-85333611D01*
X152693768Y-85071371D01*
X152659538Y-84811375D01*
X152591666Y-84558072D01*
X152564936Y-84493540D01*
X152491314Y-84315800D01*
X152491309Y-84315790D01*
X152360192Y-84088687D01*
X152216902Y-83901950D01*
X152200550Y-83880640D01*
X152200549Y-83880639D01*
X152200542Y-83880631D01*
X152015128Y-83695217D01*
X152015119Y-83695209D01*
X151807071Y-83535566D01*
X151579968Y-83404449D01*
X151579958Y-83404444D01*
X151337696Y-83304096D01*
X151337689Y-83304094D01*
X151337687Y-83304093D01*
X151084384Y-83236221D01*
X151026607Y-83228614D01*
X150824395Y-83201991D01*
X150824388Y-83201991D01*
X150562148Y-83201991D01*
X150562140Y-83201991D01*
X150331040Y-83232417D01*
X150302152Y-83236221D01*
X150048849Y-83304093D01*
X150048839Y-83304096D01*
X149806577Y-83404444D01*
X149806567Y-83404449D01*
X149579464Y-83535566D01*
X149371416Y-83695209D01*
X149185986Y-83880639D01*
X149026343Y-84088687D01*
X148895226Y-84315790D01*
X148895221Y-84315800D01*
X148794873Y-84558062D01*
X148794870Y-84558072D01*
X148726998Y-84811376D01*
X148692768Y-85071363D01*
X148692768Y-85333618D01*
X128493767Y-85333618D01*
X128493768Y-85333611D01*
X128493768Y-85071371D01*
X128459538Y-84811375D01*
X128391666Y-84558072D01*
X128364936Y-84493540D01*
X128291314Y-84315800D01*
X128291309Y-84315790D01*
X128160192Y-84088687D01*
X128016902Y-83901950D01*
X128000550Y-83880640D01*
X128000549Y-83880639D01*
X128000542Y-83880631D01*
X127815128Y-83695217D01*
X127815119Y-83695209D01*
X127607071Y-83535566D01*
X127379968Y-83404449D01*
X127379958Y-83404444D01*
X127137696Y-83304096D01*
X127137689Y-83304094D01*
X127137687Y-83304093D01*
X126884384Y-83236221D01*
X126826607Y-83228614D01*
X126624395Y-83201991D01*
X126624388Y-83201991D01*
X126362148Y-83201991D01*
X126362140Y-83201991D01*
X126131040Y-83232417D01*
X126102152Y-83236221D01*
X125848849Y-83304093D01*
X125848839Y-83304096D01*
X125606577Y-83404444D01*
X125606567Y-83404449D01*
X125379464Y-83535566D01*
X125171416Y-83695209D01*
X124985986Y-83880639D01*
X124826343Y-84088687D01*
X124695226Y-84315790D01*
X124695221Y-84315800D01*
X124594873Y-84558062D01*
X124594870Y-84558072D01*
X124526998Y-84811376D01*
X124492768Y-85071363D01*
X124492768Y-85333618D01*
X121388488Y-85333618D01*
X121398315Y-85202495D01*
X121398315Y-85202486D01*
X121378154Y-84933464D01*
X121378154Y-84933462D01*
X121318125Y-84670457D01*
X121318119Y-84670438D01*
X121219558Y-84419309D01*
X121219559Y-84419309D01*
X121084665Y-84185668D01*
X121030972Y-84118338D01*
X120309114Y-84840196D01*
X120302219Y-84823549D01*
X120214669Y-84692521D01*
X120103238Y-84581090D01*
X119972210Y-84493540D01*
X119955562Y-84486644D01*
X120678418Y-83763787D01*
X120495785Y-83639270D01*
X120495784Y-83639269D01*
X120252728Y-83522221D01*
X120252730Y-83522221D01*
X119994930Y-83442700D01*
X119994924Y-83442698D01*
X119728166Y-83402491D01*
X119458369Y-83402491D01*
X119191611Y-83442698D01*
X119191605Y-83442700D01*
X118933806Y-83522221D01*
X118690753Y-83639269D01*
X118690744Y-83639274D01*
X118508116Y-83763787D01*
X119230973Y-84486644D01*
X119214326Y-84493540D01*
X119083298Y-84581090D01*
X118971867Y-84692521D01*
X118884317Y-84823549D01*
X118877421Y-84840197D01*
X118140088Y-84102864D01*
X118106603Y-84041541D01*
X118103769Y-84015183D01*
X118103769Y-73116775D01*
X118792768Y-73116775D01*
X118826021Y-73326728D01*
X118826021Y-73326730D01*
X118826022Y-73326732D01*
X118879835Y-73492352D01*
X118891712Y-73528903D01*
X118988219Y-73718309D01*
X119113158Y-73890275D01*
X119263481Y-74040598D01*
X119435447Y-74165537D01*
X119435449Y-74165538D01*
X119435452Y-74165540D01*
X119624856Y-74262046D01*
X119827025Y-74327735D01*
X120036981Y-74360989D01*
X120036982Y-74360989D01*
X120249554Y-74360989D01*
X120249555Y-74360989D01*
X120459511Y-74327735D01*
X120661680Y-74262046D01*
X120851084Y-74165540D01*
X120968295Y-74080382D01*
X121023054Y-74040598D01*
X121023056Y-74040595D01*
X121023060Y-74040593D01*
X121173372Y-73890281D01*
X121173376Y-73890276D01*
X121173377Y-73890275D01*
X121298316Y-73718309D01*
X121298318Y-73718306D01*
X121298319Y-73718305D01*
X121394825Y-73528901D01*
X121460514Y-73326732D01*
X121493768Y-73116776D01*
X121493768Y-72904202D01*
X121460514Y-72694246D01*
X121394825Y-72492077D01*
X121298319Y-72302673D01*
X121298317Y-72302670D01*
X121298316Y-72302668D01*
X121173377Y-72130702D01*
X121023054Y-71980379D01*
X120851088Y-71855440D01*
X120661682Y-71758933D01*
X120661681Y-71758932D01*
X120661680Y-71758932D01*
X120459511Y-71693243D01*
X120459509Y-71693242D01*
X120459508Y-71693242D01*
X120298225Y-71667697D01*
X120249555Y-71659989D01*
X120036981Y-71659989D01*
X119988310Y-71667697D01*
X119827028Y-71693242D01*
X119624853Y-71758933D01*
X119435447Y-71855440D01*
X119263481Y-71980379D01*
X119113158Y-72130702D01*
X118988219Y-72302668D01*
X118891712Y-72492074D01*
X118891712Y-72492075D01*
X118891711Y-72492077D01*
X118886013Y-72509614D01*
X118826021Y-72694249D01*
X118792768Y-72904202D01*
X118792768Y-73116775D01*
X118103769Y-73116775D01*
X118103769Y-60393722D01*
X118123454Y-60326683D01*
X118176258Y-60280928D01*
X118245416Y-60270984D01*
X118308972Y-60300009D01*
X118315450Y-60306041D01*
X119368959Y-61359550D01*
X119402444Y-61420873D01*
X119405278Y-61447231D01*
X119405278Y-62327192D01*
X119442213Y-62560389D01*
X119515174Y-62784941D01*
X119588888Y-62929612D01*
X119621541Y-62993696D01*
X119622364Y-62995310D01*
X119761134Y-63186312D01*
X119761138Y-63186317D01*
X119928091Y-63353270D01*
X119928096Y-63353274D01*
X120062592Y-63450990D01*
X120119102Y-63492047D01*
X120229452Y-63548273D01*
X120329467Y-63599234D01*
X120329469Y-63599234D01*
X120329472Y-63599236D01*
X120554020Y-63672196D01*
X120787216Y-63709131D01*
X120787217Y-63709131D01*
X121023319Y-63709131D01*
X121023320Y-63709131D01*
X121256516Y-63672196D01*
X121481064Y-63599236D01*
X121485310Y-63597072D01*
X121553976Y-63584176D01*
X121618717Y-63610451D01*
X121629285Y-63619876D01*
X124167197Y-66157788D01*
X124200682Y-66219111D01*
X124195698Y-66288803D01*
X124153826Y-66344736D01*
X124150642Y-66347042D01*
X124097865Y-66383998D01*
X123930773Y-66551089D01*
X123795233Y-66744661D01*
X123795232Y-66744663D01*
X123695366Y-66958827D01*
X123695362Y-66958836D01*
X123634206Y-67187078D01*
X123634204Y-67187088D01*
X123613609Y-67422491D01*
X123613609Y-67422492D01*
X123634204Y-67657895D01*
X123634206Y-67657905D01*
X123695362Y-67886147D01*
X123695364Y-67886151D01*
X123695365Y-67886155D01*
X123743478Y-67989333D01*
X123795233Y-68100322D01*
X123795235Y-68100326D01*
X123930769Y-68293887D01*
X123930774Y-68293894D01*
X124097865Y-68460985D01*
X124097871Y-68460990D01*
X124283425Y-68590916D01*
X124327050Y-68645493D01*
X124334244Y-68714991D01*
X124302721Y-68777346D01*
X124283426Y-68794066D01*
X124097862Y-68923999D01*
X123930773Y-69091088D01*
X123795233Y-69284660D01*
X123795232Y-69284662D01*
X123695366Y-69498826D01*
X123695362Y-69498835D01*
X123634206Y-69727077D01*
X123634204Y-69727087D01*
X123613609Y-69962490D01*
X123613609Y-69962491D01*
X123634204Y-70197894D01*
X123634206Y-70197904D01*
X123695362Y-70426146D01*
X123695364Y-70426150D01*
X123695365Y-70426154D01*
X123763599Y-70572481D01*
X123795233Y-70640321D01*
X123795235Y-70640325D01*
X123898489Y-70787786D01*
X123930769Y-70833887D01*
X123930774Y-70833893D01*
X124053086Y-70956205D01*
X124086571Y-71017528D01*
X124081587Y-71087220D01*
X124039715Y-71143153D01*
X124008739Y-71160068D01*
X123877180Y-71209137D01*
X123877174Y-71209140D01*
X123762080Y-71295300D01*
X123762077Y-71295303D01*
X123675917Y-71410397D01*
X123675913Y-71410404D01*
X123625671Y-71545111D01*
X123625669Y-71545118D01*
X123619268Y-71604646D01*
X123619268Y-72252491D01*
X124536256Y-72252491D01*
X124503343Y-72309498D01*
X124469268Y-72436665D01*
X124469268Y-72568317D01*
X124503343Y-72695484D01*
X124536256Y-72752491D01*
X123619268Y-72752491D01*
X123619268Y-73400335D01*
X123625669Y-73459863D01*
X123625671Y-73459870D01*
X123675913Y-73594577D01*
X123675917Y-73594584D01*
X123762077Y-73709678D01*
X123762080Y-73709681D01*
X123877174Y-73795841D01*
X123877181Y-73795845D01*
X124011888Y-73846087D01*
X124011895Y-73846089D01*
X124071423Y-73852490D01*
X124071440Y-73852491D01*
X124719268Y-73852491D01*
X124719268Y-72935503D01*
X124776275Y-72968416D01*
X124903442Y-73002491D01*
X125035094Y-73002491D01*
X125162261Y-72968416D01*
X125219268Y-72935503D01*
X125219268Y-73852491D01*
X125867096Y-73852491D01*
X125867112Y-73852490D01*
X125926640Y-73846089D01*
X125926647Y-73846087D01*
X126061354Y-73795845D01*
X126061361Y-73795841D01*
X126176455Y-73709681D01*
X126176458Y-73709678D01*
X126262618Y-73594584D01*
X126262622Y-73594577D01*
X126312864Y-73459870D01*
X126312866Y-73459863D01*
X126319267Y-73400335D01*
X126319268Y-73400318D01*
X126319268Y-72752491D01*
X125402280Y-72752491D01*
X125435193Y-72695484D01*
X125469268Y-72568317D01*
X125469268Y-72436665D01*
X125435193Y-72309498D01*
X125402280Y-72252491D01*
X126319268Y-72252491D01*
X126319268Y-71604663D01*
X126319267Y-71604646D01*
X126312866Y-71545118D01*
X126312864Y-71545111D01*
X126262622Y-71410404D01*
X126262618Y-71410397D01*
X126176458Y-71295303D01*
X126176455Y-71295300D01*
X126061361Y-71209140D01*
X126061356Y-71209137D01*
X125929796Y-71160068D01*
X125873863Y-71118196D01*
X125849446Y-71052732D01*
X125864298Y-70984459D01*
X125885443Y-70956211D01*
X126007763Y-70833892D01*
X126143303Y-70640321D01*
X126243171Y-70426154D01*
X126304331Y-70197899D01*
X126324927Y-69962491D01*
X126304331Y-69727083D01*
X126299826Y-69710270D01*
X126301487Y-69640423D01*
X126331915Y-69590499D01*
X126455090Y-69467324D01*
X126516411Y-69433842D01*
X126586103Y-69438826D01*
X126642036Y-69480698D01*
X126666453Y-69546162D01*
X126666769Y-69555008D01*
X126666769Y-70452275D01*
X126673127Y-70533066D01*
X126673127Y-70533069D01*
X126673128Y-70533070D01*
X126723481Y-70720988D01*
X126811804Y-70894332D01*
X126934237Y-71045524D01*
X127046119Y-71136124D01*
X127085830Y-71193611D01*
X127088158Y-71263442D01*
X127052362Y-71323446D01*
X127046120Y-71328855D01*
X126934236Y-71419458D01*
X126811802Y-71570652D01*
X126723480Y-71743995D01*
X126673126Y-71931916D01*
X126666768Y-72012707D01*
X126666768Y-72992274D01*
X126673126Y-73073065D01*
X126673126Y-73073068D01*
X126673127Y-73073069D01*
X126723480Y-73260987D01*
X126811803Y-73434331D01*
X126934236Y-73585523D01*
X127085428Y-73707956D01*
X127258772Y-73796279D01*
X127446690Y-73846632D01*
X127527490Y-73852991D01*
X127527498Y-73852991D01*
X128507038Y-73852991D01*
X128507046Y-73852991D01*
X128587846Y-73846632D01*
X128775764Y-73796279D01*
X128949108Y-73707956D01*
X129100300Y-73585523D01*
X129190903Y-73473636D01*
X129248389Y-73433927D01*
X129318220Y-73431599D01*
X129378224Y-73467394D01*
X129383621Y-73473624D01*
X129474236Y-73585523D01*
X129625428Y-73707956D01*
X129798772Y-73796279D01*
X129986690Y-73846632D01*
X130067490Y-73852991D01*
X130067498Y-73852991D01*
X131047038Y-73852991D01*
X131047046Y-73852991D01*
X131127846Y-73846632D01*
X131315764Y-73796279D01*
X131489108Y-73707956D01*
X131640300Y-73585523D01*
X131730903Y-73473636D01*
X131788388Y-73433926D01*
X131858219Y-73431598D01*
X131918223Y-73467393D01*
X131923624Y-73473626D01*
X132014237Y-73585523D01*
X132165429Y-73707956D01*
X132338773Y-73796279D01*
X132526691Y-73846632D01*
X132607491Y-73852991D01*
X132607499Y-73852991D01*
X133587039Y-73852991D01*
X133587047Y-73852991D01*
X133667847Y-73846632D01*
X133855765Y-73796279D01*
X134029109Y-73707956D01*
X134180301Y-73585523D01*
X134270904Y-73473637D01*
X134328389Y-73433928D01*
X134398220Y-73431600D01*
X134458224Y-73467395D01*
X134463619Y-73473621D01*
X134554235Y-73585523D01*
X134705427Y-73707956D01*
X134878771Y-73796279D01*
X135066689Y-73846632D01*
X135147489Y-73852991D01*
X135147497Y-73852991D01*
X136127037Y-73852991D01*
X136127045Y-73852991D01*
X136207845Y-73846632D01*
X136395763Y-73796279D01*
X136569107Y-73707956D01*
X136720299Y-73585523D01*
X136810902Y-73473636D01*
X136868388Y-73433927D01*
X136938219Y-73431599D01*
X136998223Y-73467394D01*
X137003620Y-73473624D01*
X137094235Y-73585523D01*
X137245427Y-73707956D01*
X137418771Y-73796279D01*
X137606689Y-73846632D01*
X137687489Y-73852991D01*
X137687497Y-73852991D01*
X138667037Y-73852991D01*
X138667045Y-73852991D01*
X138747845Y-73846632D01*
X138935763Y-73796279D01*
X139109107Y-73707956D01*
X139260299Y-73585523D01*
X139382732Y-73434331D01*
X139471055Y-73260987D01*
X139521408Y-73073069D01*
X139527767Y-72992269D01*
X139527767Y-72012713D01*
X139526018Y-71990490D01*
X140395269Y-71990490D01*
X140395269Y-72240476D01*
X140405762Y-72343187D01*
X140460909Y-72509609D01*
X140460911Y-72509614D01*
X140552952Y-72658835D01*
X140676922Y-72782805D01*
X140826143Y-72874846D01*
X140826148Y-72874848D01*
X140992570Y-72929995D01*
X140992577Y-72929996D01*
X141095287Y-72940489D01*
X141245267Y-72940489D01*
X141245268Y-72940488D01*
X141245268Y-71990490D01*
X140395269Y-71990490D01*
X139526018Y-71990490D01*
X139521408Y-71931913D01*
X139471055Y-71743995D01*
X139382732Y-71570651D01*
X139317819Y-71490490D01*
X140395268Y-71490490D01*
X141245268Y-71490490D01*
X141245268Y-70540490D01*
X141095295Y-70540490D01*
X141095280Y-70540491D01*
X140992570Y-70550984D01*
X140826148Y-70606131D01*
X140826143Y-70606133D01*
X140676922Y-70698174D01*
X140552952Y-70822144D01*
X140460911Y-70971365D01*
X140460909Y-70971370D01*
X140405762Y-71137792D01*
X140405761Y-71137799D01*
X140395268Y-71240503D01*
X140395268Y-71490490D01*
X139317819Y-71490490D01*
X139260299Y-71419459D01*
X139148414Y-71328856D01*
X139108704Y-71271370D01*
X139106376Y-71201539D01*
X139142172Y-71141535D01*
X139148401Y-71136136D01*
X139260300Y-71045523D01*
X139382733Y-70894331D01*
X139471056Y-70720987D01*
X139521409Y-70533069D01*
X139527768Y-70452269D01*
X139527768Y-69472713D01*
X139521409Y-69391913D01*
X139471056Y-69203995D01*
X139382733Y-69030651D01*
X139260300Y-68879459D01*
X139148413Y-68788855D01*
X139108704Y-68731370D01*
X139106376Y-68661539D01*
X139142171Y-68601535D01*
X139148401Y-68596137D01*
X139260300Y-68505523D01*
X139382733Y-68354331D01*
X139471056Y-68180987D01*
X139521409Y-67993069D01*
X139521409Y-67993063D01*
X139522409Y-67989333D01*
X139558774Y-67929672D01*
X139621621Y-67899143D01*
X139690996Y-67907438D01*
X139729865Y-67933745D01*
X142030723Y-70234604D01*
X142030724Y-70234605D01*
X142145462Y-70311270D01*
X142272937Y-70364071D01*
X142272942Y-70364073D01*
X142272946Y-70364073D01*
X142272947Y-70364074D01*
X142408273Y-70390993D01*
X142408276Y-70390993D01*
X142408277Y-70390993D01*
X142736752Y-70390993D01*
X142803791Y-70410678D01*
X142849546Y-70463482D01*
X142859490Y-70532640D01*
X142830465Y-70596196D01*
X142801850Y-70620530D01*
X142796239Y-70623992D01*
X142676613Y-70697777D01*
X142582595Y-70791795D01*
X142521271Y-70825279D01*
X142451580Y-70820295D01*
X142407233Y-70791794D01*
X142313613Y-70698174D01*
X142164392Y-70606133D01*
X142164387Y-70606131D01*
X141997965Y-70550984D01*
X141997958Y-70550983D01*
X141895254Y-70540490D01*
X141745268Y-70540490D01*
X141745268Y-72940489D01*
X141895240Y-72940489D01*
X141895254Y-72940488D01*
X141997965Y-72929995D01*
X142164387Y-72874848D01*
X142164392Y-72874846D01*
X142313610Y-72782807D01*
X142407232Y-72689185D01*
X142468555Y-72655700D01*
X142538247Y-72660684D01*
X142582595Y-72689185D01*
X142676612Y-72783202D01*
X142825934Y-72875304D01*
X142992471Y-72930489D01*
X143095259Y-72940990D01*
X143895276Y-72940989D01*
X143895284Y-72940988D01*
X143895287Y-72940988D01*
X143951570Y-72935238D01*
X143998065Y-72930489D01*
X144164602Y-72875304D01*
X144313924Y-72783202D01*
X144428815Y-72668311D01*
X144490138Y-72634826D01*
X144516496Y-72631992D01*
X144726768Y-72631992D01*
X144793807Y-72651677D01*
X144839562Y-72704481D01*
X144850768Y-72755992D01*
X144850768Y-73492352D01*
X144865980Y-73627368D01*
X144865981Y-73627373D01*
X144894179Y-73707956D01*
X144924932Y-73795845D01*
X144925885Y-73798567D01*
X144960082Y-73852991D01*
X145022378Y-73952134D01*
X145150626Y-74080382D01*
X145304195Y-74176876D01*
X145475386Y-74236778D01*
X145475391Y-74236779D01*
X145566378Y-74247030D01*
X145610408Y-74251991D01*
X145610411Y-74251992D01*
X145610414Y-74251992D01*
X146492125Y-74251992D01*
X146492126Y-74251991D01*
X146559636Y-74244385D01*
X146627144Y-74236779D01*
X146627147Y-74236778D01*
X146627150Y-74236778D01*
X146798341Y-74176876D01*
X146951910Y-74080382D01*
X147080158Y-73952134D01*
X147176652Y-73798565D01*
X147236554Y-73627374D01*
X147240250Y-73594577D01*
X147251767Y-73492352D01*
X147251768Y-73492348D01*
X147251768Y-73116776D01*
X155622768Y-73116776D01*
X155645608Y-73260986D01*
X155656022Y-73326733D01*
X155709833Y-73492346D01*
X155721712Y-73528904D01*
X155818219Y-73718310D01*
X155943158Y-73890276D01*
X156093481Y-74040599D01*
X156265447Y-74165538D01*
X156265449Y-74165539D01*
X156265452Y-74165541D01*
X156454856Y-74262047D01*
X156657025Y-74327736D01*
X156866981Y-74360990D01*
X156866982Y-74360990D01*
X157079554Y-74360990D01*
X157079555Y-74360990D01*
X157289511Y-74327736D01*
X157491680Y-74262047D01*
X157681084Y-74165541D01*
X157703057Y-74149576D01*
X157853054Y-74040599D01*
X157853056Y-74040596D01*
X157853060Y-74040594D01*
X158003372Y-73890282D01*
X158003374Y-73890278D01*
X158003377Y-73890276D01*
X158128316Y-73718310D01*
X158128317Y-73718309D01*
X158128319Y-73718306D01*
X158224825Y-73528902D01*
X158290514Y-73326733D01*
X158323768Y-73116777D01*
X158323768Y-72904203D01*
X158290514Y-72694247D01*
X158224825Y-72492078D01*
X158128319Y-72302674D01*
X158128317Y-72302671D01*
X158128316Y-72302669D01*
X158003377Y-72130703D01*
X157853054Y-71980380D01*
X157681088Y-71855441D01*
X157491682Y-71758934D01*
X157491681Y-71758933D01*
X157491680Y-71758933D01*
X157289511Y-71693244D01*
X157289509Y-71693243D01*
X157289508Y-71693243D01*
X157128225Y-71667698D01*
X157079555Y-71659990D01*
X156866981Y-71659990D01*
X156818310Y-71667698D01*
X156657028Y-71693243D01*
X156454853Y-71758934D01*
X156265447Y-71855441D01*
X156093481Y-71980380D01*
X155943158Y-72130703D01*
X155818219Y-72302669D01*
X155721712Y-72492075D01*
X155656021Y-72694250D01*
X155622768Y-72904203D01*
X155622768Y-73116776D01*
X147251768Y-73116776D01*
X147251768Y-72605992D01*
X147271453Y-72538953D01*
X147324257Y-72493198D01*
X147375768Y-72481992D01*
X149119688Y-72481992D01*
X149217230Y-72462588D01*
X149264681Y-72453150D01*
X149370228Y-72409430D01*
X149417681Y-72399992D01*
X149830954Y-72399992D01*
X149830962Y-72399992D01*
X149867837Y-72397090D01*
X149867839Y-72397089D01*
X149867841Y-72397089D01*
X149909459Y-72384997D01*
X150025666Y-72351236D01*
X150167133Y-72267573D01*
X150283349Y-72151357D01*
X150367012Y-72009890D01*
X150412866Y-71852061D01*
X150415768Y-71815186D01*
X150415768Y-71573992D01*
X150435453Y-71506953D01*
X150488257Y-71461198D01*
X150539768Y-71449992D01*
X151705955Y-71449992D01*
X151705963Y-71449992D01*
X151742838Y-71447090D01*
X151742840Y-71447089D01*
X151742842Y-71447089D01*
X151888002Y-71404916D01*
X151922597Y-71399992D01*
X154328187Y-71399992D01*
X154425729Y-71380588D01*
X154473180Y-71371150D01*
X154578814Y-71327394D01*
X154609755Y-71314579D01*
X154609755Y-71314578D01*
X154609762Y-71314576D01*
X154675903Y-71270382D01*
X154732683Y-71232444D01*
X156540219Y-69424907D01*
X156607168Y-69324710D01*
X156622352Y-69301986D01*
X156678926Y-69165404D01*
X156693709Y-69091088D01*
X156707768Y-69020411D01*
X156707768Y-59728570D01*
X156678927Y-59583583D01*
X156678926Y-59583582D01*
X156678926Y-59583578D01*
X156654712Y-59525121D01*
X156622353Y-59446998D01*
X156622352Y-59446996D01*
X156556498Y-59348438D01*
X156540220Y-59324075D01*
X156326817Y-59110672D01*
X156293332Y-59049349D01*
X156298316Y-58979657D01*
X156340188Y-58923724D01*
X156405652Y-58899307D01*
X156414498Y-58898991D01*
X157781229Y-58898991D01*
X157781230Y-58898991D01*
X158030053Y-58859581D01*
X158269647Y-58781732D01*
X158494113Y-58667361D01*
X158697924Y-58519284D01*
X158801086Y-58416122D01*
X158862409Y-58382637D01*
X158932101Y-58387621D01*
G37*
G04 #@! TD.AperFunction*
G04 #@! TA.AperFunction,Conductor*
G36*
X124801378Y-63134681D02*
G01*
X124815278Y-63150723D01*
X124841136Y-63186315D01*
X125008091Y-63353270D01*
X125008096Y-63353274D01*
X125142592Y-63450990D01*
X125199102Y-63492047D01*
X125309452Y-63548273D01*
X125409467Y-63599234D01*
X125409469Y-63599234D01*
X125409472Y-63599236D01*
X125634020Y-63672196D01*
X125867216Y-63709131D01*
X125867217Y-63709131D01*
X126103319Y-63709131D01*
X126103320Y-63709131D01*
X126336516Y-63672196D01*
X126561064Y-63599236D01*
X126771434Y-63492047D01*
X126962446Y-63353269D01*
X127129396Y-63186319D01*
X127154949Y-63151147D01*
X127210278Y-63108482D01*
X127279891Y-63102501D01*
X127341687Y-63135106D01*
X127355587Y-63151148D01*
X127381136Y-63186315D01*
X127548091Y-63353270D01*
X127548096Y-63353274D01*
X127682592Y-63450990D01*
X127739102Y-63492047D01*
X127849452Y-63548273D01*
X127949467Y-63599234D01*
X127949469Y-63599234D01*
X127949472Y-63599236D01*
X128174020Y-63672196D01*
X128407216Y-63709131D01*
X128407217Y-63709131D01*
X128643319Y-63709131D01*
X128643320Y-63709131D01*
X128876516Y-63672196D01*
X129101064Y-63599236D01*
X129101069Y-63599233D01*
X129101073Y-63599232D01*
X129245838Y-63525470D01*
X129314507Y-63512573D01*
X129379247Y-63538849D01*
X129389814Y-63548273D01*
X130496552Y-64655011D01*
X130496554Y-64655012D01*
X130496558Y-64655015D01*
X130596400Y-64712658D01*
X130633484Y-64734068D01*
X130786211Y-64774992D01*
X130786213Y-64774992D01*
X130951922Y-64774992D01*
X130951938Y-64774991D01*
X142802890Y-64774991D01*
X142869929Y-64794676D01*
X142915684Y-64847480D01*
X142925628Y-64916638D01*
X142904465Y-64970114D01*
X142889137Y-64992003D01*
X142889135Y-64992007D01*
X142793003Y-65198164D01*
X142792999Y-65198173D01*
X142740396Y-65394490D01*
X142740397Y-65394491D01*
X143703583Y-65394491D01*
X143699189Y-65398885D01*
X143646528Y-65490097D01*
X143619269Y-65591830D01*
X143619269Y-65697152D01*
X143646528Y-65798885D01*
X143699189Y-65890097D01*
X143703583Y-65894491D01*
X142740397Y-65894491D01*
X142792999Y-66090808D01*
X142793003Y-66090817D01*
X142889134Y-66296973D01*
X143019611Y-66483311D01*
X143180448Y-66644148D01*
X143366786Y-66774625D01*
X143572942Y-66870756D01*
X143572951Y-66870760D01*
X143769268Y-66923363D01*
X143769269Y-66923362D01*
X143769269Y-65960177D01*
X143773663Y-65964571D01*
X143864875Y-66017232D01*
X143966608Y-66044491D01*
X144071930Y-66044491D01*
X144173663Y-66017232D01*
X144264875Y-65964571D01*
X144269269Y-65960177D01*
X144269269Y-66923363D01*
X144465586Y-66870760D01*
X144465595Y-66870756D01*
X144671751Y-66774625D01*
X144858089Y-66644148D01*
X145018926Y-66483311D01*
X145149403Y-66296972D01*
X145149404Y-66296970D01*
X145176887Y-66238034D01*
X145223059Y-66185594D01*
X145290252Y-66166442D01*
X145357133Y-66186657D01*
X145401651Y-66238034D01*
X145429133Y-66296970D01*
X145429134Y-66296972D01*
X145559611Y-66483311D01*
X145720448Y-66644148D01*
X145906786Y-66774625D01*
X146112942Y-66870756D01*
X146112951Y-66870760D01*
X146309268Y-66923363D01*
X146309269Y-66923362D01*
X146309269Y-65960177D01*
X146313663Y-65964571D01*
X146404875Y-66017232D01*
X146506608Y-66044491D01*
X146611930Y-66044491D01*
X146713663Y-66017232D01*
X146804875Y-65964571D01*
X146809269Y-65960177D01*
X146809269Y-66923363D01*
X147005586Y-66870760D01*
X147005595Y-66870756D01*
X147211751Y-66774625D01*
X147398089Y-66644148D01*
X147558926Y-66483311D01*
X147689403Y-66296972D01*
X147689404Y-66296970D01*
X147716887Y-66238034D01*
X147763059Y-66185594D01*
X147830252Y-66166442D01*
X147897133Y-66186657D01*
X147941651Y-66238034D01*
X147969133Y-66296970D01*
X147969134Y-66296972D01*
X148099611Y-66483311D01*
X148260448Y-66644148D01*
X148446786Y-66774625D01*
X148652942Y-66870756D01*
X148652951Y-66870760D01*
X148849268Y-66923363D01*
X148849269Y-66923362D01*
X148849269Y-65960177D01*
X148853663Y-65964571D01*
X148944875Y-66017232D01*
X149046608Y-66044491D01*
X149151930Y-66044491D01*
X149253663Y-66017232D01*
X149344875Y-65964571D01*
X149349269Y-65960177D01*
X149349269Y-66923363D01*
X149545586Y-66870760D01*
X149545595Y-66870756D01*
X149751751Y-66774625D01*
X149938089Y-66644148D01*
X150098926Y-66483311D01*
X150229403Y-66296973D01*
X150325534Y-66090817D01*
X150325538Y-66090808D01*
X150378141Y-65894491D01*
X149414955Y-65894491D01*
X149419349Y-65890097D01*
X149472010Y-65798885D01*
X149499269Y-65697152D01*
X149499269Y-65591830D01*
X149472010Y-65490097D01*
X149419349Y-65398885D01*
X149414955Y-65394491D01*
X150378141Y-65394491D01*
X150378141Y-65394490D01*
X150325538Y-65198173D01*
X150325534Y-65198164D01*
X150229402Y-64992007D01*
X150229400Y-64992003D01*
X150214073Y-64970114D01*
X150191746Y-64903908D01*
X150208756Y-64836141D01*
X150259704Y-64788328D01*
X150315648Y-64774991D01*
X151048284Y-64774991D01*
X151048300Y-64774992D01*
X151055896Y-64774992D01*
X151214007Y-64774992D01*
X151214010Y-64774992D01*
X151366738Y-64734068D01*
X151416857Y-64705130D01*
X151503669Y-64655011D01*
X151615473Y-64543207D01*
X151615473Y-64543205D01*
X151625681Y-64532998D01*
X151625682Y-64532995D01*
X152671370Y-63487309D01*
X152732693Y-63453824D01*
X152759051Y-63450990D01*
X153144178Y-63450990D01*
X153211217Y-63470675D01*
X153256561Y-63522587D01*
X153259234Y-63528320D01*
X153394770Y-63721885D01*
X153394775Y-63721892D01*
X153561866Y-63888983D01*
X153561872Y-63888988D01*
X153747426Y-64018914D01*
X153791051Y-64073491D01*
X153798245Y-64142989D01*
X153766722Y-64205344D01*
X153747427Y-64222064D01*
X153561863Y-64351997D01*
X153394774Y-64519086D01*
X153259234Y-64712658D01*
X153259233Y-64712660D01*
X153159367Y-64926824D01*
X153159363Y-64926833D01*
X153098207Y-65155075D01*
X153098205Y-65155085D01*
X153077610Y-65390488D01*
X153077610Y-65390489D01*
X153098205Y-65625892D01*
X153098207Y-65625902D01*
X153159363Y-65854144D01*
X153159365Y-65854148D01*
X153159366Y-65854152D01*
X153233366Y-66012845D01*
X153259234Y-66068319D01*
X153259236Y-66068323D01*
X153394770Y-66261884D01*
X153394775Y-66261891D01*
X153516699Y-66383815D01*
X153550184Y-66445138D01*
X153545200Y-66514830D01*
X153503328Y-66570763D01*
X153472352Y-66587678D01*
X153340938Y-66636692D01*
X153340933Y-66636695D01*
X153225724Y-66722941D01*
X153225721Y-66722944D01*
X153139475Y-66838153D01*
X153139471Y-66838160D01*
X153089177Y-66973006D01*
X153082770Y-67032605D01*
X153082769Y-67032624D01*
X153082769Y-68828359D01*
X153082770Y-68828365D01*
X153089177Y-68887972D01*
X153139471Y-69022817D01*
X153139475Y-69022824D01*
X153225721Y-69138033D01*
X153225724Y-69138036D01*
X153340933Y-69224282D01*
X153340940Y-69224286D01*
X153475786Y-69274580D01*
X153475785Y-69274580D01*
X153482713Y-69275324D01*
X153535396Y-69280989D01*
X154262040Y-69280988D01*
X154329079Y-69300672D01*
X154374834Y-69353476D01*
X154384778Y-69422635D01*
X154355753Y-69486191D01*
X154349721Y-69492669D01*
X153979718Y-69862673D01*
X153918395Y-69896158D01*
X153892037Y-69898992D01*
X151922597Y-69898992D01*
X151888002Y-69894068D01*
X151742842Y-69851894D01*
X151742836Y-69851893D01*
X151705970Y-69848992D01*
X151705963Y-69848992D01*
X150539768Y-69848992D01*
X150472729Y-69829307D01*
X150426974Y-69776503D01*
X150415768Y-69724992D01*
X150415768Y-69483805D01*
X150415767Y-69483790D01*
X150414895Y-69472714D01*
X150412866Y-69446923D01*
X150406469Y-69424905D01*
X150367013Y-69289096D01*
X150367012Y-69289095D01*
X150367012Y-69289094D01*
X150283349Y-69147627D01*
X150283347Y-69147625D01*
X150283344Y-69147621D01*
X150167138Y-69031415D01*
X150167130Y-69031409D01*
X150025664Y-68947747D01*
X150025661Y-68947746D01*
X149867841Y-68901894D01*
X149867835Y-68901893D01*
X149830969Y-68898992D01*
X149830962Y-68898992D01*
X148524574Y-68898992D01*
X148524566Y-68898992D01*
X148487700Y-68901893D01*
X148487694Y-68901894D01*
X148329874Y-68947746D01*
X148329871Y-68947747D01*
X148291723Y-68970308D01*
X148258438Y-68989993D01*
X148257205Y-68990722D01*
X148194084Y-69007990D01*
X147375768Y-69007990D01*
X147308729Y-68988305D01*
X147262974Y-68935501D01*
X147251768Y-68883990D01*
X147251768Y-68700635D01*
X147251767Y-68700631D01*
X147236555Y-68565615D01*
X147236554Y-68565610D01*
X147215529Y-68505524D01*
X147176652Y-68394419D01*
X147080158Y-68240850D01*
X146951910Y-68112602D01*
X146798341Y-68016108D01*
X146721822Y-67989333D01*
X146627149Y-67956205D01*
X146627144Y-67956204D01*
X146492128Y-67940992D01*
X146492122Y-67940992D01*
X145610414Y-67940992D01*
X145610407Y-67940992D01*
X145475391Y-67956204D01*
X145475386Y-67956205D01*
X145304192Y-68016109D01*
X145150625Y-68112602D01*
X145022378Y-68240849D01*
X144925885Y-68394416D01*
X144865981Y-68565610D01*
X144865980Y-68565615D01*
X144850768Y-68700631D01*
X144850768Y-68865993D01*
X144831083Y-68933032D01*
X144778279Y-68978787D01*
X144726768Y-68989993D01*
X142818789Y-68989993D01*
X142751750Y-68970308D01*
X142731108Y-68953674D01*
X139131814Y-65354379D01*
X139131813Y-65354378D01*
X139017075Y-65277713D01*
X138889600Y-65224912D01*
X138889590Y-65224909D01*
X138754264Y-65197991D01*
X138754262Y-65197991D01*
X138754261Y-65197991D01*
X127139610Y-65197991D01*
X127001622Y-65197991D01*
X127001620Y-65197991D01*
X126866293Y-65224909D01*
X126866283Y-65224912D01*
X126738808Y-65277713D01*
X126624070Y-65354378D01*
X125981807Y-65996641D01*
X125946870Y-66048930D01*
X125893258Y-66093735D01*
X125823933Y-66102442D01*
X125760906Y-66072288D01*
X125724186Y-66012845D01*
X125719768Y-65980039D01*
X125719768Y-65824570D01*
X125690927Y-65679583D01*
X125690926Y-65679582D01*
X125690926Y-65679578D01*
X125654580Y-65591830D01*
X125634355Y-65543002D01*
X125634351Y-65542995D01*
X125598293Y-65489030D01*
X125598292Y-65489028D01*
X125552224Y-65420080D01*
X125552220Y-65420075D01*
X123945108Y-63812963D01*
X123911623Y-63751640D01*
X123916607Y-63681948D01*
X123958479Y-63626015D01*
X123994473Y-63607350D01*
X124020873Y-63598772D01*
X124231172Y-63491619D01*
X124422121Y-63352885D01*
X124422122Y-63352885D01*
X124589018Y-63185989D01*
X124614640Y-63150723D01*
X124669969Y-63108057D01*
X124739582Y-63102076D01*
X124801378Y-63134681D01*
G37*
G04 #@! TD.AperFunction*
G04 #@! TA.AperFunction,Conductor*
G36*
X146239189Y-65398885D02*
G01*
X146186528Y-65490097D01*
X146159269Y-65591830D01*
X146159269Y-65697152D01*
X146186528Y-65798885D01*
X146239189Y-65890097D01*
X146243583Y-65894491D01*
X144334955Y-65894491D01*
X144339349Y-65890097D01*
X144392010Y-65798885D01*
X144419269Y-65697152D01*
X144419269Y-65591830D01*
X144392010Y-65490097D01*
X144339349Y-65398885D01*
X144334955Y-65394491D01*
X146243583Y-65394491D01*
X146239189Y-65398885D01*
G37*
G04 #@! TD.AperFunction*
G04 #@! TA.AperFunction,Conductor*
G36*
X148779189Y-65398885D02*
G01*
X148726528Y-65490097D01*
X148699269Y-65591830D01*
X148699269Y-65697152D01*
X148726528Y-65798885D01*
X148779189Y-65890097D01*
X148783583Y-65894491D01*
X146874955Y-65894491D01*
X146879349Y-65890097D01*
X146932010Y-65798885D01*
X146959269Y-65697152D01*
X146959269Y-65591830D01*
X146932010Y-65490097D01*
X146879349Y-65398885D01*
X146874955Y-65394491D01*
X148783583Y-65394491D01*
X148779189Y-65398885D01*
G37*
G04 #@! TD.AperFunction*
G04 #@! TA.AperFunction,Conductor*
G36*
X127341687Y-46970546D02*
G01*
X127355587Y-46986588D01*
X127381136Y-47021755D01*
X127548091Y-47188710D01*
X127548096Y-47188714D01*
X127652782Y-47264772D01*
X127739102Y-47327487D01*
X127849452Y-47383713D01*
X127949467Y-47434674D01*
X127949469Y-47434674D01*
X127949472Y-47434676D01*
X128174020Y-47507636D01*
X128407216Y-47544571D01*
X128407217Y-47544571D01*
X128643319Y-47544571D01*
X128643320Y-47544571D01*
X128876516Y-47507636D01*
X129101064Y-47434676D01*
X129245840Y-47360908D01*
X129314508Y-47348013D01*
X129379248Y-47374289D01*
X129389815Y-47383713D01*
X129714547Y-47708445D01*
X129714557Y-47708456D01*
X129718887Y-47712786D01*
X129718888Y-47712787D01*
X129830692Y-47824591D01*
X129830694Y-47824592D01*
X129830698Y-47824595D01*
X129949493Y-47893180D01*
X129967624Y-47903648D01*
X130078238Y-47933287D01*
X130078237Y-47933287D01*
X130093650Y-47937416D01*
X130120350Y-47944571D01*
X130120351Y-47944571D01*
X141617065Y-47944571D01*
X141684104Y-47964256D01*
X141704746Y-47980890D01*
X146016721Y-52292865D01*
X146016731Y-52292876D01*
X146021061Y-52297206D01*
X146021062Y-52297207D01*
X146132866Y-52409011D01*
X146132868Y-52409012D01*
X146132872Y-52409015D01*
X146182177Y-52437481D01*
X146182182Y-52437483D01*
X146269791Y-52488065D01*
X146269792Y-52488066D01*
X146269794Y-52488066D01*
X146269797Y-52488068D01*
X146422525Y-52528992D01*
X146422528Y-52528992D01*
X146588235Y-52528992D01*
X146588251Y-52528991D01*
X149757485Y-52528991D01*
X149824524Y-52548676D01*
X149845166Y-52565310D01*
X150748449Y-53468593D01*
X150781934Y-53529916D01*
X150784768Y-53556274D01*
X150784768Y-58204078D01*
X150765083Y-58271117D01*
X150757718Y-58281387D01*
X150755454Y-58284225D01*
X150659479Y-58436967D01*
X150599899Y-58607236D01*
X150599898Y-58607241D01*
X150579703Y-58786487D01*
X150579703Y-58786494D01*
X150599898Y-58965740D01*
X150599899Y-58965745D01*
X150659479Y-59136014D01*
X150688398Y-59182038D01*
X150755452Y-59288753D01*
X150883006Y-59416307D01*
X150963077Y-59466619D01*
X151002870Y-59491623D01*
X151035746Y-59512280D01*
X151206013Y-59571859D01*
X151206018Y-59571860D01*
X151385264Y-59592056D01*
X151385268Y-59592056D01*
X151385272Y-59592056D01*
X151564517Y-59571860D01*
X151564520Y-59571859D01*
X151564523Y-59571859D01*
X151734790Y-59512280D01*
X151887530Y-59416307D01*
X152015084Y-59288753D01*
X152111057Y-59136013D01*
X152170636Y-58965746D01*
X152178122Y-58899307D01*
X152190833Y-58786494D01*
X152190833Y-58786487D01*
X152170637Y-58607241D01*
X152170636Y-58607236D01*
X152156479Y-58566778D01*
X152111057Y-58436969D01*
X152015084Y-58284229D01*
X152015082Y-58284227D01*
X152015081Y-58284225D01*
X152012818Y-58281387D01*
X152011927Y-58279206D01*
X152011379Y-58278333D01*
X152011532Y-58278236D01*
X151986412Y-58216700D01*
X151985768Y-58204078D01*
X151985768Y-58173155D01*
X152005453Y-58106116D01*
X152058257Y-58060361D01*
X152095880Y-58049935D01*
X152164523Y-58042202D01*
X152334790Y-57982623D01*
X152487530Y-57886650D01*
X152615084Y-57759096D01*
X152711057Y-57606356D01*
X152770636Y-57436089D01*
X152770637Y-57436083D01*
X152790833Y-57256837D01*
X152790833Y-57256830D01*
X152770637Y-57077584D01*
X152770636Y-57077579D01*
X152711056Y-56907310D01*
X152642214Y-56797749D01*
X152615084Y-56754572D01*
X152487530Y-56627018D01*
X152487529Y-56627017D01*
X152443796Y-56599538D01*
X152397505Y-56547204D01*
X152385768Y-56494544D01*
X152385768Y-53179551D01*
X152385769Y-53179538D01*
X152385769Y-53011435D01*
X152377233Y-52979578D01*
X152344845Y-52858707D01*
X152344841Y-52858700D01*
X152265792Y-52721781D01*
X152265786Y-52721773D01*
X151927854Y-52383841D01*
X151522683Y-51978671D01*
X151489199Y-51917349D01*
X151494183Y-51847658D01*
X151536055Y-51791724D01*
X151601519Y-51767307D01*
X151610365Y-51766991D01*
X154504038Y-51766991D01*
X154571077Y-51786676D01*
X154616832Y-51839480D01*
X154626776Y-51908638D01*
X154597751Y-51972194D01*
X154591719Y-51978672D01*
X154222316Y-52348074D01*
X154201891Y-52378643D01*
X154181601Y-52409011D01*
X154140187Y-52470990D01*
X154140180Y-52471002D01*
X154083611Y-52607573D01*
X154083608Y-52607583D01*
X154054768Y-52752570D01*
X154054768Y-52752573D01*
X154054768Y-58724409D01*
X154054768Y-58724411D01*
X154054767Y-58724411D01*
X154077567Y-58839027D01*
X154083610Y-58869404D01*
X154083612Y-58869410D01*
X154084749Y-58873157D01*
X154084767Y-58875224D01*
X154084798Y-58875378D01*
X154084768Y-58875383D01*
X154085372Y-58943024D01*
X154048124Y-59002137D01*
X153998185Y-59028927D01*
X153969614Y-59036583D01*
X153969604Y-59036587D01*
X153755440Y-59136453D01*
X153755438Y-59136454D01*
X153561866Y-59271994D01*
X153394774Y-59439086D01*
X153259234Y-59632658D01*
X153259233Y-59632660D01*
X153159367Y-59846824D01*
X153159363Y-59846833D01*
X153098207Y-60075075D01*
X153098205Y-60075085D01*
X153077610Y-60310488D01*
X153077610Y-60310489D01*
X153098205Y-60545892D01*
X153098207Y-60545902D01*
X153132596Y-60674244D01*
X153130933Y-60744094D01*
X153100502Y-60794018D01*
X150756851Y-63137672D01*
X150695528Y-63171157D01*
X150669170Y-63173991D01*
X137539480Y-63173991D01*
X137472441Y-63154306D01*
X137426686Y-63101502D01*
X137416742Y-63032344D01*
X137428995Y-62993696D01*
X137535361Y-62784941D01*
X137535361Y-62784940D01*
X137535363Y-62784937D01*
X137608323Y-62560389D01*
X137645258Y-62327193D01*
X137645258Y-61341789D01*
X137608323Y-61108593D01*
X137535363Y-60884045D01*
X137535361Y-60884042D01*
X137535361Y-60884040D01*
X137464054Y-60744094D01*
X137428174Y-60673675D01*
X137410444Y-60649272D01*
X137289401Y-60482669D01*
X137289397Y-60482664D01*
X137122444Y-60315711D01*
X137122439Y-60315707D01*
X136931437Y-60176937D01*
X136931436Y-60176936D01*
X136931434Y-60176935D01*
X136841745Y-60131236D01*
X136721068Y-60069747D01*
X136496516Y-59996786D01*
X136263320Y-59959851D01*
X136263319Y-59959851D01*
X136138515Y-59959851D01*
X136071476Y-59940166D01*
X136033521Y-59901823D01*
X136017552Y-59876409D01*
X135974712Y-59808229D01*
X135847158Y-59680675D01*
X135770743Y-59632660D01*
X135694419Y-59584702D01*
X135524150Y-59525122D01*
X135524145Y-59525121D01*
X135344900Y-59504926D01*
X135344892Y-59504926D01*
X135165646Y-59525121D01*
X135165641Y-59525122D01*
X134995372Y-59584702D01*
X134842633Y-59680675D01*
X134715080Y-59808228D01*
X134619106Y-59960969D01*
X134588267Y-60049105D01*
X134579178Y-60075081D01*
X134567399Y-60108743D01*
X134526677Y-60165519D01*
X134461725Y-60191267D01*
X134394062Y-60178274D01*
X134181068Y-60069747D01*
X133956516Y-59996786D01*
X133723320Y-59959851D01*
X133487216Y-59959851D01*
X133370618Y-59978318D01*
X133254019Y-59996786D01*
X133029467Y-60069747D01*
X132819098Y-60176937D01*
X132628096Y-60315707D01*
X132628091Y-60315711D01*
X132461142Y-60482660D01*
X132461137Y-60482666D01*
X132435586Y-60517835D01*
X132380256Y-60560501D01*
X132310643Y-60566480D01*
X132248848Y-60533874D01*
X132234950Y-60517835D01*
X132209633Y-60482989D01*
X132209396Y-60482663D01*
X132042446Y-60315713D01*
X132042444Y-60315711D01*
X132042439Y-60315707D01*
X131851437Y-60176937D01*
X131851436Y-60176936D01*
X131851434Y-60176935D01*
X131761745Y-60131236D01*
X131641068Y-60069747D01*
X131416516Y-59996786D01*
X131183320Y-59959851D01*
X130947216Y-59959851D01*
X130830618Y-59978318D01*
X130714019Y-59996786D01*
X130489467Y-60069747D01*
X130279098Y-60176937D01*
X130088096Y-60315707D01*
X130088091Y-60315711D01*
X129921142Y-60482660D01*
X129921137Y-60482666D01*
X129895586Y-60517835D01*
X129840256Y-60560501D01*
X129770643Y-60566480D01*
X129708848Y-60533874D01*
X129694950Y-60517835D01*
X129669633Y-60482989D01*
X129669396Y-60482663D01*
X129502446Y-60315713D01*
X129502444Y-60315711D01*
X129502439Y-60315707D01*
X129311437Y-60176937D01*
X129311436Y-60176936D01*
X129311434Y-60176935D01*
X129221745Y-60131236D01*
X129101068Y-60069747D01*
X128876516Y-59996786D01*
X128643320Y-59959851D01*
X128407216Y-59959851D01*
X128290618Y-59978318D01*
X128174019Y-59996786D01*
X127949467Y-60069747D01*
X127739098Y-60176937D01*
X127548096Y-60315707D01*
X127548091Y-60315711D01*
X127381142Y-60482660D01*
X127381137Y-60482666D01*
X127355586Y-60517835D01*
X127300256Y-60560501D01*
X127230643Y-60566480D01*
X127168848Y-60533874D01*
X127154950Y-60517835D01*
X127129633Y-60482989D01*
X127129396Y-60482663D01*
X126962446Y-60315713D01*
X126962444Y-60315711D01*
X126962439Y-60315707D01*
X126771437Y-60176937D01*
X126771436Y-60176936D01*
X126771434Y-60176935D01*
X126681745Y-60131236D01*
X126561068Y-60069747D01*
X126336516Y-59996786D01*
X126103320Y-59959851D01*
X125867216Y-59959851D01*
X125750618Y-59978318D01*
X125634019Y-59996786D01*
X125409467Y-60069747D01*
X125199098Y-60176937D01*
X125008096Y-60315707D01*
X125008091Y-60315711D01*
X124841142Y-60482660D01*
X124841142Y-60482661D01*
X124841140Y-60482663D01*
X124815278Y-60518259D01*
X124815277Y-60518261D01*
X124759947Y-60560926D01*
X124690333Y-60566905D01*
X124628538Y-60534299D01*
X124614641Y-60518261D01*
X124589012Y-60482986D01*
X124422122Y-60316096D01*
X124231172Y-60177362D01*
X124020874Y-60070210D01*
X123796395Y-59997272D01*
X123695268Y-59981254D01*
X123695268Y-61960491D01*
X123675583Y-62027530D01*
X123622779Y-62073285D01*
X123571268Y-62084491D01*
X123319268Y-62084491D01*
X123252229Y-62064806D01*
X123206474Y-62012002D01*
X123195268Y-61960491D01*
X123195268Y-59981254D01*
X123094140Y-59997272D01*
X122869661Y-60070210D01*
X122659363Y-60177362D01*
X122468414Y-60316096D01*
X122468413Y-60316096D01*
X122301520Y-60482989D01*
X122275894Y-60518261D01*
X122220564Y-60560926D01*
X122150950Y-60566904D01*
X122089156Y-60534297D01*
X122075259Y-60518259D01*
X122049401Y-60482669D01*
X122049397Y-60482664D01*
X121882444Y-60315711D01*
X121882439Y-60315707D01*
X121691437Y-60176937D01*
X121691436Y-60176936D01*
X121691434Y-60176935D01*
X121601745Y-60131236D01*
X121481068Y-60069747D01*
X121256516Y-59996786D01*
X121023320Y-59959851D01*
X120787216Y-59959851D01*
X120709484Y-59972162D01*
X120554018Y-59996786D01*
X120554015Y-59996786D01*
X120329473Y-60069745D01*
X120325218Y-60071913D01*
X120256547Y-60084804D01*
X120191809Y-60058523D01*
X120181250Y-60049105D01*
X119660087Y-59527942D01*
X119626602Y-59466619D01*
X119623768Y-59440261D01*
X119623768Y-56175709D01*
X119643453Y-56108670D01*
X119696257Y-56062915D01*
X119765415Y-56052971D01*
X119792562Y-56060083D01*
X119923022Y-56110623D01*
X119924277Y-56111109D01*
X120119566Y-56147614D01*
X120119569Y-56147614D01*
X120318233Y-56147614D01*
X120318236Y-56147614D01*
X120513525Y-56111109D01*
X120698780Y-56039341D01*
X120779839Y-55989151D01*
X122198916Y-55989151D01*
X122279242Y-56038888D01*
X122279249Y-56038891D01*
X122464412Y-56110623D01*
X122464417Y-56110624D01*
X122659614Y-56147114D01*
X122858188Y-56147114D01*
X123053384Y-56110624D01*
X123053385Y-56110624D01*
X123238555Y-56038889D01*
X123238565Y-56038884D01*
X123318884Y-55989151D01*
X123318885Y-55989150D01*
X122758902Y-55429167D01*
X122758901Y-55429167D01*
X122198916Y-55989150D01*
X122198916Y-55989151D01*
X120779839Y-55989151D01*
X120867693Y-55934754D01*
X121014513Y-55800910D01*
X121134239Y-55642367D01*
X121222794Y-55464524D01*
X121222794Y-55464521D01*
X121222796Y-55464519D01*
X121253926Y-55355105D01*
X121277163Y-55273437D01*
X121295494Y-55075614D01*
X121682811Y-55075614D01*
X121701132Y-55273344D01*
X121755476Y-55464340D01*
X121755481Y-55464353D01*
X121842284Y-55638676D01*
X121842285Y-55638676D01*
X122405348Y-55075614D01*
X123112454Y-55075614D01*
X123675515Y-55638675D01*
X123675516Y-55638675D01*
X123762322Y-55464347D01*
X123762328Y-55464332D01*
X123816668Y-55273346D01*
X123816669Y-55273344D01*
X123834991Y-55075614D01*
X123834991Y-55075613D01*
X123816669Y-54877883D01*
X123816668Y-54877881D01*
X123762328Y-54686895D01*
X123762322Y-54686880D01*
X123675516Y-54512551D01*
X123675515Y-54512551D01*
X123112454Y-55075613D01*
X123112454Y-55075614D01*
X122405348Y-55075614D01*
X121842284Y-54512550D01*
X121755481Y-54686874D01*
X121755476Y-54686887D01*
X121701132Y-54877883D01*
X121682811Y-55075613D01*
X121682811Y-55075614D01*
X121295494Y-55075614D01*
X121277163Y-54877791D01*
X121252979Y-54792793D01*
X121222796Y-54686708D01*
X121222793Y-54686702D01*
X121206404Y-54653789D01*
X121134239Y-54508861D01*
X121052495Y-54400614D01*
X121014511Y-54350315D01*
X120877950Y-54225824D01*
X120867693Y-54216474D01*
X120779838Y-54162076D01*
X122198915Y-54162076D01*
X122758901Y-54722061D01*
X122758902Y-54722061D01*
X123318885Y-54162076D01*
X123238556Y-54112338D01*
X123238552Y-54112336D01*
X123053389Y-54040604D01*
X123053384Y-54040603D01*
X122858188Y-54004114D01*
X122659614Y-54004114D01*
X122464417Y-54040603D01*
X122464412Y-54040604D01*
X122279251Y-54112335D01*
X122279242Y-54112339D01*
X122198916Y-54162075D01*
X122198915Y-54162076D01*
X120779838Y-54162076D01*
X120779836Y-54162075D01*
X120698781Y-54111887D01*
X120698779Y-54111886D01*
X120513528Y-54040120D01*
X120513527Y-54040119D01*
X120513525Y-54040119D01*
X120318236Y-54003614D01*
X120119566Y-54003614D01*
X119959065Y-54033616D01*
X119924271Y-54040120D01*
X119792561Y-54091145D01*
X119722938Y-54097007D01*
X119661198Y-54064297D01*
X119626943Y-54003400D01*
X119623768Y-53975518D01*
X119623768Y-53635709D01*
X119643453Y-53568670D01*
X119696257Y-53522915D01*
X119765415Y-53512971D01*
X119792562Y-53520083D01*
X119917981Y-53568670D01*
X119924277Y-53571109D01*
X120119566Y-53607614D01*
X120119569Y-53607614D01*
X120318233Y-53607614D01*
X120318236Y-53607614D01*
X120513525Y-53571109D01*
X120698780Y-53499341D01*
X120867693Y-53394754D01*
X121014513Y-53260910D01*
X121134239Y-53102367D01*
X121222794Y-52924524D01*
X121222794Y-52924521D01*
X121222796Y-52924519D01*
X121265380Y-52774849D01*
X121277163Y-52733437D01*
X121295494Y-52535614D01*
X121682308Y-52535614D01*
X121700638Y-52733436D01*
X121700639Y-52733439D01*
X121755005Y-52924519D01*
X121755008Y-52924525D01*
X121843563Y-53102367D01*
X121963290Y-53260912D01*
X122089594Y-53376052D01*
X122110109Y-53394754D01*
X122279022Y-53499341D01*
X122464277Y-53571109D01*
X122659566Y-53607614D01*
X122659569Y-53607614D01*
X122858233Y-53607614D01*
X122858236Y-53607614D01*
X123053525Y-53571109D01*
X123238780Y-53499341D01*
X123407693Y-53394754D01*
X123554513Y-53260910D01*
X123674239Y-53102367D01*
X123762794Y-52924524D01*
X123762794Y-52924521D01*
X123762796Y-52924519D01*
X123805380Y-52774849D01*
X123817163Y-52733437D01*
X123835494Y-52535614D01*
X123817163Y-52337791D01*
X123804384Y-52292876D01*
X123762796Y-52146708D01*
X123762793Y-52146702D01*
X123719176Y-52059107D01*
X123674239Y-51968861D01*
X123554513Y-51810318D01*
X123554511Y-51810315D01*
X123407694Y-51676475D01*
X123407693Y-51676474D01*
X123343368Y-51636645D01*
X123238781Y-51571887D01*
X123238779Y-51571886D01*
X123053528Y-51500120D01*
X123053527Y-51500119D01*
X123053525Y-51500119D01*
X122858236Y-51463614D01*
X122659566Y-51463614D01*
X122464277Y-51500119D01*
X122464275Y-51500119D01*
X122464273Y-51500120D01*
X122279022Y-51571886D01*
X122279020Y-51571887D01*
X122110107Y-51676475D01*
X121963290Y-51810315D01*
X121843563Y-51968860D01*
X121755008Y-52146702D01*
X121755005Y-52146708D01*
X121700639Y-52337788D01*
X121700638Y-52337791D01*
X121682308Y-52535613D01*
X121682308Y-52535614D01*
X121295494Y-52535614D01*
X121277163Y-52337791D01*
X121264384Y-52292876D01*
X121222796Y-52146708D01*
X121222793Y-52146702D01*
X121179176Y-52059107D01*
X121134239Y-51968861D01*
X121014513Y-51810318D01*
X121014511Y-51810315D01*
X120867694Y-51676475D01*
X120867693Y-51676474D01*
X120803368Y-51636645D01*
X120698781Y-51571887D01*
X120698779Y-51571886D01*
X120513528Y-51500120D01*
X120513527Y-51500119D01*
X120513525Y-51500119D01*
X120318236Y-51463614D01*
X120119566Y-51463614D01*
X119971365Y-51491317D01*
X119924271Y-51500120D01*
X119792561Y-51551145D01*
X119722938Y-51557007D01*
X119661198Y-51524297D01*
X119626943Y-51463400D01*
X119623768Y-51435518D01*
X119623768Y-47183749D01*
X119643453Y-47116710D01*
X119696257Y-47070955D01*
X119765415Y-47061011D01*
X119828971Y-47090036D01*
X119835449Y-47096068D01*
X119928091Y-47188710D01*
X119928096Y-47188714D01*
X120032782Y-47264772D01*
X120119102Y-47327487D01*
X120229452Y-47383713D01*
X120329467Y-47434674D01*
X120329469Y-47434674D01*
X120329472Y-47434676D01*
X120554020Y-47507636D01*
X120787216Y-47544571D01*
X120954751Y-47544571D01*
X121021790Y-47564256D01*
X121042432Y-47580890D01*
X121436407Y-47974865D01*
X121436417Y-47974876D01*
X121440747Y-47979206D01*
X121440748Y-47979207D01*
X121552552Y-48091011D01*
X121635364Y-48138821D01*
X121639363Y-48141130D01*
X121639365Y-48141132D01*
X121677419Y-48163102D01*
X121689483Y-48170068D01*
X121842211Y-48210992D01*
X121842214Y-48210992D01*
X122007921Y-48210992D01*
X122007937Y-48210991D01*
X123029800Y-48210991D01*
X123096839Y-48230676D01*
X123117480Y-48247309D01*
X132675181Y-57805011D01*
X132675183Y-57805012D01*
X132675187Y-57805015D01*
X132812106Y-57884064D01*
X132812113Y-57884068D01*
X132964840Y-57924992D01*
X132964842Y-57924992D01*
X133130551Y-57924992D01*
X133130567Y-57924991D01*
X142594769Y-57924991D01*
X142661808Y-57944676D01*
X142707563Y-57997480D01*
X142718769Y-58048991D01*
X142718769Y-58872361D01*
X142718770Y-58872367D01*
X142725177Y-58931974D01*
X142775471Y-59066819D01*
X142775475Y-59066826D01*
X142861721Y-59182035D01*
X142861724Y-59182038D01*
X142976933Y-59268284D01*
X142976940Y-59268288D01*
X143111786Y-59318582D01*
X143111785Y-59318582D01*
X143118713Y-59319326D01*
X143171396Y-59324991D01*
X144867141Y-59324990D01*
X144926752Y-59318582D01*
X145061600Y-59268287D01*
X145176815Y-59182037D01*
X145263065Y-59066822D01*
X145313360Y-58931974D01*
X145317131Y-58896892D01*
X145343868Y-58832346D01*
X145401259Y-58792497D01*
X145471085Y-58790002D01*
X145531174Y-58825654D01*
X145541995Y-58839027D01*
X145559225Y-58863634D01*
X145720127Y-59024536D01*
X145720130Y-59024538D01*
X145906535Y-59155059D01*
X146112773Y-59251230D01*
X146332577Y-59310126D01*
X146491980Y-59324072D01*
X146559267Y-59329959D01*
X146559269Y-59329959D01*
X146559271Y-59329959D01*
X146626523Y-59324075D01*
X146785961Y-59310126D01*
X147005765Y-59251230D01*
X147212003Y-59155059D01*
X147398408Y-59024538D01*
X147559316Y-58863630D01*
X147689837Y-58677225D01*
X147716886Y-58619217D01*
X147763058Y-58566778D01*
X147830251Y-58547626D01*
X147897133Y-58567841D01*
X147941649Y-58619215D01*
X147968700Y-58677225D01*
X147968701Y-58677226D01*
X148099222Y-58863632D01*
X148260126Y-59024536D01*
X148260129Y-59024538D01*
X148446534Y-59155059D01*
X148652772Y-59251230D01*
X148872576Y-59310126D01*
X149031979Y-59324072D01*
X149099266Y-59329959D01*
X149099268Y-59329959D01*
X149099270Y-59329959D01*
X149166522Y-59324075D01*
X149325960Y-59310126D01*
X149545764Y-59251230D01*
X149752002Y-59155059D01*
X149938407Y-59024538D01*
X150099315Y-58863630D01*
X150229836Y-58677225D01*
X150326007Y-58470987D01*
X150384903Y-58251183D01*
X150402593Y-58048991D01*
X150404736Y-58024492D01*
X150404736Y-58024489D01*
X150392676Y-57886649D01*
X150384903Y-57797799D01*
X150326007Y-57577995D01*
X150229836Y-57371757D01*
X150099315Y-57185352D01*
X150099313Y-57185349D01*
X149938409Y-57024445D01*
X149752002Y-56893923D01*
X149752000Y-56893922D01*
X149545765Y-56797752D01*
X149545756Y-56797749D01*
X149325965Y-56738857D01*
X149325961Y-56738856D01*
X149325960Y-56738856D01*
X149325959Y-56738855D01*
X149325954Y-56738855D01*
X149099270Y-56719023D01*
X149099266Y-56719023D01*
X148872581Y-56738855D01*
X148872570Y-56738857D01*
X148776335Y-56764643D01*
X148706485Y-56762980D01*
X148656561Y-56732549D01*
X148086858Y-56162846D01*
X148086856Y-56162843D01*
X147967985Y-56043972D01*
X147967977Y-56043966D01*
X147868880Y-55986753D01*
X147868878Y-55986752D01*
X147831058Y-55964916D01*
X147831057Y-55964915D01*
X147818531Y-55961558D01*
X147678325Y-55923990D01*
X147520211Y-55923990D01*
X147512615Y-55923990D01*
X147512599Y-55923991D01*
X145142335Y-55923991D01*
X145075296Y-55904306D01*
X145029541Y-55851502D01*
X145019597Y-55782344D01*
X145025293Y-55759037D01*
X145058635Y-55663748D01*
X145058636Y-55663746D01*
X145065108Y-55606306D01*
X145078833Y-55484494D01*
X145078833Y-55484487D01*
X145058637Y-55305241D01*
X145058636Y-55305236D01*
X145047477Y-55273346D01*
X144999057Y-55134969D01*
X144903084Y-54982229D01*
X144775530Y-54854675D01*
X144747098Y-54836810D01*
X144622789Y-54758701D01*
X144452517Y-54699121D01*
X144365598Y-54689328D01*
X144301184Y-54662261D01*
X144291801Y-54653789D01*
X143903700Y-54265688D01*
X143870215Y-54204365D01*
X143867381Y-54178007D01*
X143867381Y-53536516D01*
X143887066Y-53469477D01*
X143894436Y-53459201D01*
X143896691Y-53456371D01*
X143896697Y-53456366D01*
X143992670Y-53303626D01*
X144052249Y-53133359D01*
X144053239Y-53124573D01*
X144072446Y-52954107D01*
X144072446Y-52954100D01*
X144052250Y-52774854D01*
X144052249Y-52774849D01*
X144003713Y-52636141D01*
X143992670Y-52604582D01*
X143896697Y-52451842D01*
X143769143Y-52324288D01*
X143726039Y-52297204D01*
X143616404Y-52228315D01*
X143446135Y-52168735D01*
X143446130Y-52168734D01*
X143266885Y-52148539D01*
X143266877Y-52148539D01*
X143087631Y-52168734D01*
X143087626Y-52168735D01*
X142917357Y-52228315D01*
X142764618Y-52324288D01*
X142637065Y-52451841D01*
X142541092Y-52604580D01*
X142481512Y-52774849D01*
X142481511Y-52774854D01*
X142461316Y-52954100D01*
X142461316Y-52954107D01*
X142481511Y-53133353D01*
X142481512Y-53133358D01*
X142541092Y-53303627D01*
X142598350Y-53394752D01*
X142620832Y-53430532D01*
X142637066Y-53456367D01*
X142639326Y-53459201D01*
X142640215Y-53461379D01*
X142640770Y-53462262D01*
X142640615Y-53462359D01*
X142665736Y-53523887D01*
X142666381Y-53536516D01*
X142666381Y-54391434D01*
X142666380Y-54391452D01*
X142666380Y-54557158D01*
X142666379Y-54557158D01*
X142704418Y-54699121D01*
X142707304Y-54709889D01*
X142729458Y-54748260D01*
X142786360Y-54846818D01*
X142786362Y-54846821D01*
X142905230Y-54965689D01*
X142905236Y-54965694D01*
X143442566Y-55503024D01*
X143476051Y-55564347D01*
X143478105Y-55576821D01*
X143487898Y-55663740D01*
X143521244Y-55759037D01*
X143524805Y-55828816D01*
X143490076Y-55889443D01*
X143428083Y-55921670D01*
X143404202Y-55923991D01*
X138616001Y-55923991D01*
X138548962Y-55904306D01*
X138503207Y-55851502D01*
X138493263Y-55782344D01*
X138512899Y-55731100D01*
X138624362Y-55564284D01*
X138624367Y-55564275D01*
X138700350Y-55380834D01*
X138700352Y-55380828D01*
X138709108Y-55336811D01*
X137097088Y-55336811D01*
X137030049Y-55317126D01*
X136984294Y-55264322D01*
X136973088Y-55212811D01*
X136973088Y-54078811D01*
X137473088Y-54078811D01*
X137473088Y-54836811D01*
X138709108Y-54836811D01*
X138709108Y-54836810D01*
X138700352Y-54792793D01*
X138700350Y-54792787D01*
X138624367Y-54609346D01*
X138624362Y-54609337D01*
X138514053Y-54444249D01*
X138514050Y-54444245D01*
X138373653Y-54303848D01*
X138373649Y-54303845D01*
X138208561Y-54193536D01*
X138208552Y-54193531D01*
X138025111Y-54117548D01*
X138025103Y-54117546D01*
X137830370Y-54078811D01*
X137473088Y-54078811D01*
X136973088Y-54078811D01*
X136765768Y-54078811D01*
X136698729Y-54059126D01*
X136652974Y-54006322D01*
X136641768Y-53954811D01*
X136641768Y-53669311D01*
X136661453Y-53602272D01*
X136714257Y-53556517D01*
X136765768Y-53545311D01*
X137830418Y-53545311D01*
X137830419Y-53545310D01*
X138025257Y-53506555D01*
X138208792Y-53430532D01*
X138373969Y-53320164D01*
X138514441Y-53179692D01*
X138624809Y-53014515D01*
X138700832Y-52830980D01*
X138739588Y-52636140D01*
X138739588Y-52437482D01*
X138700832Y-52242642D01*
X138624809Y-52059107D01*
X138624808Y-52059106D01*
X138624805Y-52059100D01*
X138514441Y-51893930D01*
X138514438Y-51893926D01*
X138373972Y-51753460D01*
X138373968Y-51753457D01*
X138208798Y-51643093D01*
X138208789Y-51643088D01*
X138025257Y-51567067D01*
X138025249Y-51567065D01*
X137830421Y-51528311D01*
X137830417Y-51528311D01*
X136615759Y-51528311D01*
X136615754Y-51528311D01*
X136420926Y-51567065D01*
X136420918Y-51567067D01*
X136237386Y-51643088D01*
X136237377Y-51643093D01*
X136072207Y-51753457D01*
X136072203Y-51753460D01*
X135931737Y-51893926D01*
X135931734Y-51893930D01*
X135821370Y-52059100D01*
X135821365Y-52059109D01*
X135745343Y-52242643D01*
X135745341Y-52242648D01*
X135742649Y-52256187D01*
X135710264Y-52318098D01*
X135708713Y-52319677D01*
X135308317Y-52720073D01*
X135308316Y-52720075D01*
X135284497Y-52755724D01*
X135271715Y-52774854D01*
X135226182Y-52842998D01*
X135169611Y-52979573D01*
X135169608Y-52979583D01*
X135140768Y-53124570D01*
X135140768Y-53852260D01*
X135121083Y-53919299D01*
X135104449Y-53939941D01*
X134821205Y-54223184D01*
X134785144Y-54245853D01*
X134786024Y-54247679D01*
X134779746Y-54250702D01*
X134627005Y-54346675D01*
X134499452Y-54474228D01*
X134403479Y-54626967D01*
X134343899Y-54797236D01*
X134343898Y-54797241D01*
X134323703Y-54976487D01*
X134323703Y-54976494D01*
X134343898Y-55155740D01*
X134343899Y-55155745D01*
X134403479Y-55326014D01*
X134437925Y-55380834D01*
X134499452Y-55478753D01*
X134627006Y-55606307D01*
X134678521Y-55638676D01*
X134768155Y-55694997D01*
X134814446Y-55747332D01*
X134825094Y-55816386D01*
X134796719Y-55880234D01*
X134738329Y-55918606D01*
X134702183Y-55923991D01*
X133675365Y-55923991D01*
X133608326Y-55904306D01*
X133587684Y-55887672D01*
X126622087Y-48922075D01*
X126588602Y-48860752D01*
X126585768Y-48834394D01*
X126585768Y-47498075D01*
X126605453Y-47431036D01*
X126653473Y-47387590D01*
X126771434Y-47327487D01*
X126962446Y-47188709D01*
X127129396Y-47021759D01*
X127154949Y-46986587D01*
X127210278Y-46943922D01*
X127279891Y-46937941D01*
X127341687Y-46970546D01*
G37*
G04 #@! TD.AperFunction*
G04 #@! TA.AperFunction,Conductor*
G36*
X156892953Y-36680990D02*
G01*
X156907379Y-36680990D01*
X156907381Y-36680991D01*
X156969209Y-36680990D01*
X156977317Y-36681254D01*
X157231381Y-36697903D01*
X157247449Y-36700019D01*
X157493181Y-36748895D01*
X157508828Y-36753088D01*
X157743192Y-36832640D01*
X157746068Y-36833617D01*
X157761053Y-36839824D01*
X157985747Y-36950627D01*
X157999790Y-36958734D01*
X158154700Y-37062239D01*
X158208103Y-37097921D01*
X158220971Y-37107795D01*
X158409328Y-37272977D01*
X158420798Y-37284447D01*
X158585980Y-37472799D01*
X158595854Y-37485666D01*
X158735045Y-37693976D01*
X158743155Y-37708023D01*
X158853963Y-37932715D01*
X158860170Y-37947700D01*
X158940702Y-38184932D01*
X158944899Y-38200598D01*
X158993774Y-38446310D01*
X158995891Y-38462390D01*
X159012501Y-38715791D01*
X159012767Y-38723902D01*
X159012767Y-47893180D01*
X158993082Y-47960219D01*
X158940278Y-48005974D01*
X158871120Y-48015918D01*
X158807564Y-47986893D01*
X158801086Y-47980861D01*
X158697922Y-47877697D01*
X158697917Y-47877693D01*
X158494116Y-47729624D01*
X158494115Y-47729623D01*
X158494113Y-47729622D01*
X158424015Y-47693905D01*
X158269651Y-47615252D01*
X158030053Y-47537402D01*
X157842119Y-47507636D01*
X157781230Y-47497992D01*
X156229306Y-47497992D01*
X156168423Y-47507635D01*
X155980482Y-47537402D01*
X155740884Y-47615252D01*
X155516419Y-47729624D01*
X155312618Y-47877693D01*
X155312613Y-47877697D01*
X155134473Y-48055837D01*
X155134469Y-48055842D01*
X154986400Y-48259643D01*
X154872028Y-48484108D01*
X154794178Y-48723706D01*
X154754768Y-48972530D01*
X154754768Y-49224453D01*
X154794178Y-49473277D01*
X154872028Y-49712875D01*
X154986400Y-49937340D01*
X155134469Y-50141141D01*
X155134473Y-50141146D01*
X155312613Y-50319286D01*
X155312618Y-50319290D01*
X155343425Y-50341673D01*
X155386091Y-50397003D01*
X155392070Y-50466616D01*
X155359464Y-50528411D01*
X155298626Y-50562768D01*
X155270540Y-50565991D01*
X150626157Y-50565991D01*
X150594064Y-50561766D01*
X150475481Y-50529993D01*
X150475474Y-50529991D01*
X150468923Y-50528235D01*
X150468048Y-50527993D01*
X150468017Y-50527989D01*
X150468002Y-50527989D01*
X150362593Y-50527991D01*
X147149830Y-50527991D01*
X147082791Y-50508306D01*
X147037036Y-50455502D01*
X147027092Y-50386344D01*
X147056117Y-50322788D01*
X147073668Y-50306138D01*
X147203876Y-50204791D01*
X147257052Y-50163404D01*
X147414247Y-49992644D01*
X147541192Y-49798340D01*
X147634425Y-49585791D01*
X147691402Y-49360796D01*
X147691403Y-49360788D01*
X147710568Y-49129497D01*
X147710568Y-49129484D01*
X147691403Y-48898193D01*
X147691401Y-48898182D01*
X147634425Y-48673190D01*
X147541192Y-48460642D01*
X147414251Y-48266343D01*
X147414248Y-48266340D01*
X147414247Y-48266338D01*
X147319463Y-48163375D01*
X147288543Y-48100723D01*
X147296403Y-48031297D01*
X147340551Y-47977142D01*
X147367363Y-47963213D01*
X147375391Y-47960219D01*
X147447599Y-47933287D01*
X147562814Y-47847037D01*
X147649064Y-47731822D01*
X147699359Y-47596974D01*
X147705768Y-47537364D01*
X147705767Y-45641619D01*
X147704919Y-45633730D01*
X147717322Y-45564972D01*
X147764931Y-45513833D01*
X147802262Y-45499217D01*
X147807967Y-45497996D01*
X147974387Y-45442849D01*
X147974392Y-45442847D01*
X148123613Y-45350806D01*
X148247583Y-45226836D01*
X148278461Y-45176776D01*
X155622769Y-45176776D01*
X155650395Y-45351203D01*
X155656023Y-45386733D01*
X155697320Y-45513833D01*
X155721713Y-45588904D01*
X155818220Y-45778310D01*
X155943159Y-45950276D01*
X156093482Y-46100599D01*
X156265448Y-46225538D01*
X156265450Y-46225539D01*
X156265453Y-46225541D01*
X156454857Y-46322047D01*
X156657026Y-46387736D01*
X156866982Y-46420990D01*
X156866983Y-46420990D01*
X157079555Y-46420990D01*
X157079556Y-46420990D01*
X157289512Y-46387736D01*
X157491681Y-46322047D01*
X157681085Y-46225541D01*
X157767671Y-46162633D01*
X157853055Y-46100599D01*
X157853057Y-46100596D01*
X157853061Y-46100594D01*
X158003373Y-45950282D01*
X158003375Y-45950278D01*
X158003378Y-45950276D01*
X158128317Y-45778310D01*
X158128316Y-45778310D01*
X158128320Y-45778306D01*
X158224826Y-45588902D01*
X158290515Y-45386733D01*
X158323769Y-45176777D01*
X158323769Y-44964203D01*
X158290515Y-44754247D01*
X158224826Y-44552078D01*
X158128320Y-44362674D01*
X158128318Y-44362671D01*
X158128317Y-44362669D01*
X158003378Y-44190703D01*
X157853055Y-44040380D01*
X157681089Y-43915441D01*
X157491683Y-43818934D01*
X157491682Y-43818933D01*
X157491681Y-43818933D01*
X157289512Y-43753244D01*
X157289510Y-43753243D01*
X157289509Y-43753243D01*
X157128226Y-43727698D01*
X157079556Y-43719990D01*
X156866982Y-43719990D01*
X156818311Y-43727698D01*
X156657029Y-43753243D01*
X156454854Y-43818934D01*
X156265448Y-43915441D01*
X156093482Y-44040380D01*
X155943159Y-44190703D01*
X155818220Y-44362669D01*
X155721713Y-44552075D01*
X155656022Y-44754250D01*
X155622769Y-44964203D01*
X155622769Y-45176776D01*
X148278461Y-45176776D01*
X148339624Y-45077615D01*
X148339626Y-45077610D01*
X148394773Y-44911188D01*
X148394774Y-44911181D01*
X148405267Y-44808477D01*
X148405268Y-44808464D01*
X148405268Y-44558491D01*
X147179268Y-44558491D01*
X147112229Y-44538806D01*
X147066474Y-44486002D01*
X147055268Y-44434491D01*
X147055268Y-43108491D01*
X147555268Y-43108491D01*
X147555268Y-44058491D01*
X148405267Y-44058491D01*
X148405267Y-43808519D01*
X148405266Y-43808504D01*
X148394773Y-43705793D01*
X148339626Y-43539371D01*
X148339624Y-43539366D01*
X148247583Y-43390145D01*
X148123613Y-43266175D01*
X147974392Y-43174134D01*
X147974387Y-43174132D01*
X147807965Y-43118985D01*
X147807958Y-43118984D01*
X147705254Y-43108491D01*
X147555268Y-43108491D01*
X147055268Y-43108491D01*
X146905295Y-43108491D01*
X146905280Y-43108492D01*
X146802570Y-43118985D01*
X146636148Y-43174132D01*
X146636143Y-43174134D01*
X146486925Y-43266173D01*
X146393302Y-43359796D01*
X146331978Y-43393280D01*
X146262287Y-43388296D01*
X146217940Y-43359795D01*
X146123925Y-43265780D01*
X146123924Y-43265779D01*
X145974602Y-43173677D01*
X145808065Y-43118492D01*
X145808063Y-43118491D01*
X145705278Y-43107991D01*
X144905266Y-43107991D01*
X144905248Y-43107992D01*
X144802471Y-43118491D01*
X144802468Y-43118492D01*
X144635936Y-43173676D01*
X144635931Y-43173678D01*
X144486610Y-43265780D01*
X144362557Y-43389833D01*
X144270455Y-43539154D01*
X144270453Y-43539159D01*
X144270383Y-43539371D01*
X144215269Y-43705694D01*
X144215269Y-43705695D01*
X144215268Y-43705695D01*
X144204768Y-43808474D01*
X144204768Y-44808492D01*
X144204769Y-44808510D01*
X144215268Y-44911287D01*
X144215269Y-44911290D01*
X144270383Y-45077610D01*
X144270454Y-45077825D01*
X144362556Y-45227147D01*
X144486612Y-45351203D01*
X144635934Y-45443305D01*
X144635935Y-45443305D01*
X144642081Y-45447096D01*
X144640972Y-45448892D01*
X144685596Y-45488164D01*
X144704767Y-45554398D01*
X144704767Y-45668545D01*
X144704766Y-45668545D01*
X144745691Y-45821276D01*
X144774626Y-45871391D01*
X144774627Y-45871395D01*
X144774628Y-45871395D01*
X144824747Y-45958205D01*
X144824749Y-45958208D01*
X144868449Y-46001908D01*
X144901934Y-46063231D01*
X144904768Y-46089589D01*
X144904768Y-47537361D01*
X144904769Y-47537367D01*
X144911176Y-47596974D01*
X144961470Y-47731819D01*
X144961474Y-47731826D01*
X145047720Y-47847035D01*
X145047723Y-47847038D01*
X145162932Y-47933284D01*
X145162941Y-47933289D01*
X145243172Y-47963213D01*
X145299106Y-48005084D01*
X145323524Y-48070548D01*
X145308673Y-48138821D01*
X145291070Y-48163377D01*
X145196287Y-48266340D01*
X145069343Y-48460642D01*
X144976111Y-48673189D01*
X144966052Y-48712913D01*
X144930512Y-48773068D01*
X144868091Y-48804460D01*
X144798608Y-48797122D01*
X144758165Y-48770153D01*
X142570438Y-46582426D01*
X142570436Y-46582423D01*
X142451565Y-46463552D01*
X142451564Y-46463551D01*
X142364752Y-46413431D01*
X142364752Y-46413430D01*
X142364748Y-46413429D01*
X142314633Y-46384494D01*
X142161905Y-46343570D01*
X142003791Y-46343570D01*
X141996195Y-46343570D01*
X141996179Y-46343571D01*
X137761785Y-46343571D01*
X137694746Y-46323886D01*
X137648991Y-46271082D01*
X137639047Y-46201924D01*
X137639312Y-46200173D01*
X137645258Y-46162632D01*
X137645258Y-45177229D01*
X137629514Y-45077827D01*
X137608323Y-44944033D01*
X137535363Y-44719485D01*
X137535361Y-44719482D01*
X137535361Y-44719480D01*
X137450824Y-44553569D01*
X137428174Y-44509115D01*
X137373957Y-44434491D01*
X137289401Y-44318109D01*
X137289397Y-44318104D01*
X137122444Y-44151151D01*
X137122439Y-44151147D01*
X136931437Y-44012377D01*
X136931436Y-44012376D01*
X136931434Y-44012375D01*
X136865739Y-43978901D01*
X136721068Y-43905187D01*
X136496516Y-43832226D01*
X136263320Y-43795291D01*
X136027216Y-43795291D01*
X135943699Y-43808519D01*
X135794019Y-43832226D01*
X135569467Y-43905187D01*
X135359098Y-44012377D01*
X135168096Y-44151147D01*
X135168091Y-44151151D01*
X135001142Y-44318100D01*
X135001137Y-44318106D01*
X134975586Y-44353275D01*
X134920256Y-44395941D01*
X134850643Y-44401920D01*
X134788848Y-44369314D01*
X134774950Y-44353275D01*
X134749398Y-44318106D01*
X134749396Y-44318103D01*
X134582446Y-44151153D01*
X134582444Y-44151151D01*
X134582439Y-44151147D01*
X134391437Y-44012377D01*
X134391436Y-44012376D01*
X134391434Y-44012375D01*
X134325739Y-43978901D01*
X134181068Y-43905187D01*
X133956516Y-43832226D01*
X133723320Y-43795291D01*
X133487216Y-43795291D01*
X133403699Y-43808519D01*
X133254019Y-43832226D01*
X133029467Y-43905187D01*
X132819098Y-44012377D01*
X132628096Y-44151147D01*
X132628091Y-44151151D01*
X132461142Y-44318100D01*
X132461137Y-44318106D01*
X132435586Y-44353275D01*
X132380256Y-44395941D01*
X132310643Y-44401920D01*
X132248848Y-44369314D01*
X132234950Y-44353275D01*
X132209398Y-44318106D01*
X132209396Y-44318103D01*
X132042446Y-44151153D01*
X132042444Y-44151151D01*
X132042439Y-44151147D01*
X131851437Y-44012377D01*
X131851436Y-44012376D01*
X131851434Y-44012375D01*
X131785739Y-43978901D01*
X131641068Y-43905187D01*
X131416516Y-43832226D01*
X131183320Y-43795291D01*
X130947216Y-43795291D01*
X130863699Y-43808519D01*
X130714019Y-43832226D01*
X130489467Y-43905187D01*
X130279098Y-44012377D01*
X130088096Y-44151147D01*
X130088091Y-44151151D01*
X129921142Y-44318100D01*
X129921137Y-44318106D01*
X129895586Y-44353275D01*
X129840256Y-44395941D01*
X129770643Y-44401920D01*
X129708848Y-44369314D01*
X129694950Y-44353275D01*
X129669398Y-44318106D01*
X129669396Y-44318103D01*
X129502446Y-44151153D01*
X129502444Y-44151151D01*
X129502439Y-44151147D01*
X129311437Y-44012377D01*
X129311436Y-44012376D01*
X129311434Y-44012375D01*
X129245739Y-43978901D01*
X129101068Y-43905187D01*
X128876516Y-43832226D01*
X128643320Y-43795291D01*
X128407216Y-43795291D01*
X128323699Y-43808519D01*
X128174019Y-43832226D01*
X127949467Y-43905187D01*
X127739098Y-44012377D01*
X127548096Y-44151147D01*
X127548091Y-44151151D01*
X127381142Y-44318100D01*
X127381137Y-44318106D01*
X127355586Y-44353275D01*
X127300256Y-44395941D01*
X127230643Y-44401920D01*
X127168848Y-44369314D01*
X127154950Y-44353275D01*
X127129398Y-44318106D01*
X127129396Y-44318103D01*
X126962446Y-44151153D01*
X126962444Y-44151151D01*
X126962439Y-44151147D01*
X126771437Y-44012377D01*
X126771436Y-44012376D01*
X126771434Y-44012375D01*
X126705739Y-43978901D01*
X126561068Y-43905187D01*
X126336516Y-43832226D01*
X126103320Y-43795291D01*
X125867216Y-43795291D01*
X125783699Y-43808519D01*
X125634019Y-43832226D01*
X125409467Y-43905187D01*
X125199098Y-44012377D01*
X125008096Y-44151147D01*
X125008091Y-44151151D01*
X124841142Y-44318100D01*
X124841137Y-44318106D01*
X124815586Y-44353275D01*
X124760256Y-44395941D01*
X124690643Y-44401920D01*
X124628848Y-44369314D01*
X124614950Y-44353275D01*
X124589398Y-44318106D01*
X124589396Y-44318103D01*
X124422446Y-44151153D01*
X124422444Y-44151151D01*
X124422439Y-44151147D01*
X124231437Y-44012377D01*
X124231436Y-44012376D01*
X124231434Y-44012375D01*
X124165739Y-43978901D01*
X124021068Y-43905187D01*
X123796516Y-43832226D01*
X123563320Y-43795291D01*
X123327216Y-43795291D01*
X123243699Y-43808519D01*
X123094019Y-43832226D01*
X122869467Y-43905187D01*
X122659098Y-44012377D01*
X122468096Y-44151147D01*
X122468091Y-44151151D01*
X122301142Y-44318100D01*
X122301137Y-44318106D01*
X122275586Y-44353275D01*
X122220256Y-44395941D01*
X122150643Y-44401920D01*
X122088848Y-44369314D01*
X122074950Y-44353275D01*
X122049398Y-44318106D01*
X122049396Y-44318103D01*
X121882446Y-44151153D01*
X121882444Y-44151151D01*
X121882439Y-44151147D01*
X121691437Y-44012377D01*
X121691436Y-44012376D01*
X121691434Y-44012375D01*
X121625739Y-43978901D01*
X121481068Y-43905187D01*
X121385850Y-43874249D01*
X121328175Y-43834811D01*
X121300977Y-43770452D01*
X121312892Y-43701606D01*
X121336485Y-43668640D01*
X123627817Y-41377307D01*
X123689140Y-41343823D01*
X123715498Y-41340989D01*
X124851140Y-41340989D01*
X124851141Y-41340989D01*
X124910752Y-41334581D01*
X125045600Y-41284286D01*
X125160815Y-41198036D01*
X125247065Y-41082821D01*
X125296079Y-40951406D01*
X125337950Y-40895474D01*
X125403414Y-40871056D01*
X125471687Y-40885907D01*
X125499942Y-40907059D01*
X125621868Y-41028985D01*
X125718653Y-41096755D01*
X125815434Y-41164522D01*
X125815436Y-41164523D01*
X125815439Y-41164525D01*
X126029606Y-41264393D01*
X126257861Y-41325553D01*
X126446187Y-41342029D01*
X126493268Y-41346149D01*
X126493269Y-41346149D01*
X126493270Y-41346149D01*
X126532503Y-41342716D01*
X126728677Y-41325553D01*
X126956932Y-41264393D01*
X127171099Y-41164525D01*
X127364670Y-41028985D01*
X127531764Y-40861891D01*
X127661693Y-40676332D01*
X127716270Y-40632708D01*
X127785768Y-40625514D01*
X127848123Y-40657037D01*
X127864842Y-40676331D01*
X127994773Y-40861891D01*
X128161867Y-41028985D01*
X128258652Y-41096755D01*
X128355433Y-41164522D01*
X128355435Y-41164523D01*
X128355438Y-41164525D01*
X128569605Y-41264393D01*
X128797860Y-41325553D01*
X128986186Y-41342029D01*
X129033267Y-41346149D01*
X129033268Y-41346149D01*
X129033269Y-41346149D01*
X129072502Y-41342716D01*
X129268676Y-41325553D01*
X129496931Y-41264393D01*
X129711098Y-41164525D01*
X129904669Y-41028985D01*
X130071763Y-40861891D01*
X130201694Y-40676329D01*
X130256270Y-40632706D01*
X130325768Y-40625512D01*
X130388123Y-40657035D01*
X130404841Y-40676328D01*
X130534774Y-40861891D01*
X130701868Y-41028985D01*
X130798653Y-41096755D01*
X130895434Y-41164522D01*
X130895436Y-41164523D01*
X130895439Y-41164525D01*
X131109606Y-41264393D01*
X131337861Y-41325553D01*
X131526187Y-41342029D01*
X131573268Y-41346149D01*
X131573269Y-41346149D01*
X131573270Y-41346149D01*
X131612503Y-41342716D01*
X131808677Y-41325553D01*
X132036932Y-41264393D01*
X132251099Y-41164525D01*
X132444670Y-41028985D01*
X132611764Y-40861891D01*
X132741695Y-40676331D01*
X132796271Y-40632707D01*
X132865769Y-40625513D01*
X132928124Y-40657036D01*
X132944844Y-40676332D01*
X133074769Y-40861885D01*
X133074774Y-40861891D01*
X133241868Y-41028985D01*
X133338653Y-41096755D01*
X133435434Y-41164522D01*
X133435436Y-41164523D01*
X133435439Y-41164525D01*
X133649606Y-41264393D01*
X133877861Y-41325553D01*
X134066187Y-41342029D01*
X134113268Y-41346149D01*
X134113269Y-41346149D01*
X134113270Y-41346149D01*
X134152503Y-41342716D01*
X134348677Y-41325553D01*
X134576932Y-41264393D01*
X134791099Y-41164525D01*
X134984670Y-41028985D01*
X135151764Y-40861891D01*
X135281695Y-40676331D01*
X135336271Y-40632707D01*
X135405769Y-40625513D01*
X135468124Y-40657036D01*
X135484844Y-40676332D01*
X135614769Y-40861885D01*
X135614774Y-40861891D01*
X135781868Y-41028985D01*
X135878653Y-41096755D01*
X135975434Y-41164522D01*
X135975436Y-41164523D01*
X135975439Y-41164525D01*
X136189606Y-41264393D01*
X136417861Y-41325553D01*
X136606187Y-41342029D01*
X136653268Y-41346149D01*
X136653269Y-41346149D01*
X136653270Y-41346149D01*
X136692503Y-41342716D01*
X136888677Y-41325553D01*
X137116932Y-41264393D01*
X137331099Y-41164525D01*
X137524670Y-41028985D01*
X137691764Y-40861891D01*
X137821695Y-40676331D01*
X137876271Y-40632707D01*
X137945769Y-40625513D01*
X138008124Y-40657036D01*
X138024844Y-40676332D01*
X138154769Y-40861885D01*
X138154774Y-40861891D01*
X138321868Y-41028985D01*
X138418653Y-41096755D01*
X138515434Y-41164522D01*
X138515436Y-41164523D01*
X138515439Y-41164525D01*
X138729606Y-41264393D01*
X138957861Y-41325553D01*
X139146187Y-41342029D01*
X139193268Y-41346149D01*
X139193269Y-41346149D01*
X139193270Y-41346149D01*
X139232503Y-41342716D01*
X139428677Y-41325553D01*
X139656932Y-41264393D01*
X139871099Y-41164525D01*
X140064670Y-41028985D01*
X140231764Y-40861891D01*
X140361695Y-40676329D01*
X140416271Y-40632706D01*
X140485769Y-40625512D01*
X140548124Y-40657035D01*
X140564842Y-40676328D01*
X140694775Y-40861891D01*
X140861869Y-41028985D01*
X140958654Y-41096755D01*
X141055435Y-41164522D01*
X141055437Y-41164523D01*
X141055440Y-41164525D01*
X141269607Y-41264393D01*
X141497862Y-41325553D01*
X141686188Y-41342029D01*
X141733269Y-41346149D01*
X141733270Y-41346149D01*
X141733271Y-41346149D01*
X141772504Y-41342716D01*
X141968678Y-41325553D01*
X142196933Y-41264393D01*
X142411100Y-41164525D01*
X142604671Y-41028985D01*
X142771765Y-40861891D01*
X142901694Y-40676332D01*
X142956271Y-40632708D01*
X143025769Y-40625514D01*
X143088124Y-40657037D01*
X143104843Y-40676331D01*
X143234774Y-40861891D01*
X143401868Y-41028985D01*
X143498653Y-41096755D01*
X143595434Y-41164522D01*
X143595436Y-41164523D01*
X143595439Y-41164525D01*
X143809606Y-41264393D01*
X144037861Y-41325553D01*
X144226187Y-41342029D01*
X144273268Y-41346149D01*
X144273269Y-41346149D01*
X144273270Y-41346149D01*
X144312503Y-41342716D01*
X144508677Y-41325553D01*
X144736932Y-41264393D01*
X144951099Y-41164525D01*
X145144670Y-41028985D01*
X145311764Y-40861891D01*
X145441695Y-40676331D01*
X145496271Y-40632707D01*
X145565769Y-40625513D01*
X145628124Y-40657036D01*
X145644844Y-40676332D01*
X145774769Y-40861885D01*
X145774774Y-40861891D01*
X145941868Y-41028985D01*
X146038653Y-41096755D01*
X146135434Y-41164522D01*
X146135436Y-41164523D01*
X146135439Y-41164525D01*
X146349606Y-41264393D01*
X146577861Y-41325553D01*
X146766187Y-41342029D01*
X146813268Y-41346149D01*
X146813269Y-41346149D01*
X146813270Y-41346149D01*
X146852503Y-41342716D01*
X147048677Y-41325553D01*
X147276932Y-41264393D01*
X147491099Y-41164525D01*
X147684670Y-41028985D01*
X147851764Y-40861891D01*
X147981695Y-40676331D01*
X148036271Y-40632707D01*
X148105769Y-40625513D01*
X148168124Y-40657036D01*
X148184844Y-40676332D01*
X148314769Y-40861885D01*
X148314774Y-40861891D01*
X148481868Y-41028985D01*
X148578653Y-41096755D01*
X148675434Y-41164522D01*
X148675436Y-41164523D01*
X148675439Y-41164525D01*
X148889606Y-41264393D01*
X149117861Y-41325553D01*
X149306187Y-41342029D01*
X149353268Y-41346149D01*
X149353269Y-41346149D01*
X149353270Y-41346149D01*
X149392503Y-41342716D01*
X149588677Y-41325553D01*
X149816932Y-41264393D01*
X150031099Y-41164525D01*
X150224670Y-41028985D01*
X150391764Y-40861891D01*
X150521693Y-40676332D01*
X150576270Y-40632708D01*
X150645768Y-40625514D01*
X150708123Y-40657037D01*
X150724842Y-40676331D01*
X150854773Y-40861891D01*
X151021867Y-41028985D01*
X151118652Y-41096755D01*
X151215433Y-41164522D01*
X151215435Y-41164523D01*
X151215438Y-41164525D01*
X151429605Y-41264393D01*
X151657860Y-41325553D01*
X151846186Y-41342029D01*
X151893267Y-41346149D01*
X151893268Y-41346149D01*
X151893269Y-41346149D01*
X151932502Y-41342716D01*
X152128676Y-41325553D01*
X152356931Y-41264393D01*
X152571098Y-41164525D01*
X152764669Y-41028985D01*
X152931763Y-40861891D01*
X153061694Y-40676329D01*
X153116270Y-40632706D01*
X153185768Y-40625512D01*
X153248123Y-40657035D01*
X153264841Y-40676328D01*
X153394774Y-40861891D01*
X153561868Y-41028985D01*
X153658653Y-41096755D01*
X153755434Y-41164522D01*
X153755436Y-41164523D01*
X153755439Y-41164525D01*
X153969606Y-41264393D01*
X154197861Y-41325553D01*
X154386187Y-41342029D01*
X154433268Y-41346149D01*
X154433269Y-41346149D01*
X154433270Y-41346149D01*
X154472503Y-41342716D01*
X154668677Y-41325553D01*
X154896932Y-41264393D01*
X155111099Y-41164525D01*
X155304670Y-41028985D01*
X155471764Y-40861891D01*
X155607304Y-40668320D01*
X155707172Y-40454153D01*
X155768332Y-40225898D01*
X155788928Y-39990490D01*
X155768332Y-39755082D01*
X155707172Y-39526827D01*
X155607304Y-39312661D01*
X155601694Y-39304648D01*
X155471763Y-39119087D01*
X155304671Y-38951996D01*
X155304664Y-38951991D01*
X155111103Y-38816457D01*
X155111099Y-38816455D01*
X155111097Y-38816454D01*
X154896932Y-38716587D01*
X154896928Y-38716586D01*
X154896924Y-38716584D01*
X154668682Y-38655428D01*
X154668672Y-38655426D01*
X154433270Y-38634831D01*
X154433268Y-38634831D01*
X154197865Y-38655426D01*
X154197855Y-38655428D01*
X153969613Y-38716584D01*
X153969606Y-38716586D01*
X153969606Y-38716587D01*
X153961240Y-38720488D01*
X153755440Y-38816454D01*
X153755438Y-38816455D01*
X153561866Y-38951995D01*
X153394777Y-39119084D01*
X153264843Y-39304650D01*
X153210266Y-39348274D01*
X153140767Y-39355467D01*
X153078413Y-39323945D01*
X153061693Y-39304649D01*
X152931762Y-39119087D01*
X152764670Y-38951996D01*
X152764663Y-38951991D01*
X152571102Y-38816457D01*
X152571098Y-38816455D01*
X152571096Y-38816454D01*
X152356931Y-38716587D01*
X152356927Y-38716586D01*
X152356923Y-38716584D01*
X152128681Y-38655428D01*
X152128671Y-38655426D01*
X151893269Y-38634831D01*
X151893267Y-38634831D01*
X151657864Y-38655426D01*
X151657854Y-38655428D01*
X151429612Y-38716584D01*
X151429605Y-38716586D01*
X151429605Y-38716587D01*
X151421239Y-38720488D01*
X151215439Y-38816454D01*
X151215437Y-38816455D01*
X151021865Y-38951995D01*
X150854776Y-39119084D01*
X150724843Y-39304648D01*
X150670266Y-39348272D01*
X150600767Y-39355465D01*
X150538413Y-39323943D01*
X150521693Y-39304647D01*
X150391763Y-39119087D01*
X150224671Y-38951996D01*
X150224664Y-38951991D01*
X150031103Y-38816457D01*
X150031099Y-38816455D01*
X150031097Y-38816454D01*
X149816932Y-38716587D01*
X149816928Y-38716586D01*
X149816924Y-38716584D01*
X149588682Y-38655428D01*
X149588672Y-38655426D01*
X149353270Y-38634831D01*
X149353268Y-38634831D01*
X149117865Y-38655426D01*
X149117855Y-38655428D01*
X148889613Y-38716584D01*
X148889606Y-38716586D01*
X148889606Y-38716587D01*
X148881240Y-38720488D01*
X148675440Y-38816454D01*
X148675438Y-38816455D01*
X148481866Y-38951995D01*
X148314774Y-39119087D01*
X148184844Y-39304648D01*
X148130267Y-39348273D01*
X148060769Y-39355467D01*
X147998414Y-39323944D01*
X147981694Y-39304648D01*
X147851763Y-39119087D01*
X147684671Y-38951996D01*
X147684664Y-38951991D01*
X147491103Y-38816457D01*
X147491099Y-38816455D01*
X147491097Y-38816454D01*
X147276932Y-38716587D01*
X147276928Y-38716586D01*
X147276924Y-38716584D01*
X147048682Y-38655428D01*
X147048672Y-38655426D01*
X146813270Y-38634831D01*
X146813268Y-38634831D01*
X146577865Y-38655426D01*
X146577855Y-38655428D01*
X146349613Y-38716584D01*
X146349606Y-38716586D01*
X146349606Y-38716587D01*
X146341240Y-38720488D01*
X146135440Y-38816454D01*
X146135438Y-38816455D01*
X145941866Y-38951995D01*
X145774774Y-39119087D01*
X145644844Y-39304648D01*
X145590267Y-39348273D01*
X145520769Y-39355467D01*
X145458414Y-39323944D01*
X145441694Y-39304648D01*
X145311763Y-39119087D01*
X145144671Y-38951996D01*
X145144664Y-38951991D01*
X144951103Y-38816457D01*
X144951099Y-38816455D01*
X144951097Y-38816454D01*
X144736932Y-38716587D01*
X144736928Y-38716586D01*
X144736924Y-38716584D01*
X144508682Y-38655428D01*
X144508672Y-38655426D01*
X144273270Y-38634831D01*
X144273268Y-38634831D01*
X144037865Y-38655426D01*
X144037855Y-38655428D01*
X143809613Y-38716584D01*
X143809606Y-38716586D01*
X143809606Y-38716587D01*
X143801240Y-38720488D01*
X143595440Y-38816454D01*
X143595438Y-38816455D01*
X143401866Y-38951995D01*
X143234777Y-39119084D01*
X143104844Y-39304648D01*
X143050267Y-39348272D01*
X142980768Y-39355465D01*
X142918414Y-39323943D01*
X142901694Y-39304647D01*
X142771764Y-39119087D01*
X142604672Y-38951996D01*
X142604665Y-38951991D01*
X142411104Y-38816457D01*
X142411100Y-38816455D01*
X142411098Y-38816454D01*
X142196933Y-38716587D01*
X142196929Y-38716586D01*
X142196925Y-38716584D01*
X141968683Y-38655428D01*
X141968673Y-38655426D01*
X141733271Y-38634831D01*
X141733269Y-38634831D01*
X141497866Y-38655426D01*
X141497856Y-38655428D01*
X141269614Y-38716584D01*
X141269607Y-38716586D01*
X141269607Y-38716587D01*
X141261241Y-38720488D01*
X141055441Y-38816454D01*
X141055439Y-38816455D01*
X140861867Y-38951995D01*
X140694778Y-39119084D01*
X140564844Y-39304650D01*
X140510267Y-39348274D01*
X140440768Y-39355467D01*
X140378414Y-39323945D01*
X140361694Y-39304649D01*
X140231763Y-39119087D01*
X140064671Y-38951996D01*
X140064664Y-38951991D01*
X139871103Y-38816457D01*
X139871099Y-38816455D01*
X139871097Y-38816454D01*
X139656932Y-38716587D01*
X139656928Y-38716586D01*
X139656924Y-38716584D01*
X139428682Y-38655428D01*
X139428672Y-38655426D01*
X139193270Y-38634831D01*
X139193268Y-38634831D01*
X138957865Y-38655426D01*
X138957855Y-38655428D01*
X138729613Y-38716584D01*
X138729606Y-38716586D01*
X138729606Y-38716587D01*
X138721240Y-38720488D01*
X138515440Y-38816454D01*
X138515438Y-38816455D01*
X138321866Y-38951995D01*
X138154774Y-39119087D01*
X138024844Y-39304648D01*
X137970267Y-39348273D01*
X137900769Y-39355467D01*
X137838414Y-39323944D01*
X137821694Y-39304648D01*
X137691763Y-39119087D01*
X137524671Y-38951996D01*
X137524664Y-38951991D01*
X137331103Y-38816457D01*
X137331099Y-38816455D01*
X137331097Y-38816454D01*
X137116932Y-38716587D01*
X137116928Y-38716586D01*
X137116924Y-38716584D01*
X136888682Y-38655428D01*
X136888672Y-38655426D01*
X136653270Y-38634831D01*
X136653268Y-38634831D01*
X136417865Y-38655426D01*
X136417855Y-38655428D01*
X136189613Y-38716584D01*
X136189606Y-38716586D01*
X136189606Y-38716587D01*
X136181240Y-38720488D01*
X135975440Y-38816454D01*
X135975438Y-38816455D01*
X135781866Y-38951995D01*
X135614774Y-39119087D01*
X135484844Y-39304648D01*
X135430267Y-39348273D01*
X135360769Y-39355467D01*
X135298414Y-39323944D01*
X135281694Y-39304648D01*
X135151763Y-39119087D01*
X134984671Y-38951996D01*
X134984664Y-38951991D01*
X134791103Y-38816457D01*
X134791099Y-38816455D01*
X134791097Y-38816454D01*
X134576932Y-38716587D01*
X134576928Y-38716586D01*
X134576924Y-38716584D01*
X134348682Y-38655428D01*
X134348672Y-38655426D01*
X134113270Y-38634831D01*
X134113268Y-38634831D01*
X133877865Y-38655426D01*
X133877855Y-38655428D01*
X133649613Y-38716584D01*
X133649606Y-38716586D01*
X133649606Y-38716587D01*
X133641240Y-38720488D01*
X133435440Y-38816454D01*
X133435438Y-38816455D01*
X133241866Y-38951995D01*
X133074774Y-39119087D01*
X132944844Y-39304648D01*
X132890267Y-39348273D01*
X132820769Y-39355467D01*
X132758414Y-39323944D01*
X132741694Y-39304648D01*
X132611763Y-39119087D01*
X132444671Y-38951996D01*
X132444664Y-38951991D01*
X132251103Y-38816457D01*
X132251099Y-38816455D01*
X132251097Y-38816454D01*
X132036932Y-38716587D01*
X132036928Y-38716586D01*
X132036924Y-38716584D01*
X131808682Y-38655428D01*
X131808672Y-38655426D01*
X131573270Y-38634831D01*
X131573268Y-38634831D01*
X131337865Y-38655426D01*
X131337855Y-38655428D01*
X131109613Y-38716584D01*
X131109606Y-38716586D01*
X131109606Y-38716587D01*
X131101240Y-38720488D01*
X130895440Y-38816454D01*
X130895438Y-38816455D01*
X130701866Y-38951995D01*
X130534777Y-39119084D01*
X130404843Y-39304650D01*
X130350266Y-39348274D01*
X130280767Y-39355467D01*
X130218413Y-39323945D01*
X130201693Y-39304649D01*
X130071762Y-39119087D01*
X129904670Y-38951996D01*
X129904663Y-38951991D01*
X129711102Y-38816457D01*
X129711098Y-38816455D01*
X129711096Y-38816454D01*
X129496931Y-38716587D01*
X129496927Y-38716586D01*
X129496923Y-38716584D01*
X129268681Y-38655428D01*
X129268671Y-38655426D01*
X129033269Y-38634831D01*
X129033267Y-38634831D01*
X128797864Y-38655426D01*
X128797854Y-38655428D01*
X128569612Y-38716584D01*
X128569605Y-38716586D01*
X128569605Y-38716587D01*
X128561239Y-38720488D01*
X128355439Y-38816454D01*
X128355437Y-38816455D01*
X128161865Y-38951995D01*
X127994776Y-39119084D01*
X127864843Y-39304648D01*
X127810266Y-39348272D01*
X127740767Y-39355465D01*
X127678413Y-39323943D01*
X127661693Y-39304647D01*
X127531763Y-39119087D01*
X127364671Y-38951996D01*
X127364664Y-38951991D01*
X127171103Y-38816457D01*
X127171099Y-38816455D01*
X127171097Y-38816454D01*
X126956932Y-38716587D01*
X126956928Y-38716586D01*
X126956924Y-38716584D01*
X126728682Y-38655428D01*
X126728672Y-38655426D01*
X126493270Y-38634831D01*
X126493268Y-38634831D01*
X126257865Y-38655426D01*
X126257855Y-38655428D01*
X126029613Y-38716584D01*
X126029606Y-38716586D01*
X126029606Y-38716587D01*
X126021240Y-38720488D01*
X125815440Y-38816454D01*
X125815438Y-38816455D01*
X125621869Y-38951993D01*
X125499942Y-39073920D01*
X125438619Y-39107404D01*
X125368927Y-39102420D01*
X125312994Y-39060548D01*
X125296079Y-39029571D01*
X125247066Y-38898161D01*
X125247062Y-38898154D01*
X125160816Y-38782945D01*
X125160813Y-38782942D01*
X125045604Y-38696696D01*
X125045597Y-38696692D01*
X124910751Y-38646398D01*
X124910752Y-38646398D01*
X124851152Y-38639991D01*
X124851150Y-38639990D01*
X124851142Y-38639990D01*
X124851133Y-38639990D01*
X123055398Y-38639990D01*
X123055392Y-38639991D01*
X122995785Y-38646398D01*
X122860940Y-38696692D01*
X122860933Y-38696696D01*
X122745724Y-38782942D01*
X122745721Y-38782945D01*
X122659475Y-38898154D01*
X122659471Y-38898161D01*
X122609177Y-39033007D01*
X122602770Y-39092606D01*
X122602769Y-39092625D01*
X122602769Y-40228259D01*
X122583084Y-40295298D01*
X122566450Y-40315940D01*
X118315450Y-44566940D01*
X118254127Y-44600425D01*
X118184435Y-44595441D01*
X118128502Y-44553569D01*
X118104085Y-44488105D01*
X118103769Y-44479259D01*
X118103769Y-38826776D01*
X118792768Y-38826776D01*
X118825431Y-39033007D01*
X118826022Y-39036733D01*
X118852781Y-39119089D01*
X118891712Y-39238904D01*
X118988219Y-39428310D01*
X119113158Y-39600276D01*
X119263481Y-39750599D01*
X119435447Y-39875538D01*
X119435449Y-39875539D01*
X119435452Y-39875541D01*
X119624856Y-39972047D01*
X119827025Y-40037736D01*
X120036981Y-40070990D01*
X120036982Y-40070990D01*
X120249554Y-40070990D01*
X120249555Y-40070990D01*
X120459511Y-40037736D01*
X120661680Y-39972047D01*
X120851084Y-39875541D01*
X120873057Y-39859576D01*
X121023054Y-39750599D01*
X121023056Y-39750596D01*
X121023060Y-39750594D01*
X121173372Y-39600282D01*
X121173374Y-39600278D01*
X121173377Y-39600276D01*
X121298316Y-39428310D01*
X121298315Y-39428310D01*
X121298319Y-39428306D01*
X121394825Y-39238902D01*
X121460514Y-39036733D01*
X121493768Y-38826777D01*
X121493768Y-38614203D01*
X121460514Y-38404247D01*
X121394825Y-38202078D01*
X121298319Y-38012674D01*
X121298317Y-38012671D01*
X121298316Y-38012669D01*
X121173377Y-37840703D01*
X121023054Y-37690380D01*
X120851088Y-37565441D01*
X120661682Y-37468934D01*
X120661681Y-37468933D01*
X120661680Y-37468933D01*
X120459511Y-37403244D01*
X120459509Y-37403243D01*
X120459508Y-37403243D01*
X120298225Y-37377698D01*
X120249555Y-37369990D01*
X120036981Y-37369990D01*
X119988310Y-37377698D01*
X119827028Y-37403243D01*
X119624853Y-37468934D01*
X119435447Y-37565441D01*
X119263481Y-37690380D01*
X119113158Y-37840703D01*
X118988219Y-38012669D01*
X118891712Y-38202075D01*
X118826021Y-38404250D01*
X118792768Y-38614203D01*
X118792768Y-38826776D01*
X118103769Y-38826776D01*
X118103769Y-38724538D01*
X118104035Y-38716428D01*
X118105328Y-38696696D01*
X118120686Y-38462387D01*
X118122803Y-38446312D01*
X118171682Y-38200584D01*
X118175871Y-38184947D01*
X118256410Y-37947688D01*
X118262607Y-37932727D01*
X118373421Y-37708019D01*
X118381524Y-37693983D01*
X118520718Y-37485666D01*
X118530586Y-37472806D01*
X118533982Y-37468934D01*
X118695774Y-37284443D01*
X118707232Y-37272985D01*
X118895604Y-37107787D01*
X118908450Y-37097930D01*
X119116773Y-36958730D01*
X119130805Y-36950629D01*
X119355506Y-36839817D01*
X119370478Y-36833615D01*
X119607727Y-36753077D01*
X119623378Y-36748884D01*
X119869103Y-36700004D01*
X119885173Y-36697888D01*
X120138912Y-36681254D01*
X120147023Y-36680989D01*
X156892937Y-36680989D01*
X156892953Y-36680990D01*
G37*
G04 #@! TD.AperFunction*
G04 #@! TD*
M02*
