G04 #@! TF.GenerationSoftware,KiCad,Pcbnew,8.0.1*
G04 #@! TF.CreationDate,2024-07-15T10:08:48+02:00*
G04 #@! TF.ProjectId,RGB 2x2 with WS2811,52474220-3278-4322-9077-697468205753,rev?*
G04 #@! TF.SameCoordinates,Original*
G04 #@! TF.FileFunction,Legend,Top*
G04 #@! TF.FilePolarity,Positive*
%FSLAX46Y46*%
G04 Gerber Fmt 4.6, Leading zero omitted, Abs format (unit mm)*
G04 Created by KiCad (PCBNEW 8.0.1) date 2024-07-15 10:08:48*
%MOMM*%
%LPD*%
G01*
G04 APERTURE LIST*
G04 Aperture macros list*
%AMRoundRect*
0 Rectangle with rounded corners*
0 $1 Rounding radius*
0 $2 $3 $4 $5 $6 $7 $8 $9 X,Y pos of 4 corners*
0 Add a 4 corners polygon primitive as box body*
4,1,4,$2,$3,$4,$5,$6,$7,$8,$9,$2,$3,0*
0 Add four circle primitives for the rounded corners*
1,1,$1+$1,$2,$3*
1,1,$1+$1,$4,$5*
1,1,$1+$1,$6,$7*
1,1,$1+$1,$8,$9*
0 Add four rect primitives between the rounded corners*
20,1,$1+$1,$2,$3,$4,$5,0*
20,1,$1+$1,$4,$5,$6,$7,0*
20,1,$1+$1,$6,$7,$8,$9,0*
20,1,$1+$1,$8,$9,$2,$3,0*%
G04 Aperture macros list end*
%ADD10C,0.200000*%
%ADD11C,0.100000*%
%ADD12C,0.150000*%
%ADD13C,0.120000*%
%ADD14RoundRect,0.250000X-0.475000X0.337500X-0.475000X-0.337500X0.475000X-0.337500X0.475000X0.337500X0*%
%ADD15R,1.700000X1.700000*%
%ADD16O,1.700000X1.700000*%
%ADD17RoundRect,0.425000X0.425000X0.425000X-0.425000X0.425000X-0.425000X-0.425000X0.425000X-0.425000X0*%
%ADD18RoundRect,0.250000X-0.450000X0.350000X-0.450000X-0.350000X0.450000X-0.350000X0.450000X0.350000X0*%
%ADD19RoundRect,0.250000X0.450000X-0.350000X0.450000X0.350000X-0.450000X0.350000X-0.450000X-0.350000X0*%
%ADD20RoundRect,0.150000X-0.150000X0.825000X-0.150000X-0.825000X0.150000X-0.825000X0.150000X0.825000X0*%
%ADD21R,2.300000X2.300000*%
%ADD22C,2.200000*%
%ADD23RoundRect,0.250000X-0.350000X-0.450000X0.350000X-0.450000X0.350000X0.450000X-0.350000X0.450000X0*%
%ADD24O,3.500000X2.200000*%
%ADD25O,2.500000X1.500000*%
%ADD26R,2.500000X1.500000*%
%ADD27RoundRect,0.250000X0.475000X-0.337500X0.475000X0.337500X-0.475000X0.337500X-0.475000X-0.337500X0*%
%ADD28C,1.800000*%
%ADD29C,3.500000*%
%ADD30C,2.600000*%
%ADD31R,1.600000X1.600000*%
%ADD32O,1.600000X1.600000*%
%ADD33RoundRect,0.304347X-0.395653X0.945653X-0.395653X-0.945653X0.395653X-0.945653X0.395653X0.945653X0*%
%ADD34R,1.800000X1.800000*%
G04 APERTURE END LIST*
D10*
X133097268Y-82662491D02*
X143765268Y-82662491D01*
X143765268Y-87742491D01*
X133097268Y-87742491D01*
X133097268Y-82662491D01*
X143765268Y-84186491D02*
X144781268Y-84186491D01*
X144781268Y-86218491D01*
X143765268Y-86218491D01*
X143765268Y-84186491D01*
D11*
X120775723Y-59279996D02*
X120742390Y-59313330D01*
X120742390Y-59313330D02*
X120642390Y-59346663D01*
X120642390Y-59346663D02*
X120575723Y-59346663D01*
X120575723Y-59346663D02*
X120475723Y-59313330D01*
X120475723Y-59313330D02*
X120409057Y-59246663D01*
X120409057Y-59246663D02*
X120375723Y-59179996D01*
X120375723Y-59179996D02*
X120342390Y-59046663D01*
X120342390Y-59046663D02*
X120342390Y-58946663D01*
X120342390Y-58946663D02*
X120375723Y-58813330D01*
X120375723Y-58813330D02*
X120409057Y-58746663D01*
X120409057Y-58746663D02*
X120475723Y-58679996D01*
X120475723Y-58679996D02*
X120575723Y-58646663D01*
X120575723Y-58646663D02*
X120642390Y-58646663D01*
X120642390Y-58646663D02*
X120742390Y-58679996D01*
X120742390Y-58679996D02*
X120775723Y-58713330D01*
X121442390Y-59346663D02*
X121042390Y-59346663D01*
X121242390Y-59346663D02*
X121242390Y-58646663D01*
X121242390Y-58646663D02*
X121175723Y-58746663D01*
X121175723Y-58746663D02*
X121109057Y-58813330D01*
X121109057Y-58813330D02*
X121042390Y-58846663D01*
X121742390Y-59279996D02*
X121775724Y-59313330D01*
X121775724Y-59313330D02*
X121742390Y-59346663D01*
X121742390Y-59346663D02*
X121709057Y-59313330D01*
X121709057Y-59313330D02*
X121742390Y-59279996D01*
X121742390Y-59279996D02*
X121742390Y-59346663D01*
X122075723Y-59279996D02*
X122109057Y-59313330D01*
X122109057Y-59313330D02*
X122075723Y-59346663D01*
X122075723Y-59346663D02*
X122042390Y-59313330D01*
X122042390Y-59313330D02*
X122075723Y-59279996D01*
X122075723Y-59279996D02*
X122075723Y-59346663D01*
X122709056Y-58879996D02*
X122709056Y-59346663D01*
X122542390Y-58613330D02*
X122375723Y-59113330D01*
X122375723Y-59113330D02*
X122809056Y-59113330D01*
X123609056Y-58979996D02*
X124142390Y-58979996D01*
X124142390Y-59179996D02*
X123609056Y-59179996D01*
X125375723Y-59346663D02*
X124975723Y-59346663D01*
X125175723Y-59346663D02*
X125175723Y-58646663D01*
X125175723Y-58646663D02*
X125109056Y-58746663D01*
X125109056Y-58746663D02*
X125042390Y-58813330D01*
X125042390Y-58813330D02*
X124975723Y-58846663D01*
X125809057Y-58646663D02*
X125875723Y-58646663D01*
X125875723Y-58646663D02*
X125942390Y-58679996D01*
X125942390Y-58679996D02*
X125975723Y-58713330D01*
X125975723Y-58713330D02*
X126009057Y-58779996D01*
X126009057Y-58779996D02*
X126042390Y-58913330D01*
X126042390Y-58913330D02*
X126042390Y-59079996D01*
X126042390Y-59079996D02*
X126009057Y-59213330D01*
X126009057Y-59213330D02*
X125975723Y-59279996D01*
X125975723Y-59279996D02*
X125942390Y-59313330D01*
X125942390Y-59313330D02*
X125875723Y-59346663D01*
X125875723Y-59346663D02*
X125809057Y-59346663D01*
X125809057Y-59346663D02*
X125742390Y-59313330D01*
X125742390Y-59313330D02*
X125709057Y-59279996D01*
X125709057Y-59279996D02*
X125675723Y-59213330D01*
X125675723Y-59213330D02*
X125642390Y-59079996D01*
X125642390Y-59079996D02*
X125642390Y-58913330D01*
X125642390Y-58913330D02*
X125675723Y-58779996D01*
X125675723Y-58779996D02*
X125709057Y-58713330D01*
X125709057Y-58713330D02*
X125742390Y-58679996D01*
X125742390Y-58679996D02*
X125809057Y-58646663D01*
X126475724Y-58646663D02*
X126542390Y-58646663D01*
X126542390Y-58646663D02*
X126609057Y-58679996D01*
X126609057Y-58679996D02*
X126642390Y-58713330D01*
X126642390Y-58713330D02*
X126675724Y-58779996D01*
X126675724Y-58779996D02*
X126709057Y-58913330D01*
X126709057Y-58913330D02*
X126709057Y-59079996D01*
X126709057Y-59079996D02*
X126675724Y-59213330D01*
X126675724Y-59213330D02*
X126642390Y-59279996D01*
X126642390Y-59279996D02*
X126609057Y-59313330D01*
X126609057Y-59313330D02*
X126542390Y-59346663D01*
X126542390Y-59346663D02*
X126475724Y-59346663D01*
X126475724Y-59346663D02*
X126409057Y-59313330D01*
X126409057Y-59313330D02*
X126375724Y-59279996D01*
X126375724Y-59279996D02*
X126342390Y-59213330D01*
X126342390Y-59213330D02*
X126309057Y-59079996D01*
X126309057Y-59079996D02*
X126309057Y-58913330D01*
X126309057Y-58913330D02*
X126342390Y-58779996D01*
X126342390Y-58779996D02*
X126375724Y-58713330D01*
X126375724Y-58713330D02*
X126409057Y-58679996D01*
X126409057Y-58679996D02*
X126475724Y-58646663D01*
X127009057Y-58879996D02*
X127009057Y-59346663D01*
X127009057Y-58946663D02*
X127042391Y-58913330D01*
X127042391Y-58913330D02*
X127109057Y-58879996D01*
X127109057Y-58879996D02*
X127209057Y-58879996D01*
X127209057Y-58879996D02*
X127275724Y-58913330D01*
X127275724Y-58913330D02*
X127309057Y-58979996D01*
X127309057Y-58979996D02*
X127309057Y-59346663D01*
X127875724Y-58979996D02*
X127642390Y-58979996D01*
X127642390Y-59346663D02*
X127642390Y-58646663D01*
X127642390Y-58646663D02*
X127975724Y-58646663D01*
X120375723Y-59773624D02*
X120375723Y-60340291D01*
X120375723Y-60340291D02*
X120409057Y-60406957D01*
X120409057Y-60406957D02*
X120442390Y-60440291D01*
X120442390Y-60440291D02*
X120509057Y-60473624D01*
X120509057Y-60473624D02*
X120642390Y-60473624D01*
X120642390Y-60473624D02*
X120709057Y-60440291D01*
X120709057Y-60440291D02*
X120742390Y-60406957D01*
X120742390Y-60406957D02*
X120775723Y-60340291D01*
X120775723Y-60340291D02*
X120775723Y-59773624D01*
X121075723Y-59840291D02*
X121109056Y-59806957D01*
X121109056Y-59806957D02*
X121175723Y-59773624D01*
X121175723Y-59773624D02*
X121342390Y-59773624D01*
X121342390Y-59773624D02*
X121409056Y-59806957D01*
X121409056Y-59806957D02*
X121442390Y-59840291D01*
X121442390Y-59840291D02*
X121475723Y-59906957D01*
X121475723Y-59906957D02*
X121475723Y-59973624D01*
X121475723Y-59973624D02*
X121442390Y-60073624D01*
X121442390Y-60073624D02*
X121042390Y-60473624D01*
X121042390Y-60473624D02*
X121475723Y-60473624D01*
X121775723Y-60406957D02*
X121809057Y-60440291D01*
X121809057Y-60440291D02*
X121775723Y-60473624D01*
X121775723Y-60473624D02*
X121742390Y-60440291D01*
X121742390Y-60440291D02*
X121775723Y-60406957D01*
X121775723Y-60406957D02*
X121775723Y-60473624D01*
X122109056Y-60406957D02*
X122142390Y-60440291D01*
X122142390Y-60440291D02*
X122109056Y-60473624D01*
X122109056Y-60473624D02*
X122075723Y-60440291D01*
X122075723Y-60440291D02*
X122109056Y-60406957D01*
X122109056Y-60406957D02*
X122109056Y-60473624D01*
X122775723Y-59773624D02*
X122442389Y-59773624D01*
X122442389Y-59773624D02*
X122409056Y-60106957D01*
X122409056Y-60106957D02*
X122442389Y-60073624D01*
X122442389Y-60073624D02*
X122509056Y-60040291D01*
X122509056Y-60040291D02*
X122675723Y-60040291D01*
X122675723Y-60040291D02*
X122742389Y-60073624D01*
X122742389Y-60073624D02*
X122775723Y-60106957D01*
X122775723Y-60106957D02*
X122809056Y-60173624D01*
X122809056Y-60173624D02*
X122809056Y-60340291D01*
X122809056Y-60340291D02*
X122775723Y-60406957D01*
X122775723Y-60406957D02*
X122742389Y-60440291D01*
X122742389Y-60440291D02*
X122675723Y-60473624D01*
X122675723Y-60473624D02*
X122509056Y-60473624D01*
X122509056Y-60473624D02*
X122442389Y-60440291D01*
X122442389Y-60440291D02*
X122409056Y-60406957D01*
X123642389Y-60106957D02*
X124175723Y-60106957D01*
X124175723Y-60306957D02*
X123642389Y-60306957D01*
X124975723Y-59773624D02*
X125142389Y-60473624D01*
X125142389Y-60473624D02*
X125275723Y-59973624D01*
X125275723Y-59973624D02*
X125409056Y-60473624D01*
X125409056Y-60473624D02*
X125575723Y-59773624D01*
X125809056Y-60440291D02*
X125909056Y-60473624D01*
X125909056Y-60473624D02*
X126075723Y-60473624D01*
X126075723Y-60473624D02*
X126142389Y-60440291D01*
X126142389Y-60440291D02*
X126175723Y-60406957D01*
X126175723Y-60406957D02*
X126209056Y-60340291D01*
X126209056Y-60340291D02*
X126209056Y-60273624D01*
X126209056Y-60273624D02*
X126175723Y-60206957D01*
X126175723Y-60206957D02*
X126142389Y-60173624D01*
X126142389Y-60173624D02*
X126075723Y-60140291D01*
X126075723Y-60140291D02*
X125942389Y-60106957D01*
X125942389Y-60106957D02*
X125875723Y-60073624D01*
X125875723Y-60073624D02*
X125842389Y-60040291D01*
X125842389Y-60040291D02*
X125809056Y-59973624D01*
X125809056Y-59973624D02*
X125809056Y-59906957D01*
X125809056Y-59906957D02*
X125842389Y-59840291D01*
X125842389Y-59840291D02*
X125875723Y-59806957D01*
X125875723Y-59806957D02*
X125942389Y-59773624D01*
X125942389Y-59773624D02*
X126109056Y-59773624D01*
X126109056Y-59773624D02*
X126209056Y-59806957D01*
X126475723Y-59840291D02*
X126509056Y-59806957D01*
X126509056Y-59806957D02*
X126575723Y-59773624D01*
X126575723Y-59773624D02*
X126742390Y-59773624D01*
X126742390Y-59773624D02*
X126809056Y-59806957D01*
X126809056Y-59806957D02*
X126842390Y-59840291D01*
X126842390Y-59840291D02*
X126875723Y-59906957D01*
X126875723Y-59906957D02*
X126875723Y-59973624D01*
X126875723Y-59973624D02*
X126842390Y-60073624D01*
X126842390Y-60073624D02*
X126442390Y-60473624D01*
X126442390Y-60473624D02*
X126875723Y-60473624D01*
X127275723Y-60073624D02*
X127209057Y-60040291D01*
X127209057Y-60040291D02*
X127175723Y-60006957D01*
X127175723Y-60006957D02*
X127142390Y-59940291D01*
X127142390Y-59940291D02*
X127142390Y-59906957D01*
X127142390Y-59906957D02*
X127175723Y-59840291D01*
X127175723Y-59840291D02*
X127209057Y-59806957D01*
X127209057Y-59806957D02*
X127275723Y-59773624D01*
X127275723Y-59773624D02*
X127409057Y-59773624D01*
X127409057Y-59773624D02*
X127475723Y-59806957D01*
X127475723Y-59806957D02*
X127509057Y-59840291D01*
X127509057Y-59840291D02*
X127542390Y-59906957D01*
X127542390Y-59906957D02*
X127542390Y-59940291D01*
X127542390Y-59940291D02*
X127509057Y-60006957D01*
X127509057Y-60006957D02*
X127475723Y-60040291D01*
X127475723Y-60040291D02*
X127409057Y-60073624D01*
X127409057Y-60073624D02*
X127275723Y-60073624D01*
X127275723Y-60073624D02*
X127209057Y-60106957D01*
X127209057Y-60106957D02*
X127175723Y-60140291D01*
X127175723Y-60140291D02*
X127142390Y-60206957D01*
X127142390Y-60206957D02*
X127142390Y-60340291D01*
X127142390Y-60340291D02*
X127175723Y-60406957D01*
X127175723Y-60406957D02*
X127209057Y-60440291D01*
X127209057Y-60440291D02*
X127275723Y-60473624D01*
X127275723Y-60473624D02*
X127409057Y-60473624D01*
X127409057Y-60473624D02*
X127475723Y-60440291D01*
X127475723Y-60440291D02*
X127509057Y-60406957D01*
X127509057Y-60406957D02*
X127542390Y-60340291D01*
X127542390Y-60340291D02*
X127542390Y-60206957D01*
X127542390Y-60206957D02*
X127509057Y-60140291D01*
X127509057Y-60140291D02*
X127475723Y-60106957D01*
X127475723Y-60106957D02*
X127409057Y-60073624D01*
X128209057Y-60473624D02*
X127809057Y-60473624D01*
X128009057Y-60473624D02*
X128009057Y-59773624D01*
X128009057Y-59773624D02*
X127942390Y-59873624D01*
X127942390Y-59873624D02*
X127875724Y-59940291D01*
X127875724Y-59940291D02*
X127809057Y-59973624D01*
X128875724Y-60473624D02*
X128475724Y-60473624D01*
X128675724Y-60473624D02*
X128675724Y-59773624D01*
X128675724Y-59773624D02*
X128609057Y-59873624D01*
X128609057Y-59873624D02*
X128542391Y-59940291D01*
X128542391Y-59940291D02*
X128475724Y-59973624D01*
D12*
X156703571Y-60528865D02*
X156665475Y-60566961D01*
X156665475Y-60566961D02*
X156551190Y-60605056D01*
X156551190Y-60605056D02*
X156474999Y-60605056D01*
X156474999Y-60605056D02*
X156360713Y-60566961D01*
X156360713Y-60566961D02*
X156284523Y-60490770D01*
X156284523Y-60490770D02*
X156246428Y-60414580D01*
X156246428Y-60414580D02*
X156208332Y-60262199D01*
X156208332Y-60262199D02*
X156208332Y-60147913D01*
X156208332Y-60147913D02*
X156246428Y-59995532D01*
X156246428Y-59995532D02*
X156284523Y-59919341D01*
X156284523Y-59919341D02*
X156360713Y-59843151D01*
X156360713Y-59843151D02*
X156474999Y-59805056D01*
X156474999Y-59805056D02*
X156551190Y-59805056D01*
X156551190Y-59805056D02*
X156665475Y-59843151D01*
X156665475Y-59843151D02*
X156703571Y-59881246D01*
X157008332Y-59881246D02*
X157046428Y-59843151D01*
X157046428Y-59843151D02*
X157122618Y-59805056D01*
X157122618Y-59805056D02*
X157313094Y-59805056D01*
X157313094Y-59805056D02*
X157389285Y-59843151D01*
X157389285Y-59843151D02*
X157427380Y-59881246D01*
X157427380Y-59881246D02*
X157465475Y-59957437D01*
X157465475Y-59957437D02*
X157465475Y-60033627D01*
X157465475Y-60033627D02*
X157427380Y-60147913D01*
X157427380Y-60147913D02*
X156970237Y-60605056D01*
X156970237Y-60605056D02*
X157465475Y-60605056D01*
X156703571Y-63104775D02*
X156665475Y-63142871D01*
X156665475Y-63142871D02*
X156551190Y-63180966D01*
X156551190Y-63180966D02*
X156474999Y-63180966D01*
X156474999Y-63180966D02*
X156360713Y-63142871D01*
X156360713Y-63142871D02*
X156284523Y-63066680D01*
X156284523Y-63066680D02*
X156246428Y-62990490D01*
X156246428Y-62990490D02*
X156208332Y-62838109D01*
X156208332Y-62838109D02*
X156208332Y-62723823D01*
X156208332Y-62723823D02*
X156246428Y-62571442D01*
X156246428Y-62571442D02*
X156284523Y-62495251D01*
X156284523Y-62495251D02*
X156360713Y-62419061D01*
X156360713Y-62419061D02*
X156474999Y-62380966D01*
X156474999Y-62380966D02*
X156551190Y-62380966D01*
X156551190Y-62380966D02*
X156665475Y-62419061D01*
X156665475Y-62419061D02*
X156703571Y-62457156D01*
X157465475Y-63180966D02*
X157008332Y-63180966D01*
X157236904Y-63180966D02*
X157236904Y-62380966D01*
X157236904Y-62380966D02*
X157160713Y-62495251D01*
X157160713Y-62495251D02*
X157084523Y-62571442D01*
X157084523Y-62571442D02*
X157008332Y-62609537D01*
X156703571Y-65756876D02*
X156436904Y-65375923D01*
X156246428Y-65756876D02*
X156246428Y-64956876D01*
X156246428Y-64956876D02*
X156551190Y-64956876D01*
X156551190Y-64956876D02*
X156627380Y-64994971D01*
X156627380Y-64994971D02*
X156665475Y-65033066D01*
X156665475Y-65033066D02*
X156703571Y-65109257D01*
X156703571Y-65109257D02*
X156703571Y-65223542D01*
X156703571Y-65223542D02*
X156665475Y-65299733D01*
X156665475Y-65299733D02*
X156627380Y-65337828D01*
X156627380Y-65337828D02*
X156551190Y-65375923D01*
X156551190Y-65375923D02*
X156246428Y-65375923D01*
X157008332Y-65033066D02*
X157046428Y-64994971D01*
X157046428Y-64994971D02*
X157122618Y-64956876D01*
X157122618Y-64956876D02*
X157313094Y-64956876D01*
X157313094Y-64956876D02*
X157389285Y-64994971D01*
X157389285Y-64994971D02*
X157427380Y-65033066D01*
X157427380Y-65033066D02*
X157465475Y-65109257D01*
X157465475Y-65109257D02*
X157465475Y-65185447D01*
X157465475Y-65185447D02*
X157427380Y-65299733D01*
X157427380Y-65299733D02*
X156970237Y-65756876D01*
X156970237Y-65756876D02*
X157465475Y-65756876D01*
X156703571Y-68332786D02*
X156436904Y-67951833D01*
X156246428Y-68332786D02*
X156246428Y-67532786D01*
X156246428Y-67532786D02*
X156551190Y-67532786D01*
X156551190Y-67532786D02*
X156627380Y-67570881D01*
X156627380Y-67570881D02*
X156665475Y-67608976D01*
X156665475Y-67608976D02*
X156703571Y-67685167D01*
X156703571Y-67685167D02*
X156703571Y-67799452D01*
X156703571Y-67799452D02*
X156665475Y-67875643D01*
X156665475Y-67875643D02*
X156627380Y-67913738D01*
X156627380Y-67913738D02*
X156551190Y-67951833D01*
X156551190Y-67951833D02*
X156246428Y-67951833D01*
X157465475Y-68332786D02*
X157008332Y-68332786D01*
X157236904Y-68332786D02*
X157236904Y-67532786D01*
X157236904Y-67532786D02*
X157160713Y-67647071D01*
X157160713Y-67647071D02*
X157084523Y-67723262D01*
X157084523Y-67723262D02*
X157008332Y-67761357D01*
X122598428Y-37628129D02*
X122845094Y-38368129D01*
X122845094Y-38368129D02*
X123091761Y-37628129D01*
X123655571Y-38368129D02*
X123655571Y-37628129D01*
X123655571Y-38332891D02*
X123585095Y-38368129D01*
X123585095Y-38368129D02*
X123444142Y-38368129D01*
X123444142Y-38368129D02*
X123373666Y-38332891D01*
X123373666Y-38332891D02*
X123338428Y-38297652D01*
X123338428Y-38297652D02*
X123303190Y-38227176D01*
X123303190Y-38227176D02*
X123303190Y-38015748D01*
X123303190Y-38015748D02*
X123338428Y-37945271D01*
X123338428Y-37945271D02*
X123373666Y-37910033D01*
X123373666Y-37910033D02*
X123444142Y-37874795D01*
X123444142Y-37874795D02*
X123585095Y-37874795D01*
X123585095Y-37874795D02*
X123655571Y-37910033D01*
X124325095Y-38368129D02*
X124325095Y-37628129D01*
X124325095Y-38332891D02*
X124254619Y-38368129D01*
X124254619Y-38368129D02*
X124113666Y-38368129D01*
X124113666Y-38368129D02*
X124043190Y-38332891D01*
X124043190Y-38332891D02*
X124007952Y-38297652D01*
X124007952Y-38297652D02*
X123972714Y-38227176D01*
X123972714Y-38227176D02*
X123972714Y-38015748D01*
X123972714Y-38015748D02*
X124007952Y-37945271D01*
X124007952Y-37945271D02*
X124043190Y-37910033D01*
X124043190Y-37910033D02*
X124113666Y-37874795D01*
X124113666Y-37874795D02*
X124254619Y-37874795D01*
X124254619Y-37874795D02*
X124325095Y-37910033D01*
X126051763Y-37980510D02*
X126157477Y-38015748D01*
X126157477Y-38015748D02*
X126192715Y-38050986D01*
X126192715Y-38050986D02*
X126227953Y-38121462D01*
X126227953Y-38121462D02*
X126227953Y-38227176D01*
X126227953Y-38227176D02*
X126192715Y-38297652D01*
X126192715Y-38297652D02*
X126157477Y-38332891D01*
X126157477Y-38332891D02*
X126087001Y-38368129D01*
X126087001Y-38368129D02*
X125805096Y-38368129D01*
X125805096Y-38368129D02*
X125805096Y-37628129D01*
X125805096Y-37628129D02*
X126051763Y-37628129D01*
X126051763Y-37628129D02*
X126122239Y-37663367D01*
X126122239Y-37663367D02*
X126157477Y-37698605D01*
X126157477Y-37698605D02*
X126192715Y-37769081D01*
X126192715Y-37769081D02*
X126192715Y-37839557D01*
X126192715Y-37839557D02*
X126157477Y-37910033D01*
X126157477Y-37910033D02*
X126122239Y-37945271D01*
X126122239Y-37945271D02*
X126051763Y-37980510D01*
X126051763Y-37980510D02*
X125805096Y-37980510D01*
X126862239Y-37874795D02*
X126862239Y-38368129D01*
X126686048Y-37592891D02*
X126509858Y-38121462D01*
X126509858Y-38121462D02*
X126967953Y-38121462D01*
X128765097Y-37663367D02*
X128694621Y-37628129D01*
X128694621Y-37628129D02*
X128588907Y-37628129D01*
X128588907Y-37628129D02*
X128483192Y-37663367D01*
X128483192Y-37663367D02*
X128412716Y-37733843D01*
X128412716Y-37733843D02*
X128377478Y-37804319D01*
X128377478Y-37804319D02*
X128342240Y-37945271D01*
X128342240Y-37945271D02*
X128342240Y-38050986D01*
X128342240Y-38050986D02*
X128377478Y-38191938D01*
X128377478Y-38191938D02*
X128412716Y-38262414D01*
X128412716Y-38262414D02*
X128483192Y-38332891D01*
X128483192Y-38332891D02*
X128588907Y-38368129D01*
X128588907Y-38368129D02*
X128659383Y-38368129D01*
X128659383Y-38368129D02*
X128765097Y-38332891D01*
X128765097Y-38332891D02*
X128800335Y-38297652D01*
X128800335Y-38297652D02*
X128800335Y-38050986D01*
X128800335Y-38050986D02*
X128659383Y-38050986D01*
X129434621Y-37874795D02*
X129434621Y-38368129D01*
X129258430Y-37592891D02*
X129082240Y-38121462D01*
X129082240Y-38121462D02*
X129540335Y-38121462D01*
X131372717Y-38368129D02*
X131126050Y-38015748D01*
X130949860Y-38368129D02*
X130949860Y-37628129D01*
X130949860Y-37628129D02*
X131231765Y-37628129D01*
X131231765Y-37628129D02*
X131302241Y-37663367D01*
X131302241Y-37663367D02*
X131337479Y-37698605D01*
X131337479Y-37698605D02*
X131372717Y-37769081D01*
X131372717Y-37769081D02*
X131372717Y-37874795D01*
X131372717Y-37874795D02*
X131337479Y-37945271D01*
X131337479Y-37945271D02*
X131302241Y-37980510D01*
X131302241Y-37980510D02*
X131231765Y-38015748D01*
X131231765Y-38015748D02*
X130949860Y-38015748D01*
X132007003Y-37874795D02*
X132007003Y-38368129D01*
X131830812Y-37592891D02*
X131654622Y-38121462D01*
X131654622Y-38121462D02*
X132112717Y-38121462D01*
X133768909Y-37980510D02*
X133874623Y-38015748D01*
X133874623Y-38015748D02*
X133909861Y-38050986D01*
X133909861Y-38050986D02*
X133945099Y-38121462D01*
X133945099Y-38121462D02*
X133945099Y-38227176D01*
X133945099Y-38227176D02*
X133909861Y-38297652D01*
X133909861Y-38297652D02*
X133874623Y-38332891D01*
X133874623Y-38332891D02*
X133804147Y-38368129D01*
X133804147Y-38368129D02*
X133522242Y-38368129D01*
X133522242Y-38368129D02*
X133522242Y-37628129D01*
X133522242Y-37628129D02*
X133768909Y-37628129D01*
X133768909Y-37628129D02*
X133839385Y-37663367D01*
X133839385Y-37663367D02*
X133874623Y-37698605D01*
X133874623Y-37698605D02*
X133909861Y-37769081D01*
X133909861Y-37769081D02*
X133909861Y-37839557D01*
X133909861Y-37839557D02*
X133874623Y-37910033D01*
X133874623Y-37910033D02*
X133839385Y-37945271D01*
X133839385Y-37945271D02*
X133768909Y-37980510D01*
X133768909Y-37980510D02*
X133522242Y-37980510D01*
X134191766Y-37628129D02*
X134649861Y-37628129D01*
X134649861Y-37628129D02*
X134403194Y-37910033D01*
X134403194Y-37910033D02*
X134508909Y-37910033D01*
X134508909Y-37910033D02*
X134579385Y-37945271D01*
X134579385Y-37945271D02*
X134614623Y-37980510D01*
X134614623Y-37980510D02*
X134649861Y-38050986D01*
X134649861Y-38050986D02*
X134649861Y-38227176D01*
X134649861Y-38227176D02*
X134614623Y-38297652D01*
X134614623Y-38297652D02*
X134579385Y-38332891D01*
X134579385Y-38332891D02*
X134508909Y-38368129D01*
X134508909Y-38368129D02*
X134297480Y-38368129D01*
X134297480Y-38368129D02*
X134227004Y-38332891D01*
X134227004Y-38332891D02*
X134191766Y-38297652D01*
X136482243Y-37663367D02*
X136411767Y-37628129D01*
X136411767Y-37628129D02*
X136306053Y-37628129D01*
X136306053Y-37628129D02*
X136200338Y-37663367D01*
X136200338Y-37663367D02*
X136129862Y-37733843D01*
X136129862Y-37733843D02*
X136094624Y-37804319D01*
X136094624Y-37804319D02*
X136059386Y-37945271D01*
X136059386Y-37945271D02*
X136059386Y-38050986D01*
X136059386Y-38050986D02*
X136094624Y-38191938D01*
X136094624Y-38191938D02*
X136129862Y-38262414D01*
X136129862Y-38262414D02*
X136200338Y-38332891D01*
X136200338Y-38332891D02*
X136306053Y-38368129D01*
X136306053Y-38368129D02*
X136376529Y-38368129D01*
X136376529Y-38368129D02*
X136482243Y-38332891D01*
X136482243Y-38332891D02*
X136517481Y-38297652D01*
X136517481Y-38297652D02*
X136517481Y-38050986D01*
X136517481Y-38050986D02*
X136376529Y-38050986D01*
X136764148Y-37628129D02*
X137222243Y-37628129D01*
X137222243Y-37628129D02*
X136975576Y-37910033D01*
X136975576Y-37910033D02*
X137081291Y-37910033D01*
X137081291Y-37910033D02*
X137151767Y-37945271D01*
X137151767Y-37945271D02*
X137187005Y-37980510D01*
X137187005Y-37980510D02*
X137222243Y-38050986D01*
X137222243Y-38050986D02*
X137222243Y-38227176D01*
X137222243Y-38227176D02*
X137187005Y-38297652D01*
X137187005Y-38297652D02*
X137151767Y-38332891D01*
X137151767Y-38332891D02*
X137081291Y-38368129D01*
X137081291Y-38368129D02*
X136869862Y-38368129D01*
X136869862Y-38368129D02*
X136799386Y-38332891D01*
X136799386Y-38332891D02*
X136764148Y-38297652D01*
X139089863Y-38368129D02*
X138843196Y-38015748D01*
X138667006Y-38368129D02*
X138667006Y-37628129D01*
X138667006Y-37628129D02*
X138948911Y-37628129D01*
X138948911Y-37628129D02*
X139019387Y-37663367D01*
X139019387Y-37663367D02*
X139054625Y-37698605D01*
X139054625Y-37698605D02*
X139089863Y-37769081D01*
X139089863Y-37769081D02*
X139089863Y-37874795D01*
X139089863Y-37874795D02*
X139054625Y-37945271D01*
X139054625Y-37945271D02*
X139019387Y-37980510D01*
X139019387Y-37980510D02*
X138948911Y-38015748D01*
X138948911Y-38015748D02*
X138667006Y-38015748D01*
X139336530Y-37628129D02*
X139794625Y-37628129D01*
X139794625Y-37628129D02*
X139547958Y-37910033D01*
X139547958Y-37910033D02*
X139653673Y-37910033D01*
X139653673Y-37910033D02*
X139724149Y-37945271D01*
X139724149Y-37945271D02*
X139759387Y-37980510D01*
X139759387Y-37980510D02*
X139794625Y-38050986D01*
X139794625Y-38050986D02*
X139794625Y-38227176D01*
X139794625Y-38227176D02*
X139759387Y-38297652D01*
X139759387Y-38297652D02*
X139724149Y-38332891D01*
X139724149Y-38332891D02*
X139653673Y-38368129D01*
X139653673Y-38368129D02*
X139442244Y-38368129D01*
X139442244Y-38368129D02*
X139371768Y-38332891D01*
X139371768Y-38332891D02*
X139336530Y-38297652D01*
X141486055Y-37980510D02*
X141591769Y-38015748D01*
X141591769Y-38015748D02*
X141627007Y-38050986D01*
X141627007Y-38050986D02*
X141662245Y-38121462D01*
X141662245Y-38121462D02*
X141662245Y-38227176D01*
X141662245Y-38227176D02*
X141627007Y-38297652D01*
X141627007Y-38297652D02*
X141591769Y-38332891D01*
X141591769Y-38332891D02*
X141521293Y-38368129D01*
X141521293Y-38368129D02*
X141239388Y-38368129D01*
X141239388Y-38368129D02*
X141239388Y-37628129D01*
X141239388Y-37628129D02*
X141486055Y-37628129D01*
X141486055Y-37628129D02*
X141556531Y-37663367D01*
X141556531Y-37663367D02*
X141591769Y-37698605D01*
X141591769Y-37698605D02*
X141627007Y-37769081D01*
X141627007Y-37769081D02*
X141627007Y-37839557D01*
X141627007Y-37839557D02*
X141591769Y-37910033D01*
X141591769Y-37910033D02*
X141556531Y-37945271D01*
X141556531Y-37945271D02*
X141486055Y-37980510D01*
X141486055Y-37980510D02*
X141239388Y-37980510D01*
X141944150Y-37698605D02*
X141979388Y-37663367D01*
X141979388Y-37663367D02*
X142049864Y-37628129D01*
X142049864Y-37628129D02*
X142226055Y-37628129D01*
X142226055Y-37628129D02*
X142296531Y-37663367D01*
X142296531Y-37663367D02*
X142331769Y-37698605D01*
X142331769Y-37698605D02*
X142367007Y-37769081D01*
X142367007Y-37769081D02*
X142367007Y-37839557D01*
X142367007Y-37839557D02*
X142331769Y-37945271D01*
X142331769Y-37945271D02*
X141908912Y-38368129D01*
X141908912Y-38368129D02*
X142367007Y-38368129D01*
X144199389Y-37663367D02*
X144128913Y-37628129D01*
X144128913Y-37628129D02*
X144023199Y-37628129D01*
X144023199Y-37628129D02*
X143917484Y-37663367D01*
X143917484Y-37663367D02*
X143847008Y-37733843D01*
X143847008Y-37733843D02*
X143811770Y-37804319D01*
X143811770Y-37804319D02*
X143776532Y-37945271D01*
X143776532Y-37945271D02*
X143776532Y-38050986D01*
X143776532Y-38050986D02*
X143811770Y-38191938D01*
X143811770Y-38191938D02*
X143847008Y-38262414D01*
X143847008Y-38262414D02*
X143917484Y-38332891D01*
X143917484Y-38332891D02*
X144023199Y-38368129D01*
X144023199Y-38368129D02*
X144093675Y-38368129D01*
X144093675Y-38368129D02*
X144199389Y-38332891D01*
X144199389Y-38332891D02*
X144234627Y-38297652D01*
X144234627Y-38297652D02*
X144234627Y-38050986D01*
X144234627Y-38050986D02*
X144093675Y-38050986D01*
X144516532Y-37698605D02*
X144551770Y-37663367D01*
X144551770Y-37663367D02*
X144622246Y-37628129D01*
X144622246Y-37628129D02*
X144798437Y-37628129D01*
X144798437Y-37628129D02*
X144868913Y-37663367D01*
X144868913Y-37663367D02*
X144904151Y-37698605D01*
X144904151Y-37698605D02*
X144939389Y-37769081D01*
X144939389Y-37769081D02*
X144939389Y-37839557D01*
X144939389Y-37839557D02*
X144904151Y-37945271D01*
X144904151Y-37945271D02*
X144481294Y-38368129D01*
X144481294Y-38368129D02*
X144939389Y-38368129D01*
X146807009Y-38368129D02*
X146560342Y-38015748D01*
X146384152Y-38368129D02*
X146384152Y-37628129D01*
X146384152Y-37628129D02*
X146666057Y-37628129D01*
X146666057Y-37628129D02*
X146736533Y-37663367D01*
X146736533Y-37663367D02*
X146771771Y-37698605D01*
X146771771Y-37698605D02*
X146807009Y-37769081D01*
X146807009Y-37769081D02*
X146807009Y-37874795D01*
X146807009Y-37874795D02*
X146771771Y-37945271D01*
X146771771Y-37945271D02*
X146736533Y-37980510D01*
X146736533Y-37980510D02*
X146666057Y-38015748D01*
X146666057Y-38015748D02*
X146384152Y-38015748D01*
X147088914Y-37698605D02*
X147124152Y-37663367D01*
X147124152Y-37663367D02*
X147194628Y-37628129D01*
X147194628Y-37628129D02*
X147370819Y-37628129D01*
X147370819Y-37628129D02*
X147441295Y-37663367D01*
X147441295Y-37663367D02*
X147476533Y-37698605D01*
X147476533Y-37698605D02*
X147511771Y-37769081D01*
X147511771Y-37769081D02*
X147511771Y-37839557D01*
X147511771Y-37839557D02*
X147476533Y-37945271D01*
X147476533Y-37945271D02*
X147053676Y-38368129D01*
X147053676Y-38368129D02*
X147511771Y-38368129D01*
X149203201Y-37980510D02*
X149308915Y-38015748D01*
X149308915Y-38015748D02*
X149344153Y-38050986D01*
X149344153Y-38050986D02*
X149379391Y-38121462D01*
X149379391Y-38121462D02*
X149379391Y-38227176D01*
X149379391Y-38227176D02*
X149344153Y-38297652D01*
X149344153Y-38297652D02*
X149308915Y-38332891D01*
X149308915Y-38332891D02*
X149238439Y-38368129D01*
X149238439Y-38368129D02*
X148956534Y-38368129D01*
X148956534Y-38368129D02*
X148956534Y-37628129D01*
X148956534Y-37628129D02*
X149203201Y-37628129D01*
X149203201Y-37628129D02*
X149273677Y-37663367D01*
X149273677Y-37663367D02*
X149308915Y-37698605D01*
X149308915Y-37698605D02*
X149344153Y-37769081D01*
X149344153Y-37769081D02*
X149344153Y-37839557D01*
X149344153Y-37839557D02*
X149308915Y-37910033D01*
X149308915Y-37910033D02*
X149273677Y-37945271D01*
X149273677Y-37945271D02*
X149203201Y-37980510D01*
X149203201Y-37980510D02*
X148956534Y-37980510D01*
X150084153Y-38368129D02*
X149661296Y-38368129D01*
X149872724Y-38368129D02*
X149872724Y-37628129D01*
X149872724Y-37628129D02*
X149802248Y-37733843D01*
X149802248Y-37733843D02*
X149731772Y-37804319D01*
X149731772Y-37804319D02*
X149661296Y-37839557D01*
X151916535Y-37663367D02*
X151846059Y-37628129D01*
X151846059Y-37628129D02*
X151740345Y-37628129D01*
X151740345Y-37628129D02*
X151634630Y-37663367D01*
X151634630Y-37663367D02*
X151564154Y-37733843D01*
X151564154Y-37733843D02*
X151528916Y-37804319D01*
X151528916Y-37804319D02*
X151493678Y-37945271D01*
X151493678Y-37945271D02*
X151493678Y-38050986D01*
X151493678Y-38050986D02*
X151528916Y-38191938D01*
X151528916Y-38191938D02*
X151564154Y-38262414D01*
X151564154Y-38262414D02*
X151634630Y-38332891D01*
X151634630Y-38332891D02*
X151740345Y-38368129D01*
X151740345Y-38368129D02*
X151810821Y-38368129D01*
X151810821Y-38368129D02*
X151916535Y-38332891D01*
X151916535Y-38332891D02*
X151951773Y-38297652D01*
X151951773Y-38297652D02*
X151951773Y-38050986D01*
X151951773Y-38050986D02*
X151810821Y-38050986D01*
X152656535Y-38368129D02*
X152233678Y-38368129D01*
X152445106Y-38368129D02*
X152445106Y-37628129D01*
X152445106Y-37628129D02*
X152374630Y-37733843D01*
X152374630Y-37733843D02*
X152304154Y-37804319D01*
X152304154Y-37804319D02*
X152233678Y-37839557D01*
X154524155Y-38368129D02*
X154277488Y-38015748D01*
X154101298Y-38368129D02*
X154101298Y-37628129D01*
X154101298Y-37628129D02*
X154383203Y-37628129D01*
X154383203Y-37628129D02*
X154453679Y-37663367D01*
X154453679Y-37663367D02*
X154488917Y-37698605D01*
X154488917Y-37698605D02*
X154524155Y-37769081D01*
X154524155Y-37769081D02*
X154524155Y-37874795D01*
X154524155Y-37874795D02*
X154488917Y-37945271D01*
X154488917Y-37945271D02*
X154453679Y-37980510D01*
X154453679Y-37980510D02*
X154383203Y-38015748D01*
X154383203Y-38015748D02*
X154101298Y-38015748D01*
X155228917Y-38368129D02*
X154806060Y-38368129D01*
X155017488Y-38368129D02*
X155017488Y-37628129D01*
X155017488Y-37628129D02*
X154947012Y-37733843D01*
X154947012Y-37733843D02*
X154876536Y-37804319D01*
X154876536Y-37804319D02*
X154806060Y-37839557D01*
D11*
X126900601Y-45830456D02*
X126867268Y-45863790D01*
X126867268Y-45863790D02*
X126767268Y-45897123D01*
X126767268Y-45897123D02*
X126700601Y-45897123D01*
X126700601Y-45897123D02*
X126600601Y-45863790D01*
X126600601Y-45863790D02*
X126533935Y-45797123D01*
X126533935Y-45797123D02*
X126500601Y-45730456D01*
X126500601Y-45730456D02*
X126467268Y-45597123D01*
X126467268Y-45597123D02*
X126467268Y-45497123D01*
X126467268Y-45497123D02*
X126500601Y-45363790D01*
X126500601Y-45363790D02*
X126533935Y-45297123D01*
X126533935Y-45297123D02*
X126600601Y-45230456D01*
X126600601Y-45230456D02*
X126700601Y-45197123D01*
X126700601Y-45197123D02*
X126767268Y-45197123D01*
X126767268Y-45197123D02*
X126867268Y-45230456D01*
X126867268Y-45230456D02*
X126900601Y-45263790D01*
X127500601Y-45430456D02*
X127500601Y-45897123D01*
X127333935Y-45163790D02*
X127167268Y-45663790D01*
X127167268Y-45663790D02*
X127600601Y-45663790D01*
X145426601Y-51926456D02*
X145393268Y-51959790D01*
X145393268Y-51959790D02*
X145293268Y-51993123D01*
X145293268Y-51993123D02*
X145226601Y-51993123D01*
X145226601Y-51993123D02*
X145126601Y-51959790D01*
X145126601Y-51959790D02*
X145059935Y-51893123D01*
X145059935Y-51893123D02*
X145026601Y-51826456D01*
X145026601Y-51826456D02*
X144993268Y-51693123D01*
X144993268Y-51693123D02*
X144993268Y-51593123D01*
X144993268Y-51593123D02*
X145026601Y-51459790D01*
X145026601Y-51459790D02*
X145059935Y-51393123D01*
X145059935Y-51393123D02*
X145126601Y-51326456D01*
X145126601Y-51326456D02*
X145226601Y-51293123D01*
X145226601Y-51293123D02*
X145293268Y-51293123D01*
X145293268Y-51293123D02*
X145393268Y-51326456D01*
X145393268Y-51326456D02*
X145426601Y-51359790D01*
X145693268Y-51359790D02*
X145726601Y-51326456D01*
X145726601Y-51326456D02*
X145793268Y-51293123D01*
X145793268Y-51293123D02*
X145959935Y-51293123D01*
X145959935Y-51293123D02*
X146026601Y-51326456D01*
X146026601Y-51326456D02*
X146059935Y-51359790D01*
X146059935Y-51359790D02*
X146093268Y-51426456D01*
X146093268Y-51426456D02*
X146093268Y-51493123D01*
X146093268Y-51493123D02*
X146059935Y-51593123D01*
X146059935Y-51593123D02*
X145659935Y-51993123D01*
X145659935Y-51993123D02*
X146093268Y-51993123D01*
X136044601Y-45830456D02*
X136011268Y-45863790D01*
X136011268Y-45863790D02*
X135911268Y-45897123D01*
X135911268Y-45897123D02*
X135844601Y-45897123D01*
X135844601Y-45897123D02*
X135744601Y-45863790D01*
X135744601Y-45863790D02*
X135677935Y-45797123D01*
X135677935Y-45797123D02*
X135644601Y-45730456D01*
X135644601Y-45730456D02*
X135611268Y-45597123D01*
X135611268Y-45597123D02*
X135611268Y-45497123D01*
X135611268Y-45497123D02*
X135644601Y-45363790D01*
X135644601Y-45363790D02*
X135677935Y-45297123D01*
X135677935Y-45297123D02*
X135744601Y-45230456D01*
X135744601Y-45230456D02*
X135844601Y-45197123D01*
X135844601Y-45197123D02*
X135911268Y-45197123D01*
X135911268Y-45197123D02*
X136011268Y-45230456D01*
X136011268Y-45230456D02*
X136044601Y-45263790D01*
X136711268Y-45897123D02*
X136311268Y-45897123D01*
X136511268Y-45897123D02*
X136511268Y-45197123D01*
X136511268Y-45197123D02*
X136444601Y-45297123D01*
X136444601Y-45297123D02*
X136377935Y-45363790D01*
X136377935Y-45363790D02*
X136311268Y-45397123D01*
X144083901Y-54777156D02*
X144083901Y-55177156D01*
X144083901Y-54977156D02*
X143383901Y-54977156D01*
X143383901Y-54977156D02*
X143483901Y-55043823D01*
X143483901Y-55043823D02*
X143550568Y-55110490D01*
X143550568Y-55110490D02*
X143583901Y-55177156D01*
X143383901Y-54343823D02*
X143383901Y-54277156D01*
X143383901Y-54277156D02*
X143417234Y-54210489D01*
X143417234Y-54210489D02*
X143450568Y-54177156D01*
X143450568Y-54177156D02*
X143517234Y-54143823D01*
X143517234Y-54143823D02*
X143650568Y-54110489D01*
X143650568Y-54110489D02*
X143817234Y-54110489D01*
X143817234Y-54110489D02*
X143950568Y-54143823D01*
X143950568Y-54143823D02*
X144017234Y-54177156D01*
X144017234Y-54177156D02*
X144050568Y-54210489D01*
X144050568Y-54210489D02*
X144083901Y-54277156D01*
X144083901Y-54277156D02*
X144083901Y-54343823D01*
X144083901Y-54343823D02*
X144050568Y-54410489D01*
X144050568Y-54410489D02*
X144017234Y-54443823D01*
X144017234Y-54443823D02*
X143950568Y-54477156D01*
X143950568Y-54477156D02*
X143817234Y-54510489D01*
X143817234Y-54510489D02*
X143650568Y-54510489D01*
X143650568Y-54510489D02*
X143517234Y-54477156D01*
X143517234Y-54477156D02*
X143450568Y-54443823D01*
X143450568Y-54443823D02*
X143417234Y-54410489D01*
X143417234Y-54410489D02*
X143383901Y-54343823D01*
X143383901Y-53677156D02*
X143383901Y-53610489D01*
X143383901Y-53610489D02*
X143417234Y-53543822D01*
X143417234Y-53543822D02*
X143450568Y-53510489D01*
X143450568Y-53510489D02*
X143517234Y-53477156D01*
X143517234Y-53477156D02*
X143650568Y-53443822D01*
X143650568Y-53443822D02*
X143817234Y-53443822D01*
X143817234Y-53443822D02*
X143950568Y-53477156D01*
X143950568Y-53477156D02*
X144017234Y-53510489D01*
X144017234Y-53510489D02*
X144050568Y-53543822D01*
X144050568Y-53543822D02*
X144083901Y-53610489D01*
X144083901Y-53610489D02*
X144083901Y-53677156D01*
X144083901Y-53677156D02*
X144050568Y-53743822D01*
X144050568Y-53743822D02*
X144017234Y-53777156D01*
X144017234Y-53777156D02*
X143950568Y-53810489D01*
X143950568Y-53810489D02*
X143817234Y-53843822D01*
X143817234Y-53843822D02*
X143650568Y-53843822D01*
X143650568Y-53843822D02*
X143517234Y-53810489D01*
X143517234Y-53810489D02*
X143450568Y-53777156D01*
X143450568Y-53777156D02*
X143417234Y-53743822D01*
X143417234Y-53743822D02*
X143383901Y-53677156D01*
X144083901Y-52743822D02*
X143750568Y-52977155D01*
X144083901Y-53143822D02*
X143383901Y-53143822D01*
X143383901Y-53143822D02*
X143383901Y-52877155D01*
X143383901Y-52877155D02*
X143417234Y-52810489D01*
X143417234Y-52810489D02*
X143450568Y-52777155D01*
X143450568Y-52777155D02*
X143517234Y-52743822D01*
X143517234Y-52743822D02*
X143617234Y-52743822D01*
X143617234Y-52743822D02*
X143683901Y-52777155D01*
X143683901Y-52777155D02*
X143717234Y-52810489D01*
X143717234Y-52810489D02*
X143750568Y-52877155D01*
X143750568Y-52877155D02*
X143750568Y-53143822D01*
X138049901Y-55077658D02*
X138049901Y-54644324D01*
X138049901Y-54644324D02*
X138316568Y-54877658D01*
X138316568Y-54877658D02*
X138316568Y-54777658D01*
X138316568Y-54777658D02*
X138349901Y-54710991D01*
X138349901Y-54710991D02*
X138383234Y-54677658D01*
X138383234Y-54677658D02*
X138449901Y-54644324D01*
X138449901Y-54644324D02*
X138616568Y-54644324D01*
X138616568Y-54644324D02*
X138683234Y-54677658D01*
X138683234Y-54677658D02*
X138716568Y-54710991D01*
X138716568Y-54710991D02*
X138749901Y-54777658D01*
X138749901Y-54777658D02*
X138749901Y-54977658D01*
X138749901Y-54977658D02*
X138716568Y-55044324D01*
X138716568Y-55044324D02*
X138683234Y-55077658D01*
X138049901Y-54410991D02*
X138049901Y-53977657D01*
X138049901Y-53977657D02*
X138316568Y-54210991D01*
X138316568Y-54210991D02*
X138316568Y-54110991D01*
X138316568Y-54110991D02*
X138349901Y-54044324D01*
X138349901Y-54044324D02*
X138383234Y-54010991D01*
X138383234Y-54010991D02*
X138449901Y-53977657D01*
X138449901Y-53977657D02*
X138616568Y-53977657D01*
X138616568Y-53977657D02*
X138683234Y-54010991D01*
X138683234Y-54010991D02*
X138716568Y-54044324D01*
X138716568Y-54044324D02*
X138749901Y-54110991D01*
X138749901Y-54110991D02*
X138749901Y-54310991D01*
X138749901Y-54310991D02*
X138716568Y-54377657D01*
X138716568Y-54377657D02*
X138683234Y-54410991D01*
X138749901Y-53277657D02*
X138416568Y-53510990D01*
X138749901Y-53677657D02*
X138049901Y-53677657D01*
X138049901Y-53677657D02*
X138049901Y-53410990D01*
X138049901Y-53410990D02*
X138083234Y-53344324D01*
X138083234Y-53344324D02*
X138116568Y-53310990D01*
X138116568Y-53310990D02*
X138183234Y-53277657D01*
X138183234Y-53277657D02*
X138283234Y-53277657D01*
X138283234Y-53277657D02*
X138349901Y-53310990D01*
X138349901Y-53310990D02*
X138383234Y-53344324D01*
X138383234Y-53344324D02*
X138416568Y-53410990D01*
X138416568Y-53410990D02*
X138416568Y-53677657D01*
X120159901Y-55061658D02*
X120159901Y-54628324D01*
X120159901Y-54628324D02*
X120426568Y-54861658D01*
X120426568Y-54861658D02*
X120426568Y-54761658D01*
X120426568Y-54761658D02*
X120459901Y-54694991D01*
X120459901Y-54694991D02*
X120493234Y-54661658D01*
X120493234Y-54661658D02*
X120559901Y-54628324D01*
X120559901Y-54628324D02*
X120726568Y-54628324D01*
X120726568Y-54628324D02*
X120793234Y-54661658D01*
X120793234Y-54661658D02*
X120826568Y-54694991D01*
X120826568Y-54694991D02*
X120859901Y-54761658D01*
X120859901Y-54761658D02*
X120859901Y-54961658D01*
X120859901Y-54961658D02*
X120826568Y-55028324D01*
X120826568Y-55028324D02*
X120793234Y-55061658D01*
X120159901Y-54394991D02*
X120159901Y-53961657D01*
X120159901Y-53961657D02*
X120426568Y-54194991D01*
X120426568Y-54194991D02*
X120426568Y-54094991D01*
X120426568Y-54094991D02*
X120459901Y-54028324D01*
X120459901Y-54028324D02*
X120493234Y-53994991D01*
X120493234Y-53994991D02*
X120559901Y-53961657D01*
X120559901Y-53961657D02*
X120726568Y-53961657D01*
X120726568Y-53961657D02*
X120793234Y-53994991D01*
X120793234Y-53994991D02*
X120826568Y-54028324D01*
X120826568Y-54028324D02*
X120859901Y-54094991D01*
X120859901Y-54094991D02*
X120859901Y-54294991D01*
X120859901Y-54294991D02*
X120826568Y-54361657D01*
X120826568Y-54361657D02*
X120793234Y-54394991D01*
X120859901Y-53261657D02*
X120526568Y-53494990D01*
X120859901Y-53661657D02*
X120159901Y-53661657D01*
X120159901Y-53661657D02*
X120159901Y-53394990D01*
X120159901Y-53394990D02*
X120193234Y-53328324D01*
X120193234Y-53328324D02*
X120226568Y-53294990D01*
X120226568Y-53294990D02*
X120293234Y-53261657D01*
X120293234Y-53261657D02*
X120393234Y-53261657D01*
X120393234Y-53261657D02*
X120459901Y-53294990D01*
X120459901Y-53294990D02*
X120493234Y-53328324D01*
X120493234Y-53328324D02*
X120526568Y-53394990D01*
X120526568Y-53394990D02*
X120526568Y-53661657D01*
X147639901Y-55031156D02*
X147639901Y-55431156D01*
X147639901Y-55231156D02*
X146939901Y-55231156D01*
X146939901Y-55231156D02*
X147039901Y-55297823D01*
X147039901Y-55297823D02*
X147106568Y-55364490D01*
X147106568Y-55364490D02*
X147139901Y-55431156D01*
X146939901Y-54597823D02*
X146939901Y-54531156D01*
X146939901Y-54531156D02*
X146973234Y-54464489D01*
X146973234Y-54464489D02*
X147006568Y-54431156D01*
X147006568Y-54431156D02*
X147073234Y-54397823D01*
X147073234Y-54397823D02*
X147206568Y-54364489D01*
X147206568Y-54364489D02*
X147373234Y-54364489D01*
X147373234Y-54364489D02*
X147506568Y-54397823D01*
X147506568Y-54397823D02*
X147573234Y-54431156D01*
X147573234Y-54431156D02*
X147606568Y-54464489D01*
X147606568Y-54464489D02*
X147639901Y-54531156D01*
X147639901Y-54531156D02*
X147639901Y-54597823D01*
X147639901Y-54597823D02*
X147606568Y-54664489D01*
X147606568Y-54664489D02*
X147573234Y-54697823D01*
X147573234Y-54697823D02*
X147506568Y-54731156D01*
X147506568Y-54731156D02*
X147373234Y-54764489D01*
X147373234Y-54764489D02*
X147206568Y-54764489D01*
X147206568Y-54764489D02*
X147073234Y-54731156D01*
X147073234Y-54731156D02*
X147006568Y-54697823D01*
X147006568Y-54697823D02*
X146973234Y-54664489D01*
X146973234Y-54664489D02*
X146939901Y-54597823D01*
X146939901Y-53931156D02*
X146939901Y-53864489D01*
X146939901Y-53864489D02*
X146973234Y-53797822D01*
X146973234Y-53797822D02*
X147006568Y-53764489D01*
X147006568Y-53764489D02*
X147073234Y-53731156D01*
X147073234Y-53731156D02*
X147206568Y-53697822D01*
X147206568Y-53697822D02*
X147373234Y-53697822D01*
X147373234Y-53697822D02*
X147506568Y-53731156D01*
X147506568Y-53731156D02*
X147573234Y-53764489D01*
X147573234Y-53764489D02*
X147606568Y-53797822D01*
X147606568Y-53797822D02*
X147639901Y-53864489D01*
X147639901Y-53864489D02*
X147639901Y-53931156D01*
X147639901Y-53931156D02*
X147606568Y-53997822D01*
X147606568Y-53997822D02*
X147573234Y-54031156D01*
X147573234Y-54031156D02*
X147506568Y-54064489D01*
X147506568Y-54064489D02*
X147373234Y-54097822D01*
X147373234Y-54097822D02*
X147206568Y-54097822D01*
X147206568Y-54097822D02*
X147073234Y-54064489D01*
X147073234Y-54064489D02*
X147006568Y-54031156D01*
X147006568Y-54031156D02*
X146973234Y-53997822D01*
X146973234Y-53997822D02*
X146939901Y-53931156D01*
X147639901Y-52997822D02*
X147306568Y-53231155D01*
X147639901Y-53397822D02*
X146939901Y-53397822D01*
X146939901Y-53397822D02*
X146939901Y-53131155D01*
X146939901Y-53131155D02*
X146973234Y-53064489D01*
X146973234Y-53064489D02*
X147006568Y-53031155D01*
X147006568Y-53031155D02*
X147073234Y-52997822D01*
X147073234Y-52997822D02*
X147173234Y-52997822D01*
X147173234Y-52997822D02*
X147239901Y-53031155D01*
X147239901Y-53031155D02*
X147273234Y-53064489D01*
X147273234Y-53064489D02*
X147306568Y-53131155D01*
X147306568Y-53131155D02*
X147306568Y-53397822D01*
D12*
X141453934Y-42654523D02*
X141453934Y-43221190D01*
X141453934Y-43221190D02*
X141487268Y-43287856D01*
X141487268Y-43287856D02*
X141520601Y-43321190D01*
X141520601Y-43321190D02*
X141587268Y-43354523D01*
X141587268Y-43354523D02*
X141720601Y-43354523D01*
X141720601Y-43354523D02*
X141787268Y-43321190D01*
X141787268Y-43321190D02*
X141820601Y-43287856D01*
X141820601Y-43287856D02*
X141853934Y-43221190D01*
X141853934Y-43221190D02*
X141853934Y-42654523D01*
X142120601Y-42654523D02*
X142553934Y-42654523D01*
X142553934Y-42654523D02*
X142320601Y-42921190D01*
X142320601Y-42921190D02*
X142420601Y-42921190D01*
X142420601Y-42921190D02*
X142487267Y-42954523D01*
X142487267Y-42954523D02*
X142520601Y-42987856D01*
X142520601Y-42987856D02*
X142553934Y-43054523D01*
X142553934Y-43054523D02*
X142553934Y-43221190D01*
X142553934Y-43221190D02*
X142520601Y-43287856D01*
X142520601Y-43287856D02*
X142487267Y-43321190D01*
X142487267Y-43321190D02*
X142420601Y-43354523D01*
X142420601Y-43354523D02*
X142220601Y-43354523D01*
X142220601Y-43354523D02*
X142153934Y-43321190D01*
X142153934Y-43321190D02*
X142120601Y-43287856D01*
X150343934Y-42654524D02*
X150343934Y-43221191D01*
X150343934Y-43221191D02*
X150377268Y-43287857D01*
X150377268Y-43287857D02*
X150410601Y-43321191D01*
X150410601Y-43321191D02*
X150477268Y-43354524D01*
X150477268Y-43354524D02*
X150610601Y-43354524D01*
X150610601Y-43354524D02*
X150677268Y-43321191D01*
X150677268Y-43321191D02*
X150710601Y-43287857D01*
X150710601Y-43287857D02*
X150743934Y-43221191D01*
X150743934Y-43221191D02*
X150743934Y-42654524D01*
X151043934Y-42721191D02*
X151077267Y-42687857D01*
X151077267Y-42687857D02*
X151143934Y-42654524D01*
X151143934Y-42654524D02*
X151310601Y-42654524D01*
X151310601Y-42654524D02*
X151377267Y-42687857D01*
X151377267Y-42687857D02*
X151410601Y-42721191D01*
X151410601Y-42721191D02*
X151443934Y-42787857D01*
X151443934Y-42787857D02*
X151443934Y-42854524D01*
X151443934Y-42854524D02*
X151410601Y-42954524D01*
X151410601Y-42954524D02*
X151010601Y-43354524D01*
X151010601Y-43354524D02*
X151443934Y-43354524D01*
D11*
X135701901Y-55031156D02*
X135701901Y-55431156D01*
X135701901Y-55231156D02*
X135001901Y-55231156D01*
X135001901Y-55231156D02*
X135101901Y-55297823D01*
X135101901Y-55297823D02*
X135168568Y-55364490D01*
X135168568Y-55364490D02*
X135201901Y-55431156D01*
X135001901Y-54597823D02*
X135001901Y-54531156D01*
X135001901Y-54531156D02*
X135035234Y-54464489D01*
X135035234Y-54464489D02*
X135068568Y-54431156D01*
X135068568Y-54431156D02*
X135135234Y-54397823D01*
X135135234Y-54397823D02*
X135268568Y-54364489D01*
X135268568Y-54364489D02*
X135435234Y-54364489D01*
X135435234Y-54364489D02*
X135568568Y-54397823D01*
X135568568Y-54397823D02*
X135635234Y-54431156D01*
X135635234Y-54431156D02*
X135668568Y-54464489D01*
X135668568Y-54464489D02*
X135701901Y-54531156D01*
X135701901Y-54531156D02*
X135701901Y-54597823D01*
X135701901Y-54597823D02*
X135668568Y-54664489D01*
X135668568Y-54664489D02*
X135635234Y-54697823D01*
X135635234Y-54697823D02*
X135568568Y-54731156D01*
X135568568Y-54731156D02*
X135435234Y-54764489D01*
X135435234Y-54764489D02*
X135268568Y-54764489D01*
X135268568Y-54764489D02*
X135135234Y-54731156D01*
X135135234Y-54731156D02*
X135068568Y-54697823D01*
X135068568Y-54697823D02*
X135035234Y-54664489D01*
X135035234Y-54664489D02*
X135001901Y-54597823D01*
X135001901Y-53931156D02*
X135001901Y-53864489D01*
X135001901Y-53864489D02*
X135035234Y-53797822D01*
X135035234Y-53797822D02*
X135068568Y-53764489D01*
X135068568Y-53764489D02*
X135135234Y-53731156D01*
X135135234Y-53731156D02*
X135268568Y-53697822D01*
X135268568Y-53697822D02*
X135435234Y-53697822D01*
X135435234Y-53697822D02*
X135568568Y-53731156D01*
X135568568Y-53731156D02*
X135635234Y-53764489D01*
X135635234Y-53764489D02*
X135668568Y-53797822D01*
X135668568Y-53797822D02*
X135701901Y-53864489D01*
X135701901Y-53864489D02*
X135701901Y-53931156D01*
X135701901Y-53931156D02*
X135668568Y-53997822D01*
X135668568Y-53997822D02*
X135635234Y-54031156D01*
X135635234Y-54031156D02*
X135568568Y-54064489D01*
X135568568Y-54064489D02*
X135435234Y-54097822D01*
X135435234Y-54097822D02*
X135268568Y-54097822D01*
X135268568Y-54097822D02*
X135135234Y-54064489D01*
X135135234Y-54064489D02*
X135068568Y-54031156D01*
X135068568Y-54031156D02*
X135035234Y-53997822D01*
X135035234Y-53997822D02*
X135001901Y-53931156D01*
X135701901Y-52997822D02*
X135368568Y-53231155D01*
X135701901Y-53397822D02*
X135001901Y-53397822D01*
X135001901Y-53397822D02*
X135001901Y-53131155D01*
X135001901Y-53131155D02*
X135035234Y-53064489D01*
X135035234Y-53064489D02*
X135068568Y-53031155D01*
X135068568Y-53031155D02*
X135135234Y-52997822D01*
X135135234Y-52997822D02*
X135235234Y-52997822D01*
X135235234Y-52997822D02*
X135301901Y-53031155D01*
X135301901Y-53031155D02*
X135335234Y-53064489D01*
X135335234Y-53064489D02*
X135368568Y-53131155D01*
X135368568Y-53131155D02*
X135368568Y-53397822D01*
X134204601Y-60247124D02*
X133804601Y-60247124D01*
X134004601Y-60247124D02*
X134004601Y-59547124D01*
X134004601Y-59547124D02*
X133937934Y-59647124D01*
X133937934Y-59647124D02*
X133871268Y-59713791D01*
X133871268Y-59713791D02*
X133804601Y-59747124D01*
X134637935Y-59547124D02*
X134704601Y-59547124D01*
X134704601Y-59547124D02*
X134771268Y-59580457D01*
X134771268Y-59580457D02*
X134804601Y-59613791D01*
X134804601Y-59613791D02*
X134837935Y-59680457D01*
X134837935Y-59680457D02*
X134871268Y-59813791D01*
X134871268Y-59813791D02*
X134871268Y-59980457D01*
X134871268Y-59980457D02*
X134837935Y-60113791D01*
X134837935Y-60113791D02*
X134804601Y-60180457D01*
X134804601Y-60180457D02*
X134771268Y-60213791D01*
X134771268Y-60213791D02*
X134704601Y-60247124D01*
X134704601Y-60247124D02*
X134637935Y-60247124D01*
X134637935Y-60247124D02*
X134571268Y-60213791D01*
X134571268Y-60213791D02*
X134537935Y-60180457D01*
X134537935Y-60180457D02*
X134504601Y-60113791D01*
X134504601Y-60113791D02*
X134471268Y-59980457D01*
X134471268Y-59980457D02*
X134471268Y-59813791D01*
X134471268Y-59813791D02*
X134504601Y-59680457D01*
X134504601Y-59680457D02*
X134537935Y-59613791D01*
X134537935Y-59613791D02*
X134571268Y-59580457D01*
X134571268Y-59580457D02*
X134637935Y-59547124D01*
X135171268Y-60247124D02*
X135171268Y-59547124D01*
X135237935Y-59980457D02*
X135437935Y-60247124D01*
X135437935Y-59780457D02*
X135171268Y-60047124D01*
D12*
X131563934Y-42601024D02*
X131563934Y-43167691D01*
X131563934Y-43167691D02*
X131597268Y-43234357D01*
X131597268Y-43234357D02*
X131630601Y-43267691D01*
X131630601Y-43267691D02*
X131697268Y-43301024D01*
X131697268Y-43301024D02*
X131830601Y-43301024D01*
X131830601Y-43301024D02*
X131897268Y-43267691D01*
X131897268Y-43267691D02*
X131930601Y-43234357D01*
X131930601Y-43234357D02*
X131963934Y-43167691D01*
X131963934Y-43167691D02*
X131963934Y-42601024D01*
X132597267Y-42834357D02*
X132597267Y-43301024D01*
X132430601Y-42567691D02*
X132263934Y-43067691D01*
X132263934Y-43067691D02*
X132697267Y-43067691D01*
D11*
X126557901Y-54977657D02*
X126557901Y-55377657D01*
X126557901Y-55177657D02*
X125857901Y-55177657D01*
X125857901Y-55177657D02*
X125957901Y-55244324D01*
X125957901Y-55244324D02*
X126024568Y-55310991D01*
X126024568Y-55310991D02*
X126057901Y-55377657D01*
X125857901Y-54544324D02*
X125857901Y-54477657D01*
X125857901Y-54477657D02*
X125891234Y-54410990D01*
X125891234Y-54410990D02*
X125924568Y-54377657D01*
X125924568Y-54377657D02*
X125991234Y-54344324D01*
X125991234Y-54344324D02*
X126124568Y-54310990D01*
X126124568Y-54310990D02*
X126291234Y-54310990D01*
X126291234Y-54310990D02*
X126424568Y-54344324D01*
X126424568Y-54344324D02*
X126491234Y-54377657D01*
X126491234Y-54377657D02*
X126524568Y-54410990D01*
X126524568Y-54410990D02*
X126557901Y-54477657D01*
X126557901Y-54477657D02*
X126557901Y-54544324D01*
X126557901Y-54544324D02*
X126524568Y-54610990D01*
X126524568Y-54610990D02*
X126491234Y-54644324D01*
X126491234Y-54644324D02*
X126424568Y-54677657D01*
X126424568Y-54677657D02*
X126291234Y-54710990D01*
X126291234Y-54710990D02*
X126124568Y-54710990D01*
X126124568Y-54710990D02*
X125991234Y-54677657D01*
X125991234Y-54677657D02*
X125924568Y-54644324D01*
X125924568Y-54644324D02*
X125891234Y-54610990D01*
X125891234Y-54610990D02*
X125857901Y-54544324D01*
X125857901Y-53877657D02*
X125857901Y-53810990D01*
X125857901Y-53810990D02*
X125891234Y-53744323D01*
X125891234Y-53744323D02*
X125924568Y-53710990D01*
X125924568Y-53710990D02*
X125991234Y-53677657D01*
X125991234Y-53677657D02*
X126124568Y-53644323D01*
X126124568Y-53644323D02*
X126291234Y-53644323D01*
X126291234Y-53644323D02*
X126424568Y-53677657D01*
X126424568Y-53677657D02*
X126491234Y-53710990D01*
X126491234Y-53710990D02*
X126524568Y-53744323D01*
X126524568Y-53744323D02*
X126557901Y-53810990D01*
X126557901Y-53810990D02*
X126557901Y-53877657D01*
X126557901Y-53877657D02*
X126524568Y-53944323D01*
X126524568Y-53944323D02*
X126491234Y-53977657D01*
X126491234Y-53977657D02*
X126424568Y-54010990D01*
X126424568Y-54010990D02*
X126291234Y-54044323D01*
X126291234Y-54044323D02*
X126124568Y-54044323D01*
X126124568Y-54044323D02*
X125991234Y-54010990D01*
X125991234Y-54010990D02*
X125924568Y-53977657D01*
X125924568Y-53977657D02*
X125891234Y-53944323D01*
X125891234Y-53944323D02*
X125857901Y-53877657D01*
X126557901Y-52944323D02*
X126224568Y-53177656D01*
X126557901Y-53344323D02*
X125857901Y-53344323D01*
X125857901Y-53344323D02*
X125857901Y-53077656D01*
X125857901Y-53077656D02*
X125891234Y-53010990D01*
X125891234Y-53010990D02*
X125924568Y-52977656D01*
X125924568Y-52977656D02*
X125991234Y-52944323D01*
X125991234Y-52944323D02*
X126091234Y-52944323D01*
X126091234Y-52944323D02*
X126157901Y-52977656D01*
X126157901Y-52977656D02*
X126191234Y-53010990D01*
X126191234Y-53010990D02*
X126224568Y-53077656D01*
X126224568Y-53077656D02*
X126224568Y-53344323D01*
X153161234Y-54331157D02*
X153194568Y-54364490D01*
X153194568Y-54364490D02*
X153227901Y-54464490D01*
X153227901Y-54464490D02*
X153227901Y-54531157D01*
X153227901Y-54531157D02*
X153194568Y-54631157D01*
X153194568Y-54631157D02*
X153127901Y-54697824D01*
X153127901Y-54697824D02*
X153061234Y-54731157D01*
X153061234Y-54731157D02*
X152927901Y-54764490D01*
X152927901Y-54764490D02*
X152827901Y-54764490D01*
X152827901Y-54764490D02*
X152694568Y-54731157D01*
X152694568Y-54731157D02*
X152627901Y-54697824D01*
X152627901Y-54697824D02*
X152561234Y-54631157D01*
X152561234Y-54631157D02*
X152527901Y-54531157D01*
X152527901Y-54531157D02*
X152527901Y-54464490D01*
X152527901Y-54464490D02*
X152561234Y-54364490D01*
X152561234Y-54364490D02*
X152594568Y-54331157D01*
X152527901Y-54097824D02*
X152527901Y-53664490D01*
X152527901Y-53664490D02*
X152794568Y-53897824D01*
X152794568Y-53897824D02*
X152794568Y-53797824D01*
X152794568Y-53797824D02*
X152827901Y-53731157D01*
X152827901Y-53731157D02*
X152861234Y-53697824D01*
X152861234Y-53697824D02*
X152927901Y-53664490D01*
X152927901Y-53664490D02*
X153094568Y-53664490D01*
X153094568Y-53664490D02*
X153161234Y-53697824D01*
X153161234Y-53697824D02*
X153194568Y-53731157D01*
X153194568Y-53731157D02*
X153227901Y-53797824D01*
X153227901Y-53797824D02*
X153227901Y-53997824D01*
X153227901Y-53997824D02*
X153194568Y-54064490D01*
X153194568Y-54064490D02*
X153161234Y-54097824D01*
X129413901Y-55093658D02*
X129413901Y-54660324D01*
X129413901Y-54660324D02*
X129680568Y-54893658D01*
X129680568Y-54893658D02*
X129680568Y-54793658D01*
X129680568Y-54793658D02*
X129713901Y-54726991D01*
X129713901Y-54726991D02*
X129747234Y-54693658D01*
X129747234Y-54693658D02*
X129813901Y-54660324D01*
X129813901Y-54660324D02*
X129980568Y-54660324D01*
X129980568Y-54660324D02*
X130047234Y-54693658D01*
X130047234Y-54693658D02*
X130080568Y-54726991D01*
X130080568Y-54726991D02*
X130113901Y-54793658D01*
X130113901Y-54793658D02*
X130113901Y-54993658D01*
X130113901Y-54993658D02*
X130080568Y-55060324D01*
X130080568Y-55060324D02*
X130047234Y-55093658D01*
X129413901Y-54426991D02*
X129413901Y-53993657D01*
X129413901Y-53993657D02*
X129680568Y-54226991D01*
X129680568Y-54226991D02*
X129680568Y-54126991D01*
X129680568Y-54126991D02*
X129713901Y-54060324D01*
X129713901Y-54060324D02*
X129747234Y-54026991D01*
X129747234Y-54026991D02*
X129813901Y-53993657D01*
X129813901Y-53993657D02*
X129980568Y-53993657D01*
X129980568Y-53993657D02*
X130047234Y-54026991D01*
X130047234Y-54026991D02*
X130080568Y-54060324D01*
X130080568Y-54060324D02*
X130113901Y-54126991D01*
X130113901Y-54126991D02*
X130113901Y-54326991D01*
X130113901Y-54326991D02*
X130080568Y-54393657D01*
X130080568Y-54393657D02*
X130047234Y-54426991D01*
X130113901Y-53293657D02*
X129780568Y-53526990D01*
X130113901Y-53693657D02*
X129413901Y-53693657D01*
X129413901Y-53693657D02*
X129413901Y-53426990D01*
X129413901Y-53426990D02*
X129447234Y-53360324D01*
X129447234Y-53360324D02*
X129480568Y-53326990D01*
X129480568Y-53326990D02*
X129547234Y-53293657D01*
X129547234Y-53293657D02*
X129647234Y-53293657D01*
X129647234Y-53293657D02*
X129713901Y-53326990D01*
X129713901Y-53326990D02*
X129747234Y-53360324D01*
X129747234Y-53360324D02*
X129780568Y-53426990D01*
X129780568Y-53426990D02*
X129780568Y-53693657D01*
D12*
X122911934Y-42601024D02*
X122911934Y-43167691D01*
X122911934Y-43167691D02*
X122945268Y-43234357D01*
X122945268Y-43234357D02*
X122978601Y-43267691D01*
X122978601Y-43267691D02*
X123045268Y-43301024D01*
X123045268Y-43301024D02*
X123178601Y-43301024D01*
X123178601Y-43301024D02*
X123245268Y-43267691D01*
X123245268Y-43267691D02*
X123278601Y-43234357D01*
X123278601Y-43234357D02*
X123311934Y-43167691D01*
X123311934Y-43167691D02*
X123311934Y-42601024D01*
X123978601Y-42601024D02*
X123645267Y-42601024D01*
X123645267Y-42601024D02*
X123611934Y-42934357D01*
X123611934Y-42934357D02*
X123645267Y-42901024D01*
X123645267Y-42901024D02*
X123711934Y-42867691D01*
X123711934Y-42867691D02*
X123878601Y-42867691D01*
X123878601Y-42867691D02*
X123945267Y-42901024D01*
X123945267Y-42901024D02*
X123978601Y-42934357D01*
X123978601Y-42934357D02*
X124011934Y-43001024D01*
X124011934Y-43001024D02*
X124011934Y-43167691D01*
X124011934Y-43167691D02*
X123978601Y-43234357D01*
X123978601Y-43234357D02*
X123945267Y-43267691D01*
X123945267Y-43267691D02*
X123878601Y-43301024D01*
X123878601Y-43301024D02*
X123711934Y-43301024D01*
X123711934Y-43301024D02*
X123645267Y-43267691D01*
X123645267Y-43267691D02*
X123611934Y-43234357D01*
D10*
X136378982Y-84386019D02*
X137307554Y-84386019D01*
X137307554Y-84386019D02*
X136807554Y-84957448D01*
X136807554Y-84957448D02*
X137021839Y-84957448D01*
X137021839Y-84957448D02*
X137164697Y-85028876D01*
X137164697Y-85028876D02*
X137236125Y-85100305D01*
X137236125Y-85100305D02*
X137307554Y-85243162D01*
X137307554Y-85243162D02*
X137307554Y-85600305D01*
X137307554Y-85600305D02*
X137236125Y-85743162D01*
X137236125Y-85743162D02*
X137164697Y-85814591D01*
X137164697Y-85814591D02*
X137021839Y-85886019D01*
X137021839Y-85886019D02*
X136593268Y-85886019D01*
X136593268Y-85886019D02*
X136450411Y-85814591D01*
X136450411Y-85814591D02*
X136378982Y-85743162D01*
X137950410Y-85743162D02*
X138021839Y-85814591D01*
X138021839Y-85814591D02*
X137950410Y-85886019D01*
X137950410Y-85886019D02*
X137878982Y-85814591D01*
X137878982Y-85814591D02*
X137950410Y-85743162D01*
X137950410Y-85743162D02*
X137950410Y-85886019D01*
X138521839Y-84386019D02*
X139521839Y-84386019D01*
X139521839Y-84386019D02*
X138878982Y-85886019D01*
X139878982Y-84386019D02*
X140378982Y-85886019D01*
X140378982Y-85886019D02*
X140878982Y-84386019D01*
D13*
G04 #@! TO.C,C4*
X126282268Y-47803738D02*
X126282268Y-48326244D01*
X127752268Y-47803738D02*
X127752268Y-48326244D01*
G04 #@! TO.C,J1*
X153103269Y-66660488D02*
X153103269Y-58980489D01*
X153103269Y-69260489D02*
X153103269Y-67930489D01*
X154433269Y-69260489D02*
X153103269Y-69260489D01*
X155763269Y-58980489D02*
X153103269Y-58980489D01*
X155763269Y-66660488D02*
X153103269Y-66660488D01*
X155763269Y-66660488D02*
X155763269Y-58980489D01*
G04 #@! TO.C,C2*
X144808268Y-53899738D02*
X144808268Y-54422244D01*
X146278268Y-53899738D02*
X146278268Y-54422244D01*
G04 #@! TO.C,C1*
X135426268Y-47803738D02*
X135426268Y-48326244D01*
X136896268Y-47803738D02*
X136896268Y-48326244D01*
G04 #@! TO.C,R6*
X141506268Y-53933927D02*
X141506268Y-54388055D01*
X142976268Y-53933927D02*
X142976268Y-54388055D01*
G04 #@! TO.C,R2*
X139220268Y-54388055D02*
X139220268Y-53933927D01*
X140690268Y-54388055D02*
X140690268Y-53933927D01*
G04 #@! TO.C,R4*
X121456268Y-53917927D02*
X121456268Y-54372055D01*
X122926268Y-53917927D02*
X122926268Y-54372055D01*
G04 #@! TO.C,R1*
X148110268Y-54425555D02*
X148110268Y-53971427D01*
X149580268Y-54425555D02*
X149580268Y-53971427D01*
G04 #@! TO.C,U3*
X139122269Y-48019491D02*
X139122268Y-46069491D01*
X139122269Y-48019491D02*
X139122268Y-49969491D01*
X144242267Y-48019491D02*
X144242268Y-46069491D01*
X144242267Y-48019491D02*
X144242268Y-49969491D01*
X144477268Y-45559491D02*
X144147268Y-45319491D01*
X144477268Y-45079492D01*
X144477268Y-45559491D01*
G36*
X144477268Y-45559491D02*
G01*
X144147268Y-45319491D01*
X144477268Y-45079492D01*
X144477268Y-45559491D01*
G37*
G04 #@! TO.C,U2*
X148266269Y-47931491D02*
X148266268Y-45981491D01*
X148266269Y-47931491D02*
X148266268Y-49881491D01*
X153386267Y-47931491D02*
X153386268Y-45981491D01*
X153386267Y-47931491D02*
X153386268Y-49881491D01*
X153621268Y-45471491D02*
X153291268Y-45231491D01*
X153621268Y-44991492D01*
X153621268Y-45471491D01*
G36*
X153621268Y-45471491D02*
G01*
X153291268Y-45231491D01*
X153621268Y-44991492D01*
X153621268Y-45471491D01*
G37*
G04 #@! TO.C,R7*
X133124268Y-53933927D02*
X133124268Y-54388055D01*
X134594268Y-53933927D02*
X134594268Y-54388055D01*
G04 #@! TO.C,J2*
X122623269Y-38660490D02*
X123953269Y-38660490D01*
X122623269Y-39990490D02*
X122623269Y-38660490D01*
X125223270Y-38660490D02*
X155763269Y-38660490D01*
X125223270Y-41320490D02*
X125223270Y-38660490D01*
X125223270Y-41320490D02*
X155763269Y-41320490D01*
X155763269Y-41320490D02*
X155763269Y-38660490D01*
G04 #@! TO.C,R5*
X134394204Y-57543491D02*
X134848332Y-57543491D01*
X134394204Y-59013491D02*
X134848332Y-59013491D01*
G04 #@! TO.C,U4*
X129470269Y-47997991D02*
X129470268Y-46047991D01*
X129470269Y-47997991D02*
X129470268Y-49947991D01*
X134590267Y-47997991D02*
X134590268Y-46047991D01*
X134590267Y-47997991D02*
X134590268Y-49947991D01*
X134825268Y-45537991D02*
X134495268Y-45297991D01*
X134825268Y-45057992D01*
X134825268Y-45537991D01*
G36*
X134825268Y-45537991D02*
G01*
X134495268Y-45297991D01*
X134825268Y-45057992D01*
X134825268Y-45537991D01*
G37*
G04 #@! TO.C,R8*
X123980268Y-53933927D02*
X123980268Y-54388055D01*
X125450268Y-53933927D02*
X125450268Y-54388055D01*
G04 #@! TO.C,SW1*
X154705268Y-57498491D02*
X154705268Y-48898491D01*
X159305268Y-51198490D02*
X159305268Y-48898491D01*
X159305268Y-57498491D02*
X159305268Y-55298491D01*
G04 #@! TO.C,C3*
X150650268Y-54422244D02*
X150650268Y-53899738D01*
X152120268Y-54422244D02*
X152120268Y-53899738D01*
G04 #@! TO.C,R3*
X130584268Y-54404055D02*
X130584268Y-53949927D01*
X132054268Y-54404055D02*
X132054268Y-53949927D01*
G04 #@! TO.C,U5*
X120266269Y-47978491D02*
X120266268Y-46028491D01*
X120266269Y-47978491D02*
X120266268Y-49928491D01*
X125386267Y-47978491D02*
X125386268Y-46028491D01*
X125386267Y-47978491D02*
X125386268Y-49928491D01*
X125621268Y-45518491D02*
X125291268Y-45278491D01*
X125621268Y-45038492D01*
X125621268Y-45518491D01*
G36*
X125621268Y-45518491D02*
G01*
X125291268Y-45278491D01*
X125621268Y-45038492D01*
X125621268Y-45518491D01*
G37*
D12*
G04 #@! TO.C,3.7V*
X117093268Y-76202491D02*
X160093268Y-76202491D01*
X117093268Y-94202491D02*
X117093268Y-76202491D01*
X117093268Y-94202491D02*
X160093268Y-94202491D01*
X121093268Y-94202491D02*
X121093268Y-76202491D01*
X124593268Y-90402491D02*
X124593269Y-90002491D01*
X124593269Y-90002491D02*
X128593268Y-90002491D01*
X128593268Y-90002491D02*
X128593268Y-90402491D01*
X128593268Y-90402491D02*
X124593268Y-90402491D01*
X148593268Y-90002491D02*
X148593268Y-90402491D01*
X148593268Y-90402491D02*
X150393268Y-90402491D01*
X150393268Y-88202491D02*
X150393268Y-90002492D01*
X150393268Y-90002492D02*
X148593268Y-90002491D01*
X150393268Y-90402491D02*
X150393268Y-92202490D01*
X150393268Y-92202490D02*
X150793268Y-92202491D01*
X150793268Y-88202491D02*
X150393268Y-88202491D01*
X150793268Y-90002491D02*
X150793268Y-88202491D01*
X150793268Y-90402491D02*
X152593268Y-90402491D01*
X150793268Y-92202491D02*
X150793268Y-90402491D01*
X152593267Y-90002491D02*
X150793268Y-90002491D01*
X152593268Y-90402491D02*
X152593267Y-90002491D01*
X156093268Y-94202491D02*
X156093268Y-76202491D01*
X160093268Y-94202491D02*
X160093268Y-76202491D01*
G04 #@! TD*
%LPC*%
D14*
G04 #@! TO.C,C4*
X127017268Y-47027491D03*
X127017268Y-49102491D03*
G04 #@! TD*
D15*
G04 #@! TO.C,J1*
X154433269Y-67930489D03*
D16*
X154433269Y-65390489D03*
X154433269Y-62850490D03*
X154433269Y-60310489D03*
G04 #@! TD*
D14*
G04 #@! TO.C,C2*
X145543268Y-53123491D03*
X145543268Y-55198491D03*
G04 #@! TD*
D17*
G04 #@! TO.C,REF\u002A\u002A*
X128017269Y-69962492D03*
G04 #@! TD*
D14*
G04 #@! TO.C,C1*
X136161268Y-47027491D03*
X136161268Y-49102491D03*
G04 #@! TD*
D17*
G04 #@! TO.C,REF\u002A\u002A*
X128017269Y-67422491D03*
G04 #@! TD*
D18*
G04 #@! TO.C,R6*
X142241268Y-53160991D03*
X142241268Y-55160991D03*
G04 #@! TD*
D17*
G04 #@! TO.C,REF\u002A\u002A*
X130557269Y-67422491D03*
G04 #@! TD*
D19*
G04 #@! TO.C,R2*
X139955268Y-55160991D03*
X139955268Y-53160991D03*
G04 #@! TD*
D18*
G04 #@! TO.C,R4*
X122191268Y-53144991D03*
X122191268Y-55144991D03*
G04 #@! TD*
D17*
G04 #@! TO.C,REF\u002A\u002A*
X138177268Y-67422491D03*
G04 #@! TD*
G04 #@! TO.C,REF\u002A\u002A*
X135637267Y-72502491D03*
G04 #@! TD*
D19*
G04 #@! TO.C,R1*
X148845268Y-55198491D03*
X148845268Y-53198491D03*
G04 #@! TD*
D17*
G04 #@! TO.C,REF\u002A\u002A*
X133097268Y-67422491D03*
G04 #@! TD*
D20*
G04 #@! TO.C,U3*
X143587268Y-45544491D03*
X142317268Y-45544491D03*
X141047268Y-45544491D03*
X139777268Y-45544491D03*
X139777268Y-50494491D03*
X141047268Y-50494491D03*
X142317268Y-50494491D03*
X143587268Y-50494491D03*
D21*
X141682268Y-48019491D03*
G04 #@! TD*
D17*
G04 #@! TO.C,REF\u002A\u002A*
X133097269Y-72502491D03*
G04 #@! TD*
G04 #@! TO.C,REF\u002A\u002A*
X130557268Y-72502491D03*
G04 #@! TD*
D22*
G04 #@! TO.C,REF\u002A\u002A*
X156973269Y-45070490D03*
G04 #@! TD*
D20*
G04 #@! TO.C,U2*
X152731268Y-45456491D03*
X151461268Y-45456491D03*
X150191268Y-45456491D03*
X148921268Y-45456491D03*
X148921268Y-50406491D03*
X150191268Y-50406491D03*
X151461268Y-50406491D03*
X152731268Y-50406491D03*
D21*
X150826268Y-47931491D03*
G04 #@! TD*
D18*
G04 #@! TO.C,R7*
X133859268Y-53160991D03*
X133859268Y-55160991D03*
G04 #@! TD*
D15*
G04 #@! TO.C,J2*
X123953269Y-39990490D03*
D16*
X126493269Y-39990490D03*
X129033268Y-39990490D03*
X131573269Y-39990490D03*
X134113269Y-39990490D03*
X136653269Y-39990490D03*
X139193269Y-39990490D03*
X141733270Y-39990490D03*
X144273269Y-39990490D03*
X146813269Y-39990490D03*
X149353269Y-39990490D03*
X151893268Y-39990490D03*
X154433269Y-39990490D03*
G04 #@! TD*
D23*
G04 #@! TO.C,R5*
X133621268Y-58278491D03*
X135621268Y-58278491D03*
G04 #@! TD*
D17*
G04 #@! TO.C,REF\u002A\u002A*
X138177267Y-72502491D03*
G04 #@! TD*
D22*
G04 #@! TO.C,REF\u002A\u002A*
X156973268Y-73010490D03*
G04 #@! TD*
D20*
G04 #@! TO.C,U4*
X133935268Y-45522991D03*
X132665268Y-45522991D03*
X131395268Y-45522991D03*
X130125268Y-45522991D03*
X130125268Y-50472991D03*
X131395268Y-50472991D03*
X132665268Y-50472991D03*
X133935268Y-50472991D03*
D21*
X132030268Y-47997991D03*
G04 #@! TD*
D18*
G04 #@! TO.C,R8*
X124715268Y-53160991D03*
X124715268Y-55160991D03*
G04 #@! TD*
D17*
G04 #@! TO.C,REF\u002A\u002A*
X133097268Y-69962491D03*
G04 #@! TD*
G04 #@! TO.C,REF\u002A\u002A*
X130557269Y-69962491D03*
G04 #@! TD*
G04 #@! TO.C,REF\u002A\u002A*
X135637268Y-67422491D03*
G04 #@! TD*
G04 #@! TO.C,REF\u002A\u002A*
X138177268Y-69962491D03*
G04 #@! TD*
D24*
G04 #@! TO.C,SW1*
X157005268Y-57298491D03*
X157005268Y-49098492D03*
D25*
X157005268Y-51198491D03*
X157005268Y-53198490D03*
D26*
X157005268Y-55198491D03*
G04 #@! TD*
D17*
G04 #@! TO.C,REF\u002A\u002A*
X128017268Y-72502491D03*
G04 #@! TD*
G04 #@! TO.C,REF\u002A\u002A*
X135637268Y-69962491D03*
G04 #@! TD*
D22*
G04 #@! TO.C,REF\u002A\u002A*
X120143268Y-73010489D03*
G04 #@! TD*
D27*
G04 #@! TO.C,C3*
X151385268Y-55198491D03*
X151385268Y-53123491D03*
G04 #@! TD*
D19*
G04 #@! TO.C,R3*
X131319268Y-55176991D03*
X131319268Y-53176991D03*
G04 #@! TD*
D20*
G04 #@! TO.C,U5*
X124731268Y-45503491D03*
X123461268Y-45503491D03*
X122191268Y-45503491D03*
X120921268Y-45503491D03*
X120921268Y-50453491D03*
X122191268Y-50453491D03*
X123461268Y-50453491D03*
X124731268Y-50453491D03*
D21*
X122826268Y-47978491D03*
G04 #@! TD*
D22*
G04 #@! TO.C,REF\u002A\u002A*
X120143268Y-38720490D03*
G04 #@! TD*
D28*
G04 #@! TO.C,3.7V*
X157593268Y-93402491D03*
D29*
X150693268Y-85202491D03*
X126493268Y-85202491D03*
D30*
X157593268Y-85202491D03*
X119593268Y-85202491D03*
G04 #@! TD*
D31*
G04 #@! TO.C,SW2*
X144019269Y-58024491D03*
D32*
X146559269Y-58024491D03*
X149099268Y-58024491D03*
X149099269Y-65644491D03*
X146559269Y-65644491D03*
X144019269Y-65644491D03*
G04 #@! TD*
D33*
G04 #@! TO.C,D2*
X146051268Y-69691492D03*
X146051268Y-72501492D03*
G04 #@! TD*
D34*
G04 #@! TO.C,D1*
X146305268Y-46589491D03*
D28*
X146305268Y-49129491D03*
G04 #@! TD*
D15*
G04 #@! TO.C,J5*
X124969268Y-72502491D03*
D16*
X124969268Y-69962491D03*
X124969268Y-67422492D03*
G04 #@! TD*
%LPD*%
M02*
