G04 #@! TF.GenerationSoftware,KiCad,Pcbnew,8.0.1*
G04 #@! TF.CreationDate,2024-07-15T10:08:48+02:00*
G04 #@! TF.ProjectId,RGB 2x2 with WS2811,52474220-3278-4322-9077-697468205753,rev?*
G04 #@! TF.SameCoordinates,Original*
G04 #@! TF.FileFunction,Paste,Top*
G04 #@! TF.FilePolarity,Positive*
%FSLAX46Y46*%
G04 Gerber Fmt 4.6, Leading zero omitted, Abs format (unit mm)*
G04 Created by KiCad (PCBNEW 8.0.1) date 2024-07-15 10:08:48*
%MOMM*%
%LPD*%
G01*
G04 APERTURE LIST*
G04 Aperture macros list*
%AMRoundRect*
0 Rectangle with rounded corners*
0 $1 Rounding radius*
0 $2 $3 $4 $5 $6 $7 $8 $9 X,Y pos of 4 corners*
0 Add a 4 corners polygon primitive as box body*
4,1,4,$2,$3,$4,$5,$6,$7,$8,$9,$2,$3,0*
0 Add four circle primitives for the rounded corners*
1,1,$1+$1,$2,$3*
1,1,$1+$1,$4,$5*
1,1,$1+$1,$6,$7*
1,1,$1+$1,$8,$9*
0 Add four rect primitives between the rounded corners*
20,1,$1+$1,$2,$3,$4,$5,0*
20,1,$1+$1,$4,$5,$6,$7,0*
20,1,$1+$1,$6,$7,$8,$9,0*
20,1,$1+$1,$8,$9,$2,$3,0*%
G04 Aperture macros list end*
%ADD10RoundRect,0.250000X-0.475000X0.337500X-0.475000X-0.337500X0.475000X-0.337500X0.475000X0.337500X0*%
%ADD11RoundRect,0.250000X-0.450000X0.350000X-0.450000X-0.350000X0.450000X-0.350000X0.450000X0.350000X0*%
%ADD12RoundRect,0.250000X0.450000X-0.350000X0.450000X0.350000X-0.450000X0.350000X-0.450000X-0.350000X0*%
%ADD13RoundRect,0.232500X-0.232500X0.232500X-0.232500X-0.232500X0.232500X-0.232500X0.232500X0.232500X0*%
%ADD14RoundRect,0.150000X-0.150000X0.825000X-0.150000X-0.825000X0.150000X-0.825000X0.150000X0.825000X0*%
%ADD15RoundRect,0.250000X-0.350000X-0.450000X0.350000X-0.450000X0.350000X0.450000X-0.350000X0.450000X0*%
%ADD16RoundRect,0.250000X0.475000X-0.337500X0.475000X0.337500X-0.475000X0.337500X-0.475000X-0.337500X0*%
G04 APERTURE END LIST*
D10*
G04 #@! TO.C,C4*
X127017268Y-47027491D03*
X127017268Y-49102491D03*
G04 #@! TD*
G04 #@! TO.C,C2*
X145543268Y-53123491D03*
X145543268Y-55198491D03*
G04 #@! TD*
G04 #@! TO.C,C1*
X136161268Y-47027491D03*
X136161268Y-49102491D03*
G04 #@! TD*
D11*
G04 #@! TO.C,R6*
X142241268Y-53160991D03*
X142241268Y-55160991D03*
G04 #@! TD*
D12*
G04 #@! TO.C,R2*
X139955268Y-55160991D03*
X139955268Y-53160991D03*
G04 #@! TD*
D11*
G04 #@! TO.C,R4*
X122191268Y-53144991D03*
X122191268Y-55144991D03*
G04 #@! TD*
D12*
G04 #@! TO.C,R1*
X148845268Y-55198491D03*
X148845268Y-53198491D03*
G04 #@! TD*
D13*
G04 #@! TO.C,U3*
X142257268Y-47444491D03*
X141107268Y-47444491D03*
X142257268Y-48594491D03*
X141107268Y-48594491D03*
D14*
X143587268Y-45544491D03*
X142317268Y-45544491D03*
X141047268Y-45544491D03*
X139777268Y-45544491D03*
X139777268Y-50494491D03*
X141047268Y-50494491D03*
X142317268Y-50494491D03*
X143587268Y-50494491D03*
G04 #@! TD*
D13*
G04 #@! TO.C,U2*
X151401268Y-47356491D03*
X150251268Y-47356491D03*
X151401268Y-48506491D03*
X150251268Y-48506491D03*
D14*
X152731268Y-45456491D03*
X151461268Y-45456491D03*
X150191268Y-45456491D03*
X148921268Y-45456491D03*
X148921268Y-50406491D03*
X150191268Y-50406491D03*
X151461268Y-50406491D03*
X152731268Y-50406491D03*
G04 #@! TD*
D11*
G04 #@! TO.C,R7*
X133859268Y-53160991D03*
X133859268Y-55160991D03*
G04 #@! TD*
D15*
G04 #@! TO.C,R5*
X133621268Y-58278491D03*
X135621268Y-58278491D03*
G04 #@! TD*
D13*
G04 #@! TO.C,U4*
X132605268Y-47422991D03*
X131455268Y-47422991D03*
X132605268Y-48572991D03*
X131455268Y-48572991D03*
D14*
X133935268Y-45522991D03*
X132665268Y-45522991D03*
X131395268Y-45522991D03*
X130125268Y-45522991D03*
X130125268Y-50472991D03*
X131395268Y-50472991D03*
X132665268Y-50472991D03*
X133935268Y-50472991D03*
G04 #@! TD*
D11*
G04 #@! TO.C,R8*
X124715268Y-53160991D03*
X124715268Y-55160991D03*
G04 #@! TD*
D16*
G04 #@! TO.C,C3*
X151385268Y-55198491D03*
X151385268Y-53123491D03*
G04 #@! TD*
D12*
G04 #@! TO.C,R3*
X131319268Y-55176991D03*
X131319268Y-53176991D03*
G04 #@! TD*
D13*
G04 #@! TO.C,U5*
X123401268Y-47403491D03*
X122251268Y-47403491D03*
X123401268Y-48553491D03*
X122251268Y-48553491D03*
D14*
X124731268Y-45503491D03*
X123461268Y-45503491D03*
X122191268Y-45503491D03*
X120921268Y-45503491D03*
X120921268Y-50453491D03*
X122191268Y-50453491D03*
X123461268Y-50453491D03*
X124731268Y-50453491D03*
G04 #@! TD*
M02*
