G04 #@! TF.GenerationSoftware,KiCad,Pcbnew,8.0.1*
G04 #@! TF.CreationDate,2024-07-15T10:08:48+02:00*
G04 #@! TF.ProjectId,RGB 2x2 with WS2811,52474220-3278-4322-9077-697468205753,rev?*
G04 #@! TF.SameCoordinates,Original*
G04 #@! TF.FileFunction,Soldermask,Bot*
G04 #@! TF.FilePolarity,Negative*
%FSLAX46Y46*%
G04 Gerber Fmt 4.6, Leading zero omitted, Abs format (unit mm)*
G04 Created by KiCad (PCBNEW 8.0.1) date 2024-07-15 10:08:48*
%MOMM*%
%LPD*%
G01*
G04 APERTURE LIST*
G04 Aperture macros list*
%AMRoundRect*
0 Rectangle with rounded corners*
0 $1 Rounding radius*
0 $2 $3 $4 $5 $6 $7 $8 $9 X,Y pos of 4 corners*
0 Add a 4 corners polygon primitive as box body*
4,1,4,$2,$3,$4,$5,$6,$7,$8,$9,$2,$3,0*
0 Add four circle primitives for the rounded corners*
1,1,$1+$1,$2,$3*
1,1,$1+$1,$4,$5*
1,1,$1+$1,$6,$7*
1,1,$1+$1,$8,$9*
0 Add four rect primitives between the rounded corners*
20,1,$1+$1,$2,$3,$4,$5,0*
20,1,$1+$1,$4,$5,$6,$7,0*
20,1,$1+$1,$6,$7,$8,$9,0*
20,1,$1+$1,$8,$9,$2,$3,0*%
G04 Aperture macros list end*
%ADD10R,1.700000X1.700000*%
%ADD11O,1.700000X1.700000*%
%ADD12RoundRect,0.425000X0.425000X0.425000X-0.425000X0.425000X-0.425000X-0.425000X0.425000X-0.425000X0*%
%ADD13C,2.200000*%
%ADD14O,3.500000X2.200000*%
%ADD15O,2.500000X1.500000*%
%ADD16R,2.500000X1.500000*%
%ADD17C,1.800000*%
%ADD18C,3.500000*%
%ADD19C,2.600000*%
%ADD20RoundRect,0.150000X-0.587500X-0.150000X0.587500X-0.150000X0.587500X0.150000X-0.587500X0.150000X0*%
%ADD21O,1.998980X2.748280*%
%ADD22O,2.032000X1.016000*%
%ADD23C,1.143000*%
%ADD24RoundRect,0.250000X0.350000X0.450000X-0.350000X0.450000X-0.350000X-0.450000X0.350000X-0.450000X0*%
%ADD25R,1.600000X1.600000*%
%ADD26O,1.600000X1.600000*%
%ADD27RoundRect,0.304347X-0.395653X0.945653X-0.395653X-0.945653X0.395653X-0.945653X0.395653X0.945653X0*%
%ADD28R,1.800000X1.800000*%
G04 APERTURE END LIST*
D10*
G04 #@! TO.C,J1*
X154433269Y-67930489D03*
D11*
X154433269Y-65390489D03*
X154433269Y-62850490D03*
X154433269Y-60310489D03*
G04 #@! TD*
D12*
G04 #@! TO.C,REF\u002A\u002A*
X128017269Y-69962492D03*
G04 #@! TD*
G04 #@! TO.C,REF\u002A\u002A*
X128017269Y-67422491D03*
G04 #@! TD*
G04 #@! TO.C,REF\u002A\u002A*
X130557269Y-67422491D03*
G04 #@! TD*
G04 #@! TO.C,REF\u002A\u002A*
X138177268Y-67422491D03*
G04 #@! TD*
G04 #@! TO.C,REF\u002A\u002A*
X135637267Y-72502491D03*
G04 #@! TD*
G04 #@! TO.C,REF\u002A\u002A*
X133097268Y-67422491D03*
G04 #@! TD*
G04 #@! TO.C,REF\u002A\u002A*
X133097269Y-72502491D03*
G04 #@! TD*
G04 #@! TO.C,REF\u002A\u002A*
X130557268Y-72502491D03*
G04 #@! TD*
D13*
G04 #@! TO.C,REF\u002A\u002A*
X156973269Y-45070490D03*
G04 #@! TD*
D10*
G04 #@! TO.C,J2*
X123953269Y-39990490D03*
D11*
X126493269Y-39990490D03*
X129033268Y-39990490D03*
X131573269Y-39990490D03*
X134113269Y-39990490D03*
X136653269Y-39990490D03*
X139193269Y-39990490D03*
X141733270Y-39990490D03*
X144273269Y-39990490D03*
X146813269Y-39990490D03*
X149353269Y-39990490D03*
X151893268Y-39990490D03*
X154433269Y-39990490D03*
G04 #@! TD*
D12*
G04 #@! TO.C,REF\u002A\u002A*
X138177267Y-72502491D03*
G04 #@! TD*
D13*
G04 #@! TO.C,REF\u002A\u002A*
X156973268Y-73010490D03*
G04 #@! TD*
D12*
G04 #@! TO.C,REF\u002A\u002A*
X133097268Y-69962491D03*
G04 #@! TD*
G04 #@! TO.C,REF\u002A\u002A*
X130557269Y-69962491D03*
G04 #@! TD*
G04 #@! TO.C,REF\u002A\u002A*
X135637268Y-67422491D03*
G04 #@! TD*
G04 #@! TO.C,REF\u002A\u002A*
X138177268Y-69962491D03*
G04 #@! TD*
D14*
G04 #@! TO.C,SW1*
X157005268Y-57298491D03*
X157005268Y-49098492D03*
D15*
X157005268Y-51198491D03*
X157005268Y-53198490D03*
D16*
X157005268Y-55198491D03*
G04 #@! TD*
D12*
G04 #@! TO.C,REF\u002A\u002A*
X128017268Y-72502491D03*
G04 #@! TD*
G04 #@! TO.C,REF\u002A\u002A*
X135637268Y-69962491D03*
G04 #@! TD*
D13*
G04 #@! TO.C,REF\u002A\u002A*
X120143268Y-73010489D03*
G04 #@! TD*
G04 #@! TO.C,REF\u002A\u002A*
X120143268Y-38720490D03*
G04 #@! TD*
D17*
G04 #@! TO.C,3.7V*
X157593268Y-93402491D03*
D18*
X150693268Y-85202491D03*
X126493268Y-85202491D03*
D19*
X157593268Y-85202491D03*
X119593268Y-85202491D03*
G04 #@! TD*
D20*
G04 #@! TO.C,PMOS*
X149177768Y-71599492D03*
X149177768Y-69699492D03*
X151052769Y-70649492D03*
G04 #@! TD*
D21*
G04 #@! TO.C,U1*
X120905268Y-45669931D03*
X123445268Y-45669931D03*
X125985268Y-45669931D03*
X128525268Y-45669931D03*
X131065268Y-45669931D03*
X133605268Y-45669931D03*
X136145268Y-45669931D03*
X136145268Y-61834491D03*
X133605268Y-61834491D03*
X131065268Y-61834491D03*
X128525268Y-61834491D03*
X125985268Y-61834491D03*
X123445268Y-61834491D03*
X120905268Y-61834491D03*
D22*
X137223088Y-52536811D03*
X137223088Y-55086811D03*
D23*
X120218901Y-52535614D03*
X120218901Y-55075614D03*
X122758901Y-52535614D03*
X122758901Y-55075614D03*
G04 #@! TD*
D24*
G04 #@! TO.C,R11*
X147305268Y-44308491D03*
X145305268Y-44308491D03*
G04 #@! TD*
G04 #@! TO.C,R9*
X143495268Y-71740490D03*
X141495268Y-71740490D03*
G04 #@! TD*
D25*
G04 #@! TO.C,SW2*
X144019269Y-58024491D03*
D26*
X146559269Y-58024491D03*
X149099268Y-58024491D03*
X149099269Y-65644491D03*
X146559269Y-65644491D03*
X144019269Y-65644491D03*
G04 #@! TD*
D27*
G04 #@! TO.C,D2*
X146051268Y-69691492D03*
X146051268Y-72501492D03*
G04 #@! TD*
D28*
G04 #@! TO.C,D1*
X146305268Y-46589491D03*
D17*
X146305268Y-49129491D03*
G04 #@! TD*
D10*
G04 #@! TO.C,J5*
X124969268Y-72502491D03*
D11*
X124969268Y-69962491D03*
X124969268Y-67422492D03*
G04 #@! TD*
M02*
