M48
; DRILL file {KiCad 8.0.1} date 2024-07-15T10:08:49+0200
; FORMAT={-:-/ absolute / metric / decimal}
; #@! TF.CreationDate,2024-07-15T10:08:49+02:00
; #@! TF.GenerationSoftware,Kicad,Pcbnew,8.0.1
; #@! TF.FileFunction,Plated,1,2,PTH
FMAT,2
METRIC
; #@! TA.AperFunction,Plated,PTH,ViaDrill
T1C0.300
; #@! TA.AperFunction,Plated,PTH,ComponentDrill
T2C0.700
; #@! TA.AperFunction,Plated,PTH,ComponentDrill
T3C0.800
; #@! TA.AperFunction,Plated,PTH,ComponentDrill
T4C0.900
; #@! TA.AperFunction,Plated,PTH,ComponentDrill
T5C1.000
; #@! TA.AperFunction,Plated,PTH,ComponentDrill
T6C1.500
; #@! TA.AperFunction,Plated,PTH,ComponentDrill
T7C1.600
%
G90
G05
T1
X122.937Y-57.262
X122.937Y-71.232
X129.795Y-48.372
X134.113Y-48.372
X135.129Y-54.976
X135.345Y-60.31
X140.463Y-43.038
X141.479Y-73.772
X142.241Y-65.644
X143.267Y-52.954
X144.273Y-53.706
X144.273Y-55.484
X148.921Y-43.546
X150.877Y-65.644
X151.385Y-58.786
X151.985Y-57.257
T2
X146.051Y-69.191
X146.051Y-73.001
T3
X144.019Y-58.024
X144.019Y-65.644
X146.559Y-58.024
X146.559Y-65.644
X149.099Y-58.024
X149.099Y-65.644
T4
X146.305Y-46.589
X146.305Y-49.129
X157.005Y-51.198
X157.005Y-53.198
X157.005Y-55.198
T5
X123.953Y-39.99
X124.969Y-67.422
X124.969Y-69.962
X124.969Y-72.502
X126.493Y-39.99
X128.017Y-72.502
X128.017Y-67.422
X128.017Y-69.962
X129.033Y-39.99
X130.557Y-72.502
X130.557Y-67.422
X130.557Y-69.962
X131.573Y-39.99
X133.097Y-67.422
X133.097Y-69.962
X133.097Y-72.502
X134.113Y-39.99
X135.637Y-72.502
X135.637Y-67.422
X135.637Y-69.962
X136.653Y-39.99
X138.177Y-72.502
X138.177Y-67.422
X138.177Y-69.962
X139.193Y-39.99
X141.733Y-39.99
X144.273Y-39.99
X146.813Y-39.99
X149.353Y-39.99
X151.893Y-39.99
X154.433Y-39.99
X154.433Y-60.31
X154.433Y-62.85
X154.433Y-65.39
X154.433Y-67.93
T6
X157.005Y-49.098
X157.005Y-57.298
T7
X119.593Y-85.202
X157.593Y-85.202
M30
